%TF.GenerationSoftware,KiCad,Pcbnew,(6.0.8)*%
%TF.CreationDate,2022-11-04T20:36:36+01:00*%
%TF.ProjectId,Power_Meter,506f7765-725f-44d6-9574-65722e6b6963,rev?*%
%TF.SameCoordinates,Original*%
%TF.FileFunction,Copper,L2,Inr*%
%TF.FilePolarity,Positive*%
%FSLAX46Y46*%
G04 Gerber Fmt 4.6, Leading zero omitted, Abs format (unit mm)*
G04 Created by KiCad (PCBNEW (6.0.8)) date 2022-11-04 20:36:36*
%MOMM*%
%LPD*%
G01*
G04 APERTURE LIST*
%TA.AperFunction,ComponentPad*%
%ADD10R,1.700000X1.700000*%
%TD*%
%TA.AperFunction,ComponentPad*%
%ADD11O,1.700000X1.700000*%
%TD*%
%TA.AperFunction,ComponentPad*%
%ADD12R,2.600000X2.600000*%
%TD*%
%TA.AperFunction,ComponentPad*%
%ADD13C,2.600000*%
%TD*%
%TA.AperFunction,ComponentPad*%
%ADD14C,0.500000*%
%TD*%
%TA.AperFunction,ViaPad*%
%ADD15C,0.800000*%
%TD*%
G04 APERTURE END LIST*
D10*
%TO.N,+5V*%
%TO.C,J6*%
X75500000Y-88580000D03*
D11*
%TO.N,Net-(J6-Pad2)*%
X75500000Y-91120000D03*
%TO.N,Net-(J6-Pad3)*%
X75500000Y-93660000D03*
%TO.N,/Current Frontend/I_rms_out*%
X75500000Y-96200000D03*
%TO.N,/Voltage Frontend/V_rms_out*%
X75500000Y-98740000D03*
%TO.N,/Current Frontend/I_phase_out*%
X75500000Y-101280000D03*
%TO.N,/Voltage Frontend/V_phase_out*%
X75500000Y-103820000D03*
%TO.N,unconnected-(J6-Pad8)*%
X75500000Y-106360000D03*
%TO.N,unconnected-(J6-Pad9)*%
X75500000Y-108900000D03*
%TO.N,GND*%
X75500000Y-111440000D03*
%TD*%
D10*
%TO.N,+5V*%
%TO.C,J7*%
X146620000Y-88580000D03*
D11*
%TO.N,+3V3*%
X146620000Y-91120000D03*
%TO.N,-3V3*%
X146620000Y-93660000D03*
%TO.N,unconnected-(J7-Pad4)*%
X146620000Y-96200000D03*
%TO.N,unconnected-(J7-Pad5)*%
X146620000Y-98740000D03*
%TO.N,unconnected-(J7-Pad6)*%
X146620000Y-101280000D03*
%TO.N,unconnected-(J7-Pad7)*%
X146620000Y-103820000D03*
%TO.N,unconnected-(J7-Pad8)*%
X146620000Y-106360000D03*
%TO.N,unconnected-(J7-Pad9)*%
X146620000Y-108900000D03*
%TO.N,GND*%
X146620000Y-111440000D03*
%TD*%
D12*
%TO.N,unconnected-(J4-Pad1)*%
%TO.C,J4*%
X83200000Y-135000000D03*
D13*
%TO.N,L1*%
X88280000Y-135000000D03*
%TO.N,unconnected-(J4-Pad3)*%
X93360000Y-135000000D03*
%TO.N,unconnected-(J4-Pad4)*%
X98440000Y-135000000D03*
%TO.N,L2*%
X103520000Y-135000000D03*
%TO.N,unconnected-(J4-Pad6)*%
X108600000Y-135000000D03*
%TO.N,unconnected-(J4-Pad7)*%
X113680000Y-135000000D03*
%TO.N,L3*%
X118760000Y-135000000D03*
%TO.N,unconnected-(J4-Pad9)*%
X123840000Y-135000000D03*
%TO.N,unconnected-(J4-Pad10)*%
X128920000Y-135000000D03*
%TO.N,N*%
X134000000Y-135000000D03*
%TO.N,unconnected-(J4-Pad12)*%
X139080000Y-135000000D03*
%TD*%
D12*
%TO.N,Net-(J5-Pad1)*%
%TO.C,J5*%
X139085000Y-65000000D03*
D13*
%TO.N,GND*%
X134005000Y-65000000D03*
%TD*%
D14*
%TO.N,GND*%
%TO.C,U8*%
X128377000Y-91756000D03*
X127927000Y-90956000D03*
X127927000Y-92556000D03*
X128827000Y-90956000D03*
X128827000Y-92556000D03*
%TD*%
D15*
%TO.N,GND*%
X91948000Y-101600000D03*
X132568000Y-68261000D03*
X105664000Y-107696000D03*
X139426000Y-79056000D03*
X103594500Y-96524299D03*
X132800500Y-89194500D03*
X97626000Y-84492000D03*
X112268000Y-102362000D03*
X109982000Y-90424000D03*
X89408000Y-106172000D03*
X83647000Y-84155000D03*
X96012000Y-84328000D03*
X135890000Y-91694000D03*
X134346000Y-76516000D03*
X98230634Y-93598842D03*
X129794000Y-88900000D03*
X109728000Y-83820000D03*
X106426000Y-99314000D03*
X98284634Y-95163295D03*
X129286000Y-94234000D03*
X135362000Y-68261000D03*
X112268000Y-90170000D03*
X103632000Y-90015000D03*
X133965000Y-68261000D03*
X129413000Y-83693000D03*
X138430000Y-95250000D03*
X112776000Y-97028000D03*
X139172000Y-83628000D03*
X98229215Y-96751650D03*
X102870000Y-92964000D03*
X89774799Y-108062799D03*
X125741874Y-89938301D03*
X91857906Y-100341287D03*
X114483200Y-95007200D03*
X82296000Y-83820000D03*
X84201000Y-91440000D03*
X139954000Y-97282000D03*
X111252000Y-83820000D03*
X129540000Y-97790000D03*
X84201000Y-92935500D03*
X140442000Y-71944000D03*
X136759000Y-80072000D03*
X105664000Y-108966000D03*
%TO.N,Net-(C4-Pad2)*%
X93472000Y-96266000D03*
%TO.N,Net-(C5-Pad2)*%
X91948000Y-96266000D03*
%TO.N,Net-(C6-Pad2)*%
X89042000Y-92277000D03*
%TO.N,+3V3*%
X92787072Y-95441783D03*
X108458000Y-88010100D03*
X96754256Y-107471887D03*
X141500000Y-87500000D03*
X125984000Y-87376000D03*
X114061073Y-88608318D03*
X94488000Y-100584000D03*
X106252414Y-100567186D03*
X127212500Y-89194500D03*
X102616000Y-102616000D03*
X104648000Y-96012000D03*
X97536000Y-105918000D03*
%TO.N,-3V3*%
X104140000Y-101600000D03*
X107585277Y-94021279D03*
X89662000Y-101092000D03*
X98786000Y-107504000D03*
X118618000Y-91694000D03*
X125984000Y-96012000D03*
X105156000Y-90005500D03*
X91168276Y-95461728D03*
X127234000Y-94296000D03*
%TO.N,Net-(D4-Pad1)*%
X85740000Y-111327000D03*
X137048000Y-103707000D03*
%TO.N,Net-(D5-Pad1)*%
X131968000Y-103707000D03*
X94884000Y-112597000D03*
%TO.N,Net-(D6-Pad1)*%
X110124000Y-112597000D03*
X127142000Y-103707000D03*
%TO.N,Net-(R46-Pad2)*%
X95900000Y-105485000D03*
%TO.N,Net-(R47-Pad2)*%
X95900000Y-109549000D03*
%TO.N,Net-(R48-Pad2)*%
X98892549Y-109613049D03*
%TO.N,Net-(C31-Pad1)*%
X139299000Y-76643000D03*
%TO.N,Net-(C7-Pad1)*%
X94996000Y-99568000D03*
X102108000Y-98806000D03*
%TO.N,Net-(C8-Pad1)*%
X108184000Y-100392000D03*
X108184000Y-102932000D03*
%TO.N,/Current Frontend/I_rms_out*%
X88011000Y-97790000D03*
%TO.N,Net-(U3-Pad3)*%
X102870000Y-98044000D03*
%TO.N,Net-(U3-Pad13)*%
X102175800Y-92015800D03*
%TO.N,/Voltage Frontend/V_phase_out*%
X99695000Y-104648000D03*
X87757000Y-104648000D03*
%TO.N,/Current Frontend/I_phase_out*%
X99060000Y-103505000D03*
X87757000Y-103505000D03*
X102616000Y-89408000D03*
%TO.N,+5V*%
X131064000Y-81534000D03*
%TO.N,Net-(C24-Pad1)*%
X134346000Y-89216000D03*
%TO.N,Net-(C25-Pad1)*%
X133350000Y-94234000D03*
%TD*%
%TA.AperFunction,Conductor*%
%TO.N,GND*%
G36*
X150818121Y-60980002D02*
G01*
X150864614Y-61033658D01*
X150876000Y-61086000D01*
X150876000Y-115444000D01*
X150855998Y-115512121D01*
X150802342Y-115558614D01*
X150750000Y-115570000D01*
X143382000Y-115570000D01*
X143313879Y-115549998D01*
X143267386Y-115496342D01*
X143256000Y-115444000D01*
X143256000Y-111707966D01*
X145288257Y-111707966D01*
X145318565Y-111842446D01*
X145321645Y-111852275D01*
X145401770Y-112049603D01*
X145406413Y-112058794D01*
X145517694Y-112240388D01*
X145523777Y-112248699D01*
X145663213Y-112409667D01*
X145670580Y-112416883D01*
X145834434Y-112552916D01*
X145842881Y-112558831D01*
X146026756Y-112666279D01*
X146036042Y-112670729D01*
X146235001Y-112746703D01*
X146244899Y-112749579D01*
X146348250Y-112770606D01*
X146362299Y-112769410D01*
X146366000Y-112759065D01*
X146366000Y-112758517D01*
X146874000Y-112758517D01*
X146878064Y-112772359D01*
X146891478Y-112774393D01*
X146898184Y-112773534D01*
X146908262Y-112771392D01*
X147112255Y-112710191D01*
X147121842Y-112706433D01*
X147313095Y-112612739D01*
X147321945Y-112607464D01*
X147495328Y-112483792D01*
X147503200Y-112477139D01*
X147654052Y-112326812D01*
X147660730Y-112318965D01*
X147785003Y-112146020D01*
X147790313Y-112137183D01*
X147884670Y-111946267D01*
X147888469Y-111936672D01*
X147950377Y-111732910D01*
X147952555Y-111722837D01*
X147953986Y-111711962D01*
X147951775Y-111697778D01*
X147938617Y-111694000D01*
X146892115Y-111694000D01*
X146876876Y-111698475D01*
X146875671Y-111699865D01*
X146874000Y-111707548D01*
X146874000Y-112758517D01*
X146366000Y-112758517D01*
X146366000Y-111712115D01*
X146361525Y-111696876D01*
X146360135Y-111695671D01*
X146352452Y-111694000D01*
X145303225Y-111694000D01*
X145289694Y-111697973D01*
X145288257Y-111707966D01*
X143256000Y-111707966D01*
X143256000Y-108866695D01*
X145257251Y-108866695D01*
X145257548Y-108871848D01*
X145257548Y-108871851D01*
X145263011Y-108966590D01*
X145270110Y-109089715D01*
X145271247Y-109094761D01*
X145271248Y-109094767D01*
X145288591Y-109171721D01*
X145319222Y-109307639D01*
X145403266Y-109514616D01*
X145454019Y-109597438D01*
X145517261Y-109700639D01*
X145519987Y-109705088D01*
X145666250Y-109873938D01*
X145838126Y-110016632D01*
X145867554Y-110033828D01*
X145911955Y-110059774D01*
X145960679Y-110111412D01*
X145973750Y-110181195D01*
X145947019Y-110246967D01*
X145906562Y-110280327D01*
X145898457Y-110284546D01*
X145889738Y-110290036D01*
X145719433Y-110417905D01*
X145711726Y-110424748D01*
X145564590Y-110578717D01*
X145558104Y-110586727D01*
X145438098Y-110762649D01*
X145433000Y-110771623D01*
X145343338Y-110964783D01*
X145339775Y-110974470D01*
X145284389Y-111174183D01*
X145285912Y-111182607D01*
X145298292Y-111186000D01*
X147938344Y-111186000D01*
X147951875Y-111182027D01*
X147953180Y-111172947D01*
X147911214Y-111005875D01*
X147907894Y-110996124D01*
X147822972Y-110800814D01*
X147818105Y-110791739D01*
X147702426Y-110612926D01*
X147696136Y-110604757D01*
X147552806Y-110447240D01*
X147545273Y-110440215D01*
X147378139Y-110308222D01*
X147369556Y-110302520D01*
X147332602Y-110282120D01*
X147282631Y-110231687D01*
X147267859Y-110162245D01*
X147292975Y-110095839D01*
X147320327Y-110069232D01*
X147369962Y-110033828D01*
X147499860Y-109941173D01*
X147658096Y-109783489D01*
X147717594Y-109700689D01*
X147785435Y-109606277D01*
X147788453Y-109602077D01*
X147804052Y-109570516D01*
X147885136Y-109406453D01*
X147885137Y-109406451D01*
X147887430Y-109401811D01*
X147934229Y-109247778D01*
X147950865Y-109193023D01*
X147950865Y-109193021D01*
X147952370Y-109188069D01*
X147981529Y-108966590D01*
X147983156Y-108900000D01*
X147964852Y-108677361D01*
X147910431Y-108460702D01*
X147821354Y-108255840D01*
X147700014Y-108068277D01*
X147549670Y-107903051D01*
X147545619Y-107899852D01*
X147545615Y-107899848D01*
X147378414Y-107767800D01*
X147378410Y-107767798D01*
X147374359Y-107764598D01*
X147333053Y-107741796D01*
X147283084Y-107691364D01*
X147268312Y-107621921D01*
X147293428Y-107555516D01*
X147320780Y-107528909D01*
X147364905Y-107497435D01*
X147499860Y-107401173D01*
X147658096Y-107243489D01*
X147717594Y-107160689D01*
X147785435Y-107066277D01*
X147788453Y-107062077D01*
X147887430Y-106861811D01*
X147919900Y-106754940D01*
X147950865Y-106653023D01*
X147950865Y-106653021D01*
X147952370Y-106648069D01*
X147981529Y-106426590D01*
X147981611Y-106423240D01*
X147983074Y-106363365D01*
X147983074Y-106363361D01*
X147983156Y-106360000D01*
X147964852Y-106137361D01*
X147910431Y-105920702D01*
X147821354Y-105715840D01*
X147781906Y-105654862D01*
X147702822Y-105532617D01*
X147702820Y-105532614D01*
X147700014Y-105528277D01*
X147549670Y-105363051D01*
X147545619Y-105359852D01*
X147545615Y-105359848D01*
X147378414Y-105227800D01*
X147378410Y-105227798D01*
X147374359Y-105224598D01*
X147333053Y-105201796D01*
X147283084Y-105151364D01*
X147268312Y-105081921D01*
X147293428Y-105015516D01*
X147320780Y-104988909D01*
X147378054Y-104948056D01*
X147499860Y-104861173D01*
X147516887Y-104844206D01*
X147654435Y-104707137D01*
X147658096Y-104703489D01*
X147717594Y-104620689D01*
X147785435Y-104526277D01*
X147788453Y-104522077D01*
X147804052Y-104490516D01*
X147885136Y-104326453D01*
X147885137Y-104326451D01*
X147887430Y-104321811D01*
X147952370Y-104108069D01*
X147981529Y-103886590D01*
X147983156Y-103820000D01*
X147964852Y-103597361D01*
X147910431Y-103380702D01*
X147821354Y-103175840D01*
X147700014Y-102988277D01*
X147549670Y-102823051D01*
X147545619Y-102819852D01*
X147545615Y-102819848D01*
X147378414Y-102687800D01*
X147378410Y-102687798D01*
X147374359Y-102684598D01*
X147333053Y-102661796D01*
X147283084Y-102611364D01*
X147268312Y-102541921D01*
X147293428Y-102475516D01*
X147320780Y-102448909D01*
X147388263Y-102400774D01*
X147499860Y-102321173D01*
X147658096Y-102163489D01*
X147677171Y-102136944D01*
X147785435Y-101986277D01*
X147788453Y-101982077D01*
X147790825Y-101977279D01*
X147885136Y-101786453D01*
X147885137Y-101786451D01*
X147887430Y-101781811D01*
X147952370Y-101568069D01*
X147981529Y-101346590D01*
X147983156Y-101280000D01*
X147964852Y-101057361D01*
X147910431Y-100840702D01*
X147821354Y-100635840D01*
X147772693Y-100560621D01*
X147702822Y-100452617D01*
X147702820Y-100452614D01*
X147700014Y-100448277D01*
X147549670Y-100283051D01*
X147545619Y-100279852D01*
X147545615Y-100279848D01*
X147378414Y-100147800D01*
X147378410Y-100147798D01*
X147374359Y-100144598D01*
X147333053Y-100121796D01*
X147283084Y-100071364D01*
X147268312Y-100001921D01*
X147293428Y-99935516D01*
X147320780Y-99908909D01*
X147388263Y-99860774D01*
X147499860Y-99781173D01*
X147507678Y-99773383D01*
X147654435Y-99627137D01*
X147658096Y-99623489D01*
X147677046Y-99597118D01*
X147785435Y-99446277D01*
X147788453Y-99442077D01*
X147816843Y-99384635D01*
X147885136Y-99246453D01*
X147885137Y-99246451D01*
X147887430Y-99241811D01*
X147952370Y-99028069D01*
X147981529Y-98806590D01*
X147982255Y-98776882D01*
X147983074Y-98743365D01*
X147983074Y-98743361D01*
X147983156Y-98740000D01*
X147964852Y-98517361D01*
X147910431Y-98300702D01*
X147821354Y-98095840D01*
X147718729Y-97937206D01*
X147702822Y-97912617D01*
X147702820Y-97912614D01*
X147700014Y-97908277D01*
X147549670Y-97743051D01*
X147545619Y-97739852D01*
X147545615Y-97739848D01*
X147378414Y-97607800D01*
X147378410Y-97607798D01*
X147374359Y-97604598D01*
X147333053Y-97581796D01*
X147283084Y-97531364D01*
X147268312Y-97461921D01*
X147293428Y-97395516D01*
X147320780Y-97368909D01*
X147364603Y-97337650D01*
X147499860Y-97241173D01*
X147658096Y-97083489D01*
X147677046Y-97057118D01*
X147785435Y-96906277D01*
X147788453Y-96902077D01*
X147817059Y-96844198D01*
X147885136Y-96706453D01*
X147885137Y-96706451D01*
X147887430Y-96701811D01*
X147952370Y-96488069D01*
X147981529Y-96266590D01*
X147983156Y-96200000D01*
X147964852Y-95977361D01*
X147910431Y-95760702D01*
X147821354Y-95555840D01*
X147771491Y-95478763D01*
X147702822Y-95372617D01*
X147702820Y-95372614D01*
X147700014Y-95368277D01*
X147549670Y-95203051D01*
X147545619Y-95199852D01*
X147545615Y-95199848D01*
X147378414Y-95067800D01*
X147378410Y-95067798D01*
X147374359Y-95064598D01*
X147333053Y-95041796D01*
X147283084Y-94991364D01*
X147268312Y-94921921D01*
X147293428Y-94855516D01*
X147320780Y-94828909D01*
X147364603Y-94797650D01*
X147499860Y-94701173D01*
X147526636Y-94674491D01*
X147602119Y-94599271D01*
X147658096Y-94543489D01*
X147717594Y-94460689D01*
X147785435Y-94366277D01*
X147788453Y-94362077D01*
X147817866Y-94302565D01*
X147885136Y-94166453D01*
X147885137Y-94166451D01*
X147887430Y-94161811D01*
X147952370Y-93948069D01*
X147981529Y-93726590D01*
X147983156Y-93660000D01*
X147964852Y-93437361D01*
X147910431Y-93220702D01*
X147821354Y-93015840D01*
X147760882Y-92922365D01*
X147702822Y-92832617D01*
X147702820Y-92832614D01*
X147700014Y-92828277D01*
X147549670Y-92663051D01*
X147545619Y-92659852D01*
X147545615Y-92659848D01*
X147378414Y-92527800D01*
X147378410Y-92527798D01*
X147374359Y-92524598D01*
X147333053Y-92501796D01*
X147283084Y-92451364D01*
X147268312Y-92381921D01*
X147293428Y-92315516D01*
X147320780Y-92288909D01*
X147364603Y-92257650D01*
X147499860Y-92161173D01*
X147658096Y-92003489D01*
X147717594Y-91920689D01*
X147785435Y-91826277D01*
X147788453Y-91822077D01*
X147816376Y-91765580D01*
X147885136Y-91626453D01*
X147885137Y-91626451D01*
X147887430Y-91621811D01*
X147952370Y-91408069D01*
X147981529Y-91186590D01*
X147982530Y-91145634D01*
X147983074Y-91123365D01*
X147983074Y-91123361D01*
X147983156Y-91120000D01*
X147964852Y-90897361D01*
X147910431Y-90680702D01*
X147821354Y-90475840D01*
X147753382Y-90370771D01*
X147702822Y-90292617D01*
X147702820Y-90292614D01*
X147700014Y-90288277D01*
X147696532Y-90284450D01*
X147552798Y-90126488D01*
X147521746Y-90062642D01*
X147530141Y-89992143D01*
X147575317Y-89937375D01*
X147601761Y-89923706D01*
X147708297Y-89883767D01*
X147716705Y-89880615D01*
X147833261Y-89793261D01*
X147920615Y-89676705D01*
X147971745Y-89540316D01*
X147978500Y-89478134D01*
X147978500Y-87681866D01*
X147971745Y-87619684D01*
X147920615Y-87483295D01*
X147833261Y-87366739D01*
X147716705Y-87279385D01*
X147580316Y-87228255D01*
X147518134Y-87221500D01*
X145721866Y-87221500D01*
X145659684Y-87228255D01*
X145523295Y-87279385D01*
X145406739Y-87366739D01*
X145319385Y-87483295D01*
X145268255Y-87619684D01*
X145261500Y-87681866D01*
X145261500Y-89478134D01*
X145268255Y-89540316D01*
X145319385Y-89676705D01*
X145406739Y-89793261D01*
X145523295Y-89880615D01*
X145531704Y-89883767D01*
X145531705Y-89883768D01*
X145640451Y-89924535D01*
X145697216Y-89967176D01*
X145721916Y-90033738D01*
X145706709Y-90103087D01*
X145687316Y-90129568D01*
X145609500Y-90210998D01*
X145560629Y-90262138D01*
X145434743Y-90446680D01*
X145419003Y-90480590D01*
X145348041Y-90633465D01*
X145340688Y-90649305D01*
X145280989Y-90864570D01*
X145257251Y-91086695D01*
X145257548Y-91091848D01*
X145257548Y-91091851D01*
X145268499Y-91281772D01*
X145270110Y-91309715D01*
X145271247Y-91314761D01*
X145271248Y-91314767D01*
X145274395Y-91328729D01*
X145319222Y-91527639D01*
X145364246Y-91638521D01*
X145397917Y-91721442D01*
X145403266Y-91734616D01*
X145417064Y-91757132D01*
X145511801Y-91911729D01*
X145519987Y-91925088D01*
X145666250Y-92093938D01*
X145838126Y-92236632D01*
X145895973Y-92270435D01*
X145911445Y-92279476D01*
X145960169Y-92331114D01*
X145973240Y-92400897D01*
X145946509Y-92466669D01*
X145906055Y-92500027D01*
X145893607Y-92506507D01*
X145889474Y-92509610D01*
X145889471Y-92509612D01*
X145816812Y-92564166D01*
X145714965Y-92640635D01*
X145560629Y-92802138D01*
X145434743Y-92986680D01*
X145340688Y-93189305D01*
X145280989Y-93404570D01*
X145257251Y-93626695D01*
X145257548Y-93631848D01*
X145257548Y-93631851D01*
X145263011Y-93726590D01*
X145270110Y-93849715D01*
X145271247Y-93854761D01*
X145271248Y-93854767D01*
X145291119Y-93942939D01*
X145319222Y-94067639D01*
X145403266Y-94274616D01*
X145405965Y-94279020D01*
X145479218Y-94398558D01*
X145519987Y-94465088D01*
X145666250Y-94633938D01*
X145742846Y-94697529D01*
X145827522Y-94767828D01*
X145838126Y-94776632D01*
X145857192Y-94787773D01*
X145911445Y-94819476D01*
X145960169Y-94871114D01*
X145973240Y-94940897D01*
X145946509Y-95006669D01*
X145906055Y-95040027D01*
X145893607Y-95046507D01*
X145889474Y-95049610D01*
X145889471Y-95049612D01*
X145719100Y-95177530D01*
X145714965Y-95180635D01*
X145560629Y-95342138D01*
X145434743Y-95526680D01*
X145419003Y-95560590D01*
X145343082Y-95724148D01*
X145340688Y-95729305D01*
X145280989Y-95944570D01*
X145257251Y-96166695D01*
X145257548Y-96171848D01*
X145257548Y-96171851D01*
X145262977Y-96266000D01*
X145270110Y-96389715D01*
X145271247Y-96394761D01*
X145271248Y-96394767D01*
X145281697Y-96441129D01*
X145319222Y-96607639D01*
X145357461Y-96701811D01*
X145398527Y-96802944D01*
X145403266Y-96814616D01*
X145405965Y-96819020D01*
X145514539Y-96996197D01*
X145519987Y-97005088D01*
X145666250Y-97173938D01*
X145838126Y-97316632D01*
X145908595Y-97357811D01*
X145911445Y-97359476D01*
X145960169Y-97411114D01*
X145973240Y-97480897D01*
X145946509Y-97546669D01*
X145906055Y-97580027D01*
X145893607Y-97586507D01*
X145889474Y-97589610D01*
X145889471Y-97589612D01*
X145719100Y-97717530D01*
X145714965Y-97720635D01*
X145711393Y-97724373D01*
X145587450Y-97854072D01*
X145560629Y-97882138D01*
X145557715Y-97886410D01*
X145557714Y-97886411D01*
X145498398Y-97973365D01*
X145434743Y-98066680D01*
X145419003Y-98100590D01*
X145343082Y-98264148D01*
X145340688Y-98269305D01*
X145280989Y-98484570D01*
X145257251Y-98706695D01*
X145257548Y-98711848D01*
X145257548Y-98711851D01*
X145262977Y-98806000D01*
X145270110Y-98929715D01*
X145271247Y-98934761D01*
X145271248Y-98934767D01*
X145293392Y-99033023D01*
X145319222Y-99147639D01*
X145357461Y-99241811D01*
X145398527Y-99342944D01*
X145403266Y-99354616D01*
X145405965Y-99359020D01*
X145506578Y-99523206D01*
X145519987Y-99545088D01*
X145666250Y-99713938D01*
X145838126Y-99856632D01*
X145885709Y-99884437D01*
X145911445Y-99899476D01*
X145960169Y-99951114D01*
X145973240Y-100020897D01*
X145946509Y-100086669D01*
X145906055Y-100120027D01*
X145893607Y-100126507D01*
X145889474Y-100129610D01*
X145889471Y-100129612D01*
X145719100Y-100257530D01*
X145714965Y-100260635D01*
X145711393Y-100264373D01*
X145587450Y-100394072D01*
X145560629Y-100422138D01*
X145434743Y-100606680D01*
X145419003Y-100640590D01*
X145367961Y-100750551D01*
X145340688Y-100809305D01*
X145280989Y-101024570D01*
X145257251Y-101246695D01*
X145257548Y-101251848D01*
X145257548Y-101251851D01*
X145263011Y-101346590D01*
X145270110Y-101469715D01*
X145271247Y-101474761D01*
X145271248Y-101474767D01*
X145291119Y-101562939D01*
X145319222Y-101687639D01*
X145403266Y-101894616D01*
X145442174Y-101958109D01*
X145516291Y-102079056D01*
X145519987Y-102085088D01*
X145666250Y-102253938D01*
X145838126Y-102396632D01*
X145877763Y-102419794D01*
X145911445Y-102439476D01*
X145960169Y-102491114D01*
X145973240Y-102560897D01*
X145946509Y-102626669D01*
X145906055Y-102660027D01*
X145893607Y-102666507D01*
X145889474Y-102669610D01*
X145889471Y-102669612D01*
X145719100Y-102797530D01*
X145714965Y-102800635D01*
X145696605Y-102819848D01*
X145589430Y-102932000D01*
X145560629Y-102962138D01*
X145434743Y-103146680D01*
X145419003Y-103180590D01*
X145359493Y-103308794D01*
X145340688Y-103349305D01*
X145280989Y-103564570D01*
X145257251Y-103786695D01*
X145257548Y-103791848D01*
X145257548Y-103791851D01*
X145263011Y-103886590D01*
X145270110Y-104009715D01*
X145271247Y-104014761D01*
X145271248Y-104014767D01*
X145293392Y-104113023D01*
X145319222Y-104227639D01*
X145403266Y-104434616D01*
X145442180Y-104498118D01*
X145517261Y-104620639D01*
X145519987Y-104625088D01*
X145666250Y-104793938D01*
X145838126Y-104936632D01*
X145849277Y-104943148D01*
X145911445Y-104979476D01*
X145960169Y-105031114D01*
X145973240Y-105100897D01*
X145946509Y-105166669D01*
X145906055Y-105200027D01*
X145893607Y-105206507D01*
X145889474Y-105209610D01*
X145889471Y-105209612D01*
X145725865Y-105332451D01*
X145714965Y-105340635D01*
X145711393Y-105344373D01*
X145618287Y-105441803D01*
X145560629Y-105502138D01*
X145557715Y-105506410D01*
X145557714Y-105506411D01*
X145526118Y-105552729D01*
X145434743Y-105686680D01*
X145419003Y-105720590D01*
X145355890Y-105856556D01*
X145340688Y-105889305D01*
X145280989Y-106104570D01*
X145257251Y-106326695D01*
X145257548Y-106331848D01*
X145257548Y-106331851D01*
X145264316Y-106449226D01*
X145270110Y-106549715D01*
X145271247Y-106554761D01*
X145271248Y-106554767D01*
X145289982Y-106637892D01*
X145319222Y-106767639D01*
X145403266Y-106974616D01*
X145519987Y-107165088D01*
X145666250Y-107333938D01*
X145838126Y-107476632D01*
X145873726Y-107497435D01*
X145911445Y-107519476D01*
X145960169Y-107571114D01*
X145973240Y-107640897D01*
X145946509Y-107706669D01*
X145906055Y-107740027D01*
X145893607Y-107746507D01*
X145889474Y-107749610D01*
X145889471Y-107749612D01*
X145719100Y-107877530D01*
X145714965Y-107880635D01*
X145560629Y-108042138D01*
X145434743Y-108226680D01*
X145419683Y-108259124D01*
X145348489Y-108412500D01*
X145340688Y-108429305D01*
X145280989Y-108644570D01*
X145257251Y-108866695D01*
X143256000Y-108866695D01*
X143256000Y-102362000D01*
X124206000Y-102362000D01*
X124206000Y-111634000D01*
X124185998Y-111702121D01*
X124132342Y-111748614D01*
X124080000Y-111760000D01*
X110504482Y-111760000D01*
X110453234Y-111749107D01*
X110412323Y-111730892D01*
X110412315Y-111730889D01*
X110406288Y-111728206D01*
X110309100Y-111707548D01*
X110225944Y-111689872D01*
X110225939Y-111689872D01*
X110219487Y-111688500D01*
X110028513Y-111688500D01*
X110022061Y-111689872D01*
X110022056Y-111689872D01*
X109938900Y-111707548D01*
X109841712Y-111728206D01*
X109835685Y-111730889D01*
X109835677Y-111730892D01*
X109794766Y-111749107D01*
X109743518Y-111760000D01*
X95264482Y-111760000D01*
X95213234Y-111749107D01*
X95172323Y-111730892D01*
X95172315Y-111730889D01*
X95166288Y-111728206D01*
X95069100Y-111707548D01*
X94985944Y-111689872D01*
X94985939Y-111689872D01*
X94979487Y-111688500D01*
X94788513Y-111688500D01*
X94782061Y-111689872D01*
X94782056Y-111689872D01*
X94698900Y-111707548D01*
X94601712Y-111728206D01*
X94595685Y-111730889D01*
X94595677Y-111730892D01*
X94554766Y-111749107D01*
X94503518Y-111760000D01*
X86727987Y-111760000D01*
X86659866Y-111739998D01*
X86613373Y-111686342D01*
X86603269Y-111616068D01*
X86608154Y-111595064D01*
X86631502Y-111523206D01*
X86631503Y-111523203D01*
X86633542Y-111516928D01*
X86653504Y-111327000D01*
X86646822Y-111263427D01*
X86634232Y-111143635D01*
X86634232Y-111143633D01*
X86633542Y-111137072D01*
X86574527Y-110955444D01*
X86479040Y-110790056D01*
X86461390Y-110770453D01*
X86355675Y-110653045D01*
X86355674Y-110653044D01*
X86351253Y-110648134D01*
X86196752Y-110535882D01*
X86190724Y-110533198D01*
X86190722Y-110533197D01*
X86028319Y-110460891D01*
X86028318Y-110460891D01*
X86022288Y-110458206D01*
X85928887Y-110438353D01*
X85841944Y-110419872D01*
X85841939Y-110419872D01*
X85835487Y-110418500D01*
X85644513Y-110418500D01*
X85638061Y-110419872D01*
X85638056Y-110419872D01*
X85551113Y-110438353D01*
X85457712Y-110458206D01*
X85451682Y-110460891D01*
X85451681Y-110460891D01*
X85289278Y-110533197D01*
X85289276Y-110533198D01*
X85283248Y-110535882D01*
X85128747Y-110648134D01*
X85124326Y-110653044D01*
X85124325Y-110653045D01*
X85018611Y-110770453D01*
X85000960Y-110790056D01*
X84905473Y-110955444D01*
X84846458Y-111137072D01*
X84845768Y-111143633D01*
X84845768Y-111143635D01*
X84833178Y-111263427D01*
X84826496Y-111327000D01*
X84846458Y-111516928D01*
X84880900Y-111622929D01*
X84882928Y-111693895D01*
X84856291Y-111744377D01*
X84842753Y-111760000D01*
X84836000Y-111760000D01*
X84836000Y-115444000D01*
X84815998Y-115512121D01*
X84762342Y-115558614D01*
X84710000Y-115570000D01*
X70992000Y-115570000D01*
X70923879Y-115549998D01*
X70877386Y-115496342D01*
X70866000Y-115444000D01*
X70866000Y-111707966D01*
X74168257Y-111707966D01*
X74198565Y-111842446D01*
X74201645Y-111852275D01*
X74281770Y-112049603D01*
X74286413Y-112058794D01*
X74397694Y-112240388D01*
X74403777Y-112248699D01*
X74543213Y-112409667D01*
X74550580Y-112416883D01*
X74714434Y-112552916D01*
X74722881Y-112558831D01*
X74906756Y-112666279D01*
X74916042Y-112670729D01*
X75115001Y-112746703D01*
X75124899Y-112749579D01*
X75228250Y-112770606D01*
X75242299Y-112769410D01*
X75246000Y-112759065D01*
X75246000Y-112758517D01*
X75754000Y-112758517D01*
X75758064Y-112772359D01*
X75771478Y-112774393D01*
X75778184Y-112773534D01*
X75788262Y-112771392D01*
X75992255Y-112710191D01*
X76001842Y-112706433D01*
X76193095Y-112612739D01*
X76201945Y-112607464D01*
X76375328Y-112483792D01*
X76383200Y-112477139D01*
X76534052Y-112326812D01*
X76540730Y-112318965D01*
X76665003Y-112146020D01*
X76670313Y-112137183D01*
X76764670Y-111946267D01*
X76768469Y-111936672D01*
X76830377Y-111732910D01*
X76832555Y-111722837D01*
X76833986Y-111711962D01*
X76831775Y-111697778D01*
X76818617Y-111694000D01*
X75772115Y-111694000D01*
X75756876Y-111698475D01*
X75755671Y-111699865D01*
X75754000Y-111707548D01*
X75754000Y-112758517D01*
X75246000Y-112758517D01*
X75246000Y-111712115D01*
X75241525Y-111696876D01*
X75240135Y-111695671D01*
X75232452Y-111694000D01*
X74183225Y-111694000D01*
X74169694Y-111697973D01*
X74168257Y-111707966D01*
X70866000Y-111707966D01*
X70866000Y-108866695D01*
X74137251Y-108866695D01*
X74137548Y-108871848D01*
X74137548Y-108871851D01*
X74143011Y-108966590D01*
X74150110Y-109089715D01*
X74151247Y-109094761D01*
X74151248Y-109094767D01*
X74168591Y-109171721D01*
X74199222Y-109307639D01*
X74283266Y-109514616D01*
X74334019Y-109597438D01*
X74397261Y-109700639D01*
X74399987Y-109705088D01*
X74546250Y-109873938D01*
X74718126Y-110016632D01*
X74747554Y-110033828D01*
X74791955Y-110059774D01*
X74840679Y-110111412D01*
X74853750Y-110181195D01*
X74827019Y-110246967D01*
X74786562Y-110280327D01*
X74778457Y-110284546D01*
X74769738Y-110290036D01*
X74599433Y-110417905D01*
X74591726Y-110424748D01*
X74444590Y-110578717D01*
X74438104Y-110586727D01*
X74318098Y-110762649D01*
X74313000Y-110771623D01*
X74223338Y-110964783D01*
X74219775Y-110974470D01*
X74164389Y-111174183D01*
X74165912Y-111182607D01*
X74178292Y-111186000D01*
X76818344Y-111186000D01*
X76831875Y-111182027D01*
X76833180Y-111172947D01*
X76791214Y-111005875D01*
X76787894Y-110996124D01*
X76702972Y-110800814D01*
X76698105Y-110791739D01*
X76582426Y-110612926D01*
X76576136Y-110604757D01*
X76432806Y-110447240D01*
X76425273Y-110440215D01*
X76258139Y-110308222D01*
X76249556Y-110302520D01*
X76212602Y-110282120D01*
X76162631Y-110231687D01*
X76147859Y-110162245D01*
X76172975Y-110095839D01*
X76200327Y-110069232D01*
X76249962Y-110033828D01*
X76379860Y-109941173D01*
X76538096Y-109783489D01*
X76597594Y-109700689D01*
X76665435Y-109606277D01*
X76668453Y-109602077D01*
X76684052Y-109570516D01*
X76694686Y-109549000D01*
X94986496Y-109549000D01*
X94987186Y-109555565D01*
X95003275Y-109708639D01*
X95006458Y-109738928D01*
X95065473Y-109920556D01*
X95160960Y-110085944D01*
X95165378Y-110090851D01*
X95165379Y-110090852D01*
X95284325Y-110222955D01*
X95288747Y-110227866D01*
X95443248Y-110340118D01*
X95449276Y-110342802D01*
X95449278Y-110342803D01*
X95605711Y-110412451D01*
X95617712Y-110417794D01*
X95711113Y-110437647D01*
X95798056Y-110456128D01*
X95798061Y-110456128D01*
X95804513Y-110457500D01*
X95995487Y-110457500D01*
X96001939Y-110456128D01*
X96001944Y-110456128D01*
X96088888Y-110437647D01*
X96182288Y-110417794D01*
X96194289Y-110412451D01*
X96350722Y-110342803D01*
X96350724Y-110342802D01*
X96356752Y-110340118D01*
X96511253Y-110227866D01*
X96515675Y-110222955D01*
X96634621Y-110090852D01*
X96634622Y-110090851D01*
X96639040Y-110085944D01*
X96734527Y-109920556D01*
X96793542Y-109738928D01*
X96796726Y-109708639D01*
X96806772Y-109613049D01*
X97979045Y-109613049D01*
X97979735Y-109619614D01*
X97996518Y-109779292D01*
X97999007Y-109802977D01*
X98058022Y-109984605D01*
X98153509Y-110149993D01*
X98157927Y-110154900D01*
X98157928Y-110154901D01*
X98274661Y-110284546D01*
X98281296Y-110291915D01*
X98435797Y-110404167D01*
X98441825Y-110406851D01*
X98441827Y-110406852D01*
X98604230Y-110479158D01*
X98610261Y-110481843D01*
X98703662Y-110501696D01*
X98790605Y-110520177D01*
X98790610Y-110520177D01*
X98797062Y-110521549D01*
X98988036Y-110521549D01*
X98994488Y-110520177D01*
X98994493Y-110520177D01*
X99081436Y-110501696D01*
X99174837Y-110481843D01*
X99180868Y-110479158D01*
X99343271Y-110406852D01*
X99343273Y-110406851D01*
X99349301Y-110404167D01*
X99503802Y-110291915D01*
X99510437Y-110284546D01*
X99627170Y-110154901D01*
X99627171Y-110154900D01*
X99631589Y-110149993D01*
X99727076Y-109984605D01*
X99786091Y-109802977D01*
X99788581Y-109779292D01*
X99805363Y-109619614D01*
X99806053Y-109613049D01*
X99796170Y-109519020D01*
X99786781Y-109429684D01*
X99786781Y-109429682D01*
X99786091Y-109423121D01*
X99727076Y-109241493D01*
X99631589Y-109076105D01*
X99503802Y-108934183D01*
X99349301Y-108821931D01*
X99343273Y-108819247D01*
X99343271Y-108819246D01*
X99180868Y-108746940D01*
X99180867Y-108746940D01*
X99174837Y-108744255D01*
X99081437Y-108724402D01*
X98994493Y-108705921D01*
X98994488Y-108705921D01*
X98988036Y-108704549D01*
X98797062Y-108704549D01*
X98790610Y-108705921D01*
X98790605Y-108705921D01*
X98703661Y-108724402D01*
X98610261Y-108744255D01*
X98604231Y-108746940D01*
X98604230Y-108746940D01*
X98441827Y-108819246D01*
X98441825Y-108819247D01*
X98435797Y-108821931D01*
X98281296Y-108934183D01*
X98153509Y-109076105D01*
X98058022Y-109241493D01*
X97999007Y-109423121D01*
X97998317Y-109429682D01*
X97998317Y-109429684D01*
X97988928Y-109519020D01*
X97979045Y-109613049D01*
X96806772Y-109613049D01*
X96812814Y-109555565D01*
X96813504Y-109549000D01*
X96803927Y-109457882D01*
X96794232Y-109365635D01*
X96794232Y-109365633D01*
X96793542Y-109359072D01*
X96734527Y-109177444D01*
X96639040Y-109012056D01*
X96538145Y-108900000D01*
X96515675Y-108875045D01*
X96515674Y-108875044D01*
X96511253Y-108870134D01*
X96356752Y-108757882D01*
X96350724Y-108755198D01*
X96350722Y-108755197D01*
X96188319Y-108682891D01*
X96188318Y-108682891D01*
X96182288Y-108680206D01*
X96088887Y-108660353D01*
X96001944Y-108641872D01*
X96001939Y-108641872D01*
X95995487Y-108640500D01*
X95804513Y-108640500D01*
X95798061Y-108641872D01*
X95798056Y-108641872D01*
X95711113Y-108660353D01*
X95617712Y-108680206D01*
X95611682Y-108682891D01*
X95611681Y-108682891D01*
X95449278Y-108755197D01*
X95449276Y-108755198D01*
X95443248Y-108757882D01*
X95288747Y-108870134D01*
X95284326Y-108875044D01*
X95284325Y-108875045D01*
X95261856Y-108900000D01*
X95160960Y-109012056D01*
X95065473Y-109177444D01*
X95006458Y-109359072D01*
X95005768Y-109365633D01*
X95005768Y-109365635D01*
X94996073Y-109457882D01*
X94986496Y-109549000D01*
X76694686Y-109549000D01*
X76765136Y-109406453D01*
X76765137Y-109406451D01*
X76767430Y-109401811D01*
X76814229Y-109247778D01*
X76830865Y-109193023D01*
X76830865Y-109193021D01*
X76832370Y-109188069D01*
X76861529Y-108966590D01*
X76863156Y-108900000D01*
X76844852Y-108677361D01*
X76790431Y-108460702D01*
X76701354Y-108255840D01*
X76580014Y-108068277D01*
X76429670Y-107903051D01*
X76425619Y-107899852D01*
X76425615Y-107899848D01*
X76258414Y-107767800D01*
X76258410Y-107767798D01*
X76254359Y-107764598D01*
X76213053Y-107741796D01*
X76163084Y-107691364D01*
X76148312Y-107621921D01*
X76173428Y-107555516D01*
X76200780Y-107528909D01*
X76244905Y-107497435D01*
X76379860Y-107401173D01*
X76538096Y-107243489D01*
X76597594Y-107160689D01*
X76665435Y-107066277D01*
X76668453Y-107062077D01*
X76767430Y-106861811D01*
X76799900Y-106754940D01*
X76830865Y-106653023D01*
X76830865Y-106653021D01*
X76832370Y-106648069D01*
X76861529Y-106426590D01*
X76861611Y-106423240D01*
X76863074Y-106363365D01*
X76863074Y-106363361D01*
X76863156Y-106360000D01*
X76844852Y-106137361D01*
X76790431Y-105920702D01*
X76701354Y-105715840D01*
X76661906Y-105654862D01*
X76582822Y-105532617D01*
X76582820Y-105532614D01*
X76580014Y-105528277D01*
X76429670Y-105363051D01*
X76425619Y-105359852D01*
X76425615Y-105359848D01*
X76258414Y-105227800D01*
X76258410Y-105227798D01*
X76254359Y-105224598D01*
X76213053Y-105201796D01*
X76163084Y-105151364D01*
X76148312Y-105081921D01*
X76173428Y-105015516D01*
X76200780Y-104988909D01*
X76258054Y-104948056D01*
X76379860Y-104861173D01*
X76396887Y-104844206D01*
X76534435Y-104707137D01*
X76538096Y-104703489D01*
X76577969Y-104648000D01*
X86843496Y-104648000D01*
X86844186Y-104654565D01*
X86860633Y-104811045D01*
X86863458Y-104837928D01*
X86922473Y-105019556D01*
X87017960Y-105184944D01*
X87022378Y-105189851D01*
X87022379Y-105189852D01*
X87123029Y-105301635D01*
X87145747Y-105326866D01*
X87300248Y-105439118D01*
X87306276Y-105441802D01*
X87306278Y-105441803D01*
X87468681Y-105514109D01*
X87474712Y-105516794D01*
X87549153Y-105532617D01*
X87655056Y-105555128D01*
X87655061Y-105555128D01*
X87661513Y-105556500D01*
X87852487Y-105556500D01*
X87858939Y-105555128D01*
X87858944Y-105555128D01*
X87964847Y-105532617D01*
X88039288Y-105516794D01*
X88045319Y-105514109D01*
X88110699Y-105485000D01*
X94986496Y-105485000D01*
X94987186Y-105491565D01*
X94993615Y-105552729D01*
X95006458Y-105674928D01*
X95065473Y-105856556D01*
X95160960Y-106021944D01*
X95288747Y-106163866D01*
X95367569Y-106221134D01*
X95407515Y-106250156D01*
X95443248Y-106276118D01*
X95449276Y-106278802D01*
X95449278Y-106278803D01*
X95545317Y-106321562D01*
X95617712Y-106353794D01*
X95711112Y-106373647D01*
X95798056Y-106392128D01*
X95798061Y-106392128D01*
X95804513Y-106393500D01*
X95995487Y-106393500D01*
X96001939Y-106392128D01*
X96001944Y-106392128D01*
X96088888Y-106373647D01*
X96182288Y-106353794D01*
X96254683Y-106321562D01*
X96350722Y-106278803D01*
X96350724Y-106278802D01*
X96356752Y-106276118D01*
X96392486Y-106250156D01*
X96491802Y-106177998D01*
X96558670Y-106154140D01*
X96627821Y-106170220D01*
X96677301Y-106221134D01*
X96685695Y-106240996D01*
X96701473Y-106289556D01*
X96704776Y-106295278D01*
X96704777Y-106295279D01*
X96751448Y-106376115D01*
X96768186Y-106445110D01*
X96744966Y-106512202D01*
X96689159Y-106556089D01*
X96659685Y-106563387D01*
X96658769Y-106563387D01*
X96471968Y-106603093D01*
X96465938Y-106605778D01*
X96465937Y-106605778D01*
X96303534Y-106678084D01*
X96303532Y-106678085D01*
X96297504Y-106680769D01*
X96292163Y-106684649D01*
X96292162Y-106684650D01*
X96279172Y-106694088D01*
X96143003Y-106793021D01*
X96138582Y-106797931D01*
X96138581Y-106797932D01*
X96076885Y-106866453D01*
X96015216Y-106934943D01*
X95919729Y-107100331D01*
X95860714Y-107281959D01*
X95860024Y-107288520D01*
X95860024Y-107288522D01*
X95851460Y-107370004D01*
X95840752Y-107471887D01*
X95860714Y-107661815D01*
X95919729Y-107843443D01*
X95923032Y-107849165D01*
X95923033Y-107849166D01*
X95954144Y-107903051D01*
X96015216Y-108008831D01*
X96019634Y-108013738D01*
X96019635Y-108013739D01*
X96045206Y-108042138D01*
X96143003Y-108150753D01*
X96297504Y-108263005D01*
X96303532Y-108265689D01*
X96303534Y-108265690D01*
X96465937Y-108337996D01*
X96471968Y-108340681D01*
X96565368Y-108360534D01*
X96652312Y-108379015D01*
X96652317Y-108379015D01*
X96658769Y-108380387D01*
X96849743Y-108380387D01*
X96856195Y-108379015D01*
X96856200Y-108379015D01*
X96943144Y-108360534D01*
X97036544Y-108340681D01*
X97042575Y-108337996D01*
X97204978Y-108265690D01*
X97204980Y-108265689D01*
X97211008Y-108263005D01*
X97365509Y-108150753D01*
X97463306Y-108042138D01*
X97488877Y-108013739D01*
X97488878Y-108013738D01*
X97493296Y-108008831D01*
X97554368Y-107903051D01*
X97585479Y-107849166D01*
X97585480Y-107849165D01*
X97588783Y-107843443D01*
X97646929Y-107664489D01*
X97687003Y-107605883D01*
X97752399Y-107578246D01*
X97822356Y-107590353D01*
X97874662Y-107638359D01*
X97889031Y-107681190D01*
X97890394Y-107680900D01*
X97891768Y-107687364D01*
X97892458Y-107693928D01*
X97951473Y-107875556D01*
X97954776Y-107881278D01*
X97954777Y-107881279D01*
X97965498Y-107899848D01*
X98046960Y-108040944D01*
X98051378Y-108045851D01*
X98051379Y-108045852D01*
X98170325Y-108177955D01*
X98174747Y-108182866D01*
X98329248Y-108295118D01*
X98335276Y-108297802D01*
X98335278Y-108297803D01*
X98434666Y-108342053D01*
X98503712Y-108372794D01*
X98597113Y-108392647D01*
X98684056Y-108411128D01*
X98684061Y-108411128D01*
X98690513Y-108412500D01*
X98881487Y-108412500D01*
X98887939Y-108411128D01*
X98887944Y-108411128D01*
X98974887Y-108392647D01*
X99068288Y-108372794D01*
X99137334Y-108342053D01*
X99236722Y-108297803D01*
X99236724Y-108297802D01*
X99242752Y-108295118D01*
X99397253Y-108182866D01*
X99401675Y-108177955D01*
X99520621Y-108045852D01*
X99520622Y-108045851D01*
X99525040Y-108040944D01*
X99606502Y-107899848D01*
X99617223Y-107881279D01*
X99617224Y-107881278D01*
X99620527Y-107875556D01*
X99679542Y-107693928D01*
X99682258Y-107668093D01*
X99698814Y-107510565D01*
X99699504Y-107504000D01*
X99681630Y-107333938D01*
X99680232Y-107320635D01*
X99680232Y-107320633D01*
X99679542Y-107314072D01*
X99620527Y-107132444D01*
X99525040Y-106967056D01*
X99496126Y-106934943D01*
X99401675Y-106830045D01*
X99401674Y-106830044D01*
X99397253Y-106825134D01*
X99242752Y-106712882D01*
X99236724Y-106710198D01*
X99236722Y-106710197D01*
X99074319Y-106637891D01*
X99074318Y-106637891D01*
X99068288Y-106635206D01*
X98974888Y-106615353D01*
X98887944Y-106596872D01*
X98887939Y-106596872D01*
X98881487Y-106595500D01*
X98690513Y-106595500D01*
X98684061Y-106596872D01*
X98684056Y-106596872D01*
X98597112Y-106615353D01*
X98503712Y-106635206D01*
X98497685Y-106637889D01*
X98497677Y-106637892D01*
X98392648Y-106684654D01*
X98322281Y-106694088D01*
X98257984Y-106663981D01*
X98220171Y-106603892D01*
X98220847Y-106532899D01*
X98247762Y-106485239D01*
X98275040Y-106454944D01*
X98370527Y-106289556D01*
X98429542Y-106107928D01*
X98449504Y-105918000D01*
X98443046Y-105856556D01*
X98430232Y-105734635D01*
X98430232Y-105734633D01*
X98429542Y-105728072D01*
X98370527Y-105546444D01*
X98353050Y-105516172D01*
X98278341Y-105386774D01*
X98275040Y-105381056D01*
X98229744Y-105330749D01*
X98151675Y-105244045D01*
X98151674Y-105244044D01*
X98147253Y-105239134D01*
X98041089Y-105162001D01*
X97998094Y-105130763D01*
X97998093Y-105130762D01*
X97992752Y-105126882D01*
X97986724Y-105124198D01*
X97986722Y-105124197D01*
X97824319Y-105051891D01*
X97824318Y-105051891D01*
X97818288Y-105049206D01*
X97705721Y-105025279D01*
X97637944Y-105010872D01*
X97637939Y-105010872D01*
X97631487Y-105009500D01*
X97440513Y-105009500D01*
X97434061Y-105010872D01*
X97434056Y-105010872D01*
X97366279Y-105025279D01*
X97253712Y-105049206D01*
X97247682Y-105051891D01*
X97247681Y-105051891D01*
X97085278Y-105124197D01*
X97085276Y-105124198D01*
X97079248Y-105126882D01*
X97073907Y-105130762D01*
X97073906Y-105130763D01*
X96944198Y-105225002D01*
X96877330Y-105248860D01*
X96808179Y-105232780D01*
X96758699Y-105181866D01*
X96750304Y-105162001D01*
X96736570Y-105119731D01*
X96736569Y-105119729D01*
X96734527Y-105113444D01*
X96639040Y-104948056D01*
X96539881Y-104837928D01*
X96515675Y-104811045D01*
X96515674Y-104811044D01*
X96511253Y-104806134D01*
X96356752Y-104693882D01*
X96350724Y-104691198D01*
X96350722Y-104691197D01*
X96188319Y-104618891D01*
X96188318Y-104618891D01*
X96182288Y-104616206D01*
X96088888Y-104596353D01*
X96001944Y-104577872D01*
X96001939Y-104577872D01*
X95995487Y-104576500D01*
X95804513Y-104576500D01*
X95798061Y-104577872D01*
X95798056Y-104577872D01*
X95711113Y-104596353D01*
X95617712Y-104616206D01*
X95611682Y-104618891D01*
X95611681Y-104618891D01*
X95449278Y-104691197D01*
X95449276Y-104691198D01*
X95443248Y-104693882D01*
X95288747Y-104806134D01*
X95284326Y-104811044D01*
X95284325Y-104811045D01*
X95260120Y-104837928D01*
X95160960Y-104948056D01*
X95065473Y-105113444D01*
X95006458Y-105295072D01*
X95005768Y-105301633D01*
X95005768Y-105301635D01*
X95001669Y-105340635D01*
X94986496Y-105485000D01*
X88110699Y-105485000D01*
X88207722Y-105441803D01*
X88207724Y-105441802D01*
X88213752Y-105439118D01*
X88368253Y-105326866D01*
X88390971Y-105301635D01*
X88491621Y-105189852D01*
X88491622Y-105189851D01*
X88496040Y-105184944D01*
X88591527Y-105019556D01*
X88650542Y-104837928D01*
X88653368Y-104811045D01*
X88669814Y-104654565D01*
X88670504Y-104648000D01*
X88650542Y-104458072D01*
X88591527Y-104276444D01*
X88512462Y-104139499D01*
X88495724Y-104070505D01*
X88512462Y-104013500D01*
X88588223Y-103882279D01*
X88588224Y-103882278D01*
X88591527Y-103876556D01*
X88650542Y-103694928D01*
X88668455Y-103524500D01*
X88669814Y-103511565D01*
X88669814Y-103511564D01*
X88670504Y-103505000D01*
X98146496Y-103505000D01*
X98147186Y-103511564D01*
X98147186Y-103511565D01*
X98148546Y-103524500D01*
X98166458Y-103694928D01*
X98225473Y-103876556D01*
X98320960Y-104041944D01*
X98325378Y-104046851D01*
X98325379Y-104046852D01*
X98357472Y-104082495D01*
X98448747Y-104183866D01*
X98530721Y-104243424D01*
X98584820Y-104282729D01*
X98603248Y-104296118D01*
X98609274Y-104298801D01*
X98609281Y-104298805D01*
X98725228Y-104350427D01*
X98779324Y-104396407D01*
X98799974Y-104464334D01*
X98799290Y-104478695D01*
X98781496Y-104648000D01*
X98782186Y-104654565D01*
X98798633Y-104811045D01*
X98801458Y-104837928D01*
X98860473Y-105019556D01*
X98955960Y-105184944D01*
X98960378Y-105189851D01*
X98960379Y-105189852D01*
X99061029Y-105301635D01*
X99083747Y-105326866D01*
X99238248Y-105439118D01*
X99244276Y-105441802D01*
X99244278Y-105441803D01*
X99406681Y-105514109D01*
X99412712Y-105516794D01*
X99487153Y-105532617D01*
X99593056Y-105555128D01*
X99593061Y-105555128D01*
X99599513Y-105556500D01*
X99790487Y-105556500D01*
X99796939Y-105555128D01*
X99796944Y-105555128D01*
X99902847Y-105532617D01*
X99977288Y-105516794D01*
X99983319Y-105514109D01*
X100145722Y-105441803D01*
X100145724Y-105441802D01*
X100151752Y-105439118D01*
X100306253Y-105326866D01*
X100328971Y-105301635D01*
X100429621Y-105189852D01*
X100429622Y-105189851D01*
X100434040Y-105184944D01*
X100529527Y-105019556D01*
X100588542Y-104837928D01*
X100591368Y-104811045D01*
X100607814Y-104654565D01*
X100608504Y-104648000D01*
X100588542Y-104458072D01*
X100529527Y-104276444D01*
X100434040Y-104111056D01*
X100426732Y-104102939D01*
X100310675Y-103974045D01*
X100310674Y-103974044D01*
X100306253Y-103969134D01*
X100178831Y-103876556D01*
X100157094Y-103860763D01*
X100157093Y-103860762D01*
X100151752Y-103856882D01*
X100145726Y-103854199D01*
X100145719Y-103854195D01*
X100029772Y-103802573D01*
X99975676Y-103756593D01*
X99955026Y-103688666D01*
X99955710Y-103674305D01*
X99973504Y-103505000D01*
X99972814Y-103498435D01*
X99954232Y-103321635D01*
X99954232Y-103321633D01*
X99953542Y-103315072D01*
X99894527Y-103133444D01*
X99799040Y-102968056D01*
X99793712Y-102962138D01*
X99675675Y-102831045D01*
X99675674Y-102831044D01*
X99671253Y-102826134D01*
X99516752Y-102713882D01*
X99510724Y-102711198D01*
X99510722Y-102711197D01*
X99348319Y-102638891D01*
X99348318Y-102638891D01*
X99342288Y-102636206D01*
X99247227Y-102616000D01*
X101702496Y-102616000D01*
X101703186Y-102622565D01*
X101715747Y-102742072D01*
X101722458Y-102805928D01*
X101781473Y-102987556D01*
X101876960Y-103152944D01*
X101881378Y-103157851D01*
X101881379Y-103157852D01*
X102000325Y-103289955D01*
X102004747Y-103294866D01*
X102159248Y-103407118D01*
X102165276Y-103409802D01*
X102165278Y-103409803D01*
X102327681Y-103482109D01*
X102333712Y-103484794D01*
X102397888Y-103498435D01*
X102514056Y-103523128D01*
X102514061Y-103523128D01*
X102520513Y-103524500D01*
X102711487Y-103524500D01*
X102717939Y-103523128D01*
X102717944Y-103523128D01*
X102834112Y-103498435D01*
X102898288Y-103484794D01*
X102904319Y-103482109D01*
X103066722Y-103409803D01*
X103066724Y-103409802D01*
X103072752Y-103407118D01*
X103227253Y-103294866D01*
X103231675Y-103289955D01*
X103350621Y-103157852D01*
X103350622Y-103157851D01*
X103355040Y-103152944D01*
X103450527Y-102987556D01*
X103468578Y-102932000D01*
X107270496Y-102932000D01*
X107271186Y-102938565D01*
X107275675Y-102981271D01*
X107290458Y-103121928D01*
X107349473Y-103303556D01*
X107352776Y-103309278D01*
X107352777Y-103309279D01*
X107373176Y-103344610D01*
X107444960Y-103468944D01*
X107449378Y-103473851D01*
X107449379Y-103473852D01*
X107493747Y-103523128D01*
X107572747Y-103610866D01*
X107660049Y-103674295D01*
X107705064Y-103707000D01*
X107727248Y-103723118D01*
X107733276Y-103725802D01*
X107733278Y-103725803D01*
X107895681Y-103798109D01*
X107901712Y-103800794D01*
X107992069Y-103820000D01*
X108082056Y-103839128D01*
X108082061Y-103839128D01*
X108088513Y-103840500D01*
X108279487Y-103840500D01*
X108285939Y-103839128D01*
X108285944Y-103839128D01*
X108375931Y-103820000D01*
X108466288Y-103800794D01*
X108472319Y-103798109D01*
X108634722Y-103725803D01*
X108634724Y-103725802D01*
X108640752Y-103723118D01*
X108662937Y-103707000D01*
X108707951Y-103674295D01*
X108795253Y-103610866D01*
X108874253Y-103523128D01*
X108918621Y-103473852D01*
X108918622Y-103473851D01*
X108923040Y-103468944D01*
X108994824Y-103344610D01*
X109015223Y-103309279D01*
X109015224Y-103309278D01*
X109018527Y-103303556D01*
X109077542Y-103121928D01*
X109092326Y-102981271D01*
X109096814Y-102938565D01*
X109097504Y-102932000D01*
X109085969Y-102822251D01*
X109078232Y-102748635D01*
X109078232Y-102748633D01*
X109077542Y-102742072D01*
X109018527Y-102560444D01*
X108923040Y-102395056D01*
X108853235Y-102317529D01*
X108799675Y-102258045D01*
X108799674Y-102258044D01*
X108795253Y-102253134D01*
X108640752Y-102140882D01*
X108634724Y-102138198D01*
X108634722Y-102138197D01*
X108472319Y-102065891D01*
X108472318Y-102065891D01*
X108466288Y-102063206D01*
X108372887Y-102043353D01*
X108285944Y-102024872D01*
X108285939Y-102024872D01*
X108279487Y-102023500D01*
X108088513Y-102023500D01*
X108082061Y-102024872D01*
X108082056Y-102024872D01*
X107995113Y-102043353D01*
X107901712Y-102063206D01*
X107895682Y-102065891D01*
X107895681Y-102065891D01*
X107733278Y-102138197D01*
X107733276Y-102138198D01*
X107727248Y-102140882D01*
X107572747Y-102253134D01*
X107568326Y-102258044D01*
X107568325Y-102258045D01*
X107514766Y-102317529D01*
X107444960Y-102395056D01*
X107349473Y-102560444D01*
X107290458Y-102742072D01*
X107289768Y-102748633D01*
X107289768Y-102748635D01*
X107282031Y-102822251D01*
X107270496Y-102932000D01*
X103468578Y-102932000D01*
X103509542Y-102805928D01*
X103516254Y-102742072D01*
X103528814Y-102622565D01*
X103529504Y-102616000D01*
X103519972Y-102525309D01*
X103532744Y-102455471D01*
X103581246Y-102403624D01*
X103650079Y-102386230D01*
X103696531Y-102397032D01*
X103747656Y-102419794D01*
X103857712Y-102468794D01*
X103951113Y-102488647D01*
X104038056Y-102507128D01*
X104038061Y-102507128D01*
X104044513Y-102508500D01*
X104235487Y-102508500D01*
X104241939Y-102507128D01*
X104241944Y-102507128D01*
X104328888Y-102488647D01*
X104422288Y-102468794D01*
X104518244Y-102426072D01*
X104590722Y-102393803D01*
X104590724Y-102393802D01*
X104596752Y-102391118D01*
X104751253Y-102278866D01*
X104777216Y-102250031D01*
X104874621Y-102141852D01*
X104874622Y-102141851D01*
X104879040Y-102136944D01*
X104974527Y-101971556D01*
X105033542Y-101789928D01*
X105035138Y-101774749D01*
X105052814Y-101606565D01*
X105052814Y-101606564D01*
X105053504Y-101600000D01*
X105049609Y-101562939D01*
X105034232Y-101416635D01*
X105034232Y-101416633D01*
X105033542Y-101410072D01*
X104974527Y-101228444D01*
X104879040Y-101063056D01*
X104849013Y-101029707D01*
X104755675Y-100926045D01*
X104755674Y-100926044D01*
X104751253Y-100921134D01*
X104596752Y-100808882D01*
X104590724Y-100806198D01*
X104590722Y-100806197D01*
X104428319Y-100733891D01*
X104428318Y-100733891D01*
X104422288Y-100731206D01*
X104328888Y-100711353D01*
X104241944Y-100692872D01*
X104241939Y-100692872D01*
X104235487Y-100691500D01*
X104044513Y-100691500D01*
X104038061Y-100692872D01*
X104038056Y-100692872D01*
X103951112Y-100711353D01*
X103857712Y-100731206D01*
X103851682Y-100733891D01*
X103851681Y-100733891D01*
X103689278Y-100806197D01*
X103689276Y-100806198D01*
X103683248Y-100808882D01*
X103528747Y-100921134D01*
X103524326Y-100926044D01*
X103524325Y-100926045D01*
X103430988Y-101029707D01*
X103400960Y-101063056D01*
X103305473Y-101228444D01*
X103246458Y-101410072D01*
X103245768Y-101416633D01*
X103245768Y-101416635D01*
X103230391Y-101562939D01*
X103226496Y-101600000D01*
X103227186Y-101606564D01*
X103236028Y-101690690D01*
X103223256Y-101760529D01*
X103174754Y-101812376D01*
X103105921Y-101829770D01*
X103059469Y-101818968D01*
X102904319Y-101749891D01*
X102904318Y-101749891D01*
X102898288Y-101747206D01*
X102804887Y-101727353D01*
X102717944Y-101708872D01*
X102717939Y-101708872D01*
X102711487Y-101707500D01*
X102520513Y-101707500D01*
X102514061Y-101708872D01*
X102514056Y-101708872D01*
X102427113Y-101727353D01*
X102333712Y-101747206D01*
X102327682Y-101749891D01*
X102327681Y-101749891D01*
X102165278Y-101822197D01*
X102165276Y-101822198D01*
X102159248Y-101824882D01*
X102004747Y-101937134D01*
X101876960Y-102079056D01*
X101781473Y-102244444D01*
X101722458Y-102426072D01*
X101721768Y-102432633D01*
X101721768Y-102432635D01*
X101704401Y-102597872D01*
X101702496Y-102616000D01*
X99247227Y-102616000D01*
X99161944Y-102597872D01*
X99161939Y-102597872D01*
X99155487Y-102596500D01*
X98964513Y-102596500D01*
X98958061Y-102597872D01*
X98958056Y-102597872D01*
X98872773Y-102616000D01*
X98777712Y-102636206D01*
X98771682Y-102638891D01*
X98771681Y-102638891D01*
X98609278Y-102711197D01*
X98609276Y-102711198D01*
X98603248Y-102713882D01*
X98448747Y-102826134D01*
X98444326Y-102831044D01*
X98444325Y-102831045D01*
X98326289Y-102962138D01*
X98320960Y-102968056D01*
X98225473Y-103133444D01*
X98166458Y-103315072D01*
X98165768Y-103321633D01*
X98165768Y-103321635D01*
X98147186Y-103498435D01*
X98146496Y-103505000D01*
X88670504Y-103505000D01*
X88669814Y-103498435D01*
X88651232Y-103321635D01*
X88651232Y-103321633D01*
X88650542Y-103315072D01*
X88591527Y-103133444D01*
X88496040Y-102968056D01*
X88490712Y-102962138D01*
X88372675Y-102831045D01*
X88372674Y-102831044D01*
X88368253Y-102826134D01*
X88213752Y-102713882D01*
X88207724Y-102711198D01*
X88207722Y-102711197D01*
X88045319Y-102638891D01*
X88045318Y-102638891D01*
X88039288Y-102636206D01*
X87944227Y-102616000D01*
X87858944Y-102597872D01*
X87858939Y-102597872D01*
X87852487Y-102596500D01*
X87661513Y-102596500D01*
X87655061Y-102597872D01*
X87655056Y-102597872D01*
X87569773Y-102616000D01*
X87474712Y-102636206D01*
X87468682Y-102638891D01*
X87468681Y-102638891D01*
X87306278Y-102711197D01*
X87306276Y-102711198D01*
X87300248Y-102713882D01*
X87145747Y-102826134D01*
X87141326Y-102831044D01*
X87141325Y-102831045D01*
X87023289Y-102962138D01*
X87017960Y-102968056D01*
X86922473Y-103133444D01*
X86863458Y-103315072D01*
X86862768Y-103321633D01*
X86862768Y-103321635D01*
X86844186Y-103498435D01*
X86843496Y-103505000D01*
X86844186Y-103511564D01*
X86844186Y-103511565D01*
X86845546Y-103524500D01*
X86863458Y-103694928D01*
X86922473Y-103876556D01*
X86925776Y-103882278D01*
X86925777Y-103882279D01*
X87001538Y-104013500D01*
X87018276Y-104082495D01*
X87001538Y-104139499D01*
X86922473Y-104276444D01*
X86863458Y-104458072D01*
X86843496Y-104648000D01*
X76577969Y-104648000D01*
X76597594Y-104620689D01*
X76665435Y-104526277D01*
X76668453Y-104522077D01*
X76684052Y-104490516D01*
X76765136Y-104326453D01*
X76765137Y-104326451D01*
X76767430Y-104321811D01*
X76832370Y-104108069D01*
X76861529Y-103886590D01*
X76863156Y-103820000D01*
X76844852Y-103597361D01*
X76790431Y-103380702D01*
X76701354Y-103175840D01*
X76580014Y-102988277D01*
X76429670Y-102823051D01*
X76425619Y-102819852D01*
X76425615Y-102819848D01*
X76258414Y-102687800D01*
X76258410Y-102687798D01*
X76254359Y-102684598D01*
X76213053Y-102661796D01*
X76163084Y-102611364D01*
X76148312Y-102541921D01*
X76173428Y-102475516D01*
X76200780Y-102448909D01*
X76268263Y-102400774D01*
X76379860Y-102321173D01*
X76538096Y-102163489D01*
X76557171Y-102136944D01*
X76665435Y-101986277D01*
X76668453Y-101982077D01*
X76670825Y-101977279D01*
X76765136Y-101786453D01*
X76765137Y-101786451D01*
X76767430Y-101781811D01*
X76832370Y-101568069D01*
X76861529Y-101346590D01*
X76863156Y-101280000D01*
X76847700Y-101092000D01*
X88748496Y-101092000D01*
X88749186Y-101098565D01*
X88766863Y-101266749D01*
X88768458Y-101281928D01*
X88827473Y-101463556D01*
X88922960Y-101628944D01*
X88927378Y-101633851D01*
X88927379Y-101633852D01*
X89046325Y-101765955D01*
X89050747Y-101770866D01*
X89205248Y-101883118D01*
X89211276Y-101885802D01*
X89211278Y-101885803D01*
X89373681Y-101958109D01*
X89379712Y-101960794D01*
X89473113Y-101980647D01*
X89560056Y-101999128D01*
X89560061Y-101999128D01*
X89566513Y-102000500D01*
X89757487Y-102000500D01*
X89763939Y-101999128D01*
X89763944Y-101999128D01*
X89850887Y-101980647D01*
X89944288Y-101960794D01*
X89950319Y-101958109D01*
X90112722Y-101885803D01*
X90112724Y-101885802D01*
X90118752Y-101883118D01*
X90273253Y-101770866D01*
X90277675Y-101765955D01*
X90396621Y-101633852D01*
X90396622Y-101633851D01*
X90401040Y-101628944D01*
X90496527Y-101463556D01*
X90555542Y-101281928D01*
X90557138Y-101266749D01*
X90574814Y-101098565D01*
X90575504Y-101092000D01*
X90558736Y-100932457D01*
X90556232Y-100908635D01*
X90556232Y-100908633D01*
X90555542Y-100902072D01*
X90496527Y-100720444D01*
X90417751Y-100584000D01*
X93574496Y-100584000D01*
X93575186Y-100590565D01*
X93593351Y-100763392D01*
X93594458Y-100773928D01*
X93653473Y-100955556D01*
X93748960Y-101120944D01*
X93753378Y-101125851D01*
X93753379Y-101125852D01*
X93865104Y-101249935D01*
X93876747Y-101262866D01*
X93926657Y-101299128D01*
X94008106Y-101358304D01*
X94031248Y-101375118D01*
X94037276Y-101377802D01*
X94037278Y-101377803D01*
X94199681Y-101450109D01*
X94205712Y-101452794D01*
X94285319Y-101469715D01*
X94386056Y-101491128D01*
X94386061Y-101491128D01*
X94392513Y-101492500D01*
X94583487Y-101492500D01*
X94589939Y-101491128D01*
X94589944Y-101491128D01*
X94690681Y-101469715D01*
X94770288Y-101452794D01*
X94776319Y-101450109D01*
X94938722Y-101377803D01*
X94938724Y-101377802D01*
X94944752Y-101375118D01*
X94967895Y-101358304D01*
X95049343Y-101299128D01*
X95099253Y-101262866D01*
X95110896Y-101249935D01*
X95222621Y-101125852D01*
X95222622Y-101125851D01*
X95227040Y-101120944D01*
X95322527Y-100955556D01*
X95381542Y-100773928D01*
X95382650Y-100763392D01*
X95400814Y-100590565D01*
X95401504Y-100584000D01*
X95399737Y-100567186D01*
X105338910Y-100567186D01*
X105339600Y-100573751D01*
X105356095Y-100730688D01*
X105358872Y-100757114D01*
X105417887Y-100938742D01*
X105421190Y-100944464D01*
X105421191Y-100944465D01*
X105430899Y-100961279D01*
X105513374Y-101104130D01*
X105517792Y-101109037D01*
X105517793Y-101109038D01*
X105620154Y-101222721D01*
X105641161Y-101246052D01*
X105795662Y-101358304D01*
X105801690Y-101360988D01*
X105801692Y-101360989D01*
X105911935Y-101410072D01*
X105970126Y-101435980D01*
X106055684Y-101454166D01*
X106150470Y-101474314D01*
X106150475Y-101474314D01*
X106156927Y-101475686D01*
X106347901Y-101475686D01*
X106354353Y-101474314D01*
X106354358Y-101474314D01*
X106449144Y-101454166D01*
X106534702Y-101435980D01*
X106592893Y-101410072D01*
X106703136Y-101360989D01*
X106703138Y-101360988D01*
X106709166Y-101358304D01*
X106863667Y-101246052D01*
X106884674Y-101222721D01*
X106987035Y-101109038D01*
X106987036Y-101109037D01*
X106991454Y-101104130D01*
X107073929Y-100961279D01*
X107083637Y-100944465D01*
X107083638Y-100944464D01*
X107086941Y-100938742D01*
X107130454Y-100804824D01*
X107170528Y-100746218D01*
X107235924Y-100718581D01*
X107305881Y-100730688D01*
X107359405Y-100780759D01*
X107444960Y-100928944D01*
X107449378Y-100933851D01*
X107449379Y-100933852D01*
X107526576Y-101019588D01*
X107572747Y-101070866D01*
X107727248Y-101183118D01*
X107733276Y-101185802D01*
X107733278Y-101185803D01*
X107895335Y-101257955D01*
X107901712Y-101260794D01*
X107992069Y-101280000D01*
X108082056Y-101299128D01*
X108082061Y-101299128D01*
X108088513Y-101300500D01*
X108279487Y-101300500D01*
X108285939Y-101299128D01*
X108285944Y-101299128D01*
X108375931Y-101280000D01*
X108466288Y-101260794D01*
X108472665Y-101257955D01*
X108634722Y-101185803D01*
X108634724Y-101185802D01*
X108640752Y-101183118D01*
X108795253Y-101070866D01*
X108841424Y-101019588D01*
X108918621Y-100933852D01*
X108918622Y-100933851D01*
X108923040Y-100928944D01*
X109018527Y-100763556D01*
X109077542Y-100581928D01*
X109078402Y-100573751D01*
X109096814Y-100398565D01*
X109097504Y-100392000D01*
X109086053Y-100283051D01*
X109078232Y-100208635D01*
X109078232Y-100208633D01*
X109077542Y-100202072D01*
X109018527Y-100020444D01*
X108923040Y-99855056D01*
X108867872Y-99793785D01*
X108799675Y-99718045D01*
X108799674Y-99718044D01*
X108795253Y-99713134D01*
X108640752Y-99600882D01*
X108634724Y-99598198D01*
X108634722Y-99598197D01*
X108472319Y-99525891D01*
X108472318Y-99525891D01*
X108466288Y-99523206D01*
X108372888Y-99503353D01*
X108285944Y-99484872D01*
X108285939Y-99484872D01*
X108279487Y-99483500D01*
X108088513Y-99483500D01*
X108082061Y-99484872D01*
X108082056Y-99484872D01*
X107995113Y-99503353D01*
X107901712Y-99523206D01*
X107895682Y-99525891D01*
X107895681Y-99525891D01*
X107733278Y-99598197D01*
X107733276Y-99598198D01*
X107727248Y-99600882D01*
X107572747Y-99713134D01*
X107568326Y-99718044D01*
X107568325Y-99718045D01*
X107500129Y-99793785D01*
X107444960Y-99855056D01*
X107349473Y-100020444D01*
X107344432Y-100035960D01*
X107305960Y-100154362D01*
X107265886Y-100212968D01*
X107200490Y-100240605D01*
X107130533Y-100228498D01*
X107077008Y-100178426D01*
X107059326Y-100147800D01*
X106991454Y-100030242D01*
X106906163Y-99935516D01*
X106868089Y-99893231D01*
X106868088Y-99893230D01*
X106863667Y-99888320D01*
X106733551Y-99793785D01*
X106714508Y-99779949D01*
X106714507Y-99779948D01*
X106709166Y-99776068D01*
X106703138Y-99773384D01*
X106703136Y-99773383D01*
X106540733Y-99701077D01*
X106540732Y-99701077D01*
X106534702Y-99698392D01*
X106441302Y-99678539D01*
X106354358Y-99660058D01*
X106354353Y-99660058D01*
X106347901Y-99658686D01*
X106156927Y-99658686D01*
X106150475Y-99660058D01*
X106150470Y-99660058D01*
X106063527Y-99678539D01*
X105970126Y-99698392D01*
X105964096Y-99701077D01*
X105964095Y-99701077D01*
X105801692Y-99773383D01*
X105801690Y-99773384D01*
X105795662Y-99776068D01*
X105790321Y-99779948D01*
X105790320Y-99779949D01*
X105771277Y-99793785D01*
X105641161Y-99888320D01*
X105636740Y-99893230D01*
X105636739Y-99893231D01*
X105598666Y-99935516D01*
X105513374Y-100030242D01*
X105417887Y-100195630D01*
X105358872Y-100377258D01*
X105358182Y-100383819D01*
X105358182Y-100383821D01*
X105348020Y-100480505D01*
X105338910Y-100567186D01*
X95399737Y-100567186D01*
X95390626Y-100480504D01*
X95403398Y-100410666D01*
X95451596Y-100359633D01*
X95452752Y-100359118D01*
X95458094Y-100355236D01*
X95458097Y-100355235D01*
X95561857Y-100279848D01*
X95607253Y-100246866D01*
X95611675Y-100241955D01*
X95730621Y-100109852D01*
X95730622Y-100109851D01*
X95735040Y-100104944D01*
X95830527Y-99939556D01*
X95889542Y-99757928D01*
X95893819Y-99717240D01*
X95908814Y-99574565D01*
X95908814Y-99574564D01*
X95909504Y-99568000D01*
X95904652Y-99521834D01*
X95890232Y-99384635D01*
X95890232Y-99384633D01*
X95889542Y-99378072D01*
X95830527Y-99196444D01*
X95735040Y-99031056D01*
X95727732Y-99022939D01*
X95611675Y-98894045D01*
X95611674Y-98894044D01*
X95607253Y-98889134D01*
X95492830Y-98806000D01*
X101194496Y-98806000D01*
X101195186Y-98812565D01*
X101205865Y-98914166D01*
X101214458Y-98995928D01*
X101273473Y-99177556D01*
X101368960Y-99342944D01*
X101373378Y-99347851D01*
X101373379Y-99347852D01*
X101400589Y-99378072D01*
X101496747Y-99484866D01*
X101579635Y-99545088D01*
X101620207Y-99574565D01*
X101651248Y-99597118D01*
X101657276Y-99599802D01*
X101657278Y-99599803D01*
X101792614Y-99660058D01*
X101825712Y-99674794D01*
X101919113Y-99694647D01*
X102006056Y-99713128D01*
X102006061Y-99713128D01*
X102012513Y-99714500D01*
X102203487Y-99714500D01*
X102209939Y-99713128D01*
X102209944Y-99713128D01*
X102296887Y-99694647D01*
X102390288Y-99674794D01*
X102423386Y-99660058D01*
X102558722Y-99599803D01*
X102558724Y-99599802D01*
X102564752Y-99597118D01*
X102595794Y-99574565D01*
X102636365Y-99545088D01*
X102719253Y-99484866D01*
X102815411Y-99378072D01*
X102842621Y-99347852D01*
X102842622Y-99347851D01*
X102847040Y-99342944D01*
X102942527Y-99177556D01*
X102996895Y-99010231D01*
X103036968Y-98951626D01*
X103090529Y-98925922D01*
X103152288Y-98912794D01*
X103158319Y-98910109D01*
X103320722Y-98837803D01*
X103320724Y-98837802D01*
X103326752Y-98835118D01*
X103357794Y-98812565D01*
X103410602Y-98774197D01*
X103481253Y-98722866D01*
X103491171Y-98711851D01*
X103604621Y-98585852D01*
X103604622Y-98585851D01*
X103609040Y-98580944D01*
X103704527Y-98415556D01*
X103763542Y-98233928D01*
X103775175Y-98123251D01*
X103782814Y-98050565D01*
X103783504Y-98044000D01*
X103772280Y-97937206D01*
X103764232Y-97860635D01*
X103764232Y-97860633D01*
X103763542Y-97854072D01*
X103704527Y-97672444D01*
X103609040Y-97507056D01*
X103587702Y-97483357D01*
X103485675Y-97370045D01*
X103485674Y-97370044D01*
X103481253Y-97365134D01*
X103326752Y-97252882D01*
X103320724Y-97250198D01*
X103320722Y-97250197D01*
X103158319Y-97177891D01*
X103158318Y-97177891D01*
X103152288Y-97175206D01*
X103058888Y-97155353D01*
X102971944Y-97136872D01*
X102971939Y-97136872D01*
X102965487Y-97135500D01*
X102774513Y-97135500D01*
X102768061Y-97136872D01*
X102768056Y-97136872D01*
X102681113Y-97155353D01*
X102587712Y-97175206D01*
X102581682Y-97177891D01*
X102581681Y-97177891D01*
X102419278Y-97250197D01*
X102419276Y-97250198D01*
X102413248Y-97252882D01*
X102258747Y-97365134D01*
X102254326Y-97370044D01*
X102254325Y-97370045D01*
X102152299Y-97483357D01*
X102130960Y-97507056D01*
X102035473Y-97672444D01*
X101995144Y-97796565D01*
X101981106Y-97839768D01*
X101941032Y-97898374D01*
X101887471Y-97924078D01*
X101825712Y-97937206D01*
X101819682Y-97939891D01*
X101819681Y-97939891D01*
X101657278Y-98012197D01*
X101657276Y-98012198D01*
X101651248Y-98014882D01*
X101645907Y-98018762D01*
X101645906Y-98018763D01*
X101611171Y-98044000D01*
X101496747Y-98127134D01*
X101492326Y-98132044D01*
X101492325Y-98132045D01*
X101394937Y-98240206D01*
X101368960Y-98269056D01*
X101273473Y-98434444D01*
X101214458Y-98616072D01*
X101213768Y-98622633D01*
X101213768Y-98622635D01*
X101201785Y-98736646D01*
X101194496Y-98806000D01*
X95492830Y-98806000D01*
X95489031Y-98803240D01*
X95458094Y-98780763D01*
X95458093Y-98780762D01*
X95452752Y-98776882D01*
X95446724Y-98774198D01*
X95446722Y-98774197D01*
X95284319Y-98701891D01*
X95284318Y-98701891D01*
X95278288Y-98699206D01*
X95184888Y-98679353D01*
X95097944Y-98660872D01*
X95097939Y-98660872D01*
X95091487Y-98659500D01*
X94900513Y-98659500D01*
X94894061Y-98660872D01*
X94894056Y-98660872D01*
X94807112Y-98679353D01*
X94713712Y-98699206D01*
X94707682Y-98701891D01*
X94707681Y-98701891D01*
X94545278Y-98774197D01*
X94545276Y-98774198D01*
X94539248Y-98776882D01*
X94533907Y-98780762D01*
X94533906Y-98780763D01*
X94502969Y-98803240D01*
X94384747Y-98889134D01*
X94380326Y-98894044D01*
X94380325Y-98894045D01*
X94264269Y-99022939D01*
X94256960Y-99031056D01*
X94161473Y-99196444D01*
X94102458Y-99378072D01*
X94101768Y-99384633D01*
X94101768Y-99384635D01*
X94087348Y-99521834D01*
X94082496Y-99568000D01*
X94092028Y-99658686D01*
X94093374Y-99671495D01*
X94080602Y-99741334D01*
X94032404Y-99792367D01*
X94031248Y-99792882D01*
X94025906Y-99796764D01*
X94025903Y-99796765D01*
X93953998Y-99849008D01*
X93876747Y-99905134D01*
X93872326Y-99910044D01*
X93872325Y-99910045D01*
X93768519Y-100025334D01*
X93748960Y-100047056D01*
X93718840Y-100099226D01*
X93663181Y-100195630D01*
X93653473Y-100212444D01*
X93594458Y-100394072D01*
X93593768Y-100400633D01*
X93593768Y-100400635D01*
X93591938Y-100418045D01*
X93574496Y-100584000D01*
X90417751Y-100584000D01*
X90401040Y-100555056D01*
X90277996Y-100418401D01*
X90277675Y-100418045D01*
X90277674Y-100418044D01*
X90273253Y-100413134D01*
X90118752Y-100300882D01*
X90112724Y-100298198D01*
X90112722Y-100298197D01*
X89950319Y-100225891D01*
X89950318Y-100225891D01*
X89944288Y-100223206D01*
X89844122Y-100201915D01*
X89763944Y-100184872D01*
X89763939Y-100184872D01*
X89757487Y-100183500D01*
X89566513Y-100183500D01*
X89560061Y-100184872D01*
X89560056Y-100184872D01*
X89479878Y-100201915D01*
X89379712Y-100223206D01*
X89373682Y-100225891D01*
X89373681Y-100225891D01*
X89211278Y-100298197D01*
X89211276Y-100298198D01*
X89205248Y-100300882D01*
X89050747Y-100413134D01*
X89046326Y-100418044D01*
X89046325Y-100418045D01*
X89046005Y-100418401D01*
X88922960Y-100555056D01*
X88827473Y-100720444D01*
X88768458Y-100902072D01*
X88767768Y-100908633D01*
X88767768Y-100908635D01*
X88765264Y-100932457D01*
X88748496Y-101092000D01*
X76847700Y-101092000D01*
X76844852Y-101057361D01*
X76790431Y-100840702D01*
X76701354Y-100635840D01*
X76652693Y-100560621D01*
X76582822Y-100452617D01*
X76582820Y-100452614D01*
X76580014Y-100448277D01*
X76429670Y-100283051D01*
X76425619Y-100279852D01*
X76425615Y-100279848D01*
X76258414Y-100147800D01*
X76258410Y-100147798D01*
X76254359Y-100144598D01*
X76213053Y-100121796D01*
X76163084Y-100071364D01*
X76148312Y-100001921D01*
X76173428Y-99935516D01*
X76200780Y-99908909D01*
X76268263Y-99860774D01*
X76379860Y-99781173D01*
X76387678Y-99773383D01*
X76534435Y-99627137D01*
X76538096Y-99623489D01*
X76557046Y-99597118D01*
X76665435Y-99446277D01*
X76668453Y-99442077D01*
X76696843Y-99384635D01*
X76765136Y-99246453D01*
X76765137Y-99246451D01*
X76767430Y-99241811D01*
X76832370Y-99028069D01*
X76861529Y-98806590D01*
X76862255Y-98776882D01*
X76863074Y-98743365D01*
X76863074Y-98743361D01*
X76863156Y-98740000D01*
X76844852Y-98517361D01*
X76790431Y-98300702D01*
X76701354Y-98095840D01*
X76598729Y-97937206D01*
X76582822Y-97912617D01*
X76582820Y-97912614D01*
X76580014Y-97908277D01*
X76472390Y-97790000D01*
X87097496Y-97790000D01*
X87098186Y-97796565D01*
X87112824Y-97935834D01*
X87117458Y-97979928D01*
X87176473Y-98161556D01*
X87271960Y-98326944D01*
X87276378Y-98331851D01*
X87276379Y-98331852D01*
X87363600Y-98428721D01*
X87399747Y-98468866D01*
X87554248Y-98581118D01*
X87560276Y-98583802D01*
X87560278Y-98583803D01*
X87632756Y-98616072D01*
X87728712Y-98658794D01*
X87822113Y-98678647D01*
X87909056Y-98697128D01*
X87909061Y-98697128D01*
X87915513Y-98698500D01*
X88106487Y-98698500D01*
X88112939Y-98697128D01*
X88112944Y-98697128D01*
X88199887Y-98678647D01*
X88293288Y-98658794D01*
X88389244Y-98616072D01*
X88461722Y-98583803D01*
X88461724Y-98583802D01*
X88467752Y-98581118D01*
X88622253Y-98468866D01*
X88658400Y-98428721D01*
X88745621Y-98331852D01*
X88745622Y-98331851D01*
X88750040Y-98326944D01*
X88845527Y-98161556D01*
X88904542Y-97979928D01*
X88909177Y-97935834D01*
X88923814Y-97796565D01*
X88924504Y-97790000D01*
X88904542Y-97600072D01*
X88845527Y-97418444D01*
X88832290Y-97395516D01*
X88808314Y-97353990D01*
X88750040Y-97253056D01*
X88736060Y-97237529D01*
X88626675Y-97116045D01*
X88626674Y-97116044D01*
X88622253Y-97111134D01*
X88523157Y-97039136D01*
X88473094Y-97002763D01*
X88473093Y-97002762D01*
X88467752Y-96998882D01*
X88461724Y-96996198D01*
X88461722Y-96996197D01*
X88299319Y-96923891D01*
X88299318Y-96923891D01*
X88293288Y-96921206D01*
X88181469Y-96897438D01*
X88112944Y-96882872D01*
X88112939Y-96882872D01*
X88106487Y-96881500D01*
X87915513Y-96881500D01*
X87909061Y-96882872D01*
X87909056Y-96882872D01*
X87840531Y-96897438D01*
X87728712Y-96921206D01*
X87722682Y-96923891D01*
X87722681Y-96923891D01*
X87560278Y-96996197D01*
X87560276Y-96996198D01*
X87554248Y-96998882D01*
X87548907Y-97002762D01*
X87548906Y-97002763D01*
X87498843Y-97039136D01*
X87399747Y-97111134D01*
X87395326Y-97116044D01*
X87395325Y-97116045D01*
X87285941Y-97237529D01*
X87271960Y-97253056D01*
X87213686Y-97353990D01*
X87189711Y-97395516D01*
X87176473Y-97418444D01*
X87117458Y-97600072D01*
X87097496Y-97790000D01*
X76472390Y-97790000D01*
X76429670Y-97743051D01*
X76425619Y-97739852D01*
X76425615Y-97739848D01*
X76258414Y-97607800D01*
X76258410Y-97607798D01*
X76254359Y-97604598D01*
X76213053Y-97581796D01*
X76163084Y-97531364D01*
X76148312Y-97461921D01*
X76173428Y-97395516D01*
X76200780Y-97368909D01*
X76244603Y-97337650D01*
X76379860Y-97241173D01*
X76538096Y-97083489D01*
X76557046Y-97057118D01*
X76665435Y-96906277D01*
X76668453Y-96902077D01*
X76697059Y-96844198D01*
X76765136Y-96706453D01*
X76765137Y-96706451D01*
X76767430Y-96701811D01*
X76832370Y-96488069D01*
X76861529Y-96266590D01*
X76863156Y-96200000D01*
X76844852Y-95977361D01*
X76790431Y-95760702D01*
X76701354Y-95555840D01*
X76651491Y-95478763D01*
X76640471Y-95461728D01*
X90254772Y-95461728D01*
X90255462Y-95468293D01*
X90273556Y-95640444D01*
X90274734Y-95651656D01*
X90333749Y-95833284D01*
X90429236Y-95998672D01*
X90433654Y-96003579D01*
X90433655Y-96003580D01*
X90552601Y-96135683D01*
X90557023Y-96140594D01*
X90711524Y-96252846D01*
X90717552Y-96255530D01*
X90717554Y-96255531D01*
X90879957Y-96327837D01*
X90885988Y-96330522D01*
X90941672Y-96342358D01*
X90955282Y-96345251D01*
X91017755Y-96378980D01*
X91052077Y-96441129D01*
X91052367Y-96442906D01*
X91052394Y-96442900D01*
X91053768Y-96449364D01*
X91054458Y-96455928D01*
X91113473Y-96637556D01*
X91208960Y-96802944D01*
X91213378Y-96807851D01*
X91213379Y-96807852D01*
X91276639Y-96878109D01*
X91336747Y-96944866D01*
X91491248Y-97057118D01*
X91497276Y-97059802D01*
X91497278Y-97059803D01*
X91659681Y-97132109D01*
X91665712Y-97134794D01*
X91759113Y-97154647D01*
X91846056Y-97173128D01*
X91846061Y-97173128D01*
X91852513Y-97174500D01*
X92043487Y-97174500D01*
X92049939Y-97173128D01*
X92049944Y-97173128D01*
X92136887Y-97154647D01*
X92230288Y-97134794D01*
X92236319Y-97132109D01*
X92398722Y-97059803D01*
X92398724Y-97059802D01*
X92404752Y-97057118D01*
X92559253Y-96944866D01*
X92616365Y-96881436D01*
X92676810Y-96844198D01*
X92747794Y-96845550D01*
X92803634Y-96881436D01*
X92860747Y-96944866D01*
X93015248Y-97057118D01*
X93021276Y-97059802D01*
X93021278Y-97059803D01*
X93183681Y-97132109D01*
X93189712Y-97134794D01*
X93283113Y-97154647D01*
X93370056Y-97173128D01*
X93370061Y-97173128D01*
X93376513Y-97174500D01*
X93567487Y-97174500D01*
X93573939Y-97173128D01*
X93573944Y-97173128D01*
X93660887Y-97154647D01*
X93754288Y-97134794D01*
X93760319Y-97132109D01*
X93922722Y-97059803D01*
X93922724Y-97059802D01*
X93928752Y-97057118D01*
X94083253Y-96944866D01*
X94143361Y-96878109D01*
X94206621Y-96807852D01*
X94206622Y-96807851D01*
X94211040Y-96802944D01*
X94306527Y-96637556D01*
X94365542Y-96455928D01*
X94367098Y-96441129D01*
X94384814Y-96272565D01*
X94385504Y-96266000D01*
X94372732Y-96144477D01*
X94366232Y-96082635D01*
X94366232Y-96082633D01*
X94365542Y-96076072D01*
X94344724Y-96012000D01*
X103734496Y-96012000D01*
X103735186Y-96018565D01*
X103748012Y-96140594D01*
X103754458Y-96201928D01*
X103813473Y-96383556D01*
X103908960Y-96548944D01*
X103913378Y-96553851D01*
X103913379Y-96553852D01*
X104032325Y-96685955D01*
X104036747Y-96690866D01*
X104191248Y-96803118D01*
X104197276Y-96805802D01*
X104197278Y-96805803D01*
X104286552Y-96845550D01*
X104365712Y-96880794D01*
X104459112Y-96900647D01*
X104546056Y-96919128D01*
X104546061Y-96919128D01*
X104552513Y-96920500D01*
X104743487Y-96920500D01*
X104749939Y-96919128D01*
X104749944Y-96919128D01*
X104836888Y-96900647D01*
X104930288Y-96880794D01*
X105009448Y-96845550D01*
X105098722Y-96805803D01*
X105098724Y-96805802D01*
X105104752Y-96803118D01*
X105259253Y-96690866D01*
X105263675Y-96685955D01*
X105382621Y-96553852D01*
X105382622Y-96553851D01*
X105387040Y-96548944D01*
X105482527Y-96383556D01*
X105541542Y-96201928D01*
X105547989Y-96140594D01*
X105560814Y-96018565D01*
X105561504Y-96012000D01*
X125070496Y-96012000D01*
X125071186Y-96018565D01*
X125084012Y-96140594D01*
X125090458Y-96201928D01*
X125149473Y-96383556D01*
X125244960Y-96548944D01*
X125249378Y-96553851D01*
X125249379Y-96553852D01*
X125368325Y-96685955D01*
X125372747Y-96690866D01*
X125527248Y-96803118D01*
X125533276Y-96805802D01*
X125533278Y-96805803D01*
X125622552Y-96845550D01*
X125701712Y-96880794D01*
X125795112Y-96900647D01*
X125882056Y-96919128D01*
X125882061Y-96919128D01*
X125888513Y-96920500D01*
X126079487Y-96920500D01*
X126085939Y-96919128D01*
X126085944Y-96919128D01*
X126172888Y-96900647D01*
X126266288Y-96880794D01*
X126345448Y-96845550D01*
X126434722Y-96805803D01*
X126434724Y-96805802D01*
X126440752Y-96803118D01*
X126595253Y-96690866D01*
X126599675Y-96685955D01*
X126718621Y-96553852D01*
X126718622Y-96553851D01*
X126723040Y-96548944D01*
X126818527Y-96383556D01*
X126877542Y-96201928D01*
X126883989Y-96140594D01*
X126896814Y-96018565D01*
X126897504Y-96012000D01*
X126879322Y-95839007D01*
X126878232Y-95828635D01*
X126878232Y-95828633D01*
X126877542Y-95822072D01*
X126818527Y-95640444D01*
X126723040Y-95475056D01*
X126711040Y-95461728D01*
X126599675Y-95338045D01*
X126599674Y-95338044D01*
X126595253Y-95333134D01*
X126440752Y-95220882D01*
X126434724Y-95218198D01*
X126434722Y-95218197D01*
X126272319Y-95145891D01*
X126272318Y-95145891D01*
X126266288Y-95143206D01*
X126172888Y-95123353D01*
X126085944Y-95104872D01*
X126085939Y-95104872D01*
X126079487Y-95103500D01*
X125888513Y-95103500D01*
X125882061Y-95104872D01*
X125882056Y-95104872D01*
X125795113Y-95123353D01*
X125701712Y-95143206D01*
X125695682Y-95145891D01*
X125695681Y-95145891D01*
X125533278Y-95218197D01*
X125533276Y-95218198D01*
X125527248Y-95220882D01*
X125372747Y-95333134D01*
X125368326Y-95338044D01*
X125368325Y-95338045D01*
X125256961Y-95461728D01*
X125244960Y-95475056D01*
X125149473Y-95640444D01*
X125090458Y-95822072D01*
X125089768Y-95828633D01*
X125089768Y-95828635D01*
X125088678Y-95839007D01*
X125070496Y-96012000D01*
X105561504Y-96012000D01*
X105543322Y-95839007D01*
X105542232Y-95828635D01*
X105542232Y-95828633D01*
X105541542Y-95822072D01*
X105482527Y-95640444D01*
X105387040Y-95475056D01*
X105375040Y-95461728D01*
X105263675Y-95338045D01*
X105263674Y-95338044D01*
X105259253Y-95333134D01*
X105104752Y-95220882D01*
X105098724Y-95218198D01*
X105098722Y-95218197D01*
X104936319Y-95145891D01*
X104936318Y-95145891D01*
X104930288Y-95143206D01*
X104836888Y-95123353D01*
X104749944Y-95104872D01*
X104749939Y-95104872D01*
X104743487Y-95103500D01*
X104552513Y-95103500D01*
X104546061Y-95104872D01*
X104546056Y-95104872D01*
X104459113Y-95123353D01*
X104365712Y-95143206D01*
X104359682Y-95145891D01*
X104359681Y-95145891D01*
X104197278Y-95218197D01*
X104197276Y-95218198D01*
X104191248Y-95220882D01*
X104036747Y-95333134D01*
X104032326Y-95338044D01*
X104032325Y-95338045D01*
X103920961Y-95461728D01*
X103908960Y-95475056D01*
X103813473Y-95640444D01*
X103754458Y-95822072D01*
X103753768Y-95828633D01*
X103753768Y-95828635D01*
X103752678Y-95839007D01*
X103734496Y-96012000D01*
X94344724Y-96012000D01*
X94306527Y-95894444D01*
X94211040Y-95729056D01*
X94135440Y-95645093D01*
X94087675Y-95592045D01*
X94087674Y-95592044D01*
X94083253Y-95587134D01*
X93928752Y-95474882D01*
X93922724Y-95472198D01*
X93922722Y-95472197D01*
X93759481Y-95399518D01*
X93705385Y-95353538D01*
X93685420Y-95297582D01*
X93681304Y-95258417D01*
X93681303Y-95258414D01*
X93680614Y-95251855D01*
X93621599Y-95070227D01*
X93597106Y-95027803D01*
X93541676Y-94931797D01*
X93526112Y-94904839D01*
X93481702Y-94855516D01*
X93402747Y-94767828D01*
X93402746Y-94767827D01*
X93398325Y-94762917D01*
X93276618Y-94674491D01*
X93249166Y-94654546D01*
X93249165Y-94654545D01*
X93243824Y-94650665D01*
X93237796Y-94647981D01*
X93237794Y-94647980D01*
X93075391Y-94575674D01*
X93075390Y-94575674D01*
X93069360Y-94572989D01*
X92947737Y-94547137D01*
X92889016Y-94534655D01*
X92889011Y-94534655D01*
X92882559Y-94533283D01*
X92691585Y-94533283D01*
X92685133Y-94534655D01*
X92685128Y-94534655D01*
X92626407Y-94547137D01*
X92504784Y-94572989D01*
X92498754Y-94575674D01*
X92498753Y-94575674D01*
X92336350Y-94647980D01*
X92336348Y-94647981D01*
X92330320Y-94650665D01*
X92324979Y-94654545D01*
X92324978Y-94654546D01*
X92297526Y-94674491D01*
X92175819Y-94762917D01*
X92062328Y-94888961D01*
X92001886Y-94926199D01*
X91930902Y-94924847D01*
X91875059Y-94888959D01*
X91873645Y-94887388D01*
X91820990Y-94828909D01*
X91783951Y-94787773D01*
X91783950Y-94787772D01*
X91779529Y-94782862D01*
X91625028Y-94670610D01*
X91619000Y-94667926D01*
X91618998Y-94667925D01*
X91456595Y-94595619D01*
X91456594Y-94595619D01*
X91450564Y-94592934D01*
X91350276Y-94571617D01*
X91270220Y-94554600D01*
X91270215Y-94554600D01*
X91263763Y-94553228D01*
X91072789Y-94553228D01*
X91066337Y-94554600D01*
X91066332Y-94554600D01*
X90986276Y-94571617D01*
X90885988Y-94592934D01*
X90879958Y-94595619D01*
X90879957Y-94595619D01*
X90717554Y-94667925D01*
X90717552Y-94667926D01*
X90711524Y-94670610D01*
X90557023Y-94782862D01*
X90552602Y-94787772D01*
X90552601Y-94787773D01*
X90447195Y-94904839D01*
X90429236Y-94924784D01*
X90400321Y-94974866D01*
X90341636Y-95076512D01*
X90333749Y-95090172D01*
X90274734Y-95271800D01*
X90274044Y-95278361D01*
X90274044Y-95278363D01*
X90267771Y-95338045D01*
X90254772Y-95461728D01*
X76640471Y-95461728D01*
X76582822Y-95372617D01*
X76582820Y-95372614D01*
X76580014Y-95368277D01*
X76429670Y-95203051D01*
X76425619Y-95199852D01*
X76425615Y-95199848D01*
X76258414Y-95067800D01*
X76258410Y-95067798D01*
X76254359Y-95064598D01*
X76213053Y-95041796D01*
X76163084Y-94991364D01*
X76148312Y-94921921D01*
X76173428Y-94855516D01*
X76200780Y-94828909D01*
X76244603Y-94797650D01*
X76379860Y-94701173D01*
X76406636Y-94674491D01*
X76482119Y-94599271D01*
X76538096Y-94543489D01*
X76597594Y-94460689D01*
X76665435Y-94366277D01*
X76668453Y-94362077D01*
X76697866Y-94302565D01*
X76765136Y-94166453D01*
X76765137Y-94166451D01*
X76767430Y-94161811D01*
X76810127Y-94021279D01*
X106671773Y-94021279D01*
X106672463Y-94027844D01*
X106686023Y-94156857D01*
X106691735Y-94211207D01*
X106750750Y-94392835D01*
X106754053Y-94398557D01*
X106754054Y-94398558D01*
X106772326Y-94430206D01*
X106846237Y-94558223D01*
X106850655Y-94563130D01*
X106850656Y-94563131D01*
X106949834Y-94673279D01*
X106974024Y-94700145D01*
X107128525Y-94812397D01*
X107134553Y-94815081D01*
X107134555Y-94815082D01*
X107185698Y-94837852D01*
X107302989Y-94890073D01*
X107387117Y-94907955D01*
X107483333Y-94928407D01*
X107483338Y-94928407D01*
X107489790Y-94929779D01*
X107680764Y-94929779D01*
X107687216Y-94928407D01*
X107687221Y-94928407D01*
X107783437Y-94907955D01*
X107867565Y-94890073D01*
X107984856Y-94837852D01*
X108035999Y-94815082D01*
X108036001Y-94815081D01*
X108042029Y-94812397D01*
X108196530Y-94700145D01*
X108220720Y-94673279D01*
X108319898Y-94563131D01*
X108319899Y-94563130D01*
X108324317Y-94558223D01*
X108398228Y-94430206D01*
X108416500Y-94398558D01*
X108416501Y-94398557D01*
X108419804Y-94392835D01*
X108451268Y-94296000D01*
X126320496Y-94296000D01*
X126321186Y-94302565D01*
X126338268Y-94465088D01*
X126340458Y-94485928D01*
X126399473Y-94667556D01*
X126494960Y-94832944D01*
X126499378Y-94837851D01*
X126499379Y-94837852D01*
X126592161Y-94940897D01*
X126622747Y-94974866D01*
X126712433Y-95040027D01*
X126754000Y-95070227D01*
X126777248Y-95087118D01*
X126783276Y-95089802D01*
X126783278Y-95089803D01*
X126903224Y-95143206D01*
X126951712Y-95164794D01*
X127026238Y-95180635D01*
X127132056Y-95203128D01*
X127132061Y-95203128D01*
X127138513Y-95204500D01*
X127329487Y-95204500D01*
X127335939Y-95203128D01*
X127335944Y-95203128D01*
X127441762Y-95180635D01*
X127516288Y-95164794D01*
X127564776Y-95143206D01*
X127684722Y-95089803D01*
X127684724Y-95089802D01*
X127690752Y-95087118D01*
X127714001Y-95070227D01*
X127755567Y-95040027D01*
X127845253Y-94974866D01*
X127875839Y-94940897D01*
X127968621Y-94837852D01*
X127968622Y-94837851D01*
X127973040Y-94832944D01*
X128068527Y-94667556D01*
X128127542Y-94485928D01*
X128129733Y-94465088D01*
X128146814Y-94302565D01*
X128147504Y-94296000D01*
X128140988Y-94234000D01*
X132436496Y-94234000D01*
X132437186Y-94240565D01*
X132453792Y-94398558D01*
X132456458Y-94423928D01*
X132515473Y-94605556D01*
X132518776Y-94611278D01*
X132518777Y-94611279D01*
X132541517Y-94650665D01*
X132610960Y-94770944D01*
X132615378Y-94775851D01*
X132615379Y-94775852D01*
X132717221Y-94888959D01*
X132738747Y-94912866D01*
X132893248Y-95025118D01*
X132899276Y-95027802D01*
X132899278Y-95027803D01*
X133061681Y-95100109D01*
X133067712Y-95102794D01*
X133161113Y-95122647D01*
X133248056Y-95141128D01*
X133248061Y-95141128D01*
X133254513Y-95142500D01*
X133445487Y-95142500D01*
X133451939Y-95141128D01*
X133451944Y-95141128D01*
X133538888Y-95122647D01*
X133632288Y-95102794D01*
X133638319Y-95100109D01*
X133800722Y-95027803D01*
X133800724Y-95027802D01*
X133806752Y-95025118D01*
X133961253Y-94912866D01*
X133982779Y-94888959D01*
X134084621Y-94775852D01*
X134084622Y-94775851D01*
X134089040Y-94770944D01*
X134158483Y-94650665D01*
X134181223Y-94611279D01*
X134181224Y-94611278D01*
X134184527Y-94605556D01*
X134243542Y-94423928D01*
X134246209Y-94398558D01*
X134262814Y-94240565D01*
X134263504Y-94234000D01*
X134250748Y-94112635D01*
X134244232Y-94050635D01*
X134244232Y-94050633D01*
X134243542Y-94044072D01*
X134184527Y-93862444D01*
X134166576Y-93831351D01*
X134092341Y-93702774D01*
X134089040Y-93697056D01*
X133961253Y-93555134D01*
X133806752Y-93442882D01*
X133800724Y-93440198D01*
X133800722Y-93440197D01*
X133638319Y-93367891D01*
X133638318Y-93367891D01*
X133632288Y-93365206D01*
X133525056Y-93342413D01*
X133451944Y-93326872D01*
X133451939Y-93326872D01*
X133445487Y-93325500D01*
X133254513Y-93325500D01*
X133248061Y-93326872D01*
X133248056Y-93326872D01*
X133174944Y-93342413D01*
X133067712Y-93365206D01*
X133061682Y-93367891D01*
X133061681Y-93367891D01*
X132899278Y-93440197D01*
X132899276Y-93440198D01*
X132893248Y-93442882D01*
X132738747Y-93555134D01*
X132610960Y-93697056D01*
X132607659Y-93702774D01*
X132533425Y-93831351D01*
X132515473Y-93862444D01*
X132456458Y-94044072D01*
X132455768Y-94050633D01*
X132455768Y-94050635D01*
X132449252Y-94112635D01*
X132436496Y-94234000D01*
X128140988Y-94234000D01*
X128127542Y-94106072D01*
X128068527Y-93924444D01*
X127973040Y-93759056D01*
X127845253Y-93617134D01*
X127730020Y-93533412D01*
X127686666Y-93477190D01*
X127680591Y-93406453D01*
X127713723Y-93343662D01*
X127775543Y-93308750D01*
X127820745Y-93306583D01*
X127904044Y-93317697D01*
X127918040Y-93317991D01*
X128073360Y-93303855D01*
X128087085Y-93301038D01*
X128235415Y-93252843D01*
X128244055Y-93248924D01*
X128251463Y-93240934D01*
X128501239Y-93240934D01*
X128504022Y-93244652D01*
X128635857Y-93293681D01*
X128649448Y-93297070D01*
X128804044Y-93317697D01*
X128818040Y-93317991D01*
X128973360Y-93303855D01*
X128987085Y-93301038D01*
X129135415Y-93252843D01*
X129144055Y-93248924D01*
X129152430Y-93239891D01*
X129148925Y-93231478D01*
X128839812Y-92922365D01*
X128825868Y-92914751D01*
X128824035Y-92914882D01*
X128817420Y-92919133D01*
X128507999Y-93228554D01*
X128501239Y-93240934D01*
X128251463Y-93240934D01*
X128252430Y-93239891D01*
X128248925Y-93231478D01*
X127939812Y-92922365D01*
X127925868Y-92914751D01*
X127924035Y-92914882D01*
X127917420Y-92919133D01*
X127607999Y-93228554D01*
X127600385Y-93242498D01*
X127602315Y-93269489D01*
X127606967Y-93281961D01*
X127591876Y-93351335D01*
X127541674Y-93401538D01*
X127472300Y-93416630D01*
X127455091Y-93414198D01*
X127335944Y-93388872D01*
X127335939Y-93388872D01*
X127329487Y-93387500D01*
X127138513Y-93387500D01*
X127132061Y-93388872D01*
X127132056Y-93388872D01*
X127058205Y-93404570D01*
X126951712Y-93427206D01*
X126945682Y-93429891D01*
X126945681Y-93429891D01*
X126783278Y-93502197D01*
X126783276Y-93502198D01*
X126777248Y-93504882D01*
X126622747Y-93617134D01*
X126494960Y-93759056D01*
X126399473Y-93924444D01*
X126340458Y-94106072D01*
X126320496Y-94296000D01*
X108451268Y-94296000D01*
X108478819Y-94211207D01*
X108484532Y-94156857D01*
X108498091Y-94027844D01*
X108498781Y-94021279D01*
X108482087Y-93862444D01*
X108479509Y-93837914D01*
X108479509Y-93837912D01*
X108478819Y-93831351D01*
X108419804Y-93649723D01*
X108324317Y-93484335D01*
X108286669Y-93442522D01*
X108200952Y-93347324D01*
X108200951Y-93347323D01*
X108196530Y-93342413D01*
X108061974Y-93244652D01*
X108047371Y-93234042D01*
X108047370Y-93234041D01*
X108042029Y-93230161D01*
X108036001Y-93227477D01*
X108035999Y-93227476D01*
X107873596Y-93155170D01*
X107873595Y-93155170D01*
X107867565Y-93152485D01*
X107774165Y-93132632D01*
X107687221Y-93114151D01*
X107687216Y-93114151D01*
X107680764Y-93112779D01*
X107489790Y-93112779D01*
X107483338Y-93114151D01*
X107483333Y-93114151D01*
X107396389Y-93132632D01*
X107302989Y-93152485D01*
X107296959Y-93155170D01*
X107296958Y-93155170D01*
X107134555Y-93227476D01*
X107134553Y-93227477D01*
X107128525Y-93230161D01*
X107123184Y-93234041D01*
X107123183Y-93234042D01*
X107108580Y-93244652D01*
X106974024Y-93342413D01*
X106969603Y-93347323D01*
X106969602Y-93347324D01*
X106883886Y-93442522D01*
X106846237Y-93484335D01*
X106750750Y-93649723D01*
X106691735Y-93831351D01*
X106691045Y-93837912D01*
X106691045Y-93837914D01*
X106688467Y-93862444D01*
X106671773Y-94021279D01*
X76810127Y-94021279D01*
X76832370Y-93948069D01*
X76861529Y-93726590D01*
X76863156Y-93660000D01*
X76844852Y-93437361D01*
X76790431Y-93220702D01*
X76701354Y-93015840D01*
X76640882Y-92922365D01*
X76582822Y-92832617D01*
X76582820Y-92832614D01*
X76580014Y-92828277D01*
X76429670Y-92663051D01*
X76425619Y-92659852D01*
X76425615Y-92659848D01*
X76258414Y-92527800D01*
X76258410Y-92527798D01*
X76254359Y-92524598D01*
X76213053Y-92501796D01*
X76163084Y-92451364D01*
X76148312Y-92381921D01*
X76173428Y-92315516D01*
X76200780Y-92288909D01*
X76217476Y-92277000D01*
X88128496Y-92277000D01*
X88129186Y-92283565D01*
X88140562Y-92391797D01*
X88148458Y-92466928D01*
X88207473Y-92648556D01*
X88210776Y-92654278D01*
X88210777Y-92654279D01*
X88241553Y-92707585D01*
X88302960Y-92813944D01*
X88307378Y-92818851D01*
X88307379Y-92818852D01*
X88402325Y-92924300D01*
X88430747Y-92955866D01*
X88585248Y-93068118D01*
X88591276Y-93070802D01*
X88591278Y-93070803D01*
X88688640Y-93114151D01*
X88759712Y-93145794D01*
X88853113Y-93165647D01*
X88940056Y-93184128D01*
X88940061Y-93184128D01*
X88946513Y-93185500D01*
X89137487Y-93185500D01*
X89143939Y-93184128D01*
X89143944Y-93184128D01*
X89230887Y-93165647D01*
X89324288Y-93145794D01*
X89395360Y-93114151D01*
X89492722Y-93070803D01*
X89492724Y-93070802D01*
X89498752Y-93068118D01*
X89653253Y-92955866D01*
X89681675Y-92924300D01*
X89776621Y-92818852D01*
X89776622Y-92818851D01*
X89781040Y-92813944D01*
X89842447Y-92707585D01*
X89873223Y-92654279D01*
X89873224Y-92654278D01*
X89876527Y-92648556D01*
X89935542Y-92466928D01*
X89943439Y-92391797D01*
X89954814Y-92283565D01*
X89955504Y-92277000D01*
X89935542Y-92087072D01*
X89912384Y-92015800D01*
X101262296Y-92015800D01*
X101262986Y-92022365D01*
X101270856Y-92097240D01*
X101282258Y-92205728D01*
X101341273Y-92387356D01*
X101344576Y-92393078D01*
X101344577Y-92393079D01*
X101349091Y-92400897D01*
X101436760Y-92552744D01*
X101441178Y-92557651D01*
X101441179Y-92557652D01*
X101523029Y-92648556D01*
X101564547Y-92694666D01*
X101719048Y-92806918D01*
X101725076Y-92809602D01*
X101725078Y-92809603D01*
X101887481Y-92881909D01*
X101893512Y-92884594D01*
X101986913Y-92904447D01*
X102073856Y-92922928D01*
X102073861Y-92922928D01*
X102080313Y-92924300D01*
X102271287Y-92924300D01*
X102277739Y-92922928D01*
X102277744Y-92922928D01*
X102364687Y-92904447D01*
X102458088Y-92884594D01*
X102464119Y-92881909D01*
X102626522Y-92809603D01*
X102626524Y-92809602D01*
X102632552Y-92806918D01*
X102787053Y-92694666D01*
X102828571Y-92648556D01*
X102910421Y-92557652D01*
X102910422Y-92557651D01*
X102914840Y-92552744D01*
X103002509Y-92400897D01*
X103007023Y-92393079D01*
X103007024Y-92393078D01*
X103010327Y-92387356D01*
X103069342Y-92205728D01*
X103080745Y-92097240D01*
X103088614Y-92022365D01*
X103089304Y-92015800D01*
X103072920Y-91859915D01*
X103070032Y-91832435D01*
X103070032Y-91832433D01*
X103069342Y-91825872D01*
X103026494Y-91694000D01*
X117704496Y-91694000D01*
X117705186Y-91700565D01*
X117721909Y-91859671D01*
X117724458Y-91883928D01*
X117783473Y-92065556D01*
X117878960Y-92230944D01*
X117883378Y-92235851D01*
X117883379Y-92235852D01*
X117914518Y-92270435D01*
X118006747Y-92372866D01*
X118048714Y-92403357D01*
X118144853Y-92473206D01*
X118161248Y-92485118D01*
X118167276Y-92487802D01*
X118167278Y-92487803D01*
X118327112Y-92558965D01*
X118335712Y-92562794D01*
X118422404Y-92581221D01*
X118516056Y-92601128D01*
X118516061Y-92601128D01*
X118522513Y-92602500D01*
X118713487Y-92602500D01*
X118719939Y-92601128D01*
X118719944Y-92601128D01*
X118813596Y-92581221D01*
X118900288Y-92562794D01*
X118908888Y-92558965D01*
X118923719Y-92552362D01*
X127164966Y-92552362D01*
X127180186Y-92707585D01*
X127183097Y-92721280D01*
X127232327Y-92869270D01*
X127234729Y-92874468D01*
X127242717Y-92881772D01*
X127251338Y-92878109D01*
X127560635Y-92568812D01*
X127567013Y-92557132D01*
X128285751Y-92557132D01*
X128285882Y-92558965D01*
X128290133Y-92565580D01*
X128364188Y-92639635D01*
X128378132Y-92647249D01*
X128379965Y-92647118D01*
X128386580Y-92642867D01*
X128460635Y-92568812D01*
X128467013Y-92557132D01*
X129185751Y-92557132D01*
X129185882Y-92558965D01*
X129190133Y-92565580D01*
X129499178Y-92874625D01*
X129511558Y-92881385D01*
X129515374Y-92878528D01*
X129563331Y-92752283D01*
X129566811Y-92738727D01*
X129588948Y-92581221D01*
X129589554Y-92573338D01*
X129589741Y-92559962D01*
X129589354Y-92552062D01*
X129571625Y-92394003D01*
X129568523Y-92380350D01*
X129517700Y-92234407D01*
X129512141Y-92229467D01*
X129503088Y-92233465D01*
X129193365Y-92543188D01*
X129185751Y-92557132D01*
X128467013Y-92557132D01*
X128468249Y-92554868D01*
X128468118Y-92553035D01*
X128463867Y-92546420D01*
X128389812Y-92472365D01*
X128375868Y-92464751D01*
X128374035Y-92464882D01*
X128367420Y-92469133D01*
X128293365Y-92543188D01*
X128285751Y-92557132D01*
X127567013Y-92557132D01*
X127568249Y-92554868D01*
X127568118Y-92553035D01*
X127563867Y-92546420D01*
X127254039Y-92236592D01*
X127241659Y-92229832D01*
X127238037Y-92232543D01*
X127188001Y-92370016D01*
X127184709Y-92383625D01*
X127165162Y-92538356D01*
X127164966Y-92552362D01*
X118923719Y-92552362D01*
X119068722Y-92487803D01*
X119068724Y-92487802D01*
X119074752Y-92485118D01*
X119091148Y-92473206D01*
X119187286Y-92403357D01*
X119229253Y-92372866D01*
X119321482Y-92270435D01*
X119352621Y-92235852D01*
X119352622Y-92235851D01*
X119357040Y-92230944D01*
X119452527Y-92065556D01*
X119511542Y-91883928D01*
X119513041Y-91869666D01*
X127600152Y-91869666D01*
X127604684Y-91880131D01*
X127739188Y-92014635D01*
X127753132Y-92022249D01*
X127754965Y-92022118D01*
X127761580Y-92017867D01*
X128010635Y-91768812D01*
X128017013Y-91757132D01*
X128735751Y-91757132D01*
X128735882Y-91758965D01*
X128740133Y-91765580D01*
X128989188Y-92014635D01*
X129003132Y-92022249D01*
X129004965Y-92022118D01*
X129011580Y-92017867D01*
X129146847Y-91882600D01*
X129154461Y-91868656D01*
X129153819Y-91859671D01*
X129137060Y-91814738D01*
X129137965Y-91788214D01*
X129138948Y-91781222D01*
X129139554Y-91773338D01*
X129139741Y-91759962D01*
X129139354Y-91752062D01*
X129135977Y-91721953D01*
X129148261Y-91652027D01*
X129152285Y-91646190D01*
X129153115Y-91641535D01*
X129148925Y-91631478D01*
X129014812Y-91497365D01*
X129000868Y-91489751D01*
X128999035Y-91489882D01*
X128992420Y-91494133D01*
X128743365Y-91743188D01*
X128735751Y-91757132D01*
X128017013Y-91757132D01*
X128018249Y-91754868D01*
X128018118Y-91753035D01*
X128013867Y-91746420D01*
X127764812Y-91497365D01*
X127750868Y-91489751D01*
X127749035Y-91489882D01*
X127742420Y-91494133D01*
X127607999Y-91628554D01*
X127600385Y-91642498D01*
X127601005Y-91651174D01*
X127617971Y-91696663D01*
X127617299Y-91721442D01*
X127615161Y-91738363D01*
X127614966Y-91752361D01*
X127618673Y-91790167D01*
X127605414Y-91859915D01*
X127600608Y-91866887D01*
X127600152Y-91869666D01*
X119513041Y-91869666D01*
X119514092Y-91859671D01*
X119530814Y-91700565D01*
X119531504Y-91694000D01*
X119526479Y-91646190D01*
X119512232Y-91510635D01*
X119512232Y-91510633D01*
X119511542Y-91504072D01*
X119452527Y-91322444D01*
X119357040Y-91157056D01*
X119258170Y-91047249D01*
X119233675Y-91020045D01*
X119233674Y-91020044D01*
X119229253Y-91015134D01*
X119142855Y-90952362D01*
X127164966Y-90952362D01*
X127180186Y-91107585D01*
X127183097Y-91121280D01*
X127232327Y-91269270D01*
X127234729Y-91274468D01*
X127242717Y-91281772D01*
X127251338Y-91278109D01*
X127560635Y-90968812D01*
X127567013Y-90957132D01*
X128285751Y-90957132D01*
X128285882Y-90958965D01*
X128290133Y-90965580D01*
X128364188Y-91039635D01*
X128378132Y-91047249D01*
X128379965Y-91047118D01*
X128386580Y-91042867D01*
X128460635Y-90968812D01*
X128467013Y-90957132D01*
X129185751Y-90957132D01*
X129185882Y-90958965D01*
X129190133Y-90965580D01*
X129499178Y-91274625D01*
X129511558Y-91281385D01*
X129515374Y-91278528D01*
X129563331Y-91152283D01*
X129566811Y-91138727D01*
X129588948Y-90981221D01*
X129589554Y-90973338D01*
X129589741Y-90959962D01*
X129589354Y-90952062D01*
X129571625Y-90794003D01*
X129568523Y-90780350D01*
X129517700Y-90634407D01*
X129512141Y-90629467D01*
X129503088Y-90633465D01*
X129193365Y-90943188D01*
X129185751Y-90957132D01*
X128467013Y-90957132D01*
X128468249Y-90954868D01*
X128468118Y-90953035D01*
X128463867Y-90946420D01*
X128389812Y-90872365D01*
X128375868Y-90864751D01*
X128374035Y-90864882D01*
X128367420Y-90869133D01*
X128293365Y-90943188D01*
X128285751Y-90957132D01*
X127567013Y-90957132D01*
X127568249Y-90954868D01*
X127568118Y-90953035D01*
X127563867Y-90946420D01*
X127254039Y-90636592D01*
X127241659Y-90629832D01*
X127238037Y-90632543D01*
X127188001Y-90770016D01*
X127184709Y-90783625D01*
X127165162Y-90938356D01*
X127164966Y-90952362D01*
X119142855Y-90952362D01*
X119074752Y-90902882D01*
X119068724Y-90900198D01*
X119068722Y-90900197D01*
X118906319Y-90827891D01*
X118906318Y-90827891D01*
X118900288Y-90825206D01*
X118778425Y-90799303D01*
X118719944Y-90786872D01*
X118719939Y-90786872D01*
X118713487Y-90785500D01*
X118522513Y-90785500D01*
X118516061Y-90786872D01*
X118516056Y-90786872D01*
X118457575Y-90799303D01*
X118335712Y-90825206D01*
X118329682Y-90827891D01*
X118329681Y-90827891D01*
X118167278Y-90900197D01*
X118167276Y-90900198D01*
X118161248Y-90902882D01*
X118006747Y-91015134D01*
X118002326Y-91020044D01*
X118002325Y-91020045D01*
X117977831Y-91047249D01*
X117878960Y-91157056D01*
X117783473Y-91322444D01*
X117724458Y-91504072D01*
X117723768Y-91510633D01*
X117723768Y-91510635D01*
X117709521Y-91646190D01*
X117704496Y-91694000D01*
X103026494Y-91694000D01*
X103010327Y-91644244D01*
X103001269Y-91628554D01*
X102940093Y-91522596D01*
X102914840Y-91478856D01*
X102816711Y-91369872D01*
X102791475Y-91341845D01*
X102791474Y-91341844D01*
X102787053Y-91336934D01*
X102632552Y-91224682D01*
X102626524Y-91221998D01*
X102626522Y-91221997D01*
X102464119Y-91149691D01*
X102464118Y-91149691D01*
X102458088Y-91147006D01*
X102364687Y-91127153D01*
X102277744Y-91108672D01*
X102277739Y-91108672D01*
X102271287Y-91107300D01*
X102080313Y-91107300D01*
X102073861Y-91108672D01*
X102073856Y-91108672D01*
X101986913Y-91127153D01*
X101893512Y-91147006D01*
X101887482Y-91149691D01*
X101887481Y-91149691D01*
X101725078Y-91221997D01*
X101725076Y-91221998D01*
X101719048Y-91224682D01*
X101564547Y-91336934D01*
X101560126Y-91341844D01*
X101560125Y-91341845D01*
X101534890Y-91369872D01*
X101436760Y-91478856D01*
X101411507Y-91522596D01*
X101350332Y-91628554D01*
X101341273Y-91644244D01*
X101282258Y-91825872D01*
X101281568Y-91832433D01*
X101281568Y-91832435D01*
X101278680Y-91859915D01*
X101262296Y-92015800D01*
X89912384Y-92015800D01*
X89876527Y-91905444D01*
X89781040Y-91740056D01*
X89701779Y-91652027D01*
X89657675Y-91603045D01*
X89657674Y-91603044D01*
X89653253Y-91598134D01*
X89549284Y-91522596D01*
X89504094Y-91489763D01*
X89504093Y-91489762D01*
X89498752Y-91485882D01*
X89492724Y-91483198D01*
X89492722Y-91483197D01*
X89330319Y-91410891D01*
X89330318Y-91410891D01*
X89324288Y-91408206D01*
X89230888Y-91388353D01*
X89143944Y-91369872D01*
X89143939Y-91369872D01*
X89137487Y-91368500D01*
X88946513Y-91368500D01*
X88940061Y-91369872D01*
X88940056Y-91369872D01*
X88853112Y-91388353D01*
X88759712Y-91408206D01*
X88753682Y-91410891D01*
X88753681Y-91410891D01*
X88591278Y-91483197D01*
X88591276Y-91483198D01*
X88585248Y-91485882D01*
X88579907Y-91489762D01*
X88579906Y-91489763D01*
X88534716Y-91522596D01*
X88430747Y-91598134D01*
X88426326Y-91603044D01*
X88426325Y-91603045D01*
X88382222Y-91652027D01*
X88302960Y-91740056D01*
X88207473Y-91905444D01*
X88148458Y-92087072D01*
X88128496Y-92277000D01*
X76217476Y-92277000D01*
X76244603Y-92257650D01*
X76379860Y-92161173D01*
X76538096Y-92003489D01*
X76597594Y-91920689D01*
X76665435Y-91826277D01*
X76668453Y-91822077D01*
X76696376Y-91765580D01*
X76765136Y-91626453D01*
X76765137Y-91626451D01*
X76767430Y-91621811D01*
X76832370Y-91408069D01*
X76861529Y-91186590D01*
X76862530Y-91145634D01*
X76863074Y-91123365D01*
X76863074Y-91123361D01*
X76863156Y-91120000D01*
X76844852Y-90897361D01*
X76790431Y-90680702D01*
X76701354Y-90475840D01*
X76633382Y-90370771D01*
X76582822Y-90292617D01*
X76582820Y-90292614D01*
X76580014Y-90288277D01*
X76576532Y-90284450D01*
X76432798Y-90126488D01*
X76401746Y-90062642D01*
X76410141Y-89992143D01*
X76455317Y-89937375D01*
X76481761Y-89923706D01*
X76588297Y-89883767D01*
X76596705Y-89880615D01*
X76713261Y-89793261D01*
X76800615Y-89676705D01*
X76851745Y-89540316D01*
X76858500Y-89478134D01*
X76858500Y-89408000D01*
X101702496Y-89408000D01*
X101703186Y-89414565D01*
X101719710Y-89571779D01*
X101722458Y-89597928D01*
X101781473Y-89779556D01*
X101784776Y-89785278D01*
X101784777Y-89785279D01*
X101792492Y-89798642D01*
X101876960Y-89944944D01*
X101881378Y-89949851D01*
X101881379Y-89949852D01*
X101919458Y-89992143D01*
X102004747Y-90086866D01*
X102159248Y-90199118D01*
X102165276Y-90201802D01*
X102165278Y-90201803D01*
X102320220Y-90270787D01*
X102333712Y-90276794D01*
X102408153Y-90292617D01*
X102514056Y-90315128D01*
X102514061Y-90315128D01*
X102520513Y-90316500D01*
X102711487Y-90316500D01*
X102717939Y-90315128D01*
X102717944Y-90315128D01*
X102823847Y-90292617D01*
X102898288Y-90276794D01*
X102911780Y-90270787D01*
X103066722Y-90201803D01*
X103066724Y-90201802D01*
X103072752Y-90199118D01*
X103227253Y-90086866D01*
X103300515Y-90005500D01*
X104242496Y-90005500D01*
X104243186Y-90012065D01*
X104252744Y-90103000D01*
X104262458Y-90195428D01*
X104321473Y-90377056D01*
X104416960Y-90542444D01*
X104421378Y-90547351D01*
X104421379Y-90547352D01*
X104513178Y-90649305D01*
X104544747Y-90684366D01*
X104699248Y-90796618D01*
X104705276Y-90799302D01*
X104705278Y-90799303D01*
X104851871Y-90864570D01*
X104873712Y-90874294D01*
X104958621Y-90892342D01*
X105054056Y-90912628D01*
X105054061Y-90912628D01*
X105060513Y-90914000D01*
X105251487Y-90914000D01*
X105257939Y-90912628D01*
X105257944Y-90912628D01*
X105353379Y-90892342D01*
X105438288Y-90874294D01*
X105460129Y-90864570D01*
X105606722Y-90799303D01*
X105606724Y-90799302D01*
X105612752Y-90796618D01*
X105767253Y-90684366D01*
X105798822Y-90649305D01*
X105890621Y-90547352D01*
X105890622Y-90547351D01*
X105895040Y-90542444D01*
X105990527Y-90377056D01*
X106049542Y-90195428D01*
X106059257Y-90103000D01*
X106068814Y-90012065D01*
X106069504Y-90005500D01*
X106056710Y-89883768D01*
X106050232Y-89822135D01*
X106050232Y-89822133D01*
X106049542Y-89815572D01*
X105990527Y-89633944D01*
X105895040Y-89468556D01*
X105767253Y-89326634D01*
X105612752Y-89214382D01*
X105606724Y-89211698D01*
X105606722Y-89211697D01*
X105444319Y-89139391D01*
X105444318Y-89139391D01*
X105438288Y-89136706D01*
X105344888Y-89116853D01*
X105257944Y-89098372D01*
X105257939Y-89098372D01*
X105251487Y-89097000D01*
X105060513Y-89097000D01*
X105054061Y-89098372D01*
X105054056Y-89098372D01*
X104967112Y-89116853D01*
X104873712Y-89136706D01*
X104867682Y-89139391D01*
X104867681Y-89139391D01*
X104705278Y-89211697D01*
X104705276Y-89211698D01*
X104699248Y-89214382D01*
X104544747Y-89326634D01*
X104416960Y-89468556D01*
X104321473Y-89633944D01*
X104262458Y-89815572D01*
X104261768Y-89822133D01*
X104261768Y-89822135D01*
X104255290Y-89883768D01*
X104242496Y-90005500D01*
X103300515Y-90005500D01*
X103312542Y-89992143D01*
X103350621Y-89949852D01*
X103350622Y-89949851D01*
X103355040Y-89944944D01*
X103439508Y-89798642D01*
X103447223Y-89785279D01*
X103447224Y-89785278D01*
X103450527Y-89779556D01*
X103509542Y-89597928D01*
X103512291Y-89571779D01*
X103528814Y-89414565D01*
X103529504Y-89408000D01*
X103509542Y-89218072D01*
X103450527Y-89036444D01*
X103355040Y-88871056D01*
X103331079Y-88844444D01*
X103231675Y-88734045D01*
X103231674Y-88734044D01*
X103227253Y-88729134D01*
X103128157Y-88657136D01*
X103078094Y-88620763D01*
X103078093Y-88620762D01*
X103072752Y-88616882D01*
X103066724Y-88614198D01*
X103066722Y-88614197D01*
X102904319Y-88541891D01*
X102904318Y-88541891D01*
X102898288Y-88539206D01*
X102804887Y-88519353D01*
X102717944Y-88500872D01*
X102717939Y-88500872D01*
X102711487Y-88499500D01*
X102520513Y-88499500D01*
X102514061Y-88500872D01*
X102514056Y-88500872D01*
X102427113Y-88519353D01*
X102333712Y-88539206D01*
X102327682Y-88541891D01*
X102327681Y-88541891D01*
X102165278Y-88614197D01*
X102165276Y-88614198D01*
X102159248Y-88616882D01*
X102153907Y-88620762D01*
X102153906Y-88620763D01*
X102103843Y-88657136D01*
X102004747Y-88729134D01*
X102000326Y-88734044D01*
X102000325Y-88734045D01*
X101900922Y-88844444D01*
X101876960Y-88871056D01*
X101781473Y-89036444D01*
X101722458Y-89218072D01*
X101702496Y-89408000D01*
X76858500Y-89408000D01*
X76858500Y-88010100D01*
X107544496Y-88010100D01*
X107545186Y-88016665D01*
X107561718Y-88173955D01*
X107564458Y-88200028D01*
X107623473Y-88381656D01*
X107626776Y-88387378D01*
X107626777Y-88387379D01*
X107638179Y-88407128D01*
X107718960Y-88547044D01*
X107846747Y-88688966D01*
X108001248Y-88801218D01*
X108007276Y-88803902D01*
X108007278Y-88803903D01*
X108158107Y-88871056D01*
X108175712Y-88878894D01*
X108269113Y-88898747D01*
X108356056Y-88917228D01*
X108356061Y-88917228D01*
X108362513Y-88918600D01*
X108553487Y-88918600D01*
X108559939Y-88917228D01*
X108559944Y-88917228D01*
X108646887Y-88898747D01*
X108740288Y-88878894D01*
X108757893Y-88871056D01*
X108908722Y-88803903D01*
X108908724Y-88803902D01*
X108914752Y-88801218D01*
X109069253Y-88688966D01*
X109141869Y-88608318D01*
X113147569Y-88608318D01*
X113167531Y-88798246D01*
X113226546Y-88979874D01*
X113229849Y-88985596D01*
X113229850Y-88985597D01*
X113249594Y-89019794D01*
X113322033Y-89145262D01*
X113326451Y-89150169D01*
X113326452Y-89150170D01*
X113384269Y-89214382D01*
X113449820Y-89287184D01*
X113604321Y-89399436D01*
X113610349Y-89402120D01*
X113610351Y-89402121D01*
X113772754Y-89474427D01*
X113778785Y-89477112D01*
X113872185Y-89496965D01*
X113959129Y-89515446D01*
X113959134Y-89515446D01*
X113965586Y-89516818D01*
X114156560Y-89516818D01*
X114163012Y-89515446D01*
X114163017Y-89515446D01*
X114249961Y-89496965D01*
X114343361Y-89477112D01*
X114349392Y-89474427D01*
X114511795Y-89402121D01*
X114511797Y-89402120D01*
X114517825Y-89399436D01*
X114672326Y-89287184D01*
X114737877Y-89214382D01*
X114755779Y-89194500D01*
X126298996Y-89194500D01*
X126299686Y-89201065D01*
X126312476Y-89322751D01*
X126318958Y-89384428D01*
X126377973Y-89566056D01*
X126473460Y-89731444D01*
X126477878Y-89736351D01*
X126477879Y-89736352D01*
X126497238Y-89757852D01*
X126601247Y-89873366D01*
X126690896Y-89938500D01*
X126706521Y-89949852D01*
X126755748Y-89985618D01*
X126761776Y-89988302D01*
X126761778Y-89988303D01*
X126924181Y-90060609D01*
X126930212Y-90063294D01*
X127018005Y-90081955D01*
X127110556Y-90101628D01*
X127110561Y-90101628D01*
X127117013Y-90103000D01*
X127307987Y-90103000D01*
X127314439Y-90101628D01*
X127314444Y-90101628D01*
X127478266Y-90066806D01*
X127549057Y-90072208D01*
X127605689Y-90115025D01*
X127630183Y-90181663D01*
X127614762Y-90250964D01*
X127600637Y-90270787D01*
X127604684Y-90280131D01*
X127914188Y-90589635D01*
X127928132Y-90597249D01*
X127929965Y-90597118D01*
X127936580Y-90592867D01*
X128246848Y-90282599D01*
X128253017Y-90271301D01*
X128500860Y-90271301D01*
X128504685Y-90280132D01*
X128814188Y-90589635D01*
X128828132Y-90597249D01*
X128829965Y-90597118D01*
X128836580Y-90592867D01*
X129146847Y-90282600D01*
X129153607Y-90270220D01*
X129151022Y-90266766D01*
X129150722Y-90266606D01*
X129007820Y-90215720D01*
X128994195Y-90212524D01*
X128839318Y-90194057D01*
X128825321Y-90193959D01*
X128670207Y-90210262D01*
X128656533Y-90213268D01*
X128508884Y-90263532D01*
X128507113Y-90264366D01*
X128500860Y-90271301D01*
X128253017Y-90271301D01*
X128253607Y-90270221D01*
X128251022Y-90266766D01*
X128250722Y-90266606D01*
X128107820Y-90215720D01*
X128094195Y-90212524D01*
X127939318Y-90194057D01*
X127925321Y-90193959D01*
X127763201Y-90210998D01*
X127763043Y-90209497D01*
X127700307Y-90205148D01*
X127643378Y-90162726D01*
X127618422Y-90096260D01*
X127633361Y-90026853D01*
X127670020Y-89985060D01*
X127734104Y-89938500D01*
X127823753Y-89873366D01*
X127927762Y-89757852D01*
X127947121Y-89736352D01*
X127947122Y-89736351D01*
X127951540Y-89731444D01*
X128047027Y-89566056D01*
X128106042Y-89384428D01*
X128112525Y-89322751D01*
X128123744Y-89216000D01*
X133432496Y-89216000D01*
X133452458Y-89405928D01*
X133511473Y-89587556D01*
X133606960Y-89752944D01*
X133611378Y-89757851D01*
X133611379Y-89757852D01*
X133721915Y-89880615D01*
X133734747Y-89894866D01*
X133889248Y-90007118D01*
X133895276Y-90009802D01*
X133895278Y-90009803D01*
X134023310Y-90066806D01*
X134063712Y-90084794D01*
X134157113Y-90104647D01*
X134244056Y-90123128D01*
X134244061Y-90123128D01*
X134250513Y-90124500D01*
X134441487Y-90124500D01*
X134447939Y-90123128D01*
X134447944Y-90123128D01*
X134534888Y-90104647D01*
X134628288Y-90084794D01*
X134668690Y-90066806D01*
X134796722Y-90009803D01*
X134796724Y-90009802D01*
X134802752Y-90007118D01*
X134957253Y-89894866D01*
X134970085Y-89880615D01*
X135080621Y-89757852D01*
X135080622Y-89757851D01*
X135085040Y-89752944D01*
X135180527Y-89587556D01*
X135239542Y-89405928D01*
X135259504Y-89216000D01*
X135239542Y-89026072D01*
X135180527Y-88844444D01*
X135085040Y-88679056D01*
X135065682Y-88657556D01*
X134961675Y-88542045D01*
X134961674Y-88542044D01*
X134957253Y-88537134D01*
X134802752Y-88424882D01*
X134796724Y-88422198D01*
X134796722Y-88422197D01*
X134634319Y-88349891D01*
X134634318Y-88349891D01*
X134628288Y-88347206D01*
X134527139Y-88325706D01*
X134447944Y-88308872D01*
X134447939Y-88308872D01*
X134441487Y-88307500D01*
X134250513Y-88307500D01*
X134244061Y-88308872D01*
X134244056Y-88308872D01*
X134164861Y-88325706D01*
X134063712Y-88347206D01*
X134057682Y-88349891D01*
X134057681Y-88349891D01*
X133895278Y-88422197D01*
X133895276Y-88422198D01*
X133889248Y-88424882D01*
X133734747Y-88537134D01*
X133730326Y-88542044D01*
X133730325Y-88542045D01*
X133626319Y-88657556D01*
X133606960Y-88679056D01*
X133511473Y-88844444D01*
X133452458Y-89026072D01*
X133432496Y-89216000D01*
X128123744Y-89216000D01*
X128125314Y-89201065D01*
X128126004Y-89194500D01*
X128119930Y-89136706D01*
X128106732Y-89011135D01*
X128106732Y-89011133D01*
X128106042Y-89004572D01*
X128047027Y-88822944D01*
X128034484Y-88801218D01*
X127971916Y-88692849D01*
X127951540Y-88657556D01*
X127918412Y-88620763D01*
X127828175Y-88520545D01*
X127828174Y-88520544D01*
X127823753Y-88515634D01*
X127681268Y-88412112D01*
X127674594Y-88407263D01*
X127674593Y-88407262D01*
X127669252Y-88403382D01*
X127663224Y-88400698D01*
X127663222Y-88400697D01*
X127500819Y-88328391D01*
X127500818Y-88328391D01*
X127494788Y-88325706D01*
X127401388Y-88305853D01*
X127314444Y-88287372D01*
X127314439Y-88287372D01*
X127307987Y-88286000D01*
X127117013Y-88286000D01*
X127110561Y-88287372D01*
X127110556Y-88287372D01*
X127023613Y-88305853D01*
X126930212Y-88325706D01*
X126924182Y-88328391D01*
X126924181Y-88328391D01*
X126761778Y-88400697D01*
X126761776Y-88400698D01*
X126755748Y-88403382D01*
X126750407Y-88407262D01*
X126750406Y-88407263D01*
X126743732Y-88412112D01*
X126601247Y-88515634D01*
X126596826Y-88520544D01*
X126596825Y-88520545D01*
X126506589Y-88620763D01*
X126473460Y-88657556D01*
X126453084Y-88692849D01*
X126390517Y-88801218D01*
X126377973Y-88822944D01*
X126318958Y-89004572D01*
X126318268Y-89011133D01*
X126318268Y-89011135D01*
X126305070Y-89136706D01*
X126298996Y-89194500D01*
X114755779Y-89194500D01*
X114795694Y-89150170D01*
X114795695Y-89150169D01*
X114800113Y-89145262D01*
X114872552Y-89019794D01*
X114892296Y-88985597D01*
X114892297Y-88985596D01*
X114895600Y-88979874D01*
X114954615Y-88798246D01*
X114974577Y-88608318D01*
X114954615Y-88418390D01*
X114895600Y-88236762D01*
X114800113Y-88071374D01*
X114788746Y-88058749D01*
X114676748Y-87934363D01*
X114676747Y-87934362D01*
X114672326Y-87929452D01*
X114517825Y-87817200D01*
X114511797Y-87814516D01*
X114511795Y-87814515D01*
X114349392Y-87742209D01*
X114349391Y-87742209D01*
X114343361Y-87739524D01*
X114249961Y-87719671D01*
X114163017Y-87701190D01*
X114163012Y-87701190D01*
X114156560Y-87699818D01*
X113965586Y-87699818D01*
X113959134Y-87701190D01*
X113959129Y-87701190D01*
X113872185Y-87719671D01*
X113778785Y-87739524D01*
X113772755Y-87742209D01*
X113772754Y-87742209D01*
X113610351Y-87814515D01*
X113610349Y-87814516D01*
X113604321Y-87817200D01*
X113449820Y-87929452D01*
X113445399Y-87934362D01*
X113445398Y-87934363D01*
X113333401Y-88058749D01*
X113322033Y-88071374D01*
X113226546Y-88236762D01*
X113167531Y-88418390D01*
X113147569Y-88608318D01*
X109141869Y-88608318D01*
X109197040Y-88547044D01*
X109277821Y-88407128D01*
X109289223Y-88387379D01*
X109289224Y-88387378D01*
X109292527Y-88381656D01*
X109351542Y-88200028D01*
X109354283Y-88173955D01*
X109370814Y-88016665D01*
X109371504Y-88010100D01*
X109362620Y-87925569D01*
X109352232Y-87826735D01*
X109352232Y-87826733D01*
X109351542Y-87820172D01*
X109292527Y-87638544D01*
X109197040Y-87473156D01*
X109109561Y-87376000D01*
X125070496Y-87376000D01*
X125071186Y-87382565D01*
X125080192Y-87468248D01*
X125090458Y-87565928D01*
X125149473Y-87747556D01*
X125244960Y-87912944D01*
X125249378Y-87917851D01*
X125249379Y-87917852D01*
X125338351Y-88016665D01*
X125372747Y-88054866D01*
X125527248Y-88167118D01*
X125533276Y-88169802D01*
X125533278Y-88169803D01*
X125695681Y-88242109D01*
X125701712Y-88244794D01*
X125795112Y-88264647D01*
X125882056Y-88283128D01*
X125882061Y-88283128D01*
X125888513Y-88284500D01*
X126079487Y-88284500D01*
X126085939Y-88283128D01*
X126085944Y-88283128D01*
X126172888Y-88264647D01*
X126266288Y-88244794D01*
X126272319Y-88242109D01*
X126434722Y-88169803D01*
X126434724Y-88169802D01*
X126440752Y-88167118D01*
X126595253Y-88054866D01*
X126629649Y-88016665D01*
X126718621Y-87917852D01*
X126718622Y-87917851D01*
X126723040Y-87912944D01*
X126818527Y-87747556D01*
X126877542Y-87565928D01*
X126884472Y-87500000D01*
X140586496Y-87500000D01*
X140587186Y-87506565D01*
X140605611Y-87681866D01*
X140606458Y-87689928D01*
X140665473Y-87871556D01*
X140760960Y-88036944D01*
X140765378Y-88041851D01*
X140765379Y-88041852D01*
X140878169Y-88167118D01*
X140888747Y-88178866D01*
X140908841Y-88193465D01*
X141036204Y-88286000D01*
X141043248Y-88291118D01*
X141049276Y-88293802D01*
X141049278Y-88293803D01*
X141169224Y-88347206D01*
X141217712Y-88368794D01*
X141278223Y-88381656D01*
X141398056Y-88407128D01*
X141398061Y-88407128D01*
X141404513Y-88408500D01*
X141595487Y-88408500D01*
X141601939Y-88407128D01*
X141601944Y-88407128D01*
X141721777Y-88381656D01*
X141782288Y-88368794D01*
X141830776Y-88347206D01*
X141950722Y-88293803D01*
X141950724Y-88293802D01*
X141956752Y-88291118D01*
X141963797Y-88286000D01*
X142091159Y-88193465D01*
X142111253Y-88178866D01*
X142121831Y-88167118D01*
X142234621Y-88041852D01*
X142234622Y-88041851D01*
X142239040Y-88036944D01*
X142334527Y-87871556D01*
X142393542Y-87689928D01*
X142394390Y-87681866D01*
X142412814Y-87506565D01*
X142413504Y-87500000D01*
X142398932Y-87361358D01*
X142394232Y-87316635D01*
X142394232Y-87316633D01*
X142393542Y-87310072D01*
X142334527Y-87128444D01*
X142239040Y-86963056D01*
X142111253Y-86821134D01*
X141956752Y-86708882D01*
X141950724Y-86706198D01*
X141950722Y-86706197D01*
X141788319Y-86633891D01*
X141788318Y-86633891D01*
X141782288Y-86631206D01*
X141688887Y-86611353D01*
X141601944Y-86592872D01*
X141601939Y-86592872D01*
X141595487Y-86591500D01*
X141404513Y-86591500D01*
X141398061Y-86592872D01*
X141398056Y-86592872D01*
X141311113Y-86611353D01*
X141217712Y-86631206D01*
X141211682Y-86633891D01*
X141211681Y-86633891D01*
X141049278Y-86706197D01*
X141049276Y-86706198D01*
X141043248Y-86708882D01*
X140888747Y-86821134D01*
X140760960Y-86963056D01*
X140665473Y-87128444D01*
X140606458Y-87310072D01*
X140605768Y-87316633D01*
X140605768Y-87316635D01*
X140601068Y-87361358D01*
X140586496Y-87500000D01*
X126884472Y-87500000D01*
X126887809Y-87468248D01*
X126896814Y-87382565D01*
X126897504Y-87376000D01*
X126887916Y-87284771D01*
X126878232Y-87192635D01*
X126878232Y-87192633D01*
X126877542Y-87186072D01*
X126818527Y-87004444D01*
X126723040Y-86839056D01*
X126609326Y-86712763D01*
X126599675Y-86702045D01*
X126599674Y-86702044D01*
X126595253Y-86697134D01*
X126440752Y-86584882D01*
X126434724Y-86582198D01*
X126434722Y-86582197D01*
X126272319Y-86509891D01*
X126272318Y-86509891D01*
X126266288Y-86507206D01*
X126172887Y-86487353D01*
X126085944Y-86468872D01*
X126085939Y-86468872D01*
X126079487Y-86467500D01*
X125888513Y-86467500D01*
X125882061Y-86468872D01*
X125882056Y-86468872D01*
X125795113Y-86487353D01*
X125701712Y-86507206D01*
X125695682Y-86509891D01*
X125695681Y-86509891D01*
X125533278Y-86582197D01*
X125533276Y-86582198D01*
X125527248Y-86584882D01*
X125372747Y-86697134D01*
X125368326Y-86702044D01*
X125368325Y-86702045D01*
X125358675Y-86712763D01*
X125244960Y-86839056D01*
X125149473Y-87004444D01*
X125090458Y-87186072D01*
X125089768Y-87192633D01*
X125089768Y-87192635D01*
X125080084Y-87284771D01*
X125070496Y-87376000D01*
X109109561Y-87376000D01*
X109073675Y-87336145D01*
X109073674Y-87336144D01*
X109069253Y-87331234D01*
X108914752Y-87218982D01*
X108908724Y-87216298D01*
X108908722Y-87216297D01*
X108746319Y-87143991D01*
X108746318Y-87143991D01*
X108740288Y-87141306D01*
X108646888Y-87121453D01*
X108559944Y-87102972D01*
X108559939Y-87102972D01*
X108553487Y-87101600D01*
X108362513Y-87101600D01*
X108356061Y-87102972D01*
X108356056Y-87102972D01*
X108269112Y-87121453D01*
X108175712Y-87141306D01*
X108169682Y-87143991D01*
X108169681Y-87143991D01*
X108007278Y-87216297D01*
X108007276Y-87216298D01*
X108001248Y-87218982D01*
X107846747Y-87331234D01*
X107842326Y-87336144D01*
X107842325Y-87336145D01*
X107806440Y-87376000D01*
X107718960Y-87473156D01*
X107623473Y-87638544D01*
X107564458Y-87820172D01*
X107563768Y-87826733D01*
X107563768Y-87826735D01*
X107553380Y-87925569D01*
X107544496Y-88010100D01*
X76858500Y-88010100D01*
X76858500Y-87681866D01*
X76851745Y-87619684D01*
X76800615Y-87483295D01*
X76713261Y-87366739D01*
X76596705Y-87279385D01*
X76460316Y-87228255D01*
X76398134Y-87221500D01*
X74601866Y-87221500D01*
X74539684Y-87228255D01*
X74403295Y-87279385D01*
X74286739Y-87366739D01*
X74199385Y-87483295D01*
X74148255Y-87619684D01*
X74141500Y-87681866D01*
X74141500Y-89478134D01*
X74148255Y-89540316D01*
X74199385Y-89676705D01*
X74286739Y-89793261D01*
X74403295Y-89880615D01*
X74411704Y-89883767D01*
X74411705Y-89883768D01*
X74520451Y-89924535D01*
X74577216Y-89967176D01*
X74601916Y-90033738D01*
X74586709Y-90103087D01*
X74567316Y-90129568D01*
X74489500Y-90210998D01*
X74440629Y-90262138D01*
X74314743Y-90446680D01*
X74299003Y-90480590D01*
X74228041Y-90633465D01*
X74220688Y-90649305D01*
X74160989Y-90864570D01*
X74137251Y-91086695D01*
X74137548Y-91091848D01*
X74137548Y-91091851D01*
X74148499Y-91281772D01*
X74150110Y-91309715D01*
X74151247Y-91314761D01*
X74151248Y-91314767D01*
X74154395Y-91328729D01*
X74199222Y-91527639D01*
X74244246Y-91638521D01*
X74277917Y-91721442D01*
X74283266Y-91734616D01*
X74297064Y-91757132D01*
X74391801Y-91911729D01*
X74399987Y-91925088D01*
X74546250Y-92093938D01*
X74718126Y-92236632D01*
X74775973Y-92270435D01*
X74791445Y-92279476D01*
X74840169Y-92331114D01*
X74853240Y-92400897D01*
X74826509Y-92466669D01*
X74786055Y-92500027D01*
X74773607Y-92506507D01*
X74769474Y-92509610D01*
X74769471Y-92509612D01*
X74696812Y-92564166D01*
X74594965Y-92640635D01*
X74440629Y-92802138D01*
X74314743Y-92986680D01*
X74220688Y-93189305D01*
X74160989Y-93404570D01*
X74137251Y-93626695D01*
X74137548Y-93631848D01*
X74137548Y-93631851D01*
X74143011Y-93726590D01*
X74150110Y-93849715D01*
X74151247Y-93854761D01*
X74151248Y-93854767D01*
X74171119Y-93942939D01*
X74199222Y-94067639D01*
X74283266Y-94274616D01*
X74285965Y-94279020D01*
X74359218Y-94398558D01*
X74399987Y-94465088D01*
X74546250Y-94633938D01*
X74622846Y-94697529D01*
X74707522Y-94767828D01*
X74718126Y-94776632D01*
X74737192Y-94787773D01*
X74791445Y-94819476D01*
X74840169Y-94871114D01*
X74853240Y-94940897D01*
X74826509Y-95006669D01*
X74786055Y-95040027D01*
X74773607Y-95046507D01*
X74769474Y-95049610D01*
X74769471Y-95049612D01*
X74599100Y-95177530D01*
X74594965Y-95180635D01*
X74440629Y-95342138D01*
X74314743Y-95526680D01*
X74299003Y-95560590D01*
X74223082Y-95724148D01*
X74220688Y-95729305D01*
X74160989Y-95944570D01*
X74137251Y-96166695D01*
X74137548Y-96171848D01*
X74137548Y-96171851D01*
X74142977Y-96266000D01*
X74150110Y-96389715D01*
X74151247Y-96394761D01*
X74151248Y-96394767D01*
X74161697Y-96441129D01*
X74199222Y-96607639D01*
X74237461Y-96701811D01*
X74278527Y-96802944D01*
X74283266Y-96814616D01*
X74285965Y-96819020D01*
X74394539Y-96996197D01*
X74399987Y-97005088D01*
X74546250Y-97173938D01*
X74718126Y-97316632D01*
X74788595Y-97357811D01*
X74791445Y-97359476D01*
X74840169Y-97411114D01*
X74853240Y-97480897D01*
X74826509Y-97546669D01*
X74786055Y-97580027D01*
X74773607Y-97586507D01*
X74769474Y-97589610D01*
X74769471Y-97589612D01*
X74599100Y-97717530D01*
X74594965Y-97720635D01*
X74591393Y-97724373D01*
X74467450Y-97854072D01*
X74440629Y-97882138D01*
X74437715Y-97886410D01*
X74437714Y-97886411D01*
X74378398Y-97973365D01*
X74314743Y-98066680D01*
X74299003Y-98100590D01*
X74223082Y-98264148D01*
X74220688Y-98269305D01*
X74160989Y-98484570D01*
X74137251Y-98706695D01*
X74137548Y-98711848D01*
X74137548Y-98711851D01*
X74142977Y-98806000D01*
X74150110Y-98929715D01*
X74151247Y-98934761D01*
X74151248Y-98934767D01*
X74173392Y-99033023D01*
X74199222Y-99147639D01*
X74237461Y-99241811D01*
X74278527Y-99342944D01*
X74283266Y-99354616D01*
X74285965Y-99359020D01*
X74386578Y-99523206D01*
X74399987Y-99545088D01*
X74546250Y-99713938D01*
X74718126Y-99856632D01*
X74765709Y-99884437D01*
X74791445Y-99899476D01*
X74840169Y-99951114D01*
X74853240Y-100020897D01*
X74826509Y-100086669D01*
X74786055Y-100120027D01*
X74773607Y-100126507D01*
X74769474Y-100129610D01*
X74769471Y-100129612D01*
X74599100Y-100257530D01*
X74594965Y-100260635D01*
X74591393Y-100264373D01*
X74467450Y-100394072D01*
X74440629Y-100422138D01*
X74314743Y-100606680D01*
X74299003Y-100640590D01*
X74247961Y-100750551D01*
X74220688Y-100809305D01*
X74160989Y-101024570D01*
X74137251Y-101246695D01*
X74137548Y-101251848D01*
X74137548Y-101251851D01*
X74143011Y-101346590D01*
X74150110Y-101469715D01*
X74151247Y-101474761D01*
X74151248Y-101474767D01*
X74171119Y-101562939D01*
X74199222Y-101687639D01*
X74283266Y-101894616D01*
X74322174Y-101958109D01*
X74396291Y-102079056D01*
X74399987Y-102085088D01*
X74546250Y-102253938D01*
X74718126Y-102396632D01*
X74757763Y-102419794D01*
X74791445Y-102439476D01*
X74840169Y-102491114D01*
X74853240Y-102560897D01*
X74826509Y-102626669D01*
X74786055Y-102660027D01*
X74773607Y-102666507D01*
X74769474Y-102669610D01*
X74769471Y-102669612D01*
X74599100Y-102797530D01*
X74594965Y-102800635D01*
X74576605Y-102819848D01*
X74469430Y-102932000D01*
X74440629Y-102962138D01*
X74314743Y-103146680D01*
X74299003Y-103180590D01*
X74239493Y-103308794D01*
X74220688Y-103349305D01*
X74160989Y-103564570D01*
X74137251Y-103786695D01*
X74137548Y-103791848D01*
X74137548Y-103791851D01*
X74143011Y-103886590D01*
X74150110Y-104009715D01*
X74151247Y-104014761D01*
X74151248Y-104014767D01*
X74173392Y-104113023D01*
X74199222Y-104227639D01*
X74283266Y-104434616D01*
X74322180Y-104498118D01*
X74397261Y-104620639D01*
X74399987Y-104625088D01*
X74546250Y-104793938D01*
X74718126Y-104936632D01*
X74729277Y-104943148D01*
X74791445Y-104979476D01*
X74840169Y-105031114D01*
X74853240Y-105100897D01*
X74826509Y-105166669D01*
X74786055Y-105200027D01*
X74773607Y-105206507D01*
X74769474Y-105209610D01*
X74769471Y-105209612D01*
X74605865Y-105332451D01*
X74594965Y-105340635D01*
X74591393Y-105344373D01*
X74498287Y-105441803D01*
X74440629Y-105502138D01*
X74437715Y-105506410D01*
X74437714Y-105506411D01*
X74406118Y-105552729D01*
X74314743Y-105686680D01*
X74299003Y-105720590D01*
X74235890Y-105856556D01*
X74220688Y-105889305D01*
X74160989Y-106104570D01*
X74137251Y-106326695D01*
X74137548Y-106331848D01*
X74137548Y-106331851D01*
X74144316Y-106449226D01*
X74150110Y-106549715D01*
X74151247Y-106554761D01*
X74151248Y-106554767D01*
X74169982Y-106637892D01*
X74199222Y-106767639D01*
X74283266Y-106974616D01*
X74399987Y-107165088D01*
X74546250Y-107333938D01*
X74718126Y-107476632D01*
X74753726Y-107497435D01*
X74791445Y-107519476D01*
X74840169Y-107571114D01*
X74853240Y-107640897D01*
X74826509Y-107706669D01*
X74786055Y-107740027D01*
X74773607Y-107746507D01*
X74769474Y-107749610D01*
X74769471Y-107749612D01*
X74599100Y-107877530D01*
X74594965Y-107880635D01*
X74440629Y-108042138D01*
X74314743Y-108226680D01*
X74299683Y-108259124D01*
X74228489Y-108412500D01*
X74220688Y-108429305D01*
X74160989Y-108644570D01*
X74137251Y-108866695D01*
X70866000Y-108866695D01*
X70866000Y-81534000D01*
X130150496Y-81534000D01*
X130170458Y-81723928D01*
X130229473Y-81905556D01*
X130324960Y-82070944D01*
X130452747Y-82212866D01*
X130607248Y-82325118D01*
X130613276Y-82327802D01*
X130613278Y-82327803D01*
X130775681Y-82400109D01*
X130781712Y-82402794D01*
X130875112Y-82422647D01*
X130962056Y-82441128D01*
X130962061Y-82441128D01*
X130968513Y-82442500D01*
X131159487Y-82442500D01*
X131165939Y-82441128D01*
X131165944Y-82441128D01*
X131252888Y-82422647D01*
X131346288Y-82402794D01*
X131352319Y-82400109D01*
X131514722Y-82327803D01*
X131514724Y-82327802D01*
X131520752Y-82325118D01*
X131675253Y-82212866D01*
X131803040Y-82070944D01*
X131898527Y-81905556D01*
X131957542Y-81723928D01*
X131977504Y-81534000D01*
X131957542Y-81344072D01*
X131898527Y-81162444D01*
X131803040Y-80997056D01*
X131675253Y-80855134D01*
X131520752Y-80742882D01*
X131514724Y-80740198D01*
X131514722Y-80740197D01*
X131352319Y-80667891D01*
X131352318Y-80667891D01*
X131346288Y-80665206D01*
X131252887Y-80645353D01*
X131165944Y-80626872D01*
X131165939Y-80626872D01*
X131159487Y-80625500D01*
X130968513Y-80625500D01*
X130962061Y-80626872D01*
X130962056Y-80626872D01*
X130875113Y-80645353D01*
X130781712Y-80665206D01*
X130775682Y-80667891D01*
X130775681Y-80667891D01*
X130613278Y-80740197D01*
X130613276Y-80740198D01*
X130607248Y-80742882D01*
X130452747Y-80855134D01*
X130324960Y-80997056D01*
X130229473Y-81162444D01*
X130170458Y-81344072D01*
X130150496Y-81534000D01*
X70866000Y-81534000D01*
X70866000Y-74978918D01*
X72486917Y-74978918D01*
X72487334Y-74986156D01*
X72502682Y-75252320D01*
X72555405Y-75521053D01*
X72556792Y-75525103D01*
X72556793Y-75525108D01*
X72628954Y-75735872D01*
X72644112Y-75780144D01*
X72673238Y-75838054D01*
X72742837Y-75976437D01*
X72767160Y-76024799D01*
X72769586Y-76028328D01*
X72769589Y-76028334D01*
X72919843Y-76246953D01*
X72922274Y-76250490D01*
X72925161Y-76253663D01*
X72925162Y-76253664D01*
X72947059Y-76277729D01*
X73106582Y-76453043D01*
X73316675Y-76628707D01*
X73320316Y-76630991D01*
X73545024Y-76771951D01*
X73545028Y-76771953D01*
X73548664Y-76774234D01*
X73616544Y-76804883D01*
X73794345Y-76885164D01*
X73794349Y-76885166D01*
X73798257Y-76886930D01*
X73802377Y-76888150D01*
X73802376Y-76888150D01*
X74056723Y-76963491D01*
X74056727Y-76963492D01*
X74060836Y-76964709D01*
X74065070Y-76965357D01*
X74065075Y-76965358D01*
X74327298Y-77005483D01*
X74327300Y-77005483D01*
X74331540Y-77006132D01*
X74470912Y-77008322D01*
X74601071Y-77010367D01*
X74601077Y-77010367D01*
X74605362Y-77010434D01*
X74877235Y-76977534D01*
X75142127Y-76908041D01*
X75146087Y-76906401D01*
X75146092Y-76906399D01*
X75323465Y-76832928D01*
X75395136Y-76803241D01*
X75631582Y-76665073D01*
X75659733Y-76643000D01*
X138385496Y-76643000D01*
X138405458Y-76832928D01*
X138464473Y-77014556D01*
X138559960Y-77179944D01*
X138687747Y-77321866D01*
X138842248Y-77434118D01*
X138848276Y-77436802D01*
X138848278Y-77436803D01*
X139010681Y-77509109D01*
X139016712Y-77511794D01*
X139110113Y-77531647D01*
X139197056Y-77550128D01*
X139197061Y-77550128D01*
X139203513Y-77551500D01*
X139394487Y-77551500D01*
X139400939Y-77550128D01*
X139400944Y-77550128D01*
X139487887Y-77531647D01*
X139581288Y-77511794D01*
X139587319Y-77509109D01*
X139749722Y-77436803D01*
X139749724Y-77436802D01*
X139755752Y-77434118D01*
X139910253Y-77321866D01*
X140038040Y-77179944D01*
X140133527Y-77014556D01*
X140192542Y-76832928D01*
X140212504Y-76643000D01*
X140210712Y-76625951D01*
X140193232Y-76459635D01*
X140193232Y-76459633D01*
X140192542Y-76453072D01*
X140133527Y-76271444D01*
X140038040Y-76106056D01*
X139910253Y-75964134D01*
X139755752Y-75851882D01*
X139749724Y-75849198D01*
X139749722Y-75849197D01*
X139587319Y-75776891D01*
X139587318Y-75776891D01*
X139581288Y-75774206D01*
X139487887Y-75754353D01*
X139400944Y-75735872D01*
X139400939Y-75735872D01*
X139394487Y-75734500D01*
X139203513Y-75734500D01*
X139197061Y-75735872D01*
X139197056Y-75735872D01*
X139110113Y-75754353D01*
X139016712Y-75774206D01*
X139010682Y-75776891D01*
X139010681Y-75776891D01*
X138848278Y-75849197D01*
X138848276Y-75849198D01*
X138842248Y-75851882D01*
X138687747Y-75964134D01*
X138559960Y-76106056D01*
X138464473Y-76271444D01*
X138405458Y-76453072D01*
X138404768Y-76459633D01*
X138404768Y-76459635D01*
X138387288Y-76625951D01*
X138385496Y-76643000D01*
X75659733Y-76643000D01*
X75847089Y-76496094D01*
X75882421Y-76459635D01*
X76034686Y-76302509D01*
X76037669Y-76299431D01*
X76040202Y-76295983D01*
X76040206Y-76295978D01*
X76197257Y-76082178D01*
X76199795Y-76078723D01*
X76227154Y-76028334D01*
X76328418Y-75841830D01*
X76328419Y-75841828D01*
X76330468Y-75838054D01*
X76427269Y-75581877D01*
X76468173Y-75403279D01*
X76487449Y-75319117D01*
X76487450Y-75319113D01*
X76488407Y-75314933D01*
X76496910Y-75219665D01*
X76512531Y-75044627D01*
X76512531Y-75044625D01*
X76512751Y-75042161D01*
X76513193Y-75000000D01*
X76511756Y-74978918D01*
X145486917Y-74978918D01*
X145487334Y-74986156D01*
X145502682Y-75252320D01*
X145555405Y-75521053D01*
X145556792Y-75525103D01*
X145556793Y-75525108D01*
X145628954Y-75735872D01*
X145644112Y-75780144D01*
X145673238Y-75838054D01*
X145742837Y-75976437D01*
X145767160Y-76024799D01*
X145769586Y-76028328D01*
X145769589Y-76028334D01*
X145919843Y-76246953D01*
X145922274Y-76250490D01*
X145925161Y-76253663D01*
X145925162Y-76253664D01*
X145947059Y-76277729D01*
X146106582Y-76453043D01*
X146316675Y-76628707D01*
X146320316Y-76630991D01*
X146545024Y-76771951D01*
X146545028Y-76771953D01*
X146548664Y-76774234D01*
X146616544Y-76804883D01*
X146794345Y-76885164D01*
X146794349Y-76885166D01*
X146798257Y-76886930D01*
X146802377Y-76888150D01*
X146802376Y-76888150D01*
X147056723Y-76963491D01*
X147056727Y-76963492D01*
X147060836Y-76964709D01*
X147065070Y-76965357D01*
X147065075Y-76965358D01*
X147327298Y-77005483D01*
X147327300Y-77005483D01*
X147331540Y-77006132D01*
X147470912Y-77008322D01*
X147601071Y-77010367D01*
X147601077Y-77010367D01*
X147605362Y-77010434D01*
X147877235Y-76977534D01*
X148142127Y-76908041D01*
X148146087Y-76906401D01*
X148146092Y-76906399D01*
X148323465Y-76832928D01*
X148395136Y-76803241D01*
X148631582Y-76665073D01*
X148847089Y-76496094D01*
X148882421Y-76459635D01*
X149034686Y-76302509D01*
X149037669Y-76299431D01*
X149040202Y-76295983D01*
X149040206Y-76295978D01*
X149197257Y-76082178D01*
X149199795Y-76078723D01*
X149227154Y-76028334D01*
X149328418Y-75841830D01*
X149328419Y-75841828D01*
X149330468Y-75838054D01*
X149427269Y-75581877D01*
X149468173Y-75403279D01*
X149487449Y-75319117D01*
X149487450Y-75319113D01*
X149488407Y-75314933D01*
X149496910Y-75219665D01*
X149512531Y-75044627D01*
X149512531Y-75044625D01*
X149512751Y-75042161D01*
X149513193Y-75000000D01*
X149507905Y-74922430D01*
X149494859Y-74731055D01*
X149494858Y-74731049D01*
X149494567Y-74726778D01*
X149491986Y-74714312D01*
X149439901Y-74462809D01*
X149439032Y-74458612D01*
X149347617Y-74200465D01*
X149222013Y-73957112D01*
X149212040Y-73942921D01*
X149143279Y-73845085D01*
X149064545Y-73733057D01*
X148878125Y-73532445D01*
X148874810Y-73529731D01*
X148874806Y-73529728D01*
X148669523Y-73361706D01*
X148666205Y-73358990D01*
X148432704Y-73215901D01*
X148428768Y-73214173D01*
X148185873Y-73107549D01*
X148185869Y-73107548D01*
X148181945Y-73105825D01*
X147918566Y-73030800D01*
X147914324Y-73030196D01*
X147914318Y-73030195D01*
X147713834Y-73001662D01*
X147647443Y-72992213D01*
X147503589Y-72991460D01*
X147377877Y-72990802D01*
X147377871Y-72990802D01*
X147373591Y-72990780D01*
X147369347Y-72991339D01*
X147369343Y-72991339D01*
X147263330Y-73005296D01*
X147102078Y-73026525D01*
X147097938Y-73027658D01*
X147097936Y-73027658D01*
X147029807Y-73046296D01*
X146837928Y-73098788D01*
X146833980Y-73100472D01*
X146589982Y-73204546D01*
X146589978Y-73204548D01*
X146586030Y-73206232D01*
X146545937Y-73230227D01*
X146354725Y-73344664D01*
X146354721Y-73344667D01*
X146351043Y-73346868D01*
X146137318Y-73518094D01*
X146120717Y-73535588D01*
X145970032Y-73694377D01*
X145948808Y-73716742D01*
X145789002Y-73939136D01*
X145660857Y-74181161D01*
X145659385Y-74185184D01*
X145659383Y-74185188D01*
X145569756Y-74430103D01*
X145566743Y-74438337D01*
X145508404Y-74705907D01*
X145486917Y-74978918D01*
X76511756Y-74978918D01*
X76507905Y-74922430D01*
X76494859Y-74731055D01*
X76494858Y-74731049D01*
X76494567Y-74726778D01*
X76491986Y-74714312D01*
X76439901Y-74462809D01*
X76439032Y-74458612D01*
X76347617Y-74200465D01*
X76222013Y-73957112D01*
X76212040Y-73942921D01*
X76143279Y-73845085D01*
X76064545Y-73733057D01*
X75878125Y-73532445D01*
X75874810Y-73529731D01*
X75874806Y-73529728D01*
X75838209Y-73499774D01*
X83835102Y-73499774D01*
X83835302Y-73505103D01*
X83835302Y-73505105D01*
X83839426Y-73614966D01*
X83843751Y-73730158D01*
X83891093Y-73955791D01*
X83893051Y-73960750D01*
X83893052Y-73960752D01*
X83942505Y-74085973D01*
X83975776Y-74170221D01*
X83978543Y-74174780D01*
X83978544Y-74174783D01*
X84016118Y-74236703D01*
X84095377Y-74367317D01*
X84098874Y-74371347D01*
X84207400Y-74496412D01*
X84246477Y-74541445D01*
X84250608Y-74544832D01*
X84420627Y-74684240D01*
X84420633Y-74684244D01*
X84424755Y-74687624D01*
X84429391Y-74690263D01*
X84429394Y-74690265D01*
X84501052Y-74731055D01*
X84625114Y-74801675D01*
X84841825Y-74880337D01*
X84847074Y-74881286D01*
X84847077Y-74881287D01*
X85064608Y-74920623D01*
X85064615Y-74920624D01*
X85068692Y-74921361D01*
X85086414Y-74922197D01*
X85091356Y-74922430D01*
X85091363Y-74922430D01*
X85092844Y-74922500D01*
X85254890Y-74922500D01*
X85321809Y-74916822D01*
X85421409Y-74908371D01*
X85421413Y-74908370D01*
X85426720Y-74907920D01*
X85431875Y-74906582D01*
X85431881Y-74906581D01*
X85644703Y-74851343D01*
X85644707Y-74851342D01*
X85649872Y-74850001D01*
X85654738Y-74847809D01*
X85654741Y-74847808D01*
X85844125Y-74762497D01*
X85860075Y-74755312D01*
X86051319Y-74626559D01*
X86218135Y-74467424D01*
X86355754Y-74282458D01*
X86374423Y-74245740D01*
X86431344Y-74133783D01*
X86460240Y-74076949D01*
X86471495Y-74040704D01*
X86527024Y-73861871D01*
X86528607Y-73856773D01*
X86534742Y-73810484D01*
X86558198Y-73633511D01*
X86558198Y-73633506D01*
X86558898Y-73628226D01*
X86554076Y-73499774D01*
X97814102Y-73499774D01*
X97814302Y-73505103D01*
X97814302Y-73505105D01*
X97818426Y-73614966D01*
X97822751Y-73730158D01*
X97870093Y-73955791D01*
X97872051Y-73960750D01*
X97872052Y-73960752D01*
X97921505Y-74085973D01*
X97954776Y-74170221D01*
X97957543Y-74174780D01*
X97957544Y-74174783D01*
X97995118Y-74236703D01*
X98074377Y-74367317D01*
X98077874Y-74371347D01*
X98186400Y-74496412D01*
X98225477Y-74541445D01*
X98229608Y-74544832D01*
X98399627Y-74684240D01*
X98399633Y-74684244D01*
X98403755Y-74687624D01*
X98408391Y-74690263D01*
X98408394Y-74690265D01*
X98480052Y-74731055D01*
X98604114Y-74801675D01*
X98820825Y-74880337D01*
X98826074Y-74881286D01*
X98826077Y-74881287D01*
X99043608Y-74920623D01*
X99043615Y-74920624D01*
X99047692Y-74921361D01*
X99065414Y-74922197D01*
X99070356Y-74922430D01*
X99070363Y-74922430D01*
X99071844Y-74922500D01*
X99233890Y-74922500D01*
X99300809Y-74916822D01*
X99400409Y-74908371D01*
X99400413Y-74908370D01*
X99405720Y-74907920D01*
X99410875Y-74906582D01*
X99410881Y-74906581D01*
X99623703Y-74851343D01*
X99623707Y-74851342D01*
X99628872Y-74850001D01*
X99633738Y-74847809D01*
X99633741Y-74847808D01*
X99823125Y-74762497D01*
X99839075Y-74755312D01*
X100030319Y-74626559D01*
X100197135Y-74467424D01*
X100334754Y-74282458D01*
X100353423Y-74245740D01*
X100410344Y-74133783D01*
X100439240Y-74076949D01*
X100450495Y-74040704D01*
X100506024Y-73861871D01*
X100507607Y-73856773D01*
X100513742Y-73810484D01*
X100537198Y-73633511D01*
X100537198Y-73633506D01*
X100537898Y-73628226D01*
X100531536Y-73458774D01*
X111749102Y-73458774D01*
X111757751Y-73689158D01*
X111805093Y-73914791D01*
X111807051Y-73919750D01*
X111807052Y-73919752D01*
X111871011Y-74081704D01*
X111889776Y-74129221D01*
X111892543Y-74133780D01*
X111892544Y-74133783D01*
X111933008Y-74200465D01*
X112009377Y-74326317D01*
X112012874Y-74330347D01*
X112128111Y-74463146D01*
X112160477Y-74500445D01*
X112164608Y-74503832D01*
X112334627Y-74643240D01*
X112334633Y-74643244D01*
X112338755Y-74646624D01*
X112343391Y-74649263D01*
X112343394Y-74649265D01*
X112452422Y-74711327D01*
X112539114Y-74760675D01*
X112755825Y-74839337D01*
X112761074Y-74840286D01*
X112761077Y-74840287D01*
X112978608Y-74879623D01*
X112978615Y-74879624D01*
X112982692Y-74880361D01*
X113000414Y-74881197D01*
X113005356Y-74881430D01*
X113005363Y-74881430D01*
X113006844Y-74881500D01*
X113168890Y-74881500D01*
X113235809Y-74875822D01*
X113335409Y-74867371D01*
X113335413Y-74867370D01*
X113340720Y-74866920D01*
X113345875Y-74865582D01*
X113345881Y-74865581D01*
X113558703Y-74810343D01*
X113558707Y-74810342D01*
X113563872Y-74809001D01*
X113568738Y-74806809D01*
X113568741Y-74806808D01*
X113769202Y-74716507D01*
X113774075Y-74714312D01*
X113965319Y-74585559D01*
X114132135Y-74426424D01*
X114269754Y-74241458D01*
X114288542Y-74204506D01*
X114329342Y-74124256D01*
X114374240Y-74035949D01*
X114397590Y-73960752D01*
X114441024Y-73820871D01*
X114442607Y-73815773D01*
X114443308Y-73810484D01*
X114472198Y-73592511D01*
X114472198Y-73592506D01*
X114472898Y-73587226D01*
X114470960Y-73535588D01*
X114464449Y-73362173D01*
X114464249Y-73356842D01*
X114416907Y-73131209D01*
X114407563Y-73107549D01*
X114334185Y-72921744D01*
X114334184Y-72921742D01*
X114332224Y-72916779D01*
X114212623Y-72719683D01*
X114125755Y-72619576D01*
X114065023Y-72549588D01*
X114065021Y-72549586D01*
X114061523Y-72545555D01*
X114004088Y-72498461D01*
X113887373Y-72402760D01*
X113887367Y-72402756D01*
X113883245Y-72399376D01*
X113878609Y-72396737D01*
X113878606Y-72396735D01*
X113687529Y-72287968D01*
X113682886Y-72285325D01*
X113466175Y-72206663D01*
X113460926Y-72205714D01*
X113460923Y-72205713D01*
X113243392Y-72166377D01*
X113243385Y-72166376D01*
X113239308Y-72165639D01*
X113221586Y-72164803D01*
X113216644Y-72164570D01*
X113216637Y-72164570D01*
X113215156Y-72164500D01*
X113053110Y-72164500D01*
X112986191Y-72170178D01*
X112886591Y-72178629D01*
X112886587Y-72178630D01*
X112881280Y-72179080D01*
X112876125Y-72180418D01*
X112876119Y-72180419D01*
X112663297Y-72235657D01*
X112663293Y-72235658D01*
X112658128Y-72236999D01*
X112653262Y-72239191D01*
X112653259Y-72239192D01*
X112544980Y-72287968D01*
X112447925Y-72331688D01*
X112256681Y-72460441D01*
X112089865Y-72619576D01*
X111952246Y-72804542D01*
X111949830Y-72809293D01*
X111949828Y-72809297D01*
X111928983Y-72850297D01*
X111847760Y-73010051D01*
X111846178Y-73015145D01*
X111846177Y-73015148D01*
X111798949Y-73167248D01*
X111779393Y-73230227D01*
X111778692Y-73235516D01*
X111757178Y-73397842D01*
X111749102Y-73458774D01*
X100531536Y-73458774D01*
X100529249Y-73397842D01*
X100481907Y-73172209D01*
X100479948Y-73167248D01*
X100399185Y-72962744D01*
X100399184Y-72962742D01*
X100397224Y-72957779D01*
X100375358Y-72921744D01*
X100280390Y-72765243D01*
X100277623Y-72760683D01*
X100190755Y-72660576D01*
X100130023Y-72590588D01*
X100130021Y-72590586D01*
X100126523Y-72586555D01*
X100072389Y-72542168D01*
X99952373Y-72443760D01*
X99952367Y-72443756D01*
X99948245Y-72440376D01*
X99943609Y-72437737D01*
X99943606Y-72437735D01*
X99752529Y-72328968D01*
X99747886Y-72326325D01*
X99531175Y-72247663D01*
X99525926Y-72246714D01*
X99525923Y-72246713D01*
X99308392Y-72207377D01*
X99308385Y-72207376D01*
X99304308Y-72206639D01*
X99286586Y-72205803D01*
X99281644Y-72205570D01*
X99281637Y-72205570D01*
X99280156Y-72205500D01*
X99118110Y-72205500D01*
X99051191Y-72211178D01*
X98951591Y-72219629D01*
X98951587Y-72219630D01*
X98946280Y-72220080D01*
X98941125Y-72221418D01*
X98941119Y-72221419D01*
X98728297Y-72276657D01*
X98728293Y-72276658D01*
X98723128Y-72277999D01*
X98718262Y-72280191D01*
X98718259Y-72280192D01*
X98609980Y-72328968D01*
X98512925Y-72372688D01*
X98321681Y-72501441D01*
X98154865Y-72660576D01*
X98017246Y-72845542D01*
X97912760Y-73051051D01*
X97911178Y-73056145D01*
X97911177Y-73056148D01*
X97858707Y-73225129D01*
X97844393Y-73271227D01*
X97843692Y-73276516D01*
X97828304Y-73392623D01*
X97814102Y-73499774D01*
X86554076Y-73499774D01*
X86550249Y-73397842D01*
X86502907Y-73172209D01*
X86500948Y-73167248D01*
X86420185Y-72962744D01*
X86420184Y-72962742D01*
X86418224Y-72957779D01*
X86396358Y-72921744D01*
X86301390Y-72765243D01*
X86298623Y-72760683D01*
X86211755Y-72660576D01*
X86151023Y-72590588D01*
X86151021Y-72590586D01*
X86147523Y-72586555D01*
X86093389Y-72542168D01*
X85973373Y-72443760D01*
X85973367Y-72443756D01*
X85969245Y-72440376D01*
X85964609Y-72437737D01*
X85964606Y-72437735D01*
X85773529Y-72328968D01*
X85768886Y-72326325D01*
X85552175Y-72247663D01*
X85546926Y-72246714D01*
X85546923Y-72246713D01*
X85329392Y-72207377D01*
X85329385Y-72207376D01*
X85325308Y-72206639D01*
X85307586Y-72205803D01*
X85302644Y-72205570D01*
X85302637Y-72205570D01*
X85301156Y-72205500D01*
X85139110Y-72205500D01*
X85072191Y-72211178D01*
X84972591Y-72219629D01*
X84972587Y-72219630D01*
X84967280Y-72220080D01*
X84962125Y-72221418D01*
X84962119Y-72221419D01*
X84749297Y-72276657D01*
X84749293Y-72276658D01*
X84744128Y-72277999D01*
X84739262Y-72280191D01*
X84739259Y-72280192D01*
X84630980Y-72328968D01*
X84533925Y-72372688D01*
X84342681Y-72501441D01*
X84175865Y-72660576D01*
X84038246Y-72845542D01*
X83933760Y-73051051D01*
X83932178Y-73056145D01*
X83932177Y-73056148D01*
X83879707Y-73225129D01*
X83865393Y-73271227D01*
X83864692Y-73276516D01*
X83849304Y-73392623D01*
X83835102Y-73499774D01*
X75838209Y-73499774D01*
X75669523Y-73361706D01*
X75666205Y-73358990D01*
X75432704Y-73215901D01*
X75428768Y-73214173D01*
X75185873Y-73107549D01*
X75185869Y-73107548D01*
X75181945Y-73105825D01*
X74918566Y-73030800D01*
X74914324Y-73030196D01*
X74914318Y-73030195D01*
X74713834Y-73001662D01*
X74647443Y-72992213D01*
X74503589Y-72991460D01*
X74377877Y-72990802D01*
X74377871Y-72990802D01*
X74373591Y-72990780D01*
X74369347Y-72991339D01*
X74369343Y-72991339D01*
X74263330Y-73005296D01*
X74102078Y-73026525D01*
X74097938Y-73027658D01*
X74097936Y-73027658D01*
X74029807Y-73046296D01*
X73837928Y-73098788D01*
X73833980Y-73100472D01*
X73589982Y-73204546D01*
X73589978Y-73204548D01*
X73586030Y-73206232D01*
X73545937Y-73230227D01*
X73354725Y-73344664D01*
X73354721Y-73344667D01*
X73351043Y-73346868D01*
X73137318Y-73518094D01*
X73120717Y-73535588D01*
X72970032Y-73694377D01*
X72948808Y-73716742D01*
X72789002Y-73939136D01*
X72660857Y-74181161D01*
X72659385Y-74185184D01*
X72659383Y-74185188D01*
X72569756Y-74430103D01*
X72566743Y-74438337D01*
X72508404Y-74705907D01*
X72486917Y-74978918D01*
X70866000Y-74978918D01*
X70866000Y-66499774D01*
X83835102Y-66499774D01*
X83835302Y-66505103D01*
X83835302Y-66505105D01*
X83839080Y-66605748D01*
X83843751Y-66730158D01*
X83891093Y-66955791D01*
X83975776Y-67170221D01*
X84095377Y-67367317D01*
X84098874Y-67371347D01*
X84207400Y-67496412D01*
X84246477Y-67541445D01*
X84250608Y-67544832D01*
X84420627Y-67684240D01*
X84420633Y-67684244D01*
X84424755Y-67687624D01*
X84429391Y-67690263D01*
X84429394Y-67690265D01*
X84466395Y-67711327D01*
X84625114Y-67801675D01*
X84841825Y-67880337D01*
X84847074Y-67881286D01*
X84847077Y-67881287D01*
X85064608Y-67920623D01*
X85064615Y-67920624D01*
X85068692Y-67921361D01*
X85086414Y-67922197D01*
X85091356Y-67922430D01*
X85091363Y-67922430D01*
X85092844Y-67922500D01*
X85254890Y-67922500D01*
X85321809Y-67916822D01*
X85421409Y-67908371D01*
X85421413Y-67908370D01*
X85426720Y-67907920D01*
X85431875Y-67906582D01*
X85431881Y-67906581D01*
X85644703Y-67851343D01*
X85644707Y-67851342D01*
X85649872Y-67850001D01*
X85654738Y-67847809D01*
X85654741Y-67847808D01*
X85844125Y-67762497D01*
X85860075Y-67755312D01*
X86051319Y-67626559D01*
X86218135Y-67467424D01*
X86355754Y-67282458D01*
X86374423Y-67245740D01*
X86431344Y-67133783D01*
X86460240Y-67076949D01*
X86471495Y-67040704D01*
X86527024Y-66861871D01*
X86528607Y-66856773D01*
X86535920Y-66801598D01*
X86558198Y-66633511D01*
X86558198Y-66633506D01*
X86558898Y-66628226D01*
X86554076Y-66499774D01*
X97814102Y-66499774D01*
X97814302Y-66505103D01*
X97814302Y-66505105D01*
X97818080Y-66605748D01*
X97822751Y-66730158D01*
X97870093Y-66955791D01*
X97954776Y-67170221D01*
X98074377Y-67367317D01*
X98077874Y-67371347D01*
X98186400Y-67496412D01*
X98225477Y-67541445D01*
X98229608Y-67544832D01*
X98399627Y-67684240D01*
X98399633Y-67684244D01*
X98403755Y-67687624D01*
X98408391Y-67690263D01*
X98408394Y-67690265D01*
X98445395Y-67711327D01*
X98604114Y-67801675D01*
X98820825Y-67880337D01*
X98826074Y-67881286D01*
X98826077Y-67881287D01*
X99043608Y-67920623D01*
X99043615Y-67920624D01*
X99047692Y-67921361D01*
X99065414Y-67922197D01*
X99070356Y-67922430D01*
X99070363Y-67922430D01*
X99071844Y-67922500D01*
X99233890Y-67922500D01*
X99300809Y-67916822D01*
X99400409Y-67908371D01*
X99400413Y-67908370D01*
X99405720Y-67907920D01*
X99410875Y-67906582D01*
X99410881Y-67906581D01*
X99623703Y-67851343D01*
X99623707Y-67851342D01*
X99628872Y-67850001D01*
X99633738Y-67847809D01*
X99633741Y-67847808D01*
X99823125Y-67762497D01*
X99839075Y-67755312D01*
X100030319Y-67626559D01*
X100197135Y-67467424D01*
X100334754Y-67282458D01*
X100353423Y-67245740D01*
X100410344Y-67133783D01*
X100439240Y-67076949D01*
X100450495Y-67040704D01*
X100506024Y-66861871D01*
X100507607Y-66856773D01*
X100514920Y-66801598D01*
X100537198Y-66633511D01*
X100537198Y-66633506D01*
X100537898Y-66628226D01*
X100531536Y-66458774D01*
X111749102Y-66458774D01*
X111757751Y-66689158D01*
X111805093Y-66914791D01*
X111807051Y-66919750D01*
X111807052Y-66919752D01*
X111871011Y-67081704D01*
X111889776Y-67129221D01*
X111892543Y-67133780D01*
X111892544Y-67133783D01*
X111914655Y-67170221D01*
X112009377Y-67326317D01*
X112012874Y-67330347D01*
X112128111Y-67463146D01*
X112160477Y-67500445D01*
X112164608Y-67503832D01*
X112334627Y-67643240D01*
X112334633Y-67643244D01*
X112338755Y-67646624D01*
X112343391Y-67649263D01*
X112343394Y-67649265D01*
X112415421Y-67690265D01*
X112539114Y-67760675D01*
X112755825Y-67839337D01*
X112761074Y-67840286D01*
X112761077Y-67840287D01*
X112978608Y-67879623D01*
X112978615Y-67879624D01*
X112982692Y-67880361D01*
X113000414Y-67881197D01*
X113005356Y-67881430D01*
X113005363Y-67881430D01*
X113006844Y-67881500D01*
X113168890Y-67881500D01*
X113235809Y-67875822D01*
X113335409Y-67867371D01*
X113335413Y-67867370D01*
X113340720Y-67866920D01*
X113345875Y-67865582D01*
X113345881Y-67865581D01*
X113558703Y-67810343D01*
X113558707Y-67810342D01*
X113563872Y-67809001D01*
X113568738Y-67806809D01*
X113568741Y-67806808D01*
X113769202Y-67716507D01*
X113774075Y-67714312D01*
X113965319Y-67585559D01*
X114132135Y-67426424D01*
X114269754Y-67241458D01*
X114374240Y-67035949D01*
X114397590Y-66960752D01*
X114441024Y-66820871D01*
X114442607Y-66815773D01*
X114444834Y-66798971D01*
X114472198Y-66592511D01*
X114472198Y-66592506D01*
X114472898Y-66587226D01*
X114471116Y-66539745D01*
X114467555Y-66444906D01*
X132924839Y-66444906D01*
X132933553Y-66456427D01*
X133040452Y-66534809D01*
X133048351Y-66539745D01*
X133277905Y-66660519D01*
X133286454Y-66664236D01*
X133531327Y-66749749D01*
X133540336Y-66752163D01*
X133795166Y-66800544D01*
X133804423Y-66801598D01*
X134063607Y-66811783D01*
X134072921Y-66811457D01*
X134330753Y-66783220D01*
X134339930Y-66781519D01*
X134590758Y-66715481D01*
X134599574Y-66712445D01*
X134837880Y-66610062D01*
X134846167Y-66605748D01*
X135066718Y-66469266D01*
X135074268Y-66463780D01*
X135079559Y-66459301D01*
X135087997Y-66446497D01*
X135081935Y-66436145D01*
X134993924Y-66348134D01*
X137276500Y-66348134D01*
X137283255Y-66410316D01*
X137334385Y-66546705D01*
X137421739Y-66663261D01*
X137538295Y-66750615D01*
X137674684Y-66801745D01*
X137736866Y-66808500D01*
X140433134Y-66808500D01*
X140495316Y-66801745D01*
X140631705Y-66750615D01*
X140748261Y-66663261D01*
X140835615Y-66546705D01*
X140886745Y-66410316D01*
X140893500Y-66348134D01*
X140893500Y-63651866D01*
X140886745Y-63589684D01*
X140835615Y-63453295D01*
X140748261Y-63336739D01*
X140631705Y-63249385D01*
X140495316Y-63198255D01*
X140433134Y-63191500D01*
X137736866Y-63191500D01*
X137674684Y-63198255D01*
X137538295Y-63249385D01*
X137421739Y-63336739D01*
X137334385Y-63453295D01*
X137283255Y-63589684D01*
X137276500Y-63651866D01*
X137276500Y-66348134D01*
X134993924Y-66348134D01*
X134017812Y-65372022D01*
X134003868Y-65364408D01*
X134002035Y-65364539D01*
X133995420Y-65368790D01*
X132931497Y-66432713D01*
X132924839Y-66444906D01*
X114467555Y-66444906D01*
X114466534Y-66417715D01*
X114464249Y-66356842D01*
X114416907Y-66131209D01*
X114332224Y-65916779D01*
X114212623Y-65719683D01*
X114125755Y-65619576D01*
X114065023Y-65549588D01*
X114065021Y-65549586D01*
X114061523Y-65545555D01*
X113981506Y-65479945D01*
X113887373Y-65402760D01*
X113887367Y-65402756D01*
X113883245Y-65399376D01*
X113878609Y-65396737D01*
X113878606Y-65396735D01*
X113687529Y-65287968D01*
X113682886Y-65285325D01*
X113466175Y-65206663D01*
X113460926Y-65205714D01*
X113460923Y-65205713D01*
X113243392Y-65166377D01*
X113243385Y-65166376D01*
X113239308Y-65165639D01*
X113221586Y-65164803D01*
X113216644Y-65164570D01*
X113216637Y-65164570D01*
X113215156Y-65164500D01*
X113053110Y-65164500D01*
X112986191Y-65170178D01*
X112886591Y-65178629D01*
X112886587Y-65178630D01*
X112881280Y-65179080D01*
X112876125Y-65180418D01*
X112876119Y-65180419D01*
X112663297Y-65235657D01*
X112663293Y-65235658D01*
X112658128Y-65236999D01*
X112653262Y-65239191D01*
X112653259Y-65239192D01*
X112544980Y-65287968D01*
X112447925Y-65331688D01*
X112256681Y-65460441D01*
X112252824Y-65464120D01*
X112252822Y-65464122D01*
X112216826Y-65498461D01*
X112089865Y-65619576D01*
X111952246Y-65804542D01*
X111949830Y-65809293D01*
X111949828Y-65809297D01*
X111900003Y-65907297D01*
X111847760Y-66010051D01*
X111846178Y-66015145D01*
X111846177Y-66015148D01*
X111798949Y-66167248D01*
X111779393Y-66230227D01*
X111778692Y-66235516D01*
X111754544Y-66417715D01*
X111749102Y-66458774D01*
X100531536Y-66458774D01*
X100529249Y-66397842D01*
X100481907Y-66172209D01*
X100479948Y-66167248D01*
X100399185Y-65962744D01*
X100399184Y-65962742D01*
X100397224Y-65957779D01*
X100375358Y-65921744D01*
X100280390Y-65765243D01*
X100277623Y-65760683D01*
X100190755Y-65660576D01*
X100130023Y-65590588D01*
X100130021Y-65590586D01*
X100126523Y-65586555D01*
X100072389Y-65542168D01*
X99952373Y-65443760D01*
X99952367Y-65443756D01*
X99948245Y-65440376D01*
X99943609Y-65437737D01*
X99943606Y-65437735D01*
X99752529Y-65328968D01*
X99747886Y-65326325D01*
X99531175Y-65247663D01*
X99525926Y-65246714D01*
X99525923Y-65246713D01*
X99308392Y-65207377D01*
X99308385Y-65207376D01*
X99304308Y-65206639D01*
X99286586Y-65205803D01*
X99281644Y-65205570D01*
X99281637Y-65205570D01*
X99280156Y-65205500D01*
X99118110Y-65205500D01*
X99051191Y-65211178D01*
X98951591Y-65219629D01*
X98951587Y-65219630D01*
X98946280Y-65220080D01*
X98941125Y-65221418D01*
X98941119Y-65221419D01*
X98728297Y-65276657D01*
X98728293Y-65276658D01*
X98723128Y-65277999D01*
X98718262Y-65280191D01*
X98718259Y-65280192D01*
X98609980Y-65328968D01*
X98512925Y-65372688D01*
X98321681Y-65501441D01*
X98154865Y-65660576D01*
X98017246Y-65845542D01*
X97912760Y-66051051D01*
X97911178Y-66056145D01*
X97911177Y-66056148D01*
X97858707Y-66225129D01*
X97844393Y-66271227D01*
X97843692Y-66276516D01*
X97818873Y-66463780D01*
X97814102Y-66499774D01*
X86554076Y-66499774D01*
X86550249Y-66397842D01*
X86502907Y-66172209D01*
X86500948Y-66167248D01*
X86420185Y-65962744D01*
X86420184Y-65962742D01*
X86418224Y-65957779D01*
X86396358Y-65921744D01*
X86301390Y-65765243D01*
X86298623Y-65760683D01*
X86211755Y-65660576D01*
X86151023Y-65590588D01*
X86151021Y-65590586D01*
X86147523Y-65586555D01*
X86093389Y-65542168D01*
X85973373Y-65443760D01*
X85973367Y-65443756D01*
X85969245Y-65440376D01*
X85964609Y-65437737D01*
X85964606Y-65437735D01*
X85773529Y-65328968D01*
X85768886Y-65326325D01*
X85552175Y-65247663D01*
X85546926Y-65246714D01*
X85546923Y-65246713D01*
X85329392Y-65207377D01*
X85329385Y-65207376D01*
X85325308Y-65206639D01*
X85307586Y-65205803D01*
X85302644Y-65205570D01*
X85302637Y-65205570D01*
X85301156Y-65205500D01*
X85139110Y-65205500D01*
X85072191Y-65211178D01*
X84972591Y-65219629D01*
X84972587Y-65219630D01*
X84967280Y-65220080D01*
X84962125Y-65221418D01*
X84962119Y-65221419D01*
X84749297Y-65276657D01*
X84749293Y-65276658D01*
X84744128Y-65277999D01*
X84739262Y-65280191D01*
X84739259Y-65280192D01*
X84630980Y-65328968D01*
X84533925Y-65372688D01*
X84342681Y-65501441D01*
X84175865Y-65660576D01*
X84038246Y-65845542D01*
X83933760Y-66051051D01*
X83932178Y-66056145D01*
X83932177Y-66056148D01*
X83879707Y-66225129D01*
X83865393Y-66271227D01*
X83864692Y-66276516D01*
X83839873Y-66463780D01*
X83835102Y-66499774D01*
X70866000Y-66499774D01*
X70866000Y-64957211D01*
X132192775Y-64957211D01*
X132205220Y-65216288D01*
X132206356Y-65225543D01*
X132256961Y-65479945D01*
X132259449Y-65488917D01*
X132347095Y-65733033D01*
X132350895Y-65741568D01*
X132473658Y-65970042D01*
X132478666Y-65977904D01*
X132548720Y-66071716D01*
X132559979Y-66080165D01*
X132572397Y-66073393D01*
X133632978Y-65012812D01*
X133639356Y-65001132D01*
X134369408Y-65001132D01*
X134369539Y-65002965D01*
X134373790Y-65009580D01*
X135441094Y-66076884D01*
X135453474Y-66083644D01*
X135461815Y-66077400D01*
X135595832Y-65869048D01*
X135600275Y-65860864D01*
X135706807Y-65624370D01*
X135709997Y-65615605D01*
X135780402Y-65365972D01*
X135782262Y-65356830D01*
X135815187Y-65098019D01*
X135815668Y-65091733D01*
X135817987Y-65003160D01*
X135817836Y-64996851D01*
X135798501Y-64736663D01*
X135797125Y-64727457D01*
X135739878Y-64474467D01*
X135737154Y-64465556D01*
X135643143Y-64223806D01*
X135639132Y-64215397D01*
X135510422Y-63990202D01*
X135505211Y-63982476D01*
X135461996Y-63927658D01*
X135450071Y-63919187D01*
X135438537Y-63925673D01*
X134377022Y-64987188D01*
X134369408Y-65001132D01*
X133639356Y-65001132D01*
X133640592Y-64998868D01*
X133640461Y-64997035D01*
X133636210Y-64990420D01*
X132570816Y-63925026D01*
X132557507Y-63917758D01*
X132547472Y-63924878D01*
X132531937Y-63943556D01*
X132526531Y-63951135D01*
X132391965Y-64172891D01*
X132387736Y-64181192D01*
X132287432Y-64420389D01*
X132284471Y-64429239D01*
X132220628Y-64680625D01*
X132219006Y-64689822D01*
X132193020Y-64947885D01*
X132192775Y-64957211D01*
X70866000Y-64957211D01*
X70866000Y-63552689D01*
X132922102Y-63552689D01*
X132926675Y-63562465D01*
X133992188Y-64627978D01*
X134006132Y-64635592D01*
X134007965Y-64635461D01*
X134014580Y-64631210D01*
X135079349Y-63566441D01*
X135085733Y-63554751D01*
X135076321Y-63542641D01*
X134929045Y-63440471D01*
X134921010Y-63435738D01*
X134688376Y-63321016D01*
X134679743Y-63317528D01*
X134432703Y-63238450D01*
X134423643Y-63236274D01*
X134167630Y-63194580D01*
X134158343Y-63193768D01*
X133898992Y-63190373D01*
X133889681Y-63190943D01*
X133632682Y-63225919D01*
X133623546Y-63227860D01*
X133374543Y-63300439D01*
X133365800Y-63303707D01*
X133130252Y-63412296D01*
X133122097Y-63416816D01*
X132931240Y-63541947D01*
X132922102Y-63552689D01*
X70866000Y-63552689D01*
X70866000Y-61086000D01*
X70886002Y-61017879D01*
X70939658Y-60971386D01*
X70992000Y-60960000D01*
X150750000Y-60960000D01*
X150818121Y-60980002D01*
G37*
%TD.AperFunction*%
%TD*%
M02*
