%TF.GenerationSoftware,KiCad,Pcbnew,(6.0.8)*%
%TF.CreationDate,2022-11-04T20:36:36+01:00*%
%TF.ProjectId,Power_Meter,506f7765-725f-44d6-9574-65722e6b6963,rev?*%
%TF.SameCoordinates,Original*%
%TF.FileFunction,Legend,Top*%
%TF.FilePolarity,Positive*%
%FSLAX46Y46*%
G04 Gerber Fmt 4.6, Leading zero omitted, Abs format (unit mm)*
G04 Created by KiCad (PCBNEW (6.0.8)) date 2022-11-04 20:36:36*
%MOMM*%
%LPD*%
G01*
G04 APERTURE LIST*
%ADD10C,0.150000*%
%ADD11C,0.120000*%
%ADD12C,0.300000*%
G04 APERTURE END LIST*
D10*
X151000000Y-125000000D02*
G75*
G03*
X151000000Y-125000000I-3500000J0D01*
G01*
X72000000Y-133000000D02*
X79000000Y-133000000D01*
X79000000Y-133000000D02*
X79000000Y-139000000D01*
X79000000Y-139000000D02*
X72000000Y-139000000D01*
X72000000Y-139000000D02*
X72000000Y-133000000D01*
X78000000Y-125000000D02*
G75*
G03*
X78000000Y-125000000I-3500000J0D01*
G01*
X116439000Y-84263000D02*
X124059000Y-84263000D01*
X124059000Y-84263000D02*
X124059000Y-111695000D01*
X124059000Y-111695000D02*
X116439000Y-111695000D01*
X116439000Y-111695000D02*
X116439000Y-84263000D01*
X151000000Y-75000000D02*
G75*
G03*
X151000000Y-75000000I-3500000J0D01*
G01*
X78000000Y-75000000D02*
G75*
G03*
X78000000Y-75000000I-3500000J0D01*
G01*
D11*
X71310571Y-91319333D02*
X71691523Y-91319333D01*
X71234380Y-91547904D02*
X71501047Y-90747904D01*
X71767714Y-91547904D01*
X72186761Y-90747904D02*
X72262952Y-90747904D01*
X72339142Y-90786000D01*
X72377238Y-90824095D01*
X72415333Y-90900285D01*
X72453428Y-91052666D01*
X72453428Y-91243142D01*
X72415333Y-91395523D01*
X72377238Y-91471714D01*
X72339142Y-91509809D01*
X72262952Y-91547904D01*
X72186761Y-91547904D01*
X72110571Y-91509809D01*
X72072476Y-91471714D01*
X72034380Y-91395523D01*
X71996285Y-91243142D01*
X71996285Y-91052666D01*
X72034380Y-90900285D01*
X72072476Y-90824095D01*
X72110571Y-90786000D01*
X72186761Y-90747904D01*
X70777238Y-96627904D02*
X70777238Y-95827904D01*
X71158190Y-96627904D02*
X71158190Y-96094571D01*
X71158190Y-96246952D02*
X71196285Y-96170761D01*
X71234380Y-96132666D01*
X71310571Y-96094571D01*
X71386761Y-96094571D01*
X71653428Y-96627904D02*
X71653428Y-96094571D01*
X71653428Y-96170761D02*
X71691523Y-96132666D01*
X71767714Y-96094571D01*
X71882000Y-96094571D01*
X71958190Y-96132666D01*
X71996285Y-96208857D01*
X71996285Y-96627904D01*
X71996285Y-96208857D02*
X72034380Y-96132666D01*
X72110571Y-96094571D01*
X72224857Y-96094571D01*
X72301047Y-96132666D01*
X72339142Y-96208857D01*
X72339142Y-96627904D01*
X72682000Y-96589809D02*
X72758190Y-96627904D01*
X72910571Y-96627904D01*
X72986761Y-96589809D01*
X73024857Y-96513619D01*
X73024857Y-96475523D01*
X72986761Y-96399333D01*
X72910571Y-96361238D01*
X72796285Y-96361238D01*
X72720095Y-96323142D01*
X72682000Y-96246952D01*
X72682000Y-96208857D01*
X72720095Y-96132666D01*
X72796285Y-96094571D01*
X72910571Y-96094571D01*
X72986761Y-96132666D01*
X148590476Y-91057142D02*
X149200000Y-91057142D01*
X148895238Y-91361904D02*
X148895238Y-90752380D01*
X149504761Y-90561904D02*
X150000000Y-90561904D01*
X149733333Y-90866666D01*
X149847619Y-90866666D01*
X149923809Y-90904761D01*
X149961904Y-90942857D01*
X150000000Y-91019047D01*
X150000000Y-91209523D01*
X149961904Y-91285714D01*
X149923809Y-91323809D01*
X149847619Y-91361904D01*
X149619047Y-91361904D01*
X149542857Y-91323809D01*
X149504761Y-91285714D01*
X150228571Y-90561904D02*
X150495238Y-91361904D01*
X150761904Y-90561904D01*
X150952380Y-90561904D02*
X151447619Y-90561904D01*
X151180952Y-90866666D01*
X151295238Y-90866666D01*
X151371428Y-90904761D01*
X151409523Y-90942857D01*
X151447619Y-91019047D01*
X151447619Y-91209523D01*
X151409523Y-91285714D01*
X151371428Y-91323809D01*
X151295238Y-91361904D01*
X151066666Y-91361904D01*
X150990476Y-91323809D01*
X150952380Y-91285714D01*
X105276761Y-63861904D02*
X105276761Y-63061904D01*
X105657714Y-63785714D02*
X105695809Y-63823809D01*
X105657714Y-63861904D01*
X105619619Y-63823809D01*
X105657714Y-63785714D01*
X105657714Y-63861904D01*
X106419619Y-63861904D02*
X106038666Y-63861904D01*
X106038666Y-63061904D01*
X106648190Y-63138095D02*
X106686285Y-63100000D01*
X106762476Y-63061904D01*
X106952952Y-63061904D01*
X107029142Y-63100000D01*
X107067238Y-63138095D01*
X107105333Y-63214285D01*
X107105333Y-63290476D01*
X107067238Y-63404761D01*
X106610095Y-63861904D01*
X107105333Y-63861904D01*
X70510571Y-98367904D02*
X70777238Y-99167904D01*
X71043904Y-98367904D01*
X71310571Y-99167904D02*
X71310571Y-98634571D01*
X71310571Y-98786952D02*
X71348666Y-98710761D01*
X71386761Y-98672666D01*
X71462952Y-98634571D01*
X71539142Y-98634571D01*
X71805809Y-99167904D02*
X71805809Y-98634571D01*
X71805809Y-98710761D02*
X71843904Y-98672666D01*
X71920095Y-98634571D01*
X72034380Y-98634571D01*
X72110571Y-98672666D01*
X72148666Y-98748857D01*
X72148666Y-99167904D01*
X72148666Y-98748857D02*
X72186761Y-98672666D01*
X72262952Y-98634571D01*
X72377238Y-98634571D01*
X72453428Y-98672666D01*
X72491523Y-98748857D01*
X72491523Y-99167904D01*
X72834380Y-99129809D02*
X72910571Y-99167904D01*
X73062952Y-99167904D01*
X73139142Y-99129809D01*
X73177238Y-99053619D01*
X73177238Y-99015523D01*
X73139142Y-98939333D01*
X73062952Y-98901238D01*
X72948666Y-98901238D01*
X72872476Y-98863142D01*
X72834380Y-98786952D01*
X72834380Y-98748857D01*
X72872476Y-98672666D01*
X72948666Y-98634571D01*
X73062952Y-98634571D01*
X73139142Y-98672666D01*
X71390476Y-111100000D02*
X71314285Y-111061904D01*
X71200000Y-111061904D01*
X71085714Y-111100000D01*
X71009523Y-111176190D01*
X70971428Y-111252380D01*
X70933333Y-111404761D01*
X70933333Y-111519047D01*
X70971428Y-111671428D01*
X71009523Y-111747619D01*
X71085714Y-111823809D01*
X71200000Y-111861904D01*
X71276190Y-111861904D01*
X71390476Y-111823809D01*
X71428571Y-111785714D01*
X71428571Y-111519047D01*
X71276190Y-111519047D01*
X71771428Y-111861904D02*
X71771428Y-111061904D01*
X72228571Y-111861904D01*
X72228571Y-111061904D01*
X72609523Y-111861904D02*
X72609523Y-111061904D01*
X72800000Y-111061904D01*
X72914285Y-111100000D01*
X72990476Y-111176190D01*
X73028571Y-111252380D01*
X73066666Y-111404761D01*
X73066666Y-111519047D01*
X73028571Y-111671428D01*
X72990476Y-111747619D01*
X72914285Y-111823809D01*
X72800000Y-111861904D01*
X72609523Y-111861904D01*
X119246761Y-63861904D02*
X119246761Y-63061904D01*
X119627714Y-63785714D02*
X119665809Y-63823809D01*
X119627714Y-63861904D01*
X119589619Y-63823809D01*
X119627714Y-63785714D01*
X119627714Y-63861904D01*
X120389619Y-63861904D02*
X120008666Y-63861904D01*
X120008666Y-63061904D01*
X120580095Y-63061904D02*
X121075333Y-63061904D01*
X120808666Y-63366666D01*
X120922952Y-63366666D01*
X120999142Y-63404761D01*
X121037238Y-63442857D01*
X121075333Y-63519047D01*
X121075333Y-63709523D01*
X121037238Y-63785714D01*
X120999142Y-63823809D01*
X120922952Y-63861904D01*
X120694380Y-63861904D01*
X120618190Y-63823809D01*
X120580095Y-63785714D01*
D10*
X123114380Y-109502809D02*
X122447714Y-109502809D01*
X122542952Y-109502809D02*
X122495333Y-109455190D01*
X122447714Y-109359952D01*
X122447714Y-109217095D01*
X122495333Y-109121857D01*
X122590571Y-109074238D01*
X123114380Y-109074238D01*
X122590571Y-109074238D02*
X122495333Y-109026619D01*
X122447714Y-108931380D01*
X122447714Y-108788523D01*
X122495333Y-108693285D01*
X122590571Y-108645666D01*
X123114380Y-108645666D01*
X123114380Y-108169476D02*
X122447714Y-108169476D01*
X122114380Y-108169476D02*
X122162000Y-108217095D01*
X122209619Y-108169476D01*
X122162000Y-108121857D01*
X122114380Y-108169476D01*
X122209619Y-108169476D01*
X123066761Y-107264714D02*
X123114380Y-107359952D01*
X123114380Y-107550428D01*
X123066761Y-107645666D01*
X123019142Y-107693285D01*
X122923904Y-107740904D01*
X122638190Y-107740904D01*
X122542952Y-107693285D01*
X122495333Y-107645666D01*
X122447714Y-107550428D01*
X122447714Y-107359952D01*
X122495333Y-107264714D01*
X123114380Y-106836142D02*
X122114380Y-106836142D01*
X123114380Y-106407571D02*
X122590571Y-106407571D01*
X122495333Y-106455190D01*
X122447714Y-106550428D01*
X122447714Y-106693285D01*
X122495333Y-106788523D01*
X122542952Y-106836142D01*
X123114380Y-105502809D02*
X122590571Y-105502809D01*
X122495333Y-105550428D01*
X122447714Y-105645666D01*
X122447714Y-105836142D01*
X122495333Y-105931380D01*
X123066761Y-105502809D02*
X123114380Y-105598047D01*
X123114380Y-105836142D01*
X123066761Y-105931380D01*
X122971523Y-105979000D01*
X122876285Y-105979000D01*
X122781047Y-105931380D01*
X122733428Y-105836142D01*
X122733428Y-105598047D01*
X122685809Y-105502809D01*
X123066761Y-104645666D02*
X123114380Y-104740904D01*
X123114380Y-104931380D01*
X123066761Y-105026619D01*
X122971523Y-105074238D01*
X122590571Y-105074238D01*
X122495333Y-105026619D01*
X122447714Y-104931380D01*
X122447714Y-104740904D01*
X122495333Y-104645666D01*
X122590571Y-104598047D01*
X122685809Y-104598047D01*
X122781047Y-105074238D01*
X123114380Y-104026619D02*
X123066761Y-104121857D01*
X122971523Y-104169476D01*
X122114380Y-104169476D01*
X123019142Y-103645666D02*
X123066761Y-103598047D01*
X123114380Y-103645666D01*
X123066761Y-103693285D01*
X123019142Y-103645666D01*
X123114380Y-103645666D01*
X123114380Y-103169476D02*
X122114380Y-103169476D01*
X122733428Y-103074238D02*
X123114380Y-102788523D01*
X122447714Y-102788523D02*
X122828666Y-103169476D01*
X123114380Y-102359952D02*
X122447714Y-102359952D01*
X122638190Y-102359952D02*
X122542952Y-102312333D01*
X122495333Y-102264714D01*
X122447714Y-102169476D01*
X122447714Y-102074238D01*
X123114380Y-101598047D02*
X123066761Y-101693285D01*
X123019142Y-101740904D01*
X122923904Y-101788523D01*
X122638190Y-101788523D01*
X122542952Y-101740904D01*
X122495333Y-101693285D01*
X122447714Y-101598047D01*
X122447714Y-101455190D01*
X122495333Y-101359952D01*
X122542952Y-101312333D01*
X122638190Y-101264714D01*
X122923904Y-101264714D01*
X123019142Y-101312333D01*
X123066761Y-101359952D01*
X123114380Y-101455190D01*
X123114380Y-101598047D01*
X123066761Y-100455190D02*
X123114380Y-100550428D01*
X123114380Y-100740904D01*
X123066761Y-100836142D01*
X122971523Y-100883761D01*
X122590571Y-100883761D01*
X122495333Y-100836142D01*
X122447714Y-100740904D01*
X122447714Y-100550428D01*
X122495333Y-100455190D01*
X122590571Y-100407571D01*
X122685809Y-100407571D01*
X122781047Y-100883761D01*
X122447714Y-99979000D02*
X123114380Y-99979000D01*
X122542952Y-99979000D02*
X122495333Y-99931380D01*
X122447714Y-99836142D01*
X122447714Y-99693285D01*
X122495333Y-99598047D01*
X122590571Y-99550428D01*
X123114380Y-99550428D01*
X122638190Y-98455190D02*
X122590571Y-98502809D01*
X122542952Y-98598047D01*
X122542952Y-98693285D01*
X122590571Y-98788523D01*
X122638190Y-98836142D01*
X122733428Y-98883761D01*
X122828666Y-98883761D01*
X122923904Y-98836142D01*
X122971523Y-98788523D01*
X123019142Y-98693285D01*
X123019142Y-98598047D01*
X122971523Y-98502809D01*
X122923904Y-98455190D01*
X122542952Y-98455190D02*
X122923904Y-98455190D01*
X122971523Y-98407571D01*
X122971523Y-98359952D01*
X122923904Y-98264714D01*
X122828666Y-98217095D01*
X122590571Y-98217095D01*
X122447714Y-98312333D01*
X122352476Y-98455190D01*
X122304857Y-98645666D01*
X122352476Y-98836142D01*
X122447714Y-98979000D01*
X122590571Y-99074238D01*
X122781047Y-99121857D01*
X122971523Y-99074238D01*
X123114380Y-98979000D01*
X123209619Y-98836142D01*
X123257238Y-98645666D01*
X123209619Y-98455190D01*
X123114380Y-98312333D01*
X122447714Y-97359952D02*
X123257238Y-97359952D01*
X123352476Y-97407571D01*
X123400095Y-97455190D01*
X123447714Y-97550428D01*
X123447714Y-97693285D01*
X123400095Y-97788523D01*
X123066761Y-97359952D02*
X123114380Y-97455190D01*
X123114380Y-97645666D01*
X123066761Y-97740904D01*
X123019142Y-97788523D01*
X122923904Y-97836142D01*
X122638190Y-97836142D01*
X122542952Y-97788523D01*
X122495333Y-97740904D01*
X122447714Y-97645666D01*
X122447714Y-97455190D01*
X122495333Y-97359952D01*
X123114380Y-96740904D02*
X123066761Y-96836142D01*
X123019142Y-96883761D01*
X122923904Y-96931380D01*
X122638190Y-96931380D01*
X122542952Y-96883761D01*
X122495333Y-96836142D01*
X122447714Y-96740904D01*
X122447714Y-96598047D01*
X122495333Y-96502809D01*
X122542952Y-96455190D01*
X122638190Y-96407571D01*
X122923904Y-96407571D01*
X123019142Y-96455190D01*
X123066761Y-96502809D01*
X123114380Y-96598047D01*
X123114380Y-96740904D01*
X123114380Y-95836142D02*
X123066761Y-95931380D01*
X123019142Y-95979000D01*
X122923904Y-96026619D01*
X122638190Y-96026619D01*
X122542952Y-95979000D01*
X122495333Y-95931380D01*
X122447714Y-95836142D01*
X122447714Y-95693285D01*
X122495333Y-95598047D01*
X122542952Y-95550428D01*
X122638190Y-95502809D01*
X122923904Y-95502809D01*
X123019142Y-95550428D01*
X123066761Y-95598047D01*
X123114380Y-95693285D01*
X123114380Y-95836142D01*
X122447714Y-94645666D02*
X123257238Y-94645666D01*
X123352476Y-94693285D01*
X123400095Y-94740904D01*
X123447714Y-94836142D01*
X123447714Y-94979000D01*
X123400095Y-95074238D01*
X123066761Y-94645666D02*
X123114380Y-94740904D01*
X123114380Y-94931380D01*
X123066761Y-95026619D01*
X123019142Y-95074238D01*
X122923904Y-95121857D01*
X122638190Y-95121857D01*
X122542952Y-95074238D01*
X122495333Y-95026619D01*
X122447714Y-94931380D01*
X122447714Y-94740904D01*
X122495333Y-94645666D01*
X123114380Y-94026619D02*
X123066761Y-94121857D01*
X122971523Y-94169476D01*
X122114380Y-94169476D01*
X123066761Y-93264714D02*
X123114380Y-93359952D01*
X123114380Y-93550428D01*
X123066761Y-93645666D01*
X122971523Y-93693285D01*
X122590571Y-93693285D01*
X122495333Y-93645666D01*
X122447714Y-93550428D01*
X122447714Y-93359952D01*
X122495333Y-93264714D01*
X122590571Y-93217095D01*
X122685809Y-93217095D01*
X122781047Y-93693285D01*
X123114380Y-92788523D02*
X122447714Y-92788523D01*
X122542952Y-92788523D02*
X122495333Y-92740904D01*
X122447714Y-92645666D01*
X122447714Y-92502809D01*
X122495333Y-92407571D01*
X122590571Y-92359952D01*
X123114380Y-92359952D01*
X122590571Y-92359952D02*
X122495333Y-92312333D01*
X122447714Y-92217095D01*
X122447714Y-92074238D01*
X122495333Y-91979000D01*
X122590571Y-91931380D01*
X123114380Y-91931380D01*
X123114380Y-91026619D02*
X122590571Y-91026619D01*
X122495333Y-91074238D01*
X122447714Y-91169476D01*
X122447714Y-91359952D01*
X122495333Y-91455190D01*
X123066761Y-91026619D02*
X123114380Y-91121857D01*
X123114380Y-91359952D01*
X123066761Y-91455190D01*
X122971523Y-91502809D01*
X122876285Y-91502809D01*
X122781047Y-91455190D01*
X122733428Y-91359952D01*
X122733428Y-91121857D01*
X122685809Y-91026619D01*
X123114380Y-90550428D02*
X122447714Y-90550428D01*
X122114380Y-90550428D02*
X122162000Y-90598047D01*
X122209619Y-90550428D01*
X122162000Y-90502809D01*
X122114380Y-90550428D01*
X122209619Y-90550428D01*
X123114380Y-89931380D02*
X123066761Y-90026619D01*
X122971523Y-90074238D01*
X122114380Y-90074238D01*
X123019142Y-89550428D02*
X123066761Y-89502809D01*
X123114380Y-89550428D01*
X123066761Y-89598047D01*
X123019142Y-89550428D01*
X123114380Y-89550428D01*
X123066761Y-88645666D02*
X123114380Y-88740904D01*
X123114380Y-88931380D01*
X123066761Y-89026619D01*
X123019142Y-89074238D01*
X122923904Y-89121857D01*
X122638190Y-89121857D01*
X122542952Y-89074238D01*
X122495333Y-89026619D01*
X122447714Y-88931380D01*
X122447714Y-88740904D01*
X122495333Y-88645666D01*
X123114380Y-88074238D02*
X123066761Y-88169476D01*
X123019142Y-88217095D01*
X122923904Y-88264714D01*
X122638190Y-88264714D01*
X122542952Y-88217095D01*
X122495333Y-88169476D01*
X122447714Y-88074238D01*
X122447714Y-87931380D01*
X122495333Y-87836142D01*
X122542952Y-87788523D01*
X122638190Y-87740904D01*
X122923904Y-87740904D01*
X123019142Y-87788523D01*
X123066761Y-87836142D01*
X123114380Y-87931380D01*
X123114380Y-88074238D01*
X123114380Y-87312333D02*
X122447714Y-87312333D01*
X122542952Y-87312333D02*
X122495333Y-87264714D01*
X122447714Y-87169476D01*
X122447714Y-87026619D01*
X122495333Y-86931380D01*
X122590571Y-86883761D01*
X123114380Y-86883761D01*
X122590571Y-86883761D02*
X122495333Y-86836142D01*
X122447714Y-86740904D01*
X122447714Y-86598047D01*
X122495333Y-86502809D01*
X122590571Y-86455190D01*
X123114380Y-86455190D01*
D11*
X71310571Y-93605333D02*
X71691523Y-93605333D01*
X71234380Y-93833904D02*
X71501047Y-93033904D01*
X71767714Y-93833904D01*
X72453428Y-93833904D02*
X71996285Y-93833904D01*
X72224857Y-93833904D02*
X72224857Y-93033904D01*
X72148666Y-93148190D01*
X72072476Y-93224380D01*
X71996285Y-93262476D01*
X70971428Y-88557142D02*
X71580952Y-88557142D01*
X71276190Y-88861904D02*
X71276190Y-88252380D01*
X72342857Y-88061904D02*
X71961904Y-88061904D01*
X71923809Y-88442857D01*
X71961904Y-88404761D01*
X72038095Y-88366666D01*
X72228571Y-88366666D01*
X72304761Y-88404761D01*
X72342857Y-88442857D01*
X72380952Y-88519047D01*
X72380952Y-88709523D01*
X72342857Y-88785714D01*
X72304761Y-88823809D01*
X72228571Y-88861904D01*
X72038095Y-88861904D01*
X71961904Y-88823809D01*
X71923809Y-88785714D01*
X72609523Y-88061904D02*
X72876190Y-88861904D01*
X73142857Y-88061904D01*
X71640761Y-101453904D02*
X71640761Y-100653904D01*
X72631238Y-100844380D02*
X72021714Y-101453904D01*
X72631238Y-101453904D01*
X149390476Y-111100000D02*
X149314285Y-111061904D01*
X149200000Y-111061904D01*
X149085714Y-111100000D01*
X149009523Y-111176190D01*
X148971428Y-111252380D01*
X148933333Y-111404761D01*
X148933333Y-111519047D01*
X148971428Y-111671428D01*
X149009523Y-111747619D01*
X149085714Y-111823809D01*
X149200000Y-111861904D01*
X149276190Y-111861904D01*
X149390476Y-111823809D01*
X149428571Y-111785714D01*
X149428571Y-111519047D01*
X149276190Y-111519047D01*
X149771428Y-111861904D02*
X149771428Y-111061904D01*
X150228571Y-111861904D01*
X150228571Y-111061904D01*
X150609523Y-111861904D02*
X150609523Y-111061904D01*
X150800000Y-111061904D01*
X150914285Y-111100000D01*
X150990476Y-111176190D01*
X151028571Y-111252380D01*
X151066666Y-111404761D01*
X151066666Y-111519047D01*
X151028571Y-111671428D01*
X150990476Y-111747619D01*
X150914285Y-111823809D01*
X150800000Y-111861904D01*
X150609523Y-111861904D01*
X71374095Y-103193904D02*
X71640761Y-103993904D01*
X71907428Y-103193904D01*
X72783619Y-103384380D02*
X72174095Y-103993904D01*
X72783619Y-103993904D01*
X148590476Y-93557142D02*
X149200000Y-93557142D01*
X149504761Y-93061904D02*
X150000000Y-93061904D01*
X149733333Y-93366666D01*
X149847619Y-93366666D01*
X149923809Y-93404761D01*
X149961904Y-93442857D01*
X150000000Y-93519047D01*
X150000000Y-93709523D01*
X149961904Y-93785714D01*
X149923809Y-93823809D01*
X149847619Y-93861904D01*
X149619047Y-93861904D01*
X149542857Y-93823809D01*
X149504761Y-93785714D01*
X150228571Y-93061904D02*
X150495238Y-93861904D01*
X150761904Y-93061904D01*
X150952380Y-93061904D02*
X151447619Y-93061904D01*
X151180952Y-93366666D01*
X151295238Y-93366666D01*
X151371428Y-93404761D01*
X151409523Y-93442857D01*
X151447619Y-93519047D01*
X151447619Y-93709523D01*
X151409523Y-93785714D01*
X151371428Y-93823809D01*
X151295238Y-93861904D01*
X151066666Y-93861904D01*
X150990476Y-93823809D01*
X150952380Y-93785714D01*
D10*
X121082380Y-107169476D02*
X120082380Y-107169476D01*
X120082380Y-106931380D01*
X120130000Y-106788523D01*
X120225238Y-106693285D01*
X120320476Y-106645666D01*
X120510952Y-106598047D01*
X120653809Y-106598047D01*
X120844285Y-106645666D01*
X120939523Y-106693285D01*
X121034761Y-106788523D01*
X121082380Y-106931380D01*
X121082380Y-107169476D01*
X121034761Y-105788523D02*
X121082380Y-105883761D01*
X121082380Y-106074238D01*
X121034761Y-106169476D01*
X120939523Y-106217095D01*
X120558571Y-106217095D01*
X120463333Y-106169476D01*
X120415714Y-106074238D01*
X120415714Y-105883761D01*
X120463333Y-105788523D01*
X120558571Y-105740904D01*
X120653809Y-105740904D01*
X120749047Y-106217095D01*
X121034761Y-105359952D02*
X121082380Y-105264714D01*
X121082380Y-105074238D01*
X121034761Y-104979000D01*
X120939523Y-104931380D01*
X120891904Y-104931380D01*
X120796666Y-104979000D01*
X120749047Y-105074238D01*
X120749047Y-105217095D01*
X120701428Y-105312333D01*
X120606190Y-105359952D01*
X120558571Y-105359952D01*
X120463333Y-105312333D01*
X120415714Y-105217095D01*
X120415714Y-105074238D01*
X120463333Y-104979000D01*
X121082380Y-104502809D02*
X120415714Y-104502809D01*
X120082380Y-104502809D02*
X120130000Y-104550428D01*
X120177619Y-104502809D01*
X120130000Y-104455190D01*
X120082380Y-104502809D01*
X120177619Y-104502809D01*
X120415714Y-103598047D02*
X121225238Y-103598047D01*
X121320476Y-103645666D01*
X121368095Y-103693285D01*
X121415714Y-103788523D01*
X121415714Y-103931380D01*
X121368095Y-104026619D01*
X121034761Y-103598047D02*
X121082380Y-103693285D01*
X121082380Y-103883761D01*
X121034761Y-103979000D01*
X120987142Y-104026619D01*
X120891904Y-104074238D01*
X120606190Y-104074238D01*
X120510952Y-104026619D01*
X120463333Y-103979000D01*
X120415714Y-103883761D01*
X120415714Y-103693285D01*
X120463333Y-103598047D01*
X120415714Y-103121857D02*
X121082380Y-103121857D01*
X120510952Y-103121857D02*
X120463333Y-103074238D01*
X120415714Y-102979000D01*
X120415714Y-102836142D01*
X120463333Y-102740904D01*
X120558571Y-102693285D01*
X121082380Y-102693285D01*
X121082380Y-101455190D02*
X120082380Y-101455190D01*
X120463333Y-101455190D02*
X120415714Y-101359952D01*
X120415714Y-101169476D01*
X120463333Y-101074238D01*
X120510952Y-101026619D01*
X120606190Y-100979000D01*
X120891904Y-100979000D01*
X120987142Y-101026619D01*
X121034761Y-101074238D01*
X121082380Y-101169476D01*
X121082380Y-101359952D01*
X121034761Y-101455190D01*
X120415714Y-100645666D02*
X121082380Y-100407571D01*
X120415714Y-100169476D02*
X121082380Y-100407571D01*
X121320476Y-100502809D01*
X121368095Y-100550428D01*
X121415714Y-100645666D01*
X121082380Y-99026619D02*
X120082380Y-99026619D01*
X120796666Y-98693285D01*
X120082380Y-98359952D01*
X121082380Y-98359952D01*
X121082380Y-97883761D02*
X120415714Y-97883761D01*
X120082380Y-97883761D02*
X120130000Y-97931380D01*
X120177619Y-97883761D01*
X120130000Y-97836142D01*
X120082380Y-97883761D01*
X120177619Y-97883761D01*
X121034761Y-96979000D02*
X121082380Y-97074238D01*
X121082380Y-97264714D01*
X121034761Y-97359952D01*
X120987142Y-97407571D01*
X120891904Y-97455190D01*
X120606190Y-97455190D01*
X120510952Y-97407571D01*
X120463333Y-97359952D01*
X120415714Y-97264714D01*
X120415714Y-97074238D01*
X120463333Y-96979000D01*
X121082380Y-96550428D02*
X120082380Y-96550428D01*
X121082380Y-96121857D02*
X120558571Y-96121857D01*
X120463333Y-96169476D01*
X120415714Y-96264714D01*
X120415714Y-96407571D01*
X120463333Y-96502809D01*
X120510952Y-96550428D01*
X121082380Y-95217095D02*
X120558571Y-95217095D01*
X120463333Y-95264714D01*
X120415714Y-95359952D01*
X120415714Y-95550428D01*
X120463333Y-95645666D01*
X121034761Y-95217095D02*
X121082380Y-95312333D01*
X121082380Y-95550428D01*
X121034761Y-95645666D01*
X120939523Y-95693285D01*
X120844285Y-95693285D01*
X120749047Y-95645666D01*
X120701428Y-95550428D01*
X120701428Y-95312333D01*
X120653809Y-95217095D01*
X121034761Y-94359952D02*
X121082380Y-94455190D01*
X121082380Y-94645666D01*
X121034761Y-94740904D01*
X120939523Y-94788523D01*
X120558571Y-94788523D01*
X120463333Y-94740904D01*
X120415714Y-94645666D01*
X120415714Y-94455190D01*
X120463333Y-94359952D01*
X120558571Y-94312333D01*
X120653809Y-94312333D01*
X120749047Y-94788523D01*
X121082380Y-93740904D02*
X121034761Y-93836142D01*
X120939523Y-93883761D01*
X120082380Y-93883761D01*
X121082380Y-92598047D02*
X120082380Y-92598047D01*
X121082380Y-92026619D02*
X120510952Y-92455190D01*
X120082380Y-92026619D02*
X120653809Y-92598047D01*
X121082380Y-91598047D02*
X120415714Y-91598047D01*
X120606190Y-91598047D02*
X120510952Y-91550428D01*
X120463333Y-91502809D01*
X120415714Y-91407571D01*
X120415714Y-91312333D01*
X121082380Y-90836142D02*
X121034761Y-90931380D01*
X120987142Y-90979000D01*
X120891904Y-91026619D01*
X120606190Y-91026619D01*
X120510952Y-90979000D01*
X120463333Y-90931380D01*
X120415714Y-90836142D01*
X120415714Y-90693285D01*
X120463333Y-90598047D01*
X120510952Y-90550428D01*
X120606190Y-90502809D01*
X120891904Y-90502809D01*
X120987142Y-90550428D01*
X121034761Y-90598047D01*
X121082380Y-90693285D01*
X121082380Y-90836142D01*
X121034761Y-89693285D02*
X121082380Y-89788523D01*
X121082380Y-89979000D01*
X121034761Y-90074238D01*
X120939523Y-90121857D01*
X120558571Y-90121857D01*
X120463333Y-90074238D01*
X120415714Y-89979000D01*
X120415714Y-89788523D01*
X120463333Y-89693285D01*
X120558571Y-89645666D01*
X120653809Y-89645666D01*
X120749047Y-90121857D01*
X120415714Y-89217095D02*
X121082380Y-89217095D01*
X120510952Y-89217095D02*
X120463333Y-89169476D01*
X120415714Y-89074238D01*
X120415714Y-88931380D01*
X120463333Y-88836142D01*
X120558571Y-88788523D01*
X121082380Y-88788523D01*
D11*
X91306761Y-63861904D02*
X91306761Y-63061904D01*
X91687714Y-63785714D02*
X91725809Y-63823809D01*
X91687714Y-63861904D01*
X91649619Y-63823809D01*
X91687714Y-63785714D01*
X91687714Y-63861904D01*
X92449619Y-63861904D02*
X92068666Y-63861904D01*
X92068666Y-63061904D01*
X93135333Y-63861904D02*
X92678190Y-63861904D01*
X92906761Y-63861904D02*
X92906761Y-63061904D01*
X92830571Y-63176190D01*
X92754380Y-63252380D01*
X92678190Y-63290476D01*
X129775000Y-63982523D02*
X129736904Y-64058714D01*
X129736904Y-64173000D01*
X129775000Y-64287285D01*
X129851190Y-64363476D01*
X129927380Y-64401571D01*
X130079761Y-64439666D01*
X130194047Y-64439666D01*
X130346428Y-64401571D01*
X130422619Y-64363476D01*
X130498809Y-64287285D01*
X130536904Y-64173000D01*
X130536904Y-64096809D01*
X130498809Y-63982523D01*
X130460714Y-63944428D01*
X130194047Y-63944428D01*
X130194047Y-64096809D01*
X130536904Y-63601571D02*
X129736904Y-63601571D01*
X130536904Y-63144428D01*
X129736904Y-63144428D01*
X130536904Y-62763476D02*
X129736904Y-62763476D01*
X129736904Y-62573000D01*
X129775000Y-62458714D01*
X129851190Y-62382523D01*
X129927380Y-62344428D01*
X130079761Y-62306333D01*
X130194047Y-62306333D01*
X130346428Y-62344428D01*
X130422619Y-62382523D01*
X130498809Y-62458714D01*
X130536904Y-62573000D01*
X130536904Y-62763476D01*
X142690904Y-64261904D02*
X143490904Y-63995238D01*
X142690904Y-63728571D01*
X143186142Y-63461904D02*
X143186142Y-62852380D01*
X143490904Y-63157142D02*
X142881380Y-63157142D01*
X148971428Y-88557142D02*
X149580952Y-88557142D01*
X149276190Y-88861904D02*
X149276190Y-88252380D01*
X150342857Y-88061904D02*
X149961904Y-88061904D01*
X149923809Y-88442857D01*
X149961904Y-88404761D01*
X150038095Y-88366666D01*
X150228571Y-88366666D01*
X150304761Y-88404761D01*
X150342857Y-88442857D01*
X150380952Y-88519047D01*
X150380952Y-88709523D01*
X150342857Y-88785714D01*
X150304761Y-88823809D01*
X150228571Y-88861904D01*
X150038095Y-88861904D01*
X149961904Y-88823809D01*
X149923809Y-88785714D01*
X150609523Y-88061904D02*
X150876190Y-88861904D01*
X151142857Y-88061904D01*
D12*
X119248761Y-110581011D02*
X117248761Y-110331011D01*
X117248761Y-109569107D01*
X117344000Y-109390535D01*
X117439238Y-109307202D01*
X117629714Y-109235773D01*
X117915428Y-109271488D01*
X118105904Y-109390535D01*
X118201142Y-109497678D01*
X118296380Y-109700059D01*
X118296380Y-110461964D01*
X119248761Y-108295297D02*
X119153523Y-108473869D01*
X119058285Y-108557202D01*
X118867809Y-108628630D01*
X118296380Y-108557202D01*
X118105904Y-108438154D01*
X118010666Y-108331011D01*
X117915428Y-108128630D01*
X117915428Y-107842916D01*
X118010666Y-107664345D01*
X118105904Y-107581011D01*
X118296380Y-107509583D01*
X118867809Y-107581011D01*
X119058285Y-107700059D01*
X119153523Y-107807202D01*
X119248761Y-108009583D01*
X119248761Y-108295297D01*
X117915428Y-106795297D02*
X119248761Y-106581011D01*
X118296380Y-106081011D01*
X119248761Y-105819107D01*
X117915428Y-105271488D01*
X119153523Y-103902440D02*
X119248761Y-104104821D01*
X119248761Y-104485773D01*
X119153523Y-104664345D01*
X118963047Y-104735773D01*
X118201142Y-104640535D01*
X118010666Y-104521488D01*
X117915428Y-104319107D01*
X117915428Y-103938154D01*
X118010666Y-103759583D01*
X118201142Y-103688154D01*
X118391619Y-103711964D01*
X118582095Y-104688154D01*
X119248761Y-102961964D02*
X117915428Y-102795297D01*
X118296380Y-102842916D02*
X118105904Y-102723869D01*
X118010666Y-102616726D01*
X117915428Y-102414345D01*
X117915428Y-102223869D01*
X119248761Y-100200059D02*
X117248761Y-99950059D01*
X118677333Y-99461964D01*
X117248761Y-98616726D01*
X119248761Y-98866726D01*
X119153523Y-97140535D02*
X119248761Y-97342916D01*
X119248761Y-97723869D01*
X119153523Y-97902440D01*
X118963047Y-97973869D01*
X118201142Y-97878630D01*
X118010666Y-97759583D01*
X117915428Y-97557202D01*
X117915428Y-97176250D01*
X118010666Y-96997678D01*
X118201142Y-96926250D01*
X118391619Y-96950059D01*
X118582095Y-97926250D01*
X117915428Y-96319107D02*
X117915428Y-95557202D01*
X117248761Y-95950059D02*
X118963047Y-96164345D01*
X119153523Y-96092916D01*
X119248761Y-95914345D01*
X119248761Y-95723869D01*
X119153523Y-94283392D02*
X119248761Y-94485773D01*
X119248761Y-94866726D01*
X119153523Y-95045297D01*
X118963047Y-95116726D01*
X118201142Y-95021488D01*
X118010666Y-94902440D01*
X117915428Y-94700059D01*
X117915428Y-94319107D01*
X118010666Y-94140535D01*
X118201142Y-94069107D01*
X118391619Y-94092916D01*
X118582095Y-95069107D01*
X119248761Y-93342916D02*
X117915428Y-93176250D01*
X118296380Y-93223869D02*
X118105904Y-93104821D01*
X118010666Y-92997678D01*
X117915428Y-92795297D01*
X117915428Y-92604821D01*
X117915428Y-90604821D02*
X119248761Y-90295297D01*
X117915428Y-89652440D01*
X117248761Y-88426250D02*
X117248761Y-88235773D01*
X117344000Y-88057202D01*
X117439238Y-87973869D01*
X117629714Y-87902440D01*
X118010666Y-87854821D01*
X118486857Y-87914345D01*
X118867809Y-88057202D01*
X119058285Y-88176250D01*
X119153523Y-88283392D01*
X119248761Y-88485773D01*
X119248761Y-88676250D01*
X119153523Y-88854821D01*
X119058285Y-88938154D01*
X118867809Y-89009583D01*
X118486857Y-89057202D01*
X118010666Y-88997678D01*
X117629714Y-88854821D01*
X117439238Y-88735773D01*
X117344000Y-88628630D01*
X117248761Y-88426250D01*
X119058285Y-87128630D02*
X119153523Y-87045297D01*
X119248761Y-87152440D01*
X119153523Y-87235773D01*
X119058285Y-87128630D01*
X119248761Y-87152440D01*
X119248761Y-85152440D02*
X119248761Y-86295297D01*
X119248761Y-85723869D02*
X117248761Y-85473869D01*
X117534476Y-85700059D01*
X117724952Y-85914345D01*
X117820190Y-86116726D01*
D11*
X72852380Y-133629904D02*
X72852380Y-134201333D01*
X72814285Y-134315619D01*
X72738095Y-134391809D01*
X72623809Y-134429904D01*
X72547619Y-134429904D01*
X73576190Y-133896571D02*
X73576190Y-134429904D01*
X73385714Y-133591809D02*
X73195238Y-134163238D01*
X73690476Y-134163238D01*
X73995238Y-134353714D02*
X74033333Y-134391809D01*
X73995238Y-134429904D01*
X73957142Y-134391809D01*
X73995238Y-134353714D01*
X73995238Y-134429904D01*
X74338095Y-133706095D02*
X74376190Y-133668000D01*
X74452380Y-133629904D01*
X74642857Y-133629904D01*
X74719047Y-133668000D01*
X74757142Y-133706095D01*
X74795238Y-133782285D01*
X74795238Y-133858476D01*
X74757142Y-133972761D01*
X74300000Y-134429904D01*
X74795238Y-134429904D01*
X75747619Y-134010857D02*
X76357142Y-134010857D01*
X76357142Y-134239428D02*
X75747619Y-134239428D01*
X77728571Y-134429904D02*
X77347619Y-134429904D01*
X77347619Y-133629904D01*
X78414285Y-134429904D02*
X77957142Y-134429904D01*
X78185714Y-134429904D02*
X78185714Y-133629904D01*
X78109523Y-133744190D01*
X78033333Y-133820380D01*
X77957142Y-133858476D01*
X72852380Y-134917904D02*
X72852380Y-135489333D01*
X72814285Y-135603619D01*
X72738095Y-135679809D01*
X72623809Y-135717904D01*
X72547619Y-135717904D01*
X73576190Y-135184571D02*
X73576190Y-135717904D01*
X73385714Y-134879809D02*
X73195238Y-135451238D01*
X73690476Y-135451238D01*
X73995238Y-135641714D02*
X74033333Y-135679809D01*
X73995238Y-135717904D01*
X73957142Y-135679809D01*
X73995238Y-135641714D01*
X73995238Y-135717904D01*
X74757142Y-134917904D02*
X74376190Y-134917904D01*
X74338095Y-135298857D01*
X74376190Y-135260761D01*
X74452380Y-135222666D01*
X74642857Y-135222666D01*
X74719047Y-135260761D01*
X74757142Y-135298857D01*
X74795238Y-135375047D01*
X74795238Y-135565523D01*
X74757142Y-135641714D01*
X74719047Y-135679809D01*
X74642857Y-135717904D01*
X74452380Y-135717904D01*
X74376190Y-135679809D01*
X74338095Y-135641714D01*
X75747619Y-135298857D02*
X76357142Y-135298857D01*
X76357142Y-135527428D02*
X75747619Y-135527428D01*
X77728571Y-135717904D02*
X77347619Y-135717904D01*
X77347619Y-134917904D01*
X77957142Y-134994095D02*
X77995238Y-134956000D01*
X78071428Y-134917904D01*
X78261904Y-134917904D01*
X78338095Y-134956000D01*
X78376190Y-134994095D01*
X78414285Y-135070285D01*
X78414285Y-135146476D01*
X78376190Y-135260761D01*
X77919047Y-135717904D01*
X78414285Y-135717904D01*
X72852380Y-136205904D02*
X72852380Y-136777333D01*
X72814285Y-136891619D01*
X72738095Y-136967809D01*
X72623809Y-137005904D01*
X72547619Y-137005904D01*
X73576190Y-136472571D02*
X73576190Y-137005904D01*
X73385714Y-136167809D02*
X73195238Y-136739238D01*
X73690476Y-136739238D01*
X73995238Y-136929714D02*
X74033333Y-136967809D01*
X73995238Y-137005904D01*
X73957142Y-136967809D01*
X73995238Y-136929714D01*
X73995238Y-137005904D01*
X74490476Y-136548761D02*
X74414285Y-136510666D01*
X74376190Y-136472571D01*
X74338095Y-136396380D01*
X74338095Y-136358285D01*
X74376190Y-136282095D01*
X74414285Y-136244000D01*
X74490476Y-136205904D01*
X74642857Y-136205904D01*
X74719047Y-136244000D01*
X74757142Y-136282095D01*
X74795238Y-136358285D01*
X74795238Y-136396380D01*
X74757142Y-136472571D01*
X74719047Y-136510666D01*
X74642857Y-136548761D01*
X74490476Y-136548761D01*
X74414285Y-136586857D01*
X74376190Y-136624952D01*
X74338095Y-136701142D01*
X74338095Y-136853523D01*
X74376190Y-136929714D01*
X74414285Y-136967809D01*
X74490476Y-137005904D01*
X74642857Y-137005904D01*
X74719047Y-136967809D01*
X74757142Y-136929714D01*
X74795238Y-136853523D01*
X74795238Y-136701142D01*
X74757142Y-136624952D01*
X74719047Y-136586857D01*
X74642857Y-136548761D01*
X75747619Y-136586857D02*
X76357142Y-136586857D01*
X76357142Y-136815428D02*
X75747619Y-136815428D01*
X77728571Y-137005904D02*
X77347619Y-137005904D01*
X77347619Y-136205904D01*
X77919047Y-136205904D02*
X78414285Y-136205904D01*
X78147619Y-136510666D01*
X78261904Y-136510666D01*
X78338095Y-136548761D01*
X78376190Y-136586857D01*
X78414285Y-136663047D01*
X78414285Y-136853523D01*
X78376190Y-136929714D01*
X78338095Y-136967809D01*
X78261904Y-137005904D01*
X78033333Y-137005904D01*
X77957142Y-136967809D01*
X77919047Y-136929714D01*
X72757142Y-137493904D02*
X72757142Y-138065333D01*
X72719047Y-138179619D01*
X72642857Y-138255809D01*
X72528571Y-138293904D01*
X72452380Y-138293904D01*
X73480952Y-137760571D02*
X73480952Y-138293904D01*
X73290476Y-137455809D02*
X73100000Y-138027238D01*
X73595238Y-138027238D01*
X73900000Y-138217714D02*
X73938095Y-138255809D01*
X73900000Y-138293904D01*
X73861904Y-138255809D01*
X73900000Y-138217714D01*
X73900000Y-138293904D01*
X74700000Y-138293904D02*
X74242857Y-138293904D01*
X74471428Y-138293904D02*
X74471428Y-137493904D01*
X74395238Y-137608190D01*
X74319047Y-137684380D01*
X74242857Y-137722476D01*
X75461904Y-138293904D02*
X75004761Y-138293904D01*
X75233333Y-138293904D02*
X75233333Y-137493904D01*
X75157142Y-137608190D01*
X75080952Y-137684380D01*
X75004761Y-137722476D01*
X76414285Y-137874857D02*
X77023809Y-137874857D01*
X77023809Y-138103428D02*
X76414285Y-138103428D01*
X78014285Y-138293904D02*
X78014285Y-137493904D01*
X78471428Y-138293904D01*
X78471428Y-137493904D01*
D10*
%TO.C,C18*%
X109629642Y-87932043D02*
X109582023Y-87979662D01*
X109439166Y-88027281D01*
X109343928Y-88027281D01*
X109201071Y-87979662D01*
X109105833Y-87884424D01*
X109058214Y-87789186D01*
X109010595Y-87598710D01*
X109010595Y-87455853D01*
X109058214Y-87265377D01*
X109105833Y-87170139D01*
X109201071Y-87074901D01*
X109343928Y-87027281D01*
X109439166Y-87027281D01*
X109582023Y-87074901D01*
X109629642Y-87122520D01*
X110582023Y-88027281D02*
X110010595Y-88027281D01*
X110296309Y-88027281D02*
X110296309Y-87027281D01*
X110201071Y-87170139D01*
X110105833Y-87265377D01*
X110010595Y-87312996D01*
X111153452Y-87455853D02*
X111058214Y-87408234D01*
X111010595Y-87360615D01*
X110962976Y-87265377D01*
X110962976Y-87217758D01*
X111010595Y-87122520D01*
X111058214Y-87074901D01*
X111153452Y-87027281D01*
X111343928Y-87027281D01*
X111439166Y-87074901D01*
X111486785Y-87122520D01*
X111534404Y-87217758D01*
X111534404Y-87265377D01*
X111486785Y-87360615D01*
X111439166Y-87408234D01*
X111343928Y-87455853D01*
X111153452Y-87455853D01*
X111058214Y-87503472D01*
X111010595Y-87551091D01*
X110962976Y-87646329D01*
X110962976Y-87836805D01*
X111010595Y-87932043D01*
X111058214Y-87979662D01*
X111153452Y-88027281D01*
X111343928Y-88027281D01*
X111439166Y-87979662D01*
X111486785Y-87932043D01*
X111534404Y-87836805D01*
X111534404Y-87646329D01*
X111486785Y-87551091D01*
X111439166Y-87503472D01*
X111343928Y-87455853D01*
%TO.C,U4*%
X102850095Y-94512280D02*
X102850095Y-95321804D01*
X102897714Y-95417042D01*
X102945333Y-95464661D01*
X103040571Y-95512280D01*
X103231047Y-95512280D01*
X103326285Y-95464661D01*
X103373904Y-95417042D01*
X103421523Y-95321804D01*
X103421523Y-94512280D01*
X104326285Y-94845614D02*
X104326285Y-95512280D01*
X104088190Y-94464661D02*
X103850095Y-95178947D01*
X104469142Y-95178947D01*
X104267000Y-96480380D02*
X104267000Y-96718476D01*
X104028904Y-96623238D02*
X104267000Y-96718476D01*
X104505095Y-96623238D01*
X104124142Y-96908952D02*
X104267000Y-96718476D01*
X104409857Y-96908952D01*
%TO.C,C33*%
X131417142Y-86271142D02*
X131369523Y-86318761D01*
X131226666Y-86366380D01*
X131131428Y-86366380D01*
X130988571Y-86318761D01*
X130893333Y-86223523D01*
X130845714Y-86128285D01*
X130798095Y-85937809D01*
X130798095Y-85794952D01*
X130845714Y-85604476D01*
X130893333Y-85509238D01*
X130988571Y-85414000D01*
X131131428Y-85366380D01*
X131226666Y-85366380D01*
X131369523Y-85414000D01*
X131417142Y-85461619D01*
X131750476Y-85366380D02*
X132369523Y-85366380D01*
X132036190Y-85747333D01*
X132179047Y-85747333D01*
X132274285Y-85794952D01*
X132321904Y-85842571D01*
X132369523Y-85937809D01*
X132369523Y-86175904D01*
X132321904Y-86271142D01*
X132274285Y-86318761D01*
X132179047Y-86366380D01*
X131893333Y-86366380D01*
X131798095Y-86318761D01*
X131750476Y-86271142D01*
X132702857Y-85366380D02*
X133321904Y-85366380D01*
X132988571Y-85747333D01*
X133131428Y-85747333D01*
X133226666Y-85794952D01*
X133274285Y-85842571D01*
X133321904Y-85937809D01*
X133321904Y-86175904D01*
X133274285Y-86271142D01*
X133226666Y-86318761D01*
X133131428Y-86366380D01*
X132845714Y-86366380D01*
X132750476Y-86318761D01*
X132702857Y-86271142D01*
%TO.C,R40*%
X87637142Y-109239380D02*
X87303809Y-108763190D01*
X87065714Y-109239380D02*
X87065714Y-108239380D01*
X87446666Y-108239380D01*
X87541904Y-108287000D01*
X87589523Y-108334619D01*
X87637142Y-108429857D01*
X87637142Y-108572714D01*
X87589523Y-108667952D01*
X87541904Y-108715571D01*
X87446666Y-108763190D01*
X87065714Y-108763190D01*
X88494285Y-108572714D02*
X88494285Y-109239380D01*
X88256190Y-108191761D02*
X88018095Y-108906047D01*
X88637142Y-108906047D01*
X89208571Y-108239380D02*
X89303809Y-108239380D01*
X89399047Y-108287000D01*
X89446666Y-108334619D01*
X89494285Y-108429857D01*
X89541904Y-108620333D01*
X89541904Y-108858428D01*
X89494285Y-109048904D01*
X89446666Y-109144142D01*
X89399047Y-109191761D01*
X89303809Y-109239380D01*
X89208571Y-109239380D01*
X89113333Y-109191761D01*
X89065714Y-109144142D01*
X89018095Y-109048904D01*
X88970476Y-108858428D01*
X88970476Y-108620333D01*
X89018095Y-108429857D01*
X89065714Y-108334619D01*
X89113333Y-108287000D01*
X89208571Y-108239380D01*
%TO.C,C34*%
X135989142Y-86271142D02*
X135941523Y-86318761D01*
X135798666Y-86366380D01*
X135703428Y-86366380D01*
X135560571Y-86318761D01*
X135465333Y-86223523D01*
X135417714Y-86128285D01*
X135370095Y-85937809D01*
X135370095Y-85794952D01*
X135417714Y-85604476D01*
X135465333Y-85509238D01*
X135560571Y-85414000D01*
X135703428Y-85366380D01*
X135798666Y-85366380D01*
X135941523Y-85414000D01*
X135989142Y-85461619D01*
X136322476Y-85366380D02*
X136941523Y-85366380D01*
X136608190Y-85747333D01*
X136751047Y-85747333D01*
X136846285Y-85794952D01*
X136893904Y-85842571D01*
X136941523Y-85937809D01*
X136941523Y-86175904D01*
X136893904Y-86271142D01*
X136846285Y-86318761D01*
X136751047Y-86366380D01*
X136465333Y-86366380D01*
X136370095Y-86318761D01*
X136322476Y-86271142D01*
X137798666Y-85699714D02*
X137798666Y-86366380D01*
X137560571Y-85318761D02*
X137322476Y-86033047D01*
X137941523Y-86033047D01*
%TO.C,D4*%
X86152380Y-113843095D02*
X85152380Y-113843095D01*
X85152380Y-113605000D01*
X85200000Y-113462142D01*
X85295238Y-113366904D01*
X85390476Y-113319285D01*
X85580952Y-113271666D01*
X85723809Y-113271666D01*
X85914285Y-113319285D01*
X86009523Y-113366904D01*
X86104761Y-113462142D01*
X86152380Y-113605000D01*
X86152380Y-113843095D01*
X85485714Y-112414523D02*
X86152380Y-112414523D01*
X85104761Y-112652619D02*
X85819047Y-112890714D01*
X85819047Y-112271666D01*
%TO.C,R50*%
X108544380Y-109302857D02*
X108068190Y-109636190D01*
X108544380Y-109874285D02*
X107544380Y-109874285D01*
X107544380Y-109493333D01*
X107592000Y-109398095D01*
X107639619Y-109350476D01*
X107734857Y-109302857D01*
X107877714Y-109302857D01*
X107972952Y-109350476D01*
X108020571Y-109398095D01*
X108068190Y-109493333D01*
X108068190Y-109874285D01*
X107544380Y-108398095D02*
X107544380Y-108874285D01*
X108020571Y-108921904D01*
X107972952Y-108874285D01*
X107925333Y-108779047D01*
X107925333Y-108540952D01*
X107972952Y-108445714D01*
X108020571Y-108398095D01*
X108115809Y-108350476D01*
X108353904Y-108350476D01*
X108449142Y-108398095D01*
X108496761Y-108445714D01*
X108544380Y-108540952D01*
X108544380Y-108779047D01*
X108496761Y-108874285D01*
X108449142Y-108921904D01*
X107544380Y-107731428D02*
X107544380Y-107636190D01*
X107592000Y-107540952D01*
X107639619Y-107493333D01*
X107734857Y-107445714D01*
X107925333Y-107398095D01*
X108163428Y-107398095D01*
X108353904Y-107445714D01*
X108449142Y-107493333D01*
X108496761Y-107540952D01*
X108544380Y-107636190D01*
X108544380Y-107731428D01*
X108496761Y-107826666D01*
X108449142Y-107874285D01*
X108353904Y-107921904D01*
X108163428Y-107969523D01*
X107925333Y-107969523D01*
X107734857Y-107921904D01*
X107639619Y-107874285D01*
X107592000Y-107826666D01*
X107544380Y-107731428D01*
%TO.C,R49*%
X81780142Y-100984380D02*
X81446809Y-100508190D01*
X81208714Y-100984380D02*
X81208714Y-99984380D01*
X81589666Y-99984380D01*
X81684904Y-100032000D01*
X81732523Y-100079619D01*
X81780142Y-100174857D01*
X81780142Y-100317714D01*
X81732523Y-100412952D01*
X81684904Y-100460571D01*
X81589666Y-100508190D01*
X81208714Y-100508190D01*
X82637285Y-100317714D02*
X82637285Y-100984380D01*
X82399190Y-99936761D02*
X82161095Y-100651047D01*
X82780142Y-100651047D01*
X83208714Y-100984380D02*
X83399190Y-100984380D01*
X83494428Y-100936761D01*
X83542047Y-100889142D01*
X83637285Y-100746285D01*
X83684904Y-100555809D01*
X83684904Y-100174857D01*
X83637285Y-100079619D01*
X83589666Y-100032000D01*
X83494428Y-99984380D01*
X83303952Y-99984380D01*
X83208714Y-100032000D01*
X83161095Y-100079619D01*
X83113476Y-100174857D01*
X83113476Y-100412952D01*
X83161095Y-100508190D01*
X83208714Y-100555809D01*
X83303952Y-100603428D01*
X83494428Y-100603428D01*
X83589666Y-100555809D01*
X83637285Y-100508190D01*
X83684904Y-100412952D01*
%TO.C,R6*%
X100813333Y-93340880D02*
X100480000Y-92864690D01*
X100241904Y-93340880D02*
X100241904Y-92340880D01*
X100622857Y-92340880D01*
X100718095Y-92388500D01*
X100765714Y-92436119D01*
X100813333Y-92531357D01*
X100813333Y-92674214D01*
X100765714Y-92769452D01*
X100718095Y-92817071D01*
X100622857Y-92864690D01*
X100241904Y-92864690D01*
X101670476Y-92340880D02*
X101480000Y-92340880D01*
X101384761Y-92388500D01*
X101337142Y-92436119D01*
X101241904Y-92578976D01*
X101194285Y-92769452D01*
X101194285Y-93150404D01*
X101241904Y-93245642D01*
X101289523Y-93293261D01*
X101384761Y-93340880D01*
X101575238Y-93340880D01*
X101670476Y-93293261D01*
X101718095Y-93245642D01*
X101765714Y-93150404D01*
X101765714Y-92912309D01*
X101718095Y-92817071D01*
X101670476Y-92769452D01*
X101575238Y-92721833D01*
X101384761Y-92721833D01*
X101289523Y-92769452D01*
X101241904Y-92817071D01*
X101194285Y-92912309D01*
%TO.C,L3*%
X131770380Y-79730666D02*
X131770380Y-80206857D01*
X130770380Y-80206857D01*
X130770380Y-79492571D02*
X130770380Y-78873523D01*
X131151333Y-79206857D01*
X131151333Y-79064000D01*
X131198952Y-78968761D01*
X131246571Y-78921142D01*
X131341809Y-78873523D01*
X131579904Y-78873523D01*
X131675142Y-78921142D01*
X131722761Y-78968761D01*
X131770380Y-79064000D01*
X131770380Y-79349714D01*
X131722761Y-79444952D01*
X131675142Y-79492571D01*
%TO.C,R9*%
X82764333Y-89632480D02*
X82431000Y-89156290D01*
X82192904Y-89632480D02*
X82192904Y-88632480D01*
X82573857Y-88632480D01*
X82669095Y-88680100D01*
X82716714Y-88727719D01*
X82764333Y-88822957D01*
X82764333Y-88965814D01*
X82716714Y-89061052D01*
X82669095Y-89108671D01*
X82573857Y-89156290D01*
X82192904Y-89156290D01*
X83240523Y-89632480D02*
X83431000Y-89632480D01*
X83526238Y-89584861D01*
X83573857Y-89537242D01*
X83669095Y-89394385D01*
X83716714Y-89203909D01*
X83716714Y-88822957D01*
X83669095Y-88727719D01*
X83621476Y-88680100D01*
X83526238Y-88632480D01*
X83335761Y-88632480D01*
X83240523Y-88680100D01*
X83192904Y-88727719D01*
X83145285Y-88822957D01*
X83145285Y-89061052D01*
X83192904Y-89156290D01*
X83240523Y-89203909D01*
X83335761Y-89251528D01*
X83526238Y-89251528D01*
X83621476Y-89203909D01*
X83669095Y-89156290D01*
X83716714Y-89061052D01*
%TO.C,R28*%
X132420380Y-113747857D02*
X131944190Y-114081190D01*
X132420380Y-114319285D02*
X131420380Y-114319285D01*
X131420380Y-113938333D01*
X131468000Y-113843095D01*
X131515619Y-113795476D01*
X131610857Y-113747857D01*
X131753714Y-113747857D01*
X131848952Y-113795476D01*
X131896571Y-113843095D01*
X131944190Y-113938333D01*
X131944190Y-114319285D01*
X131515619Y-113366904D02*
X131468000Y-113319285D01*
X131420380Y-113224047D01*
X131420380Y-112985952D01*
X131468000Y-112890714D01*
X131515619Y-112843095D01*
X131610857Y-112795476D01*
X131706095Y-112795476D01*
X131848952Y-112843095D01*
X132420380Y-113414523D01*
X132420380Y-112795476D01*
X131848952Y-112224047D02*
X131801333Y-112319285D01*
X131753714Y-112366904D01*
X131658476Y-112414523D01*
X131610857Y-112414523D01*
X131515619Y-112366904D01*
X131468000Y-112319285D01*
X131420380Y-112224047D01*
X131420380Y-112033571D01*
X131468000Y-111938333D01*
X131515619Y-111890714D01*
X131610857Y-111843095D01*
X131658476Y-111843095D01*
X131753714Y-111890714D01*
X131801333Y-111938333D01*
X131848952Y-112033571D01*
X131848952Y-112224047D01*
X131896571Y-112319285D01*
X131944190Y-112366904D01*
X132039428Y-112414523D01*
X132229904Y-112414523D01*
X132325142Y-112366904D01*
X132372761Y-112319285D01*
X132420380Y-112224047D01*
X132420380Y-112033571D01*
X132372761Y-111938333D01*
X132325142Y-111890714D01*
X132229904Y-111843095D01*
X132039428Y-111843095D01*
X131944190Y-111890714D01*
X131896571Y-111938333D01*
X131848952Y-112033571D01*
%TO.C,U5*%
X102938995Y-88244282D02*
X102938995Y-89053806D01*
X102986614Y-89149044D01*
X103034233Y-89196663D01*
X103129471Y-89244282D01*
X103319947Y-89244282D01*
X103415185Y-89196663D01*
X103462804Y-89149044D01*
X103510423Y-89053806D01*
X103510423Y-88244282D01*
X104462804Y-88244282D02*
X103986614Y-88244282D01*
X103938995Y-88720473D01*
X103986614Y-88672854D01*
X104081852Y-88625235D01*
X104319947Y-88625235D01*
X104415185Y-88672854D01*
X104462804Y-88720473D01*
X104510423Y-88815711D01*
X104510423Y-89053806D01*
X104462804Y-89149044D01*
X104415185Y-89196663D01*
X104319947Y-89244282D01*
X104081852Y-89244282D01*
X103986614Y-89196663D01*
X103938995Y-89149044D01*
X104394000Y-89622380D02*
X104394000Y-89860476D01*
X104155904Y-89765238D02*
X104394000Y-89860476D01*
X104632095Y-89765238D01*
X104251142Y-90050952D02*
X104394000Y-89860476D01*
X104536857Y-90050952D01*
%TO.C,L2*%
X132655333Y-100288380D02*
X132179142Y-100288380D01*
X132179142Y-99288380D01*
X132941047Y-99383619D02*
X132988666Y-99336000D01*
X133083904Y-99288380D01*
X133322000Y-99288380D01*
X133417238Y-99336000D01*
X133464857Y-99383619D01*
X133512476Y-99478857D01*
X133512476Y-99574095D01*
X133464857Y-99716952D01*
X132893428Y-100288380D01*
X133512476Y-100288380D01*
%TO.C,C14*%
X105763142Y-103322142D02*
X105715523Y-103369761D01*
X105572666Y-103417380D01*
X105477428Y-103417380D01*
X105334571Y-103369761D01*
X105239333Y-103274523D01*
X105191714Y-103179285D01*
X105144095Y-102988809D01*
X105144095Y-102845952D01*
X105191714Y-102655476D01*
X105239333Y-102560238D01*
X105334571Y-102465000D01*
X105477428Y-102417380D01*
X105572666Y-102417380D01*
X105715523Y-102465000D01*
X105763142Y-102512619D01*
X106715523Y-103417380D02*
X106144095Y-103417380D01*
X106429809Y-103417380D02*
X106429809Y-102417380D01*
X106334571Y-102560238D01*
X106239333Y-102655476D01*
X106144095Y-102703095D01*
X107572666Y-102750714D02*
X107572666Y-103417380D01*
X107334571Y-102369761D02*
X107096476Y-103084047D01*
X107715523Y-103084047D01*
%TO.C,C20*%
X94987142Y-101301857D02*
X95034761Y-101349476D01*
X95082380Y-101492333D01*
X95082380Y-101587571D01*
X95034761Y-101730428D01*
X94939523Y-101825666D01*
X94844285Y-101873285D01*
X94653809Y-101920904D01*
X94510952Y-101920904D01*
X94320476Y-101873285D01*
X94225238Y-101825666D01*
X94130000Y-101730428D01*
X94082380Y-101587571D01*
X94082380Y-101492333D01*
X94130000Y-101349476D01*
X94177619Y-101301857D01*
X94177619Y-100920904D02*
X94130000Y-100873285D01*
X94082380Y-100778047D01*
X94082380Y-100539952D01*
X94130000Y-100444714D01*
X94177619Y-100397095D01*
X94272857Y-100349476D01*
X94368095Y-100349476D01*
X94510952Y-100397095D01*
X95082380Y-100968523D01*
X95082380Y-100349476D01*
X94082380Y-99730428D02*
X94082380Y-99635190D01*
X94130000Y-99539952D01*
X94177619Y-99492333D01*
X94272857Y-99444714D01*
X94463333Y-99397095D01*
X94701428Y-99397095D01*
X94891904Y-99444714D01*
X94987142Y-99492333D01*
X95034761Y-99539952D01*
X95082380Y-99635190D01*
X95082380Y-99730428D01*
X95034761Y-99825666D01*
X94987142Y-99873285D01*
X94891904Y-99920904D01*
X94701428Y-99968523D01*
X94463333Y-99968523D01*
X94272857Y-99920904D01*
X94177619Y-99873285D01*
X94130000Y-99825666D01*
X94082380Y-99730428D01*
%TO.C,C10*%
X109735142Y-107874142D02*
X109687523Y-107921761D01*
X109544666Y-107969380D01*
X109449428Y-107969380D01*
X109306571Y-107921761D01*
X109211333Y-107826523D01*
X109163714Y-107731285D01*
X109116095Y-107540809D01*
X109116095Y-107397952D01*
X109163714Y-107207476D01*
X109211333Y-107112238D01*
X109306571Y-107017000D01*
X109449428Y-106969380D01*
X109544666Y-106969380D01*
X109687523Y-107017000D01*
X109735142Y-107064619D01*
X110687523Y-107969380D02*
X110116095Y-107969380D01*
X110401809Y-107969380D02*
X110401809Y-106969380D01*
X110306571Y-107112238D01*
X110211333Y-107207476D01*
X110116095Y-107255095D01*
X111306571Y-106969380D02*
X111401809Y-106969380D01*
X111497047Y-107017000D01*
X111544666Y-107064619D01*
X111592285Y-107159857D01*
X111639904Y-107350333D01*
X111639904Y-107588428D01*
X111592285Y-107778904D01*
X111544666Y-107874142D01*
X111497047Y-107921761D01*
X111401809Y-107969380D01*
X111306571Y-107969380D01*
X111211333Y-107921761D01*
X111163714Y-107874142D01*
X111116095Y-107778904D01*
X111068476Y-107588428D01*
X111068476Y-107350333D01*
X111116095Y-107159857D01*
X111163714Y-107064619D01*
X111211333Y-107017000D01*
X111306571Y-106969380D01*
%TO.C,R12*%
X91018380Y-87435357D02*
X90542190Y-87768690D01*
X91018380Y-88006785D02*
X90018380Y-88006785D01*
X90018380Y-87625833D01*
X90066000Y-87530595D01*
X90113619Y-87482976D01*
X90208857Y-87435357D01*
X90351714Y-87435357D01*
X90446952Y-87482976D01*
X90494571Y-87530595D01*
X90542190Y-87625833D01*
X90542190Y-88006785D01*
X91018380Y-86482976D02*
X91018380Y-87054404D01*
X91018380Y-86768690D02*
X90018380Y-86768690D01*
X90161238Y-86863928D01*
X90256476Y-86959166D01*
X90304095Y-87054404D01*
X90113619Y-86102023D02*
X90066000Y-86054404D01*
X90018380Y-85959166D01*
X90018380Y-85721071D01*
X90066000Y-85625833D01*
X90113619Y-85578214D01*
X90208857Y-85530595D01*
X90304095Y-85530595D01*
X90446952Y-85578214D01*
X91018380Y-86149642D01*
X91018380Y-85530595D01*
%TO.C,R38*%
X85859142Y-117367380D02*
X85525809Y-116891190D01*
X85287714Y-117367380D02*
X85287714Y-116367380D01*
X85668666Y-116367380D01*
X85763904Y-116415000D01*
X85811523Y-116462619D01*
X85859142Y-116557857D01*
X85859142Y-116700714D01*
X85811523Y-116795952D01*
X85763904Y-116843571D01*
X85668666Y-116891190D01*
X85287714Y-116891190D01*
X86192476Y-116367380D02*
X86811523Y-116367380D01*
X86478190Y-116748333D01*
X86621047Y-116748333D01*
X86716285Y-116795952D01*
X86763904Y-116843571D01*
X86811523Y-116938809D01*
X86811523Y-117176904D01*
X86763904Y-117272142D01*
X86716285Y-117319761D01*
X86621047Y-117367380D01*
X86335333Y-117367380D01*
X86240095Y-117319761D01*
X86192476Y-117272142D01*
X87382952Y-116795952D02*
X87287714Y-116748333D01*
X87240095Y-116700714D01*
X87192476Y-116605476D01*
X87192476Y-116557857D01*
X87240095Y-116462619D01*
X87287714Y-116415000D01*
X87382952Y-116367380D01*
X87573428Y-116367380D01*
X87668666Y-116415000D01*
X87716285Y-116462619D01*
X87763904Y-116557857D01*
X87763904Y-116605476D01*
X87716285Y-116700714D01*
X87668666Y-116748333D01*
X87573428Y-116795952D01*
X87382952Y-116795952D01*
X87287714Y-116843571D01*
X87240095Y-116891190D01*
X87192476Y-116986428D01*
X87192476Y-117176904D01*
X87240095Y-117272142D01*
X87287714Y-117319761D01*
X87382952Y-117367380D01*
X87573428Y-117367380D01*
X87668666Y-117319761D01*
X87716285Y-117272142D01*
X87763904Y-117176904D01*
X87763904Y-116986428D01*
X87716285Y-116891190D01*
X87668666Y-116843571D01*
X87573428Y-116795952D01*
%TO.C,R14*%
X137500380Y-123907857D02*
X137024190Y-124241190D01*
X137500380Y-124479285D02*
X136500380Y-124479285D01*
X136500380Y-124098333D01*
X136548000Y-124003095D01*
X136595619Y-123955476D01*
X136690857Y-123907857D01*
X136833714Y-123907857D01*
X136928952Y-123955476D01*
X136976571Y-124003095D01*
X137024190Y-124098333D01*
X137024190Y-124479285D01*
X137500380Y-122955476D02*
X137500380Y-123526904D01*
X137500380Y-123241190D02*
X136500380Y-123241190D01*
X136643238Y-123336428D01*
X136738476Y-123431666D01*
X136786095Y-123526904D01*
X136833714Y-122098333D02*
X137500380Y-122098333D01*
X136452761Y-122336428D02*
X137167047Y-122574523D01*
X137167047Y-121955476D01*
%TO.C,R25*%
X80452380Y-121447857D02*
X79976190Y-121781190D01*
X80452380Y-122019285D02*
X79452380Y-122019285D01*
X79452380Y-121638333D01*
X79500000Y-121543095D01*
X79547619Y-121495476D01*
X79642857Y-121447857D01*
X79785714Y-121447857D01*
X79880952Y-121495476D01*
X79928571Y-121543095D01*
X79976190Y-121638333D01*
X79976190Y-122019285D01*
X79547619Y-121066904D02*
X79500000Y-121019285D01*
X79452380Y-120924047D01*
X79452380Y-120685952D01*
X79500000Y-120590714D01*
X79547619Y-120543095D01*
X79642857Y-120495476D01*
X79738095Y-120495476D01*
X79880952Y-120543095D01*
X80452380Y-121114523D01*
X80452380Y-120495476D01*
X79452380Y-119590714D02*
X79452380Y-120066904D01*
X79928571Y-120114523D01*
X79880952Y-120066904D01*
X79833333Y-119971666D01*
X79833333Y-119733571D01*
X79880952Y-119638333D01*
X79928571Y-119590714D01*
X80023809Y-119543095D01*
X80261904Y-119543095D01*
X80357142Y-119590714D01*
X80404761Y-119638333D01*
X80452380Y-119733571D01*
X80452380Y-119971666D01*
X80404761Y-120066904D01*
X80357142Y-120114523D01*
%TO.C,C21*%
X108811142Y-95671042D02*
X108763523Y-95718661D01*
X108620666Y-95766280D01*
X108525428Y-95766280D01*
X108382571Y-95718661D01*
X108287333Y-95623423D01*
X108239714Y-95528185D01*
X108192095Y-95337709D01*
X108192095Y-95194852D01*
X108239714Y-95004376D01*
X108287333Y-94909138D01*
X108382571Y-94813900D01*
X108525428Y-94766280D01*
X108620666Y-94766280D01*
X108763523Y-94813900D01*
X108811142Y-94861519D01*
X109192095Y-94861519D02*
X109239714Y-94813900D01*
X109334952Y-94766280D01*
X109573047Y-94766280D01*
X109668285Y-94813900D01*
X109715904Y-94861519D01*
X109763523Y-94956757D01*
X109763523Y-95051995D01*
X109715904Y-95194852D01*
X109144476Y-95766280D01*
X109763523Y-95766280D01*
X110715904Y-95766280D02*
X110144476Y-95766280D01*
X110430190Y-95766280D02*
X110430190Y-94766280D01*
X110334952Y-94909138D01*
X110239714Y-95004376D01*
X110144476Y-95051995D01*
%TO.C,R19*%
X80452380Y-126447857D02*
X79976190Y-126781190D01*
X80452380Y-127019285D02*
X79452380Y-127019285D01*
X79452380Y-126638333D01*
X79500000Y-126543095D01*
X79547619Y-126495476D01*
X79642857Y-126447857D01*
X79785714Y-126447857D01*
X79880952Y-126495476D01*
X79928571Y-126543095D01*
X79976190Y-126638333D01*
X79976190Y-127019285D01*
X80452380Y-125495476D02*
X80452380Y-126066904D01*
X80452380Y-125781190D02*
X79452380Y-125781190D01*
X79595238Y-125876428D01*
X79690476Y-125971666D01*
X79738095Y-126066904D01*
X80452380Y-125019285D02*
X80452380Y-124828809D01*
X80404761Y-124733571D01*
X80357142Y-124685952D01*
X80214285Y-124590714D01*
X80023809Y-124543095D01*
X79642857Y-124543095D01*
X79547619Y-124590714D01*
X79500000Y-124638333D01*
X79452380Y-124733571D01*
X79452380Y-124924047D01*
X79500000Y-125019285D01*
X79547619Y-125066904D01*
X79642857Y-125114523D01*
X79880952Y-125114523D01*
X79976190Y-125066904D01*
X80023809Y-125019285D01*
X80071428Y-124924047D01*
X80071428Y-124733571D01*
X80023809Y-124638333D01*
X79976190Y-124590714D01*
X79880952Y-124543095D01*
%TO.C,J6*%
X75166666Y-85702380D02*
X75166666Y-86416666D01*
X75119047Y-86559523D01*
X75023809Y-86654761D01*
X74880952Y-86702380D01*
X74785714Y-86702380D01*
X76071428Y-85702380D02*
X75880952Y-85702380D01*
X75785714Y-85750000D01*
X75738095Y-85797619D01*
X75642857Y-85940476D01*
X75595238Y-86130952D01*
X75595238Y-86511904D01*
X75642857Y-86607142D01*
X75690476Y-86654761D01*
X75785714Y-86702380D01*
X75976190Y-86702380D01*
X76071428Y-86654761D01*
X76119047Y-86607142D01*
X76166666Y-86511904D01*
X76166666Y-86273809D01*
X76119047Y-86178571D01*
X76071428Y-86130952D01*
X75976190Y-86083333D01*
X75785714Y-86083333D01*
X75690476Y-86130952D01*
X75642857Y-86178571D01*
X75595238Y-86273809D01*
%TO.C,R51*%
X81780142Y-95904380D02*
X81446809Y-95428190D01*
X81208714Y-95904380D02*
X81208714Y-94904380D01*
X81589666Y-94904380D01*
X81684904Y-94952000D01*
X81732523Y-94999619D01*
X81780142Y-95094857D01*
X81780142Y-95237714D01*
X81732523Y-95332952D01*
X81684904Y-95380571D01*
X81589666Y-95428190D01*
X81208714Y-95428190D01*
X82684904Y-94904380D02*
X82208714Y-94904380D01*
X82161095Y-95380571D01*
X82208714Y-95332952D01*
X82303952Y-95285333D01*
X82542047Y-95285333D01*
X82637285Y-95332952D01*
X82684904Y-95380571D01*
X82732523Y-95475809D01*
X82732523Y-95713904D01*
X82684904Y-95809142D01*
X82637285Y-95856761D01*
X82542047Y-95904380D01*
X82303952Y-95904380D01*
X82208714Y-95856761D01*
X82161095Y-95809142D01*
X83684904Y-95904380D02*
X83113476Y-95904380D01*
X83399190Y-95904380D02*
X83399190Y-94904380D01*
X83303952Y-95047238D01*
X83208714Y-95142476D01*
X83113476Y-95190095D01*
%TO.C,R53*%
X81780142Y-97936380D02*
X81446809Y-97460190D01*
X81208714Y-97936380D02*
X81208714Y-96936380D01*
X81589666Y-96936380D01*
X81684904Y-96984000D01*
X81732523Y-97031619D01*
X81780142Y-97126857D01*
X81780142Y-97269714D01*
X81732523Y-97364952D01*
X81684904Y-97412571D01*
X81589666Y-97460190D01*
X81208714Y-97460190D01*
X82684904Y-96936380D02*
X82208714Y-96936380D01*
X82161095Y-97412571D01*
X82208714Y-97364952D01*
X82303952Y-97317333D01*
X82542047Y-97317333D01*
X82637285Y-97364952D01*
X82684904Y-97412571D01*
X82732523Y-97507809D01*
X82732523Y-97745904D01*
X82684904Y-97841142D01*
X82637285Y-97888761D01*
X82542047Y-97936380D01*
X82303952Y-97936380D01*
X82208714Y-97888761D01*
X82161095Y-97841142D01*
X83065857Y-96936380D02*
X83684904Y-96936380D01*
X83351571Y-97317333D01*
X83494428Y-97317333D01*
X83589666Y-97364952D01*
X83637285Y-97412571D01*
X83684904Y-97507809D01*
X83684904Y-97745904D01*
X83637285Y-97841142D01*
X83589666Y-97888761D01*
X83494428Y-97936380D01*
X83208714Y-97936380D01*
X83113476Y-97888761D01*
X83065857Y-97841142D01*
%TO.C,R31*%
X91952380Y-121447857D02*
X91476190Y-121781190D01*
X91952380Y-122019285D02*
X90952380Y-122019285D01*
X90952380Y-121638333D01*
X91000000Y-121543095D01*
X91047619Y-121495476D01*
X91142857Y-121447857D01*
X91285714Y-121447857D01*
X91380952Y-121495476D01*
X91428571Y-121543095D01*
X91476190Y-121638333D01*
X91476190Y-122019285D01*
X90952380Y-121114523D02*
X90952380Y-120495476D01*
X91333333Y-120828809D01*
X91333333Y-120685952D01*
X91380952Y-120590714D01*
X91428571Y-120543095D01*
X91523809Y-120495476D01*
X91761904Y-120495476D01*
X91857142Y-120543095D01*
X91904761Y-120590714D01*
X91952380Y-120685952D01*
X91952380Y-120971666D01*
X91904761Y-121066904D01*
X91857142Y-121114523D01*
X91952380Y-119543095D02*
X91952380Y-120114523D01*
X91952380Y-119828809D02*
X90952380Y-119828809D01*
X91095238Y-119924047D01*
X91190476Y-120019285D01*
X91238095Y-120114523D01*
%TO.C,D2*%
X104708380Y-82502095D02*
X103708380Y-82502095D01*
X103708380Y-82264000D01*
X103756000Y-82121142D01*
X103851238Y-82025904D01*
X103946476Y-81978285D01*
X104136952Y-81930666D01*
X104279809Y-81930666D01*
X104470285Y-81978285D01*
X104565523Y-82025904D01*
X104660761Y-82121142D01*
X104708380Y-82264000D01*
X104708380Y-82502095D01*
X103803619Y-81549714D02*
X103756000Y-81502095D01*
X103708380Y-81406857D01*
X103708380Y-81168761D01*
X103756000Y-81073523D01*
X103803619Y-81025904D01*
X103898857Y-80978285D01*
X103994095Y-80978285D01*
X104136952Y-81025904D01*
X104708380Y-81597333D01*
X104708380Y-80978285D01*
%TO.C,C6*%
X89399142Y-87467166D02*
X89446761Y-87514785D01*
X89494380Y-87657642D01*
X89494380Y-87752880D01*
X89446761Y-87895738D01*
X89351523Y-87990976D01*
X89256285Y-88038595D01*
X89065809Y-88086214D01*
X88922952Y-88086214D01*
X88732476Y-88038595D01*
X88637238Y-87990976D01*
X88542000Y-87895738D01*
X88494380Y-87752880D01*
X88494380Y-87657642D01*
X88542000Y-87514785D01*
X88589619Y-87467166D01*
X88494380Y-86610023D02*
X88494380Y-86800500D01*
X88542000Y-86895738D01*
X88589619Y-86943357D01*
X88732476Y-87038595D01*
X88922952Y-87086214D01*
X89303904Y-87086214D01*
X89399142Y-87038595D01*
X89446761Y-86990976D01*
X89494380Y-86895738D01*
X89494380Y-86705261D01*
X89446761Y-86610023D01*
X89399142Y-86562404D01*
X89303904Y-86514785D01*
X89065809Y-86514785D01*
X88970571Y-86562404D01*
X88922952Y-86610023D01*
X88875333Y-86705261D01*
X88875333Y-86895738D01*
X88922952Y-86990976D01*
X88970571Y-87038595D01*
X89065809Y-87086214D01*
%TO.C,R21*%
X95702380Y-126447857D02*
X95226190Y-126781190D01*
X95702380Y-127019285D02*
X94702380Y-127019285D01*
X94702380Y-126638333D01*
X94750000Y-126543095D01*
X94797619Y-126495476D01*
X94892857Y-126447857D01*
X95035714Y-126447857D01*
X95130952Y-126495476D01*
X95178571Y-126543095D01*
X95226190Y-126638333D01*
X95226190Y-127019285D01*
X94797619Y-126066904D02*
X94750000Y-126019285D01*
X94702380Y-125924047D01*
X94702380Y-125685952D01*
X94750000Y-125590714D01*
X94797619Y-125543095D01*
X94892857Y-125495476D01*
X94988095Y-125495476D01*
X95130952Y-125543095D01*
X95702380Y-126114523D01*
X95702380Y-125495476D01*
X95702380Y-124543095D02*
X95702380Y-125114523D01*
X95702380Y-124828809D02*
X94702380Y-124828809D01*
X94845238Y-124924047D01*
X94940476Y-125019285D01*
X94988095Y-125114523D01*
%TO.C,R67*%
X142324380Y-74872857D02*
X141848190Y-75206190D01*
X142324380Y-75444285D02*
X141324380Y-75444285D01*
X141324380Y-75063333D01*
X141372000Y-74968095D01*
X141419619Y-74920476D01*
X141514857Y-74872857D01*
X141657714Y-74872857D01*
X141752952Y-74920476D01*
X141800571Y-74968095D01*
X141848190Y-75063333D01*
X141848190Y-75444285D01*
X141324380Y-74015714D02*
X141324380Y-74206190D01*
X141372000Y-74301428D01*
X141419619Y-74349047D01*
X141562476Y-74444285D01*
X141752952Y-74491904D01*
X142133904Y-74491904D01*
X142229142Y-74444285D01*
X142276761Y-74396666D01*
X142324380Y-74301428D01*
X142324380Y-74110952D01*
X142276761Y-74015714D01*
X142229142Y-73968095D01*
X142133904Y-73920476D01*
X141895809Y-73920476D01*
X141800571Y-73968095D01*
X141752952Y-74015714D01*
X141705333Y-74110952D01*
X141705333Y-74301428D01*
X141752952Y-74396666D01*
X141800571Y-74444285D01*
X141895809Y-74491904D01*
X141324380Y-73587142D02*
X141324380Y-72920476D01*
X142324380Y-73349047D01*
%TO.C,C9*%
X82764333Y-94158142D02*
X82716714Y-94205761D01*
X82573857Y-94253380D01*
X82478619Y-94253380D01*
X82335761Y-94205761D01*
X82240523Y-94110523D01*
X82192904Y-94015285D01*
X82145285Y-93824809D01*
X82145285Y-93681952D01*
X82192904Y-93491476D01*
X82240523Y-93396238D01*
X82335761Y-93301000D01*
X82478619Y-93253380D01*
X82573857Y-93253380D01*
X82716714Y-93301000D01*
X82764333Y-93348619D01*
X83240523Y-94253380D02*
X83431000Y-94253380D01*
X83526238Y-94205761D01*
X83573857Y-94158142D01*
X83669095Y-94015285D01*
X83716714Y-93824809D01*
X83716714Y-93443857D01*
X83669095Y-93348619D01*
X83621476Y-93301000D01*
X83526238Y-93253380D01*
X83335761Y-93253380D01*
X83240523Y-93301000D01*
X83192904Y-93348619D01*
X83145285Y-93443857D01*
X83145285Y-93681952D01*
X83192904Y-93777190D01*
X83240523Y-93824809D01*
X83335761Y-93872428D01*
X83526238Y-93872428D01*
X83621476Y-93824809D01*
X83669095Y-93777190D01*
X83716714Y-93681952D01*
%TO.C,D6*%
X111925904Y-112327380D02*
X111925904Y-111327380D01*
X112164000Y-111327380D01*
X112306857Y-111375000D01*
X112402095Y-111470238D01*
X112449714Y-111565476D01*
X112497333Y-111755952D01*
X112497333Y-111898809D01*
X112449714Y-112089285D01*
X112402095Y-112184523D01*
X112306857Y-112279761D01*
X112164000Y-112327380D01*
X111925904Y-112327380D01*
X113354476Y-111327380D02*
X113164000Y-111327380D01*
X113068761Y-111375000D01*
X113021142Y-111422619D01*
X112925904Y-111565476D01*
X112878285Y-111755952D01*
X112878285Y-112136904D01*
X112925904Y-112232142D01*
X112973523Y-112279761D01*
X113068761Y-112327380D01*
X113259238Y-112327380D01*
X113354476Y-112279761D01*
X113402095Y-112232142D01*
X113449714Y-112136904D01*
X113449714Y-111898809D01*
X113402095Y-111803571D01*
X113354476Y-111755952D01*
X113259238Y-111708333D01*
X113068761Y-111708333D01*
X112973523Y-111755952D01*
X112925904Y-111803571D01*
X112878285Y-111898809D01*
%TO.C,R2*%
X99035333Y-88058380D02*
X98702000Y-87582190D01*
X98463904Y-88058380D02*
X98463904Y-87058380D01*
X98844857Y-87058380D01*
X98940095Y-87106000D01*
X98987714Y-87153619D01*
X99035333Y-87248857D01*
X99035333Y-87391714D01*
X98987714Y-87486952D01*
X98940095Y-87534571D01*
X98844857Y-87582190D01*
X98463904Y-87582190D01*
X99416285Y-87153619D02*
X99463904Y-87106000D01*
X99559142Y-87058380D01*
X99797238Y-87058380D01*
X99892476Y-87106000D01*
X99940095Y-87153619D01*
X99987714Y-87248857D01*
X99987714Y-87344095D01*
X99940095Y-87486952D01*
X99368666Y-88058380D01*
X99987714Y-88058380D01*
%TO.C,C1*%
X100813333Y-96293642D02*
X100765714Y-96341261D01*
X100622857Y-96388880D01*
X100527619Y-96388880D01*
X100384761Y-96341261D01*
X100289523Y-96246023D01*
X100241904Y-96150785D01*
X100194285Y-95960309D01*
X100194285Y-95817452D01*
X100241904Y-95626976D01*
X100289523Y-95531738D01*
X100384761Y-95436500D01*
X100527619Y-95388880D01*
X100622857Y-95388880D01*
X100765714Y-95436500D01*
X100813333Y-95484119D01*
X101765714Y-96388880D02*
X101194285Y-96388880D01*
X101480000Y-96388880D02*
X101480000Y-95388880D01*
X101384761Y-95531738D01*
X101289523Y-95626976D01*
X101194285Y-95674595D01*
%TO.C,C8*%
X112859142Y-98528566D02*
X112906761Y-98576185D01*
X112954380Y-98719042D01*
X112954380Y-98814280D01*
X112906761Y-98957138D01*
X112811523Y-99052376D01*
X112716285Y-99099995D01*
X112525809Y-99147614D01*
X112382952Y-99147614D01*
X112192476Y-99099995D01*
X112097238Y-99052376D01*
X112002000Y-98957138D01*
X111954380Y-98814280D01*
X111954380Y-98719042D01*
X112002000Y-98576185D01*
X112049619Y-98528566D01*
X112382952Y-97957138D02*
X112335333Y-98052376D01*
X112287714Y-98099995D01*
X112192476Y-98147614D01*
X112144857Y-98147614D01*
X112049619Y-98099995D01*
X112002000Y-98052376D01*
X111954380Y-97957138D01*
X111954380Y-97766661D01*
X112002000Y-97671423D01*
X112049619Y-97623804D01*
X112144857Y-97576185D01*
X112192476Y-97576185D01*
X112287714Y-97623804D01*
X112335333Y-97671423D01*
X112382952Y-97766661D01*
X112382952Y-97957138D01*
X112430571Y-98052376D01*
X112478190Y-98099995D01*
X112573428Y-98147614D01*
X112763904Y-98147614D01*
X112859142Y-98099995D01*
X112906761Y-98052376D01*
X112954380Y-97957138D01*
X112954380Y-97766661D01*
X112906761Y-97671423D01*
X112859142Y-97623804D01*
X112763904Y-97576185D01*
X112573428Y-97576185D01*
X112478190Y-97623804D01*
X112430571Y-97671423D01*
X112382952Y-97766661D01*
%TO.C,C12*%
X106925142Y-109302857D02*
X106972761Y-109350476D01*
X107020380Y-109493333D01*
X107020380Y-109588571D01*
X106972761Y-109731428D01*
X106877523Y-109826666D01*
X106782285Y-109874285D01*
X106591809Y-109921904D01*
X106448952Y-109921904D01*
X106258476Y-109874285D01*
X106163238Y-109826666D01*
X106068000Y-109731428D01*
X106020380Y-109588571D01*
X106020380Y-109493333D01*
X106068000Y-109350476D01*
X106115619Y-109302857D01*
X107020380Y-108350476D02*
X107020380Y-108921904D01*
X107020380Y-108636190D02*
X106020380Y-108636190D01*
X106163238Y-108731428D01*
X106258476Y-108826666D01*
X106306095Y-108921904D01*
X106115619Y-107969523D02*
X106068000Y-107921904D01*
X106020380Y-107826666D01*
X106020380Y-107588571D01*
X106068000Y-107493333D01*
X106115619Y-107445714D01*
X106210857Y-107398095D01*
X106306095Y-107398095D01*
X106448952Y-107445714D01*
X107020380Y-108017142D01*
X107020380Y-107398095D01*
%TO.C,R22*%
X132420380Y-118827857D02*
X131944190Y-119161190D01*
X132420380Y-119399285D02*
X131420380Y-119399285D01*
X131420380Y-119018333D01*
X131468000Y-118923095D01*
X131515619Y-118875476D01*
X131610857Y-118827857D01*
X131753714Y-118827857D01*
X131848952Y-118875476D01*
X131896571Y-118923095D01*
X131944190Y-119018333D01*
X131944190Y-119399285D01*
X131515619Y-118446904D02*
X131468000Y-118399285D01*
X131420380Y-118304047D01*
X131420380Y-118065952D01*
X131468000Y-117970714D01*
X131515619Y-117923095D01*
X131610857Y-117875476D01*
X131706095Y-117875476D01*
X131848952Y-117923095D01*
X132420380Y-118494523D01*
X132420380Y-117875476D01*
X131515619Y-117494523D02*
X131468000Y-117446904D01*
X131420380Y-117351666D01*
X131420380Y-117113571D01*
X131468000Y-117018333D01*
X131515619Y-116970714D01*
X131610857Y-116923095D01*
X131706095Y-116923095D01*
X131848952Y-116970714D01*
X132420380Y-117542142D01*
X132420380Y-116923095D01*
%TO.C,R35*%
X122452380Y-121447857D02*
X121976190Y-121781190D01*
X122452380Y-122019285D02*
X121452380Y-122019285D01*
X121452380Y-121638333D01*
X121500000Y-121543095D01*
X121547619Y-121495476D01*
X121642857Y-121447857D01*
X121785714Y-121447857D01*
X121880952Y-121495476D01*
X121928571Y-121543095D01*
X121976190Y-121638333D01*
X121976190Y-122019285D01*
X121452380Y-121114523D02*
X121452380Y-120495476D01*
X121833333Y-120828809D01*
X121833333Y-120685952D01*
X121880952Y-120590714D01*
X121928571Y-120543095D01*
X122023809Y-120495476D01*
X122261904Y-120495476D01*
X122357142Y-120543095D01*
X122404761Y-120590714D01*
X122452380Y-120685952D01*
X122452380Y-120971666D01*
X122404761Y-121066904D01*
X122357142Y-121114523D01*
X121452380Y-119590714D02*
X121452380Y-120066904D01*
X121928571Y-120114523D01*
X121880952Y-120066904D01*
X121833333Y-119971666D01*
X121833333Y-119733571D01*
X121880952Y-119638333D01*
X121928571Y-119590714D01*
X122023809Y-119543095D01*
X122261904Y-119543095D01*
X122357142Y-119590714D01*
X122404761Y-119638333D01*
X122452380Y-119733571D01*
X122452380Y-119971666D01*
X122404761Y-120066904D01*
X122357142Y-120114523D01*
%TO.C,R54*%
X109735142Y-104921380D02*
X109401809Y-104445190D01*
X109163714Y-104921380D02*
X109163714Y-103921380D01*
X109544666Y-103921380D01*
X109639904Y-103969000D01*
X109687523Y-104016619D01*
X109735142Y-104111857D01*
X109735142Y-104254714D01*
X109687523Y-104349952D01*
X109639904Y-104397571D01*
X109544666Y-104445190D01*
X109163714Y-104445190D01*
X110639904Y-103921380D02*
X110163714Y-103921380D01*
X110116095Y-104397571D01*
X110163714Y-104349952D01*
X110258952Y-104302333D01*
X110497047Y-104302333D01*
X110592285Y-104349952D01*
X110639904Y-104397571D01*
X110687523Y-104492809D01*
X110687523Y-104730904D01*
X110639904Y-104826142D01*
X110592285Y-104873761D01*
X110497047Y-104921380D01*
X110258952Y-104921380D01*
X110163714Y-104873761D01*
X110116095Y-104826142D01*
X111544666Y-104254714D02*
X111544666Y-104921380D01*
X111306571Y-103873761D02*
X111068476Y-104588047D01*
X111687523Y-104588047D01*
%TO.C,U9*%
X138116380Y-74991904D02*
X138925904Y-74991904D01*
X139021142Y-74944285D01*
X139068761Y-74896666D01*
X139116380Y-74801428D01*
X139116380Y-74610952D01*
X139068761Y-74515714D01*
X139021142Y-74468095D01*
X138925904Y-74420476D01*
X138116380Y-74420476D01*
X139116380Y-73896666D02*
X139116380Y-73706190D01*
X139068761Y-73610952D01*
X139021142Y-73563333D01*
X138878285Y-73468095D01*
X138687809Y-73420476D01*
X138306857Y-73420476D01*
X138211619Y-73468095D01*
X138164000Y-73515714D01*
X138116380Y-73610952D01*
X138116380Y-73801428D01*
X138164000Y-73896666D01*
X138211619Y-73944285D01*
X138306857Y-73991904D01*
X138544952Y-73991904D01*
X138640190Y-73944285D01*
X138687809Y-73896666D01*
X138735428Y-73801428D01*
X138735428Y-73610952D01*
X138687809Y-73515714D01*
X138640190Y-73468095D01*
X138544952Y-73420476D01*
X133925380Y-75754000D02*
X134163476Y-75754000D01*
X134068238Y-75992095D02*
X134163476Y-75754000D01*
X134068238Y-75515904D01*
X134353952Y-75896857D02*
X134163476Y-75754000D01*
X134353952Y-75611142D01*
%TO.C,R42*%
X132420380Y-103587857D02*
X131944190Y-103921190D01*
X132420380Y-104159285D02*
X131420380Y-104159285D01*
X131420380Y-103778333D01*
X131468000Y-103683095D01*
X131515619Y-103635476D01*
X131610857Y-103587857D01*
X131753714Y-103587857D01*
X131848952Y-103635476D01*
X131896571Y-103683095D01*
X131944190Y-103778333D01*
X131944190Y-104159285D01*
X131753714Y-102730714D02*
X132420380Y-102730714D01*
X131372761Y-102968809D02*
X132087047Y-103206904D01*
X132087047Y-102587857D01*
X131515619Y-102254523D02*
X131468000Y-102206904D01*
X131420380Y-102111666D01*
X131420380Y-101873571D01*
X131468000Y-101778333D01*
X131515619Y-101730714D01*
X131610857Y-101683095D01*
X131706095Y-101683095D01*
X131848952Y-101730714D01*
X132420380Y-102302142D01*
X132420380Y-101683095D01*
%TO.C,R47*%
X87637142Y-110763380D02*
X87303809Y-110287190D01*
X87065714Y-110763380D02*
X87065714Y-109763380D01*
X87446666Y-109763380D01*
X87541904Y-109811000D01*
X87589523Y-109858619D01*
X87637142Y-109953857D01*
X87637142Y-110096714D01*
X87589523Y-110191952D01*
X87541904Y-110239571D01*
X87446666Y-110287190D01*
X87065714Y-110287190D01*
X88494285Y-110096714D02*
X88494285Y-110763380D01*
X88256190Y-109715761D02*
X88018095Y-110430047D01*
X88637142Y-110430047D01*
X88922857Y-109763380D02*
X89589523Y-109763380D01*
X89160952Y-110763380D01*
%TO.C,R43*%
X109735142Y-109493380D02*
X109401809Y-109017190D01*
X109163714Y-109493380D02*
X109163714Y-108493380D01*
X109544666Y-108493380D01*
X109639904Y-108541000D01*
X109687523Y-108588619D01*
X109735142Y-108683857D01*
X109735142Y-108826714D01*
X109687523Y-108921952D01*
X109639904Y-108969571D01*
X109544666Y-109017190D01*
X109163714Y-109017190D01*
X110592285Y-108826714D02*
X110592285Y-109493380D01*
X110354190Y-108445761D02*
X110116095Y-109160047D01*
X110735142Y-109160047D01*
X111020857Y-108493380D02*
X111639904Y-108493380D01*
X111306571Y-108874333D01*
X111449428Y-108874333D01*
X111544666Y-108921952D01*
X111592285Y-108969571D01*
X111639904Y-109064809D01*
X111639904Y-109302904D01*
X111592285Y-109398142D01*
X111544666Y-109445761D01*
X111449428Y-109493380D01*
X111163714Y-109493380D01*
X111068476Y-109445761D01*
X111020857Y-109398142D01*
%TO.C,R24*%
X127340380Y-118819857D02*
X126864190Y-119153190D01*
X127340380Y-119391285D02*
X126340380Y-119391285D01*
X126340380Y-119010333D01*
X126388000Y-118915095D01*
X126435619Y-118867476D01*
X126530857Y-118819857D01*
X126673714Y-118819857D01*
X126768952Y-118867476D01*
X126816571Y-118915095D01*
X126864190Y-119010333D01*
X126864190Y-119391285D01*
X126435619Y-118438904D02*
X126388000Y-118391285D01*
X126340380Y-118296047D01*
X126340380Y-118057952D01*
X126388000Y-117962714D01*
X126435619Y-117915095D01*
X126530857Y-117867476D01*
X126626095Y-117867476D01*
X126768952Y-117915095D01*
X127340380Y-118486523D01*
X127340380Y-117867476D01*
X126673714Y-117010333D02*
X127340380Y-117010333D01*
X126292761Y-117248428D02*
X127007047Y-117486523D01*
X127007047Y-116867476D01*
%TO.C,C23*%
X140815142Y-96939142D02*
X140767523Y-96986761D01*
X140624666Y-97034380D01*
X140529428Y-97034380D01*
X140386571Y-96986761D01*
X140291333Y-96891523D01*
X140243714Y-96796285D01*
X140196095Y-96605809D01*
X140196095Y-96462952D01*
X140243714Y-96272476D01*
X140291333Y-96177238D01*
X140386571Y-96082000D01*
X140529428Y-96034380D01*
X140624666Y-96034380D01*
X140767523Y-96082000D01*
X140815142Y-96129619D01*
X141196095Y-96129619D02*
X141243714Y-96082000D01*
X141338952Y-96034380D01*
X141577047Y-96034380D01*
X141672285Y-96082000D01*
X141719904Y-96129619D01*
X141767523Y-96224857D01*
X141767523Y-96320095D01*
X141719904Y-96462952D01*
X141148476Y-97034380D01*
X141767523Y-97034380D01*
X142100857Y-96034380D02*
X142719904Y-96034380D01*
X142386571Y-96415333D01*
X142529428Y-96415333D01*
X142624666Y-96462952D01*
X142672285Y-96510571D01*
X142719904Y-96605809D01*
X142719904Y-96843904D01*
X142672285Y-96939142D01*
X142624666Y-96986761D01*
X142529428Y-97034380D01*
X142243714Y-97034380D01*
X142148476Y-96986761D01*
X142100857Y-96939142D01*
%TO.C,R46*%
X87637142Y-105175380D02*
X87303809Y-104699190D01*
X87065714Y-105175380D02*
X87065714Y-104175380D01*
X87446666Y-104175380D01*
X87541904Y-104223000D01*
X87589523Y-104270619D01*
X87637142Y-104365857D01*
X87637142Y-104508714D01*
X87589523Y-104603952D01*
X87541904Y-104651571D01*
X87446666Y-104699190D01*
X87065714Y-104699190D01*
X88494285Y-104508714D02*
X88494285Y-105175380D01*
X88256190Y-104127761D02*
X88018095Y-104842047D01*
X88637142Y-104842047D01*
X89446666Y-104175380D02*
X89256190Y-104175380D01*
X89160952Y-104223000D01*
X89113333Y-104270619D01*
X89018095Y-104413476D01*
X88970476Y-104603952D01*
X88970476Y-104984904D01*
X89018095Y-105080142D01*
X89065714Y-105127761D01*
X89160952Y-105175380D01*
X89351428Y-105175380D01*
X89446666Y-105127761D01*
X89494285Y-105080142D01*
X89541904Y-104984904D01*
X89541904Y-104746809D01*
X89494285Y-104651571D01*
X89446666Y-104603952D01*
X89351428Y-104556333D01*
X89160952Y-104556333D01*
X89065714Y-104603952D01*
X89018095Y-104651571D01*
X88970476Y-104746809D01*
%TO.C,R27*%
X95702380Y-121447857D02*
X95226190Y-121781190D01*
X95702380Y-122019285D02*
X94702380Y-122019285D01*
X94702380Y-121638333D01*
X94750000Y-121543095D01*
X94797619Y-121495476D01*
X94892857Y-121447857D01*
X95035714Y-121447857D01*
X95130952Y-121495476D01*
X95178571Y-121543095D01*
X95226190Y-121638333D01*
X95226190Y-122019285D01*
X94797619Y-121066904D02*
X94750000Y-121019285D01*
X94702380Y-120924047D01*
X94702380Y-120685952D01*
X94750000Y-120590714D01*
X94797619Y-120543095D01*
X94892857Y-120495476D01*
X94988095Y-120495476D01*
X95130952Y-120543095D01*
X95702380Y-121114523D01*
X95702380Y-120495476D01*
X94702380Y-120162142D02*
X94702380Y-119495476D01*
X95702380Y-119924047D01*
%TO.C,R3*%
X109160333Y-85858380D02*
X108827000Y-85382190D01*
X108588904Y-85858380D02*
X108588904Y-84858380D01*
X108969857Y-84858380D01*
X109065095Y-84906000D01*
X109112714Y-84953619D01*
X109160333Y-85048857D01*
X109160333Y-85191714D01*
X109112714Y-85286952D01*
X109065095Y-85334571D01*
X108969857Y-85382190D01*
X108588904Y-85382190D01*
X109493666Y-84858380D02*
X110112714Y-84858380D01*
X109779380Y-85239333D01*
X109922238Y-85239333D01*
X110017476Y-85286952D01*
X110065095Y-85334571D01*
X110112714Y-85429809D01*
X110112714Y-85667904D01*
X110065095Y-85763142D01*
X110017476Y-85810761D01*
X109922238Y-85858380D01*
X109636523Y-85858380D01*
X109541285Y-85810761D01*
X109493666Y-85763142D01*
%TO.C,R61*%
X131496380Y-88842857D02*
X131020190Y-89176190D01*
X131496380Y-89414285D02*
X130496380Y-89414285D01*
X130496380Y-89033333D01*
X130544000Y-88938095D01*
X130591619Y-88890476D01*
X130686857Y-88842857D01*
X130829714Y-88842857D01*
X130924952Y-88890476D01*
X130972571Y-88938095D01*
X131020190Y-89033333D01*
X131020190Y-89414285D01*
X130496380Y-87985714D02*
X130496380Y-88176190D01*
X130544000Y-88271428D01*
X130591619Y-88319047D01*
X130734476Y-88414285D01*
X130924952Y-88461904D01*
X131305904Y-88461904D01*
X131401142Y-88414285D01*
X131448761Y-88366666D01*
X131496380Y-88271428D01*
X131496380Y-88080952D01*
X131448761Y-87985714D01*
X131401142Y-87938095D01*
X131305904Y-87890476D01*
X131067809Y-87890476D01*
X130972571Y-87938095D01*
X130924952Y-87985714D01*
X130877333Y-88080952D01*
X130877333Y-88271428D01*
X130924952Y-88366666D01*
X130972571Y-88414285D01*
X131067809Y-88461904D01*
X131496380Y-86938095D02*
X131496380Y-87509523D01*
X131496380Y-87223809D02*
X130496380Y-87223809D01*
X130639238Y-87319047D01*
X130734476Y-87414285D01*
X130782095Y-87509523D01*
%TO.C,R26*%
X137500380Y-113747857D02*
X137024190Y-114081190D01*
X137500380Y-114319285D02*
X136500380Y-114319285D01*
X136500380Y-113938333D01*
X136548000Y-113843095D01*
X136595619Y-113795476D01*
X136690857Y-113747857D01*
X136833714Y-113747857D01*
X136928952Y-113795476D01*
X136976571Y-113843095D01*
X137024190Y-113938333D01*
X137024190Y-114319285D01*
X136595619Y-113366904D02*
X136548000Y-113319285D01*
X136500380Y-113224047D01*
X136500380Y-112985952D01*
X136548000Y-112890714D01*
X136595619Y-112843095D01*
X136690857Y-112795476D01*
X136786095Y-112795476D01*
X136928952Y-112843095D01*
X137500380Y-113414523D01*
X137500380Y-112795476D01*
X136500380Y-111938333D02*
X136500380Y-112128809D01*
X136548000Y-112224047D01*
X136595619Y-112271666D01*
X136738476Y-112366904D01*
X136928952Y-112414523D01*
X137309904Y-112414523D01*
X137405142Y-112366904D01*
X137452761Y-112319285D01*
X137500380Y-112224047D01*
X137500380Y-112033571D01*
X137452761Y-111938333D01*
X137405142Y-111890714D01*
X137309904Y-111843095D01*
X137071809Y-111843095D01*
X136976571Y-111890714D01*
X136928952Y-111938333D01*
X136881333Y-112033571D01*
X136881333Y-112224047D01*
X136928952Y-112319285D01*
X136976571Y-112366904D01*
X137071809Y-112414523D01*
%TO.C,J7*%
X146286666Y-85702380D02*
X146286666Y-86416666D01*
X146239047Y-86559523D01*
X146143809Y-86654761D01*
X146000952Y-86702380D01*
X145905714Y-86702380D01*
X146667619Y-85702380D02*
X147334285Y-85702380D01*
X146905714Y-86702380D01*
%TO.C,R29*%
X110952380Y-121447857D02*
X110476190Y-121781190D01*
X110952380Y-122019285D02*
X109952380Y-122019285D01*
X109952380Y-121638333D01*
X110000000Y-121543095D01*
X110047619Y-121495476D01*
X110142857Y-121447857D01*
X110285714Y-121447857D01*
X110380952Y-121495476D01*
X110428571Y-121543095D01*
X110476190Y-121638333D01*
X110476190Y-122019285D01*
X110047619Y-121066904D02*
X110000000Y-121019285D01*
X109952380Y-120924047D01*
X109952380Y-120685952D01*
X110000000Y-120590714D01*
X110047619Y-120543095D01*
X110142857Y-120495476D01*
X110238095Y-120495476D01*
X110380952Y-120543095D01*
X110952380Y-121114523D01*
X110952380Y-120495476D01*
X110952380Y-120019285D02*
X110952380Y-119828809D01*
X110904761Y-119733571D01*
X110857142Y-119685952D01*
X110714285Y-119590714D01*
X110523809Y-119543095D01*
X110142857Y-119543095D01*
X110047619Y-119590714D01*
X110000000Y-119638333D01*
X109952380Y-119733571D01*
X109952380Y-119924047D01*
X110000000Y-120019285D01*
X110047619Y-120066904D01*
X110142857Y-120114523D01*
X110380952Y-120114523D01*
X110476190Y-120066904D01*
X110523809Y-120019285D01*
X110571428Y-119924047D01*
X110571428Y-119733571D01*
X110523809Y-119638333D01*
X110476190Y-119590714D01*
X110380952Y-119543095D01*
%TO.C,D3*%
X118643380Y-82461095D02*
X117643380Y-82461095D01*
X117643380Y-82223000D01*
X117691000Y-82080142D01*
X117786238Y-81984904D01*
X117881476Y-81937285D01*
X118071952Y-81889666D01*
X118214809Y-81889666D01*
X118405285Y-81937285D01*
X118500523Y-81984904D01*
X118595761Y-82080142D01*
X118643380Y-82223000D01*
X118643380Y-82461095D01*
X117643380Y-81556333D02*
X117643380Y-80937285D01*
X118024333Y-81270619D01*
X118024333Y-81127761D01*
X118071952Y-81032523D01*
X118119571Y-80984904D01*
X118214809Y-80937285D01*
X118452904Y-80937285D01*
X118548142Y-80984904D01*
X118595761Y-81032523D01*
X118643380Y-81127761D01*
X118643380Y-81413476D01*
X118595761Y-81508714D01*
X118548142Y-81556333D01*
%TO.C,R66*%
X142324380Y-79698857D02*
X141848190Y-80032190D01*
X142324380Y-80270285D02*
X141324380Y-80270285D01*
X141324380Y-79889333D01*
X141372000Y-79794095D01*
X141419619Y-79746476D01*
X141514857Y-79698857D01*
X141657714Y-79698857D01*
X141752952Y-79746476D01*
X141800571Y-79794095D01*
X141848190Y-79889333D01*
X141848190Y-80270285D01*
X141324380Y-78841714D02*
X141324380Y-79032190D01*
X141372000Y-79127428D01*
X141419619Y-79175047D01*
X141562476Y-79270285D01*
X141752952Y-79317904D01*
X142133904Y-79317904D01*
X142229142Y-79270285D01*
X142276761Y-79222666D01*
X142324380Y-79127428D01*
X142324380Y-78936952D01*
X142276761Y-78841714D01*
X142229142Y-78794095D01*
X142133904Y-78746476D01*
X141895809Y-78746476D01*
X141800571Y-78794095D01*
X141752952Y-78841714D01*
X141705333Y-78936952D01*
X141705333Y-79127428D01*
X141752952Y-79222666D01*
X141800571Y-79270285D01*
X141895809Y-79317904D01*
X141324380Y-77889333D02*
X141324380Y-78079809D01*
X141372000Y-78175047D01*
X141419619Y-78222666D01*
X141562476Y-78317904D01*
X141752952Y-78365523D01*
X142133904Y-78365523D01*
X142229142Y-78317904D01*
X142276761Y-78270285D01*
X142324380Y-78175047D01*
X142324380Y-77984571D01*
X142276761Y-77889333D01*
X142229142Y-77841714D01*
X142133904Y-77794095D01*
X141895809Y-77794095D01*
X141800571Y-77841714D01*
X141752952Y-77889333D01*
X141705333Y-77984571D01*
X141705333Y-78175047D01*
X141752952Y-78270285D01*
X141800571Y-78317904D01*
X141895809Y-78365523D01*
%TO.C,C31*%
X139783142Y-82492857D02*
X139830761Y-82540476D01*
X139878380Y-82683333D01*
X139878380Y-82778571D01*
X139830761Y-82921428D01*
X139735523Y-83016666D01*
X139640285Y-83064285D01*
X139449809Y-83111904D01*
X139306952Y-83111904D01*
X139116476Y-83064285D01*
X139021238Y-83016666D01*
X138926000Y-82921428D01*
X138878380Y-82778571D01*
X138878380Y-82683333D01*
X138926000Y-82540476D01*
X138973619Y-82492857D01*
X138878380Y-82159523D02*
X138878380Y-81540476D01*
X139259333Y-81873809D01*
X139259333Y-81730952D01*
X139306952Y-81635714D01*
X139354571Y-81588095D01*
X139449809Y-81540476D01*
X139687904Y-81540476D01*
X139783142Y-81588095D01*
X139830761Y-81635714D01*
X139878380Y-81730952D01*
X139878380Y-82016666D01*
X139830761Y-82111904D01*
X139783142Y-82159523D01*
X139878380Y-80588095D02*
X139878380Y-81159523D01*
X139878380Y-80873809D02*
X138878380Y-80873809D01*
X139021238Y-80969047D01*
X139116476Y-81064285D01*
X139164095Y-81159523D01*
%TO.C,C29*%
X127607142Y-86115142D02*
X127559523Y-86162761D01*
X127416666Y-86210380D01*
X127321428Y-86210380D01*
X127178571Y-86162761D01*
X127083333Y-86067523D01*
X127035714Y-85972285D01*
X126988095Y-85781809D01*
X126988095Y-85638952D01*
X127035714Y-85448476D01*
X127083333Y-85353238D01*
X127178571Y-85258000D01*
X127321428Y-85210380D01*
X127416666Y-85210380D01*
X127559523Y-85258000D01*
X127607142Y-85305619D01*
X127988095Y-85305619D02*
X128035714Y-85258000D01*
X128130952Y-85210380D01*
X128369047Y-85210380D01*
X128464285Y-85258000D01*
X128511904Y-85305619D01*
X128559523Y-85400857D01*
X128559523Y-85496095D01*
X128511904Y-85638952D01*
X127940476Y-86210380D01*
X128559523Y-86210380D01*
X129035714Y-86210380D02*
X129226190Y-86210380D01*
X129321428Y-86162761D01*
X129369047Y-86115142D01*
X129464285Y-85972285D01*
X129511904Y-85781809D01*
X129511904Y-85400857D01*
X129464285Y-85305619D01*
X129416666Y-85258000D01*
X129321428Y-85210380D01*
X129130952Y-85210380D01*
X129035714Y-85258000D01*
X128988095Y-85305619D01*
X128940476Y-85400857D01*
X128940476Y-85638952D01*
X128988095Y-85734190D01*
X129035714Y-85781809D01*
X129130952Y-85829428D01*
X129321428Y-85829428D01*
X129416666Y-85781809D01*
X129464285Y-85734190D01*
X129511904Y-85638952D01*
%TO.C,C19*%
X89003142Y-101301857D02*
X89050761Y-101349476D01*
X89098380Y-101492333D01*
X89098380Y-101587571D01*
X89050761Y-101730428D01*
X88955523Y-101825666D01*
X88860285Y-101873285D01*
X88669809Y-101920904D01*
X88526952Y-101920904D01*
X88336476Y-101873285D01*
X88241238Y-101825666D01*
X88146000Y-101730428D01*
X88098380Y-101587571D01*
X88098380Y-101492333D01*
X88146000Y-101349476D01*
X88193619Y-101301857D01*
X89098380Y-100349476D02*
X89098380Y-100920904D01*
X89098380Y-100635190D02*
X88098380Y-100635190D01*
X88241238Y-100730428D01*
X88336476Y-100825666D01*
X88384095Y-100920904D01*
X89098380Y-99873285D02*
X89098380Y-99682809D01*
X89050761Y-99587571D01*
X89003142Y-99539952D01*
X88860285Y-99444714D01*
X88669809Y-99397095D01*
X88288857Y-99397095D01*
X88193619Y-99444714D01*
X88146000Y-99492333D01*
X88098380Y-99587571D01*
X88098380Y-99778047D01*
X88146000Y-99873285D01*
X88193619Y-99920904D01*
X88288857Y-99968523D01*
X88526952Y-99968523D01*
X88622190Y-99920904D01*
X88669809Y-99873285D01*
X88717428Y-99778047D01*
X88717428Y-99587571D01*
X88669809Y-99492333D01*
X88622190Y-99444714D01*
X88526952Y-99397095D01*
%TO.C,R20*%
X137500380Y-118827857D02*
X137024190Y-119161190D01*
X137500380Y-119399285D02*
X136500380Y-119399285D01*
X136500380Y-119018333D01*
X136548000Y-118923095D01*
X136595619Y-118875476D01*
X136690857Y-118827857D01*
X136833714Y-118827857D01*
X136928952Y-118875476D01*
X136976571Y-118923095D01*
X137024190Y-119018333D01*
X137024190Y-119399285D01*
X136595619Y-118446904D02*
X136548000Y-118399285D01*
X136500380Y-118304047D01*
X136500380Y-118065952D01*
X136548000Y-117970714D01*
X136595619Y-117923095D01*
X136690857Y-117875476D01*
X136786095Y-117875476D01*
X136928952Y-117923095D01*
X137500380Y-118494523D01*
X137500380Y-117875476D01*
X136500380Y-117256428D02*
X136500380Y-117161190D01*
X136548000Y-117065952D01*
X136595619Y-117018333D01*
X136690857Y-116970714D01*
X136881333Y-116923095D01*
X137119428Y-116923095D01*
X137309904Y-116970714D01*
X137405142Y-117018333D01*
X137452761Y-117065952D01*
X137500380Y-117161190D01*
X137500380Y-117256428D01*
X137452761Y-117351666D01*
X137405142Y-117399285D01*
X137309904Y-117446904D01*
X137119428Y-117494523D01*
X136881333Y-117494523D01*
X136690857Y-117446904D01*
X136595619Y-117399285D01*
X136548000Y-117351666D01*
X136500380Y-117256428D01*
%TO.C,R16*%
X132420380Y-123907857D02*
X131944190Y-124241190D01*
X132420380Y-124479285D02*
X131420380Y-124479285D01*
X131420380Y-124098333D01*
X131468000Y-124003095D01*
X131515619Y-123955476D01*
X131610857Y-123907857D01*
X131753714Y-123907857D01*
X131848952Y-123955476D01*
X131896571Y-124003095D01*
X131944190Y-124098333D01*
X131944190Y-124479285D01*
X132420380Y-122955476D02*
X132420380Y-123526904D01*
X132420380Y-123241190D02*
X131420380Y-123241190D01*
X131563238Y-123336428D01*
X131658476Y-123431666D01*
X131706095Y-123526904D01*
X131420380Y-122098333D02*
X131420380Y-122288809D01*
X131468000Y-122384047D01*
X131515619Y-122431666D01*
X131658476Y-122526904D01*
X131848952Y-122574523D01*
X132229904Y-122574523D01*
X132325142Y-122526904D01*
X132372761Y-122479285D01*
X132420380Y-122384047D01*
X132420380Y-122193571D01*
X132372761Y-122098333D01*
X132325142Y-122050714D01*
X132229904Y-122003095D01*
X131991809Y-122003095D01*
X131896571Y-122050714D01*
X131848952Y-122098333D01*
X131801333Y-122193571D01*
X131801333Y-122384047D01*
X131848952Y-122479285D01*
X131896571Y-122526904D01*
X131991809Y-122574523D01*
%TO.C,R8*%
X82764333Y-91156480D02*
X82431000Y-90680290D01*
X82192904Y-91156480D02*
X82192904Y-90156480D01*
X82573857Y-90156480D01*
X82669095Y-90204100D01*
X82716714Y-90251719D01*
X82764333Y-90346957D01*
X82764333Y-90489814D01*
X82716714Y-90585052D01*
X82669095Y-90632671D01*
X82573857Y-90680290D01*
X82192904Y-90680290D01*
X83335761Y-90585052D02*
X83240523Y-90537433D01*
X83192904Y-90489814D01*
X83145285Y-90394576D01*
X83145285Y-90346957D01*
X83192904Y-90251719D01*
X83240523Y-90204100D01*
X83335761Y-90156480D01*
X83526238Y-90156480D01*
X83621476Y-90204100D01*
X83669095Y-90251719D01*
X83716714Y-90346957D01*
X83716714Y-90394576D01*
X83669095Y-90489814D01*
X83621476Y-90537433D01*
X83526238Y-90585052D01*
X83335761Y-90585052D01*
X83240523Y-90632671D01*
X83192904Y-90680290D01*
X83145285Y-90775528D01*
X83145285Y-90966004D01*
X83192904Y-91061242D01*
X83240523Y-91108861D01*
X83335761Y-91156480D01*
X83526238Y-91156480D01*
X83621476Y-91108861D01*
X83669095Y-91061242D01*
X83716714Y-90966004D01*
X83716714Y-90775528D01*
X83669095Y-90680290D01*
X83621476Y-90632671D01*
X83526238Y-90585052D01*
%TO.C,C4*%
X100813333Y-102413142D02*
X100765714Y-102460761D01*
X100622857Y-102508380D01*
X100527619Y-102508380D01*
X100384761Y-102460761D01*
X100289523Y-102365523D01*
X100241904Y-102270285D01*
X100194285Y-102079809D01*
X100194285Y-101936952D01*
X100241904Y-101746476D01*
X100289523Y-101651238D01*
X100384761Y-101556000D01*
X100527619Y-101508380D01*
X100622857Y-101508380D01*
X100765714Y-101556000D01*
X100813333Y-101603619D01*
X101670476Y-101841714D02*
X101670476Y-102508380D01*
X101432380Y-101460761D02*
X101194285Y-102175047D01*
X101813333Y-102175047D01*
%TO.C,C11*%
X81780142Y-99365142D02*
X81732523Y-99412761D01*
X81589666Y-99460380D01*
X81494428Y-99460380D01*
X81351571Y-99412761D01*
X81256333Y-99317523D01*
X81208714Y-99222285D01*
X81161095Y-99031809D01*
X81161095Y-98888952D01*
X81208714Y-98698476D01*
X81256333Y-98603238D01*
X81351571Y-98508000D01*
X81494428Y-98460380D01*
X81589666Y-98460380D01*
X81732523Y-98508000D01*
X81780142Y-98555619D01*
X82732523Y-99460380D02*
X82161095Y-99460380D01*
X82446809Y-99460380D02*
X82446809Y-98460380D01*
X82351571Y-98603238D01*
X82256333Y-98698476D01*
X82161095Y-98746095D01*
X83684904Y-99460380D02*
X83113476Y-99460380D01*
X83399190Y-99460380D02*
X83399190Y-98460380D01*
X83303952Y-98603238D01*
X83208714Y-98698476D01*
X83113476Y-98746095D01*
%TO.C,R30*%
X127340380Y-113739857D02*
X126864190Y-114073190D01*
X127340380Y-114311285D02*
X126340380Y-114311285D01*
X126340380Y-113930333D01*
X126388000Y-113835095D01*
X126435619Y-113787476D01*
X126530857Y-113739857D01*
X126673714Y-113739857D01*
X126768952Y-113787476D01*
X126816571Y-113835095D01*
X126864190Y-113930333D01*
X126864190Y-114311285D01*
X126340380Y-113406523D02*
X126340380Y-112787476D01*
X126721333Y-113120809D01*
X126721333Y-112977952D01*
X126768952Y-112882714D01*
X126816571Y-112835095D01*
X126911809Y-112787476D01*
X127149904Y-112787476D01*
X127245142Y-112835095D01*
X127292761Y-112882714D01*
X127340380Y-112977952D01*
X127340380Y-113263666D01*
X127292761Y-113358904D01*
X127245142Y-113406523D01*
X126340380Y-112168428D02*
X126340380Y-112073190D01*
X126388000Y-111977952D01*
X126435619Y-111930333D01*
X126530857Y-111882714D01*
X126721333Y-111835095D01*
X126959428Y-111835095D01*
X127149904Y-111882714D01*
X127245142Y-111930333D01*
X127292761Y-111977952D01*
X127340380Y-112073190D01*
X127340380Y-112168428D01*
X127292761Y-112263666D01*
X127245142Y-112311285D01*
X127149904Y-112358904D01*
X126959428Y-112406523D01*
X126721333Y-112406523D01*
X126530857Y-112358904D01*
X126435619Y-112311285D01*
X126388000Y-112263666D01*
X126340380Y-112168428D01*
%TO.C,R15*%
X107202380Y-126447857D02*
X106726190Y-126781190D01*
X107202380Y-127019285D02*
X106202380Y-127019285D01*
X106202380Y-126638333D01*
X106250000Y-126543095D01*
X106297619Y-126495476D01*
X106392857Y-126447857D01*
X106535714Y-126447857D01*
X106630952Y-126495476D01*
X106678571Y-126543095D01*
X106726190Y-126638333D01*
X106726190Y-127019285D01*
X107202380Y-125495476D02*
X107202380Y-126066904D01*
X107202380Y-125781190D02*
X106202380Y-125781190D01*
X106345238Y-125876428D01*
X106440476Y-125971666D01*
X106488095Y-126066904D01*
X106202380Y-124590714D02*
X106202380Y-125066904D01*
X106678571Y-125114523D01*
X106630952Y-125066904D01*
X106583333Y-124971666D01*
X106583333Y-124733571D01*
X106630952Y-124638333D01*
X106678571Y-124590714D01*
X106773809Y-124543095D01*
X107011904Y-124543095D01*
X107107142Y-124590714D01*
X107154761Y-124638333D01*
X107202380Y-124733571D01*
X107202380Y-124971666D01*
X107154761Y-125066904D01*
X107107142Y-125114523D01*
%TO.C,R39*%
X137500380Y-103587857D02*
X137024190Y-103921190D01*
X137500380Y-104159285D02*
X136500380Y-104159285D01*
X136500380Y-103778333D01*
X136548000Y-103683095D01*
X136595619Y-103635476D01*
X136690857Y-103587857D01*
X136833714Y-103587857D01*
X136928952Y-103635476D01*
X136976571Y-103683095D01*
X137024190Y-103778333D01*
X137024190Y-104159285D01*
X136500380Y-103254523D02*
X136500380Y-102635476D01*
X136881333Y-102968809D01*
X136881333Y-102825952D01*
X136928952Y-102730714D01*
X136976571Y-102683095D01*
X137071809Y-102635476D01*
X137309904Y-102635476D01*
X137405142Y-102683095D01*
X137452761Y-102730714D01*
X137500380Y-102825952D01*
X137500380Y-103111666D01*
X137452761Y-103206904D01*
X137405142Y-103254523D01*
X137500380Y-102159285D02*
X137500380Y-101968809D01*
X137452761Y-101873571D01*
X137405142Y-101825952D01*
X137262285Y-101730714D01*
X137071809Y-101683095D01*
X136690857Y-101683095D01*
X136595619Y-101730714D01*
X136548000Y-101778333D01*
X136500380Y-101873571D01*
X136500380Y-102064047D01*
X136548000Y-102159285D01*
X136595619Y-102206904D01*
X136690857Y-102254523D01*
X136928952Y-102254523D01*
X137024190Y-102206904D01*
X137071809Y-102159285D01*
X137119428Y-102064047D01*
X137119428Y-101873571D01*
X137071809Y-101778333D01*
X137024190Y-101730714D01*
X136928952Y-101683095D01*
%TO.C,R13*%
X91952380Y-126447857D02*
X91476190Y-126781190D01*
X91952380Y-127019285D02*
X90952380Y-127019285D01*
X90952380Y-126638333D01*
X91000000Y-126543095D01*
X91047619Y-126495476D01*
X91142857Y-126447857D01*
X91285714Y-126447857D01*
X91380952Y-126495476D01*
X91428571Y-126543095D01*
X91476190Y-126638333D01*
X91476190Y-127019285D01*
X91952380Y-125495476D02*
X91952380Y-126066904D01*
X91952380Y-125781190D02*
X90952380Y-125781190D01*
X91095238Y-125876428D01*
X91190476Y-125971666D01*
X91238095Y-126066904D01*
X90952380Y-125162142D02*
X90952380Y-124543095D01*
X91333333Y-124876428D01*
X91333333Y-124733571D01*
X91380952Y-124638333D01*
X91428571Y-124590714D01*
X91523809Y-124543095D01*
X91761904Y-124543095D01*
X91857142Y-124590714D01*
X91904761Y-124638333D01*
X91952380Y-124733571D01*
X91952380Y-125019285D01*
X91904761Y-125114523D01*
X91857142Y-125162142D01*
%TO.C,R32*%
X137500380Y-108667857D02*
X137024190Y-109001190D01*
X137500380Y-109239285D02*
X136500380Y-109239285D01*
X136500380Y-108858333D01*
X136548000Y-108763095D01*
X136595619Y-108715476D01*
X136690857Y-108667857D01*
X136833714Y-108667857D01*
X136928952Y-108715476D01*
X136976571Y-108763095D01*
X137024190Y-108858333D01*
X137024190Y-109239285D01*
X136500380Y-108334523D02*
X136500380Y-107715476D01*
X136881333Y-108048809D01*
X136881333Y-107905952D01*
X136928952Y-107810714D01*
X136976571Y-107763095D01*
X137071809Y-107715476D01*
X137309904Y-107715476D01*
X137405142Y-107763095D01*
X137452761Y-107810714D01*
X137500380Y-107905952D01*
X137500380Y-108191666D01*
X137452761Y-108286904D01*
X137405142Y-108334523D01*
X136595619Y-107334523D02*
X136548000Y-107286904D01*
X136500380Y-107191666D01*
X136500380Y-106953571D01*
X136548000Y-106858333D01*
X136595619Y-106810714D01*
X136690857Y-106763095D01*
X136786095Y-106763095D01*
X136928952Y-106810714D01*
X137500380Y-107382142D01*
X137500380Y-106763095D01*
%TO.C,U1*%
X88026095Y-97952380D02*
X88026095Y-98761904D01*
X88073714Y-98857142D01*
X88121333Y-98904761D01*
X88216571Y-98952380D01*
X88407047Y-98952380D01*
X88502285Y-98904761D01*
X88549904Y-98857142D01*
X88597523Y-98761904D01*
X88597523Y-97952380D01*
X89597523Y-98952380D02*
X89026095Y-98952380D01*
X89311809Y-98952380D02*
X89311809Y-97952380D01*
X89216571Y-98095238D01*
X89121333Y-98190476D01*
X89026095Y-98238095D01*
X94996000Y-97750380D02*
X94996000Y-97988476D01*
X94757904Y-97893238D02*
X94996000Y-97988476D01*
X95234095Y-97893238D01*
X94853142Y-98178952D02*
X94996000Y-97988476D01*
X95138857Y-98178952D01*
%TO.C,R52*%
X109735142Y-106445380D02*
X109401809Y-105969190D01*
X109163714Y-106445380D02*
X109163714Y-105445380D01*
X109544666Y-105445380D01*
X109639904Y-105493000D01*
X109687523Y-105540619D01*
X109735142Y-105635857D01*
X109735142Y-105778714D01*
X109687523Y-105873952D01*
X109639904Y-105921571D01*
X109544666Y-105969190D01*
X109163714Y-105969190D01*
X110639904Y-105445380D02*
X110163714Y-105445380D01*
X110116095Y-105921571D01*
X110163714Y-105873952D01*
X110258952Y-105826333D01*
X110497047Y-105826333D01*
X110592285Y-105873952D01*
X110639904Y-105921571D01*
X110687523Y-106016809D01*
X110687523Y-106254904D01*
X110639904Y-106350142D01*
X110592285Y-106397761D01*
X110497047Y-106445380D01*
X110258952Y-106445380D01*
X110163714Y-106397761D01*
X110116095Y-106350142D01*
X111068476Y-105540619D02*
X111116095Y-105493000D01*
X111211333Y-105445380D01*
X111449428Y-105445380D01*
X111544666Y-105493000D01*
X111592285Y-105540619D01*
X111639904Y-105635857D01*
X111639904Y-105731095D01*
X111592285Y-105873952D01*
X111020857Y-106445380D01*
X111639904Y-106445380D01*
%TO.C,C30*%
X127607142Y-97857142D02*
X127559523Y-97904761D01*
X127416666Y-97952380D01*
X127321428Y-97952380D01*
X127178571Y-97904761D01*
X127083333Y-97809523D01*
X127035714Y-97714285D01*
X126988095Y-97523809D01*
X126988095Y-97380952D01*
X127035714Y-97190476D01*
X127083333Y-97095238D01*
X127178571Y-97000000D01*
X127321428Y-96952380D01*
X127416666Y-96952380D01*
X127559523Y-97000000D01*
X127607142Y-97047619D01*
X127940476Y-96952380D02*
X128559523Y-96952380D01*
X128226190Y-97333333D01*
X128369047Y-97333333D01*
X128464285Y-97380952D01*
X128511904Y-97428571D01*
X128559523Y-97523809D01*
X128559523Y-97761904D01*
X128511904Y-97857142D01*
X128464285Y-97904761D01*
X128369047Y-97952380D01*
X128083333Y-97952380D01*
X127988095Y-97904761D01*
X127940476Y-97857142D01*
X129178571Y-96952380D02*
X129273809Y-96952380D01*
X129369047Y-97000000D01*
X129416666Y-97047619D01*
X129464285Y-97142857D01*
X129511904Y-97333333D01*
X129511904Y-97571428D01*
X129464285Y-97761904D01*
X129416666Y-97857142D01*
X129369047Y-97904761D01*
X129273809Y-97952380D01*
X129178571Y-97952380D01*
X129083333Y-97904761D01*
X129035714Y-97857142D01*
X128988095Y-97761904D01*
X128940476Y-97571428D01*
X128940476Y-97333333D01*
X128988095Y-97142857D01*
X129035714Y-97047619D01*
X129083333Y-97000000D01*
X129178571Y-96952380D01*
%TO.C,R1*%
X81500333Y-86026380D02*
X81167000Y-85550190D01*
X80928904Y-86026380D02*
X80928904Y-85026380D01*
X81309857Y-85026380D01*
X81405095Y-85074000D01*
X81452714Y-85121619D01*
X81500333Y-85216857D01*
X81500333Y-85359714D01*
X81452714Y-85454952D01*
X81405095Y-85502571D01*
X81309857Y-85550190D01*
X80928904Y-85550190D01*
X82452714Y-86026380D02*
X81881285Y-86026380D01*
X82167000Y-86026380D02*
X82167000Y-85026380D01*
X82071761Y-85169238D01*
X81976523Y-85264476D01*
X81881285Y-85312095D01*
%TO.C,U7*%
X133076095Y-87398380D02*
X133076095Y-88207904D01*
X133123714Y-88303142D01*
X133171333Y-88350761D01*
X133266571Y-88398380D01*
X133457047Y-88398380D01*
X133552285Y-88350761D01*
X133599904Y-88303142D01*
X133647523Y-88207904D01*
X133647523Y-87398380D01*
X134028476Y-87398380D02*
X134695142Y-87398380D01*
X134266571Y-88398380D01*
X135322380Y-89216000D02*
X135560476Y-89216000D01*
X135465238Y-89454095D02*
X135560476Y-89216000D01*
X135465238Y-88977904D01*
X135750952Y-89358857D02*
X135560476Y-89216000D01*
X135750952Y-89073142D01*
%TO.C,R45*%
X127340380Y-103579857D02*
X126864190Y-103913190D01*
X127340380Y-104151285D02*
X126340380Y-104151285D01*
X126340380Y-103770333D01*
X126388000Y-103675095D01*
X126435619Y-103627476D01*
X126530857Y-103579857D01*
X126673714Y-103579857D01*
X126768952Y-103627476D01*
X126816571Y-103675095D01*
X126864190Y-103770333D01*
X126864190Y-104151285D01*
X126673714Y-102722714D02*
X127340380Y-102722714D01*
X126292761Y-102960809D02*
X127007047Y-103198904D01*
X127007047Y-102579857D01*
X126340380Y-101722714D02*
X126340380Y-102198904D01*
X126816571Y-102246523D01*
X126768952Y-102198904D01*
X126721333Y-102103666D01*
X126721333Y-101865571D01*
X126768952Y-101770333D01*
X126816571Y-101722714D01*
X126911809Y-101675095D01*
X127149904Y-101675095D01*
X127245142Y-101722714D01*
X127292761Y-101770333D01*
X127340380Y-101865571D01*
X127340380Y-102103666D01*
X127292761Y-102198904D01*
X127245142Y-102246523D01*
%TO.C,L1*%
X138517333Y-87828380D02*
X138041142Y-87828380D01*
X138041142Y-86828380D01*
X139374476Y-87828380D02*
X138803047Y-87828380D01*
X139088761Y-87828380D02*
X139088761Y-86828380D01*
X138993523Y-86971238D01*
X138898285Y-87066476D01*
X138803047Y-87114095D01*
%TO.C,C2*%
X100813333Y-94769642D02*
X100765714Y-94817261D01*
X100622857Y-94864880D01*
X100527619Y-94864880D01*
X100384761Y-94817261D01*
X100289523Y-94722023D01*
X100241904Y-94626785D01*
X100194285Y-94436309D01*
X100194285Y-94293452D01*
X100241904Y-94102976D01*
X100289523Y-94007738D01*
X100384761Y-93912500D01*
X100527619Y-93864880D01*
X100622857Y-93864880D01*
X100765714Y-93912500D01*
X100813333Y-93960119D01*
X101194285Y-93960119D02*
X101241904Y-93912500D01*
X101337142Y-93864880D01*
X101575238Y-93864880D01*
X101670476Y-93912500D01*
X101718095Y-93960119D01*
X101765714Y-94055357D01*
X101765714Y-94150595D01*
X101718095Y-94293452D01*
X101146666Y-94864880D01*
X101765714Y-94864880D01*
%TO.C,C32*%
X131655142Y-74872857D02*
X131702761Y-74920476D01*
X131750380Y-75063333D01*
X131750380Y-75158571D01*
X131702761Y-75301428D01*
X131607523Y-75396666D01*
X131512285Y-75444285D01*
X131321809Y-75491904D01*
X131178952Y-75491904D01*
X130988476Y-75444285D01*
X130893238Y-75396666D01*
X130798000Y-75301428D01*
X130750380Y-75158571D01*
X130750380Y-75063333D01*
X130798000Y-74920476D01*
X130845619Y-74872857D01*
X130750380Y-74539523D02*
X130750380Y-73920476D01*
X131131333Y-74253809D01*
X131131333Y-74110952D01*
X131178952Y-74015714D01*
X131226571Y-73968095D01*
X131321809Y-73920476D01*
X131559904Y-73920476D01*
X131655142Y-73968095D01*
X131702761Y-74015714D01*
X131750380Y-74110952D01*
X131750380Y-74396666D01*
X131702761Y-74491904D01*
X131655142Y-74539523D01*
X130845619Y-73539523D02*
X130798000Y-73491904D01*
X130750380Y-73396666D01*
X130750380Y-73158571D01*
X130798000Y-73063333D01*
X130845619Y-73015714D01*
X130940857Y-72968095D01*
X131036095Y-72968095D01*
X131178952Y-73015714D01*
X131750380Y-73587142D01*
X131750380Y-72968095D01*
%TO.C,R36*%
X127340380Y-108659857D02*
X126864190Y-108993190D01*
X127340380Y-109231285D02*
X126340380Y-109231285D01*
X126340380Y-108850333D01*
X126388000Y-108755095D01*
X126435619Y-108707476D01*
X126530857Y-108659857D01*
X126673714Y-108659857D01*
X126768952Y-108707476D01*
X126816571Y-108755095D01*
X126864190Y-108850333D01*
X126864190Y-109231285D01*
X126340380Y-108326523D02*
X126340380Y-107707476D01*
X126721333Y-108040809D01*
X126721333Y-107897952D01*
X126768952Y-107802714D01*
X126816571Y-107755095D01*
X126911809Y-107707476D01*
X127149904Y-107707476D01*
X127245142Y-107755095D01*
X127292761Y-107802714D01*
X127340380Y-107897952D01*
X127340380Y-108183666D01*
X127292761Y-108278904D01*
X127245142Y-108326523D01*
X126340380Y-106850333D02*
X126340380Y-107040809D01*
X126388000Y-107136047D01*
X126435619Y-107183666D01*
X126578476Y-107278904D01*
X126768952Y-107326523D01*
X127149904Y-107326523D01*
X127245142Y-107278904D01*
X127292761Y-107231285D01*
X127340380Y-107136047D01*
X127340380Y-106945571D01*
X127292761Y-106850333D01*
X127245142Y-106802714D01*
X127149904Y-106755095D01*
X126911809Y-106755095D01*
X126816571Y-106802714D01*
X126768952Y-106850333D01*
X126721333Y-106945571D01*
X126721333Y-107136047D01*
X126768952Y-107231285D01*
X126816571Y-107278904D01*
X126911809Y-107326523D01*
%TO.C,J4*%
X78166666Y-130952380D02*
X78166666Y-131666666D01*
X78119047Y-131809523D01*
X78023809Y-131904761D01*
X77880952Y-131952380D01*
X77785714Y-131952380D01*
X79071428Y-131285714D02*
X79071428Y-131952380D01*
X78833333Y-130904761D02*
X78595238Y-131619047D01*
X79214285Y-131619047D01*
%TO.C,R11*%
X95590380Y-87689357D02*
X95114190Y-88022690D01*
X95590380Y-88260785D02*
X94590380Y-88260785D01*
X94590380Y-87879833D01*
X94638000Y-87784595D01*
X94685619Y-87736976D01*
X94780857Y-87689357D01*
X94923714Y-87689357D01*
X95018952Y-87736976D01*
X95066571Y-87784595D01*
X95114190Y-87879833D01*
X95114190Y-88260785D01*
X95590380Y-86736976D02*
X95590380Y-87308404D01*
X95590380Y-87022690D02*
X94590380Y-87022690D01*
X94733238Y-87117928D01*
X94828476Y-87213166D01*
X94876095Y-87308404D01*
X95590380Y-85784595D02*
X95590380Y-86356023D01*
X95590380Y-86070309D02*
X94590380Y-86070309D01*
X94733238Y-86165547D01*
X94828476Y-86260785D01*
X94876095Y-86356023D01*
%TO.C,R23*%
X110952380Y-126447857D02*
X110476190Y-126781190D01*
X110952380Y-127019285D02*
X109952380Y-127019285D01*
X109952380Y-126638333D01*
X110000000Y-126543095D01*
X110047619Y-126495476D01*
X110142857Y-126447857D01*
X110285714Y-126447857D01*
X110380952Y-126495476D01*
X110428571Y-126543095D01*
X110476190Y-126638333D01*
X110476190Y-127019285D01*
X110047619Y-126066904D02*
X110000000Y-126019285D01*
X109952380Y-125924047D01*
X109952380Y-125685952D01*
X110000000Y-125590714D01*
X110047619Y-125543095D01*
X110142857Y-125495476D01*
X110238095Y-125495476D01*
X110380952Y-125543095D01*
X110952380Y-126114523D01*
X110952380Y-125495476D01*
X109952380Y-125162142D02*
X109952380Y-124543095D01*
X110333333Y-124876428D01*
X110333333Y-124733571D01*
X110380952Y-124638333D01*
X110428571Y-124590714D01*
X110523809Y-124543095D01*
X110761904Y-124543095D01*
X110857142Y-124590714D01*
X110904761Y-124638333D01*
X110952380Y-124733571D01*
X110952380Y-125019285D01*
X110904761Y-125114523D01*
X110857142Y-125162142D01*
%TO.C,C22*%
X141323142Y-94653142D02*
X141275523Y-94700761D01*
X141132666Y-94748380D01*
X141037428Y-94748380D01*
X140894571Y-94700761D01*
X140799333Y-94605523D01*
X140751714Y-94510285D01*
X140704095Y-94319809D01*
X140704095Y-94176952D01*
X140751714Y-93986476D01*
X140799333Y-93891238D01*
X140894571Y-93796000D01*
X141037428Y-93748380D01*
X141132666Y-93748380D01*
X141275523Y-93796000D01*
X141323142Y-93843619D01*
X141704095Y-93843619D02*
X141751714Y-93796000D01*
X141846952Y-93748380D01*
X142085047Y-93748380D01*
X142180285Y-93796000D01*
X142227904Y-93843619D01*
X142275523Y-93938857D01*
X142275523Y-94034095D01*
X142227904Y-94176952D01*
X141656476Y-94748380D01*
X142275523Y-94748380D01*
X142656476Y-93843619D02*
X142704095Y-93796000D01*
X142799333Y-93748380D01*
X143037428Y-93748380D01*
X143132666Y-93796000D01*
X143180285Y-93843619D01*
X143227904Y-93938857D01*
X143227904Y-94034095D01*
X143180285Y-94176952D01*
X142608857Y-94748380D01*
X143227904Y-94748380D01*
%TO.C,R4*%
X100813333Y-97912880D02*
X100480000Y-97436690D01*
X100241904Y-97912880D02*
X100241904Y-96912880D01*
X100622857Y-96912880D01*
X100718095Y-96960500D01*
X100765714Y-97008119D01*
X100813333Y-97103357D01*
X100813333Y-97246214D01*
X100765714Y-97341452D01*
X100718095Y-97389071D01*
X100622857Y-97436690D01*
X100241904Y-97436690D01*
X101670476Y-97246214D02*
X101670476Y-97912880D01*
X101432380Y-96865261D02*
X101194285Y-97579547D01*
X101813333Y-97579547D01*
%TO.C,J3*%
X119808666Y-61428380D02*
X119808666Y-62142666D01*
X119761047Y-62285523D01*
X119665809Y-62380761D01*
X119522952Y-62428380D01*
X119427714Y-62428380D01*
X120189619Y-61428380D02*
X120808666Y-61428380D01*
X120475333Y-61809333D01*
X120618190Y-61809333D01*
X120713428Y-61856952D01*
X120761047Y-61904571D01*
X120808666Y-61999809D01*
X120808666Y-62237904D01*
X120761047Y-62333142D01*
X120713428Y-62380761D01*
X120618190Y-62428380D01*
X120332476Y-62428380D01*
X120237238Y-62380761D01*
X120189619Y-62333142D01*
%TO.C,R7*%
X100813333Y-91816880D02*
X100480000Y-91340690D01*
X100241904Y-91816880D02*
X100241904Y-90816880D01*
X100622857Y-90816880D01*
X100718095Y-90864500D01*
X100765714Y-90912119D01*
X100813333Y-91007357D01*
X100813333Y-91150214D01*
X100765714Y-91245452D01*
X100718095Y-91293071D01*
X100622857Y-91340690D01*
X100241904Y-91340690D01*
X101146666Y-90816880D02*
X101813333Y-90816880D01*
X101384761Y-91816880D01*
%TO.C,J1*%
X91868666Y-61428380D02*
X91868666Y-62142666D01*
X91821047Y-62285523D01*
X91725809Y-62380761D01*
X91582952Y-62428380D01*
X91487714Y-62428380D01*
X92868666Y-62428380D02*
X92297238Y-62428380D01*
X92582952Y-62428380D02*
X92582952Y-61428380D01*
X92487714Y-61571238D01*
X92392476Y-61666476D01*
X92297238Y-61714095D01*
%TO.C,C17*%
X105763142Y-87922142D02*
X105715523Y-87969761D01*
X105572666Y-88017380D01*
X105477428Y-88017380D01*
X105334571Y-87969761D01*
X105239333Y-87874523D01*
X105191714Y-87779285D01*
X105144095Y-87588809D01*
X105144095Y-87445952D01*
X105191714Y-87255476D01*
X105239333Y-87160238D01*
X105334571Y-87065000D01*
X105477428Y-87017380D01*
X105572666Y-87017380D01*
X105715523Y-87065000D01*
X105763142Y-87112619D01*
X106715523Y-88017380D02*
X106144095Y-88017380D01*
X106429809Y-88017380D02*
X106429809Y-87017380D01*
X106334571Y-87160238D01*
X106239333Y-87255476D01*
X106144095Y-87303095D01*
X107048857Y-87017380D02*
X107715523Y-87017380D01*
X107286952Y-88017380D01*
%TO.C,D1*%
X90729380Y-82502095D02*
X89729380Y-82502095D01*
X89729380Y-82264000D01*
X89777000Y-82121142D01*
X89872238Y-82025904D01*
X89967476Y-81978285D01*
X90157952Y-81930666D01*
X90300809Y-81930666D01*
X90491285Y-81978285D01*
X90586523Y-82025904D01*
X90681761Y-82121142D01*
X90729380Y-82264000D01*
X90729380Y-82502095D01*
X90729380Y-80978285D02*
X90729380Y-81549714D01*
X90729380Y-81264000D02*
X89729380Y-81264000D01*
X89872238Y-81359238D01*
X89967476Y-81454476D01*
X90015095Y-81549714D01*
%TO.C,R33*%
X107202380Y-121447857D02*
X106726190Y-121781190D01*
X107202380Y-122019285D02*
X106202380Y-122019285D01*
X106202380Y-121638333D01*
X106250000Y-121543095D01*
X106297619Y-121495476D01*
X106392857Y-121447857D01*
X106535714Y-121447857D01*
X106630952Y-121495476D01*
X106678571Y-121543095D01*
X106726190Y-121638333D01*
X106726190Y-122019285D01*
X106202380Y-121114523D02*
X106202380Y-120495476D01*
X106583333Y-120828809D01*
X106583333Y-120685952D01*
X106630952Y-120590714D01*
X106678571Y-120543095D01*
X106773809Y-120495476D01*
X107011904Y-120495476D01*
X107107142Y-120543095D01*
X107154761Y-120590714D01*
X107202380Y-120685952D01*
X107202380Y-120971666D01*
X107154761Y-121066904D01*
X107107142Y-121114523D01*
X106202380Y-120162142D02*
X106202380Y-119543095D01*
X106583333Y-119876428D01*
X106583333Y-119733571D01*
X106630952Y-119638333D01*
X106678571Y-119590714D01*
X106773809Y-119543095D01*
X107011904Y-119543095D01*
X107107142Y-119590714D01*
X107154761Y-119638333D01*
X107202380Y-119733571D01*
X107202380Y-120019285D01*
X107154761Y-120114523D01*
X107107142Y-120162142D01*
%TO.C,R5*%
X100813333Y-99436880D02*
X100480000Y-98960690D01*
X100241904Y-99436880D02*
X100241904Y-98436880D01*
X100622857Y-98436880D01*
X100718095Y-98484500D01*
X100765714Y-98532119D01*
X100813333Y-98627357D01*
X100813333Y-98770214D01*
X100765714Y-98865452D01*
X100718095Y-98913071D01*
X100622857Y-98960690D01*
X100241904Y-98960690D01*
X101718095Y-98436880D02*
X101241904Y-98436880D01*
X101194285Y-98913071D01*
X101241904Y-98865452D01*
X101337142Y-98817833D01*
X101575238Y-98817833D01*
X101670476Y-98865452D01*
X101718095Y-98913071D01*
X101765714Y-99008309D01*
X101765714Y-99246404D01*
X101718095Y-99341642D01*
X101670476Y-99389261D01*
X101575238Y-99436880D01*
X101337142Y-99436880D01*
X101241904Y-99389261D01*
X101194285Y-99341642D01*
%TO.C,R37*%
X87637142Y-106699380D02*
X87303809Y-106223190D01*
X87065714Y-106699380D02*
X87065714Y-105699380D01*
X87446666Y-105699380D01*
X87541904Y-105747000D01*
X87589523Y-105794619D01*
X87637142Y-105889857D01*
X87637142Y-106032714D01*
X87589523Y-106127952D01*
X87541904Y-106175571D01*
X87446666Y-106223190D01*
X87065714Y-106223190D01*
X87970476Y-105699380D02*
X88589523Y-105699380D01*
X88256190Y-106080333D01*
X88399047Y-106080333D01*
X88494285Y-106127952D01*
X88541904Y-106175571D01*
X88589523Y-106270809D01*
X88589523Y-106508904D01*
X88541904Y-106604142D01*
X88494285Y-106651761D01*
X88399047Y-106699380D01*
X88113333Y-106699380D01*
X88018095Y-106651761D01*
X87970476Y-106604142D01*
X88922857Y-105699380D02*
X89589523Y-105699380D01*
X89160952Y-106699380D01*
%TO.C,R10*%
X100784742Y-100996780D02*
X100451409Y-100520590D01*
X100213314Y-100996780D02*
X100213314Y-99996780D01*
X100594266Y-99996780D01*
X100689504Y-100044400D01*
X100737123Y-100092019D01*
X100784742Y-100187257D01*
X100784742Y-100330114D01*
X100737123Y-100425352D01*
X100689504Y-100472971D01*
X100594266Y-100520590D01*
X100213314Y-100520590D01*
X101737123Y-100996780D02*
X101165695Y-100996780D01*
X101451409Y-100996780D02*
X101451409Y-99996780D01*
X101356171Y-100139638D01*
X101260933Y-100234876D01*
X101165695Y-100282495D01*
X102356171Y-99996780D02*
X102451409Y-99996780D01*
X102546647Y-100044400D01*
X102594266Y-100092019D01*
X102641885Y-100187257D01*
X102689504Y-100377733D01*
X102689504Y-100615828D01*
X102641885Y-100806304D01*
X102594266Y-100901542D01*
X102546647Y-100949161D01*
X102451409Y-100996780D01*
X102356171Y-100996780D01*
X102260933Y-100949161D01*
X102213314Y-100901542D01*
X102165695Y-100806304D01*
X102118076Y-100615828D01*
X102118076Y-100377733D01*
X102165695Y-100187257D01*
X102213314Y-100092019D01*
X102260933Y-100044400D01*
X102356171Y-99996780D01*
%TO.C,R18*%
X127340380Y-123899857D02*
X126864190Y-124233190D01*
X127340380Y-124471285D02*
X126340380Y-124471285D01*
X126340380Y-124090333D01*
X126388000Y-123995095D01*
X126435619Y-123947476D01*
X126530857Y-123899857D01*
X126673714Y-123899857D01*
X126768952Y-123947476D01*
X126816571Y-123995095D01*
X126864190Y-124090333D01*
X126864190Y-124471285D01*
X127340380Y-122947476D02*
X127340380Y-123518904D01*
X127340380Y-123233190D02*
X126340380Y-123233190D01*
X126483238Y-123328428D01*
X126578476Y-123423666D01*
X126626095Y-123518904D01*
X126768952Y-122376047D02*
X126721333Y-122471285D01*
X126673714Y-122518904D01*
X126578476Y-122566523D01*
X126530857Y-122566523D01*
X126435619Y-122518904D01*
X126388000Y-122471285D01*
X126340380Y-122376047D01*
X126340380Y-122185571D01*
X126388000Y-122090333D01*
X126435619Y-122042714D01*
X126530857Y-121995095D01*
X126578476Y-121995095D01*
X126673714Y-122042714D01*
X126721333Y-122090333D01*
X126768952Y-122185571D01*
X126768952Y-122376047D01*
X126816571Y-122471285D01*
X126864190Y-122518904D01*
X126959428Y-122566523D01*
X127149904Y-122566523D01*
X127245142Y-122518904D01*
X127292761Y-122471285D01*
X127340380Y-122376047D01*
X127340380Y-122185571D01*
X127292761Y-122090333D01*
X127245142Y-122042714D01*
X127149904Y-121995095D01*
X126959428Y-121995095D01*
X126864190Y-122042714D01*
X126816571Y-122090333D01*
X126768952Y-122185571D01*
%TO.C,C5*%
X93971142Y-87467166D02*
X94018761Y-87514785D01*
X94066380Y-87657642D01*
X94066380Y-87752880D01*
X94018761Y-87895738D01*
X93923523Y-87990976D01*
X93828285Y-88038595D01*
X93637809Y-88086214D01*
X93494952Y-88086214D01*
X93304476Y-88038595D01*
X93209238Y-87990976D01*
X93114000Y-87895738D01*
X93066380Y-87752880D01*
X93066380Y-87657642D01*
X93114000Y-87514785D01*
X93161619Y-87467166D01*
X93066380Y-86562404D02*
X93066380Y-87038595D01*
X93542571Y-87086214D01*
X93494952Y-87038595D01*
X93447333Y-86943357D01*
X93447333Y-86705261D01*
X93494952Y-86610023D01*
X93542571Y-86562404D01*
X93637809Y-86514785D01*
X93875904Y-86514785D01*
X93971142Y-86562404D01*
X94018761Y-86610023D01*
X94066380Y-86705261D01*
X94066380Y-86943357D01*
X94018761Y-87038595D01*
X93971142Y-87086214D01*
%TO.C,R17*%
X122452380Y-126447857D02*
X121976190Y-126781190D01*
X122452380Y-127019285D02*
X121452380Y-127019285D01*
X121452380Y-126638333D01*
X121500000Y-126543095D01*
X121547619Y-126495476D01*
X121642857Y-126447857D01*
X121785714Y-126447857D01*
X121880952Y-126495476D01*
X121928571Y-126543095D01*
X121976190Y-126638333D01*
X121976190Y-127019285D01*
X122452380Y-125495476D02*
X122452380Y-126066904D01*
X122452380Y-125781190D02*
X121452380Y-125781190D01*
X121595238Y-125876428D01*
X121690476Y-125971666D01*
X121738095Y-126066904D01*
X121452380Y-125162142D02*
X121452380Y-124495476D01*
X122452380Y-124924047D01*
%TO.C,C15*%
X109593142Y-103481142D02*
X109545523Y-103528761D01*
X109402666Y-103576380D01*
X109307428Y-103576380D01*
X109164571Y-103528761D01*
X109069333Y-103433523D01*
X109021714Y-103338285D01*
X108974095Y-103147809D01*
X108974095Y-103004952D01*
X109021714Y-102814476D01*
X109069333Y-102719238D01*
X109164571Y-102624000D01*
X109307428Y-102576380D01*
X109402666Y-102576380D01*
X109545523Y-102624000D01*
X109593142Y-102671619D01*
X110545523Y-103576380D02*
X109974095Y-103576380D01*
X110259809Y-103576380D02*
X110259809Y-102576380D01*
X110164571Y-102719238D01*
X110069333Y-102814476D01*
X109974095Y-102862095D01*
X111450285Y-102576380D02*
X110974095Y-102576380D01*
X110926476Y-103052571D01*
X110974095Y-103004952D01*
X111069333Y-102957333D01*
X111307428Y-102957333D01*
X111402666Y-103004952D01*
X111450285Y-103052571D01*
X111497904Y-103147809D01*
X111497904Y-103385904D01*
X111450285Y-103481142D01*
X111402666Y-103528761D01*
X111307428Y-103576380D01*
X111069333Y-103576380D01*
X110974095Y-103528761D01*
X110926476Y-103481142D01*
%TO.C,R41*%
X101099142Y-117367380D02*
X100765809Y-116891190D01*
X100527714Y-117367380D02*
X100527714Y-116367380D01*
X100908666Y-116367380D01*
X101003904Y-116415000D01*
X101051523Y-116462619D01*
X101099142Y-116557857D01*
X101099142Y-116700714D01*
X101051523Y-116795952D01*
X101003904Y-116843571D01*
X100908666Y-116891190D01*
X100527714Y-116891190D01*
X101956285Y-116700714D02*
X101956285Y-117367380D01*
X101718190Y-116319761D02*
X101480095Y-117034047D01*
X102099142Y-117034047D01*
X103003904Y-117367380D02*
X102432476Y-117367380D01*
X102718190Y-117367380D02*
X102718190Y-116367380D01*
X102622952Y-116510238D01*
X102527714Y-116605476D01*
X102432476Y-116653095D01*
%TO.C,R34*%
X132420380Y-108667857D02*
X131944190Y-109001190D01*
X132420380Y-109239285D02*
X131420380Y-109239285D01*
X131420380Y-108858333D01*
X131468000Y-108763095D01*
X131515619Y-108715476D01*
X131610857Y-108667857D01*
X131753714Y-108667857D01*
X131848952Y-108715476D01*
X131896571Y-108763095D01*
X131944190Y-108858333D01*
X131944190Y-109239285D01*
X131420380Y-108334523D02*
X131420380Y-107715476D01*
X131801333Y-108048809D01*
X131801333Y-107905952D01*
X131848952Y-107810714D01*
X131896571Y-107763095D01*
X131991809Y-107715476D01*
X132229904Y-107715476D01*
X132325142Y-107763095D01*
X132372761Y-107810714D01*
X132420380Y-107905952D01*
X132420380Y-108191666D01*
X132372761Y-108286904D01*
X132325142Y-108334523D01*
X131753714Y-106858333D02*
X132420380Y-106858333D01*
X131372761Y-107096428D02*
X132087047Y-107334523D01*
X132087047Y-106715476D01*
%TO.C,C7*%
X112948042Y-92260568D02*
X112995661Y-92308187D01*
X113043280Y-92451044D01*
X113043280Y-92546282D01*
X112995661Y-92689140D01*
X112900423Y-92784378D01*
X112805185Y-92831997D01*
X112614709Y-92879616D01*
X112471852Y-92879616D01*
X112281376Y-92831997D01*
X112186138Y-92784378D01*
X112090900Y-92689140D01*
X112043280Y-92546282D01*
X112043280Y-92451044D01*
X112090900Y-92308187D01*
X112138519Y-92260568D01*
X112043280Y-91927235D02*
X112043280Y-91260568D01*
X113043280Y-91689140D01*
%TO.C,J5*%
X142922666Y-61047380D02*
X142922666Y-61761666D01*
X142875047Y-61904523D01*
X142779809Y-61999761D01*
X142636952Y-62047380D01*
X142541714Y-62047380D01*
X143875047Y-61047380D02*
X143398857Y-61047380D01*
X143351238Y-61523571D01*
X143398857Y-61475952D01*
X143494095Y-61428333D01*
X143732190Y-61428333D01*
X143827428Y-61475952D01*
X143875047Y-61523571D01*
X143922666Y-61618809D01*
X143922666Y-61856904D01*
X143875047Y-61952142D01*
X143827428Y-61999761D01*
X143732190Y-62047380D01*
X143494095Y-62047380D01*
X143398857Y-61999761D01*
X143351238Y-61952142D01*
%TO.C,C3*%
X82764333Y-92634142D02*
X82716714Y-92681761D01*
X82573857Y-92729380D01*
X82478619Y-92729380D01*
X82335761Y-92681761D01*
X82240523Y-92586523D01*
X82192904Y-92491285D01*
X82145285Y-92300809D01*
X82145285Y-92157952D01*
X82192904Y-91967476D01*
X82240523Y-91872238D01*
X82335761Y-91777000D01*
X82478619Y-91729380D01*
X82573857Y-91729380D01*
X82716714Y-91777000D01*
X82764333Y-91824619D01*
X83097666Y-91729380D02*
X83716714Y-91729380D01*
X83383380Y-92110333D01*
X83526238Y-92110333D01*
X83621476Y-92157952D01*
X83669095Y-92205571D01*
X83716714Y-92300809D01*
X83716714Y-92538904D01*
X83669095Y-92634142D01*
X83621476Y-92681761D01*
X83526238Y-92729380D01*
X83240523Y-92729380D01*
X83145285Y-92681761D01*
X83097666Y-92634142D01*
%TO.C,J2*%
X105838666Y-61428380D02*
X105838666Y-62142666D01*
X105791047Y-62285523D01*
X105695809Y-62380761D01*
X105552952Y-62428380D01*
X105457714Y-62428380D01*
X106267238Y-61523619D02*
X106314857Y-61476000D01*
X106410095Y-61428380D01*
X106648190Y-61428380D01*
X106743428Y-61476000D01*
X106791047Y-61523619D01*
X106838666Y-61618857D01*
X106838666Y-61714095D01*
X106791047Y-61856952D01*
X106219619Y-62428380D01*
X106838666Y-62428380D01*
%TO.C,R48*%
X109735142Y-111271380D02*
X109401809Y-110795190D01*
X109163714Y-111271380D02*
X109163714Y-110271380D01*
X109544666Y-110271380D01*
X109639904Y-110319000D01*
X109687523Y-110366619D01*
X109735142Y-110461857D01*
X109735142Y-110604714D01*
X109687523Y-110699952D01*
X109639904Y-110747571D01*
X109544666Y-110795190D01*
X109163714Y-110795190D01*
X110592285Y-110604714D02*
X110592285Y-111271380D01*
X110354190Y-110223761D02*
X110116095Y-110938047D01*
X110735142Y-110938047D01*
X111258952Y-110699952D02*
X111163714Y-110652333D01*
X111116095Y-110604714D01*
X111068476Y-110509476D01*
X111068476Y-110461857D01*
X111116095Y-110366619D01*
X111163714Y-110319000D01*
X111258952Y-110271380D01*
X111449428Y-110271380D01*
X111544666Y-110319000D01*
X111592285Y-110366619D01*
X111639904Y-110461857D01*
X111639904Y-110509476D01*
X111592285Y-110604714D01*
X111544666Y-110652333D01*
X111449428Y-110699952D01*
X111258952Y-110699952D01*
X111163714Y-110747571D01*
X111116095Y-110795190D01*
X111068476Y-110890428D01*
X111068476Y-111080904D01*
X111116095Y-111176142D01*
X111163714Y-111223761D01*
X111258952Y-111271380D01*
X111449428Y-111271380D01*
X111544666Y-111223761D01*
X111592285Y-111176142D01*
X111639904Y-111080904D01*
X111639904Y-110890428D01*
X111592285Y-110795190D01*
X111544666Y-110747571D01*
X111449428Y-110699952D01*
%TO.C,R44*%
X116339142Y-117367380D02*
X116005809Y-116891190D01*
X115767714Y-117367380D02*
X115767714Y-116367380D01*
X116148666Y-116367380D01*
X116243904Y-116415000D01*
X116291523Y-116462619D01*
X116339142Y-116557857D01*
X116339142Y-116700714D01*
X116291523Y-116795952D01*
X116243904Y-116843571D01*
X116148666Y-116891190D01*
X115767714Y-116891190D01*
X117196285Y-116700714D02*
X117196285Y-117367380D01*
X116958190Y-116319761D02*
X116720095Y-117034047D01*
X117339142Y-117034047D01*
X118148666Y-116700714D02*
X118148666Y-117367380D01*
X117910571Y-116319761D02*
X117672476Y-117034047D01*
X118291523Y-117034047D01*
%TO.C,U2*%
X96662095Y-103159380D02*
X96662095Y-103968904D01*
X96709714Y-104064142D01*
X96757333Y-104111761D01*
X96852571Y-104159380D01*
X97043047Y-104159380D01*
X97138285Y-104111761D01*
X97185904Y-104064142D01*
X97233523Y-103968904D01*
X97233523Y-103159380D01*
X97662095Y-103254619D02*
X97709714Y-103207000D01*
X97804952Y-103159380D01*
X98043047Y-103159380D01*
X98138285Y-103207000D01*
X98185904Y-103254619D01*
X98233523Y-103349857D01*
X98233523Y-103445095D01*
X98185904Y-103587952D01*
X97614476Y-104159380D01*
X98233523Y-104159380D01*
X94424000Y-103969380D02*
X94424000Y-104207476D01*
X94185904Y-104112238D02*
X94424000Y-104207476D01*
X94662095Y-104112238D01*
X94281142Y-104397952D02*
X94424000Y-104207476D01*
X94566857Y-104397952D01*
%TO.C,D5*%
X96685904Y-112327380D02*
X96685904Y-111327380D01*
X96924000Y-111327380D01*
X97066857Y-111375000D01*
X97162095Y-111470238D01*
X97209714Y-111565476D01*
X97257333Y-111755952D01*
X97257333Y-111898809D01*
X97209714Y-112089285D01*
X97162095Y-112184523D01*
X97066857Y-112279761D01*
X96924000Y-112327380D01*
X96685904Y-112327380D01*
X98162095Y-111327380D02*
X97685904Y-111327380D01*
X97638285Y-111803571D01*
X97685904Y-111755952D01*
X97781142Y-111708333D01*
X98019238Y-111708333D01*
X98114476Y-111755952D01*
X98162095Y-111803571D01*
X98209714Y-111898809D01*
X98209714Y-112136904D01*
X98162095Y-112232142D01*
X98114476Y-112279761D01*
X98019238Y-112327380D01*
X97781142Y-112327380D01*
X97685904Y-112279761D01*
X97638285Y-112232142D01*
D11*
%TO.C,C18*%
X110126233Y-89514901D02*
X110418767Y-89514901D01*
X110126233Y-88494901D02*
X110418767Y-88494901D01*
%TO.C,U4*%
X104729600Y-100038300D02*
X108082400Y-100038300D01*
X108082400Y-96685500D02*
X104729600Y-96685500D01*
%TO.C,C33*%
X131798748Y-82893000D02*
X132321252Y-82893000D01*
X131798748Y-84363000D02*
X132321252Y-84363000D01*
%TO.C,R40*%
X91327276Y-108264500D02*
X91836724Y-108264500D01*
X91327276Y-109309500D02*
X91836724Y-109309500D01*
%TO.C,C34*%
X136893252Y-82893000D02*
X136370748Y-82893000D01*
X136893252Y-84363000D02*
X136370748Y-84363000D01*
%TO.C,D4*%
X84850000Y-108705000D02*
X81550000Y-108705000D01*
X84850000Y-108705000D02*
X84850000Y-115605000D01*
X81550000Y-108705000D02*
X81550000Y-115605000D01*
%TO.C,R50*%
X107569500Y-104976276D02*
X107569500Y-105485724D01*
X108614500Y-104976276D02*
X108614500Y-105485724D01*
%TO.C,R49*%
X86251724Y-99933300D02*
X85742276Y-99933300D01*
X86251724Y-100978300D02*
X85742276Y-100978300D01*
%TO.C,R6*%
X98440724Y-92366000D02*
X97931276Y-92366000D01*
X98440724Y-93411000D02*
X97931276Y-93411000D01*
%TO.C,L3*%
X132192000Y-81718000D02*
X132192000Y-77410000D01*
X136500000Y-77410000D02*
X136500000Y-81718000D01*
%TO.C,R9*%
X85739276Y-89702600D02*
X86248724Y-89702600D01*
X85739276Y-88657600D02*
X86248724Y-88657600D01*
%TO.C,R28*%
X135863000Y-116122737D02*
X135863000Y-114675263D01*
X133153000Y-116122737D02*
X133153000Y-114675263D01*
%TO.C,U5*%
X108138900Y-90376501D02*
X104786100Y-90376501D01*
X104786100Y-93729301D02*
X108138900Y-93729301D01*
%TO.C,L2*%
X134976000Y-98990000D02*
X130668000Y-98990000D01*
X130668000Y-94682000D02*
X134976000Y-94682000D01*
%TO.C,C14*%
X106552267Y-102045000D02*
X106259733Y-102045000D01*
X106552267Y-101025000D02*
X106259733Y-101025000D01*
%TO.C,C20*%
X93616000Y-100512733D02*
X93616000Y-100805267D01*
X92596000Y-100512733D02*
X92596000Y-100805267D01*
%TO.C,C10*%
X103373733Y-107007000D02*
X103666267Y-107007000D01*
X103373733Y-108027000D02*
X103666267Y-108027000D01*
%TO.C,R12*%
X91088500Y-89839776D02*
X91088500Y-90349224D01*
X90043500Y-89839776D02*
X90043500Y-90349224D01*
%TO.C,R38*%
X88449000Y-115860737D02*
X88449000Y-114413263D01*
X91159000Y-115860737D02*
X91159000Y-114413263D01*
%TO.C,R14*%
X140943000Y-126274737D02*
X140943000Y-124827263D01*
X138233000Y-126274737D02*
X138233000Y-124827263D01*
%TO.C,R25*%
X82476263Y-119370000D02*
X83923737Y-119370000D01*
X82476263Y-122080000D02*
X83923737Y-122080000D01*
%TO.C,C21*%
X106259733Y-95823900D02*
X106552267Y-95823900D01*
X106259733Y-94803900D02*
X106552267Y-94803900D01*
%TO.C,R19*%
X83923737Y-127160000D02*
X82476263Y-127160000D01*
X83923737Y-124450000D02*
X82476263Y-124450000D01*
%TO.C,J6*%
X74170000Y-112770000D02*
X76830000Y-112770000D01*
X76830000Y-89850000D02*
X76830000Y-112770000D01*
X74170000Y-88580000D02*
X74170000Y-87250000D01*
X74170000Y-89850000D02*
X74170000Y-112770000D01*
X74170000Y-89850000D02*
X76830000Y-89850000D01*
X74170000Y-87250000D02*
X75500000Y-87250000D01*
%TO.C,R51*%
X85739276Y-95845600D02*
X86248724Y-95845600D01*
X85739276Y-94800600D02*
X86248724Y-94800600D01*
%TO.C,R53*%
X85740376Y-96883400D02*
X86249824Y-96883400D01*
X85740376Y-97928400D02*
X86249824Y-97928400D01*
%TO.C,R31*%
X87556263Y-119370000D02*
X89003737Y-119370000D01*
X87556263Y-122080000D02*
X89003737Y-122080000D01*
%TO.C,D2*%
X94776000Y-80114000D02*
X101676000Y-80114000D01*
X94776000Y-83414000D02*
X101676000Y-83414000D01*
X94776000Y-80114000D02*
X94776000Y-83414000D01*
%TO.C,C6*%
X88532000Y-89948233D02*
X88532000Y-90240767D01*
X89552000Y-89948233D02*
X89552000Y-90240767D01*
%TO.C,R21*%
X99163737Y-127160000D02*
X97716263Y-127160000D01*
X99163737Y-124450000D02*
X97716263Y-124450000D01*
%TO.C,R67*%
X140964500Y-73975276D02*
X140964500Y-74484724D01*
X139919500Y-73975276D02*
X139919500Y-74484724D01*
%TO.C,C9*%
X86140267Y-93265600D02*
X85847733Y-93265600D01*
X86140267Y-94285600D02*
X85847733Y-94285600D01*
%TO.C,D6*%
X108264000Y-112725000D02*
X115164000Y-112725000D01*
X108264000Y-116025000D02*
X115164000Y-116025000D01*
X108264000Y-112725000D02*
X108264000Y-116025000D01*
%TO.C,R2*%
X99903064Y-86484000D02*
X98448936Y-86484000D01*
X99903064Y-84664000D02*
X98448936Y-84664000D01*
%TO.C,C1*%
X98332267Y-95426500D02*
X98039733Y-95426500D01*
X98332267Y-96446500D02*
X98039733Y-96446500D01*
%TO.C,C8*%
X110264800Y-98508167D02*
X110264800Y-98215633D01*
X111284800Y-98508167D02*
X111284800Y-98215633D01*
%TO.C,C12*%
X106058000Y-105377267D02*
X106058000Y-105084733D01*
X107078000Y-105377267D02*
X107078000Y-105084733D01*
%TO.C,R22*%
X135863000Y-121202737D02*
X135863000Y-119755263D01*
X133153000Y-121202737D02*
X133153000Y-119755263D01*
%TO.C,R35*%
X118036263Y-119370000D02*
X119483737Y-119370000D01*
X118036263Y-122080000D02*
X119483737Y-122080000D01*
%TO.C,R54*%
X103265276Y-103946500D02*
X103774724Y-103946500D01*
X103265276Y-104991500D02*
X103774724Y-104991500D01*
%TO.C,U9*%
X134489600Y-73260300D02*
X134489600Y-75266900D01*
X137791600Y-75266900D02*
X137791600Y-73260300D01*
%TO.C,R42*%
X135863000Y-105962737D02*
X135863000Y-104515263D01*
X133153000Y-105962737D02*
X133153000Y-104515263D01*
%TO.C,R47*%
X91836724Y-110833500D02*
X91327276Y-110833500D01*
X91836724Y-109788500D02*
X91327276Y-109788500D01*
%TO.C,R43*%
X103774724Y-109563500D02*
X103265276Y-109563500D01*
X103774724Y-108518500D02*
X103265276Y-108518500D01*
%TO.C,R24*%
X128073000Y-121194737D02*
X128073000Y-119747263D01*
X130783000Y-121194737D02*
X130783000Y-119747263D01*
%TO.C,C23*%
X138009733Y-96072000D02*
X138302267Y-96072000D01*
X138009733Y-97092000D02*
X138302267Y-97092000D01*
%TO.C,R46*%
X91836724Y-105245500D02*
X91327276Y-105245500D01*
X91836724Y-104200500D02*
X91327276Y-104200500D01*
%TO.C,R27*%
X97716263Y-122080000D02*
X99163737Y-122080000D01*
X97716263Y-119370000D02*
X99163737Y-119370000D01*
%TO.C,R3*%
X113838064Y-84623000D02*
X112383936Y-84623000D01*
X113838064Y-86443000D02*
X112383936Y-86443000D01*
%TO.C,R61*%
X130267500Y-91501276D02*
X130267500Y-92010724D01*
X131312500Y-91501276D02*
X131312500Y-92010724D01*
%TO.C,R26*%
X140943000Y-116114737D02*
X140943000Y-114667263D01*
X138233000Y-116114737D02*
X138233000Y-114667263D01*
%TO.C,J7*%
X145290000Y-89850000D02*
X147950000Y-89850000D01*
X145290000Y-88580000D02*
X145290000Y-87250000D01*
X145290000Y-89850000D02*
X145290000Y-112770000D01*
X147950000Y-89850000D02*
X147950000Y-112770000D01*
X145290000Y-112770000D02*
X147950000Y-112770000D01*
X145290000Y-87250000D02*
X146620000Y-87250000D01*
%TO.C,R29*%
X112956263Y-119370000D02*
X114403737Y-119370000D01*
X112956263Y-122080000D02*
X114403737Y-122080000D01*
%TO.C,D3*%
X108711000Y-80073000D02*
X115611000Y-80073000D01*
X108711000Y-80073000D02*
X108711000Y-83373000D01*
X108711000Y-83373000D02*
X115611000Y-83373000D01*
%TO.C,R66*%
X140964500Y-78801276D02*
X140964500Y-79310724D01*
X139919500Y-78801276D02*
X139919500Y-79310724D01*
%TO.C,C31*%
X138891000Y-78794748D02*
X138891000Y-79317252D01*
X137421000Y-78794748D02*
X137421000Y-79317252D01*
%TO.C,C29*%
X127988748Y-88173000D02*
X128511252Y-88173000D01*
X127988748Y-86703000D02*
X128511252Y-86703000D01*
%TO.C,C19*%
X91330000Y-100512733D02*
X91330000Y-100805267D01*
X90310000Y-100512733D02*
X90310000Y-100805267D01*
%TO.C,R20*%
X140943000Y-121194737D02*
X140943000Y-119747263D01*
X138233000Y-121194737D02*
X138233000Y-119747263D01*
%TO.C,R16*%
X133153000Y-126282737D02*
X133153000Y-124835263D01*
X135863000Y-126282737D02*
X135863000Y-124835263D01*
%TO.C,R8*%
X85739276Y-90181600D02*
X86248724Y-90181600D01*
X85739276Y-91226600D02*
X86248724Y-91226600D01*
%TO.C,C4*%
X98332267Y-101546000D02*
X98039733Y-101546000D01*
X98332267Y-102566000D02*
X98039733Y-102566000D01*
%TO.C,C11*%
X85848833Y-98419900D02*
X86141367Y-98419900D01*
X85848833Y-99439900D02*
X86141367Y-99439900D01*
%TO.C,R30*%
X130783000Y-116114737D02*
X130783000Y-114667263D01*
X128073000Y-116114737D02*
X128073000Y-114667263D01*
%TO.C,R15*%
X104243737Y-127160000D02*
X102796263Y-127160000D01*
X104243737Y-124450000D02*
X102796263Y-124450000D01*
%TO.C,R39*%
X140943000Y-105954737D02*
X140943000Y-104507263D01*
X138233000Y-105954737D02*
X138233000Y-104507263D01*
%TO.C,R13*%
X89003737Y-127160000D02*
X87556263Y-127160000D01*
X89003737Y-124450000D02*
X87556263Y-124450000D01*
%TO.C,R32*%
X138233000Y-111034737D02*
X138233000Y-109587263D01*
X140943000Y-111034737D02*
X140943000Y-109587263D01*
%TO.C,U1*%
X89842100Y-97714500D02*
X94337900Y-97714500D01*
X94337900Y-92634500D02*
X89842100Y-92634500D01*
X92394800Y-97727200D02*
G75*
G03*
X91785200Y-97727200I-304800J0D01*
G01*
%TO.C,R52*%
X103774724Y-106515500D02*
X103265276Y-106515500D01*
X103774724Y-105470500D02*
X103265276Y-105470500D01*
%TO.C,C30*%
X128511252Y-96555000D02*
X127988748Y-96555000D01*
X128511252Y-95085000D02*
X127988748Y-95085000D01*
%TO.C,R1*%
X85924064Y-84664000D02*
X84469936Y-84664000D01*
X85924064Y-86484000D02*
X84469936Y-86484000D01*
%TO.C,U7*%
X132161600Y-90079600D02*
X132161600Y-93432400D01*
X135514400Y-93432400D02*
X135514400Y-90079600D01*
%TO.C,R45*%
X130783000Y-105954737D02*
X130783000Y-104507263D01*
X128073000Y-105954737D02*
X128073000Y-104507263D01*
%TO.C,L1*%
X140818000Y-88332000D02*
X140818000Y-92640000D01*
X136510000Y-92640000D02*
X136510000Y-88332000D01*
%TO.C,C2*%
X98332267Y-94922500D02*
X98039733Y-94922500D01*
X98332267Y-93902500D02*
X98039733Y-93902500D01*
%TO.C,C32*%
X132566000Y-74083733D02*
X132566000Y-74376267D01*
X133586000Y-74083733D02*
X133586000Y-74376267D01*
%TO.C,R36*%
X130783000Y-111034737D02*
X130783000Y-109587263D01*
X128073000Y-111034737D02*
X128073000Y-109587263D01*
%TO.C,J4*%
X94430000Y-133725000D02*
X94395000Y-133761000D01*
X102486000Y-136239000D02*
X102451000Y-136274000D01*
X140355000Y-133931000D02*
X140308000Y-133977000D01*
X130195000Y-133931000D02*
X130148000Y-133977000D01*
X138046000Y-136239000D02*
X138011000Y-136274000D01*
X132966000Y-136239000D02*
X132931000Y-136274000D01*
X94635000Y-133931000D02*
X94588000Y-133977000D01*
X107373000Y-136023000D02*
X107326000Y-136069000D01*
X97406000Y-136239000D02*
X97371000Y-136274000D01*
X102293000Y-136023000D02*
X102246000Y-136069000D01*
X80600000Y-137600000D02*
X141680000Y-137600000D01*
X109875000Y-133931000D02*
X109828000Y-133977000D01*
X80360000Y-139160000D02*
X80360000Y-139900000D01*
X135070000Y-133725000D02*
X135035000Y-133761000D01*
X137853000Y-136023000D02*
X137806000Y-136069000D01*
X92133000Y-136023000D02*
X92086000Y-136069000D01*
X80600000Y-132699000D02*
X141680000Y-132699000D01*
X129990000Y-133725000D02*
X129955000Y-133761000D01*
X89555000Y-133931000D02*
X89508000Y-133977000D01*
X114750000Y-133725000D02*
X114715000Y-133761000D01*
X92326000Y-136239000D02*
X92291000Y-136274000D01*
X140150000Y-133725000D02*
X140115000Y-133761000D01*
X117726000Y-136239000D02*
X117691000Y-136274000D01*
X124910000Y-133725000D02*
X124875000Y-133761000D01*
X80600000Y-139660000D02*
X141680000Y-139660000D01*
X104590000Y-133725000D02*
X104555000Y-133761000D01*
X120035000Y-133931000D02*
X119988000Y-133977000D01*
X112453000Y-136023000D02*
X112406000Y-136069000D01*
X107566000Y-136239000D02*
X107531000Y-136274000D01*
X119830000Y-133725000D02*
X119795000Y-133761000D01*
X80360000Y-139900000D02*
X80860000Y-139900000D01*
X80600000Y-139100000D02*
X141680000Y-139100000D01*
X132773000Y-136023000D02*
X132726000Y-136069000D01*
X135275000Y-133931000D02*
X135228000Y-133977000D01*
X80600000Y-129739000D02*
X141680000Y-129739000D01*
X127693000Y-136023000D02*
X127646000Y-136069000D01*
X109670000Y-133725000D02*
X109635000Y-133761000D01*
X141680000Y-129739000D02*
X141680000Y-139660000D01*
X89350000Y-133725000D02*
X89315000Y-133761000D01*
X112646000Y-136239000D02*
X112611000Y-136274000D01*
X127886000Y-136239000D02*
X127851000Y-136274000D01*
X87053000Y-136023000D02*
X87006000Y-136069000D01*
X117533000Y-136023000D02*
X117486000Y-136069000D01*
X104795000Y-133931000D02*
X104748000Y-133977000D01*
X114955000Y-133931000D02*
X114908000Y-133977000D01*
X99715000Y-133931000D02*
X99668000Y-133977000D01*
X122806000Y-136239000D02*
X122771000Y-136274000D01*
X97213000Y-136023000D02*
X97166000Y-136069000D01*
X122613000Y-136023000D02*
X122566000Y-136069000D01*
X87246000Y-136239000D02*
X87211000Y-136274000D01*
X80600000Y-129739000D02*
X80600000Y-139660000D01*
X99510000Y-133725000D02*
X99475000Y-133761000D01*
X125115000Y-133931000D02*
X125068000Y-133977000D01*
X83200000Y-136680000D02*
G75*
G03*
X83883318Y-136534756I0J1680000D01*
G01*
X82516000Y-136535000D02*
G75*
G03*
X83228805Y-136680253I683999J1535001D01*
G01*
X81665000Y-134316000D02*
G75*
G03*
X81664573Y-135683042I1534993J-684001D01*
G01*
X83884000Y-133465000D02*
G75*
G03*
X82516958Y-133464573I-684001J-1534993D01*
G01*
X84735001Y-135684000D02*
G75*
G03*
X84735427Y-134316958I-1535001J684000D01*
G01*
X89960000Y-135000000D02*
G75*
G03*
X89960000Y-135000000I-1680000J0D01*
G01*
X110280000Y-135000000D02*
G75*
G03*
X110280000Y-135000000I-1680000J0D01*
G01*
X100120000Y-135000000D02*
G75*
G03*
X100120000Y-135000000I-1680000J0D01*
G01*
X95040000Y-135000000D02*
G75*
G03*
X95040000Y-135000000I-1680000J0D01*
G01*
X105200000Y-135000000D02*
G75*
G03*
X105200000Y-135000000I-1680000J0D01*
G01*
X125520000Y-135000000D02*
G75*
G03*
X125520000Y-135000000I-1680000J0D01*
G01*
X140760000Y-135000000D02*
G75*
G03*
X140760000Y-135000000I-1680000J0D01*
G01*
X115360000Y-135000000D02*
G75*
G03*
X115360000Y-135000000I-1680000J0D01*
G01*
X130600000Y-135000000D02*
G75*
G03*
X130600000Y-135000000I-1680000J0D01*
G01*
X120440000Y-135000000D02*
G75*
G03*
X120440000Y-135000000I-1680000J0D01*
G01*
X135680000Y-135000000D02*
G75*
G03*
X135680000Y-135000000I-1680000J0D01*
G01*
%TO.C,R11*%
X95660500Y-89839776D02*
X95660500Y-90349224D01*
X94615500Y-89839776D02*
X94615500Y-90349224D01*
%TO.C,R23*%
X114403737Y-127160000D02*
X112956263Y-127160000D01*
X114403737Y-124450000D02*
X112956263Y-124450000D01*
%TO.C,C22*%
X138148748Y-93561000D02*
X138671252Y-93561000D01*
X138148748Y-95031000D02*
X138671252Y-95031000D01*
%TO.C,R4*%
X98440724Y-97983000D02*
X97931276Y-97983000D01*
X98440724Y-96938000D02*
X97931276Y-96938000D01*
%TO.C,J3*%
X110011000Y-73223000D02*
X110011000Y-66723000D01*
X110011000Y-66723000D02*
X108011000Y-66723000D01*
X110011000Y-64123000D02*
X110011000Y-62923000D01*
X115711000Y-62923000D02*
X116211000Y-62923000D01*
X110011000Y-77623000D02*
X110011000Y-76423000D01*
X110511000Y-60423000D02*
X115711000Y-60423000D01*
X110011000Y-64123000D02*
X108011000Y-64123000D01*
X110511000Y-62923000D02*
X110511000Y-60423000D01*
X115711000Y-60423000D02*
X115711000Y-62923000D01*
X116211000Y-77623000D02*
X110011000Y-77623000D01*
X110011000Y-62923000D02*
X110511000Y-62923000D01*
X116211000Y-62923000D02*
X116211000Y-66123000D01*
X116211000Y-68723000D02*
X116211000Y-77623000D01*
%TO.C,R7*%
X98440724Y-90842000D02*
X97931276Y-90842000D01*
X98440724Y-91887000D02*
X97931276Y-91887000D01*
%TO.C,J1*%
X88297000Y-62964000D02*
X88297000Y-66164000D01*
X87797000Y-62964000D02*
X88297000Y-62964000D01*
X82097000Y-73264000D02*
X82097000Y-66764000D01*
X88297000Y-68764000D02*
X88297000Y-77664000D01*
X82097000Y-62964000D02*
X82597000Y-62964000D01*
X82097000Y-77664000D02*
X82097000Y-76464000D01*
X88297000Y-77664000D02*
X82097000Y-77664000D01*
X82097000Y-66764000D02*
X80097000Y-66764000D01*
X87797000Y-60464000D02*
X87797000Y-62964000D01*
X82597000Y-60464000D02*
X87797000Y-60464000D01*
X82097000Y-64164000D02*
X80097000Y-64164000D01*
X82597000Y-62964000D02*
X82597000Y-60464000D01*
X82097000Y-64164000D02*
X82097000Y-62964000D01*
%TO.C,C17*%
X106608767Y-89514901D02*
X106316233Y-89514901D01*
X106608767Y-88494901D02*
X106316233Y-88494901D01*
%TO.C,D1*%
X80797000Y-80114000D02*
X80797000Y-83414000D01*
X80797000Y-80114000D02*
X87697000Y-80114000D01*
X80797000Y-83414000D02*
X87697000Y-83414000D01*
%TO.C,R33*%
X102796263Y-122080000D02*
X104243737Y-122080000D01*
X102796263Y-119370000D02*
X104243737Y-119370000D01*
%TO.C,R5*%
X98440724Y-98462000D02*
X97931276Y-98462000D01*
X98440724Y-99507000D02*
X97931276Y-99507000D01*
%TO.C,R37*%
X91327276Y-106769500D02*
X91836724Y-106769500D01*
X91327276Y-105724500D02*
X91836724Y-105724500D01*
%TO.C,R10*%
X98440724Y-100009500D02*
X97931276Y-100009500D01*
X98440724Y-101054500D02*
X97931276Y-101054500D01*
%TO.C,R18*%
X128073000Y-126274737D02*
X128073000Y-124827263D01*
X130783000Y-126274737D02*
X130783000Y-124827263D01*
%TO.C,C5*%
X93104000Y-89948233D02*
X93104000Y-90240767D01*
X94124000Y-89948233D02*
X94124000Y-90240767D01*
%TO.C,R17*%
X119483737Y-124450000D02*
X118036263Y-124450000D01*
X119483737Y-127160000D02*
X118036263Y-127160000D01*
%TO.C,C15*%
X110069733Y-101025000D02*
X110362267Y-101025000D01*
X110069733Y-102045000D02*
X110362267Y-102045000D01*
%TO.C,R41*%
X103689000Y-115860737D02*
X103689000Y-114413263D01*
X106399000Y-115860737D02*
X106399000Y-114413263D01*
%TO.C,R34*%
X135863000Y-111042737D02*
X135863000Y-109595263D01*
X133153000Y-111042737D02*
X133153000Y-109595263D01*
%TO.C,C7*%
X111366700Y-92178967D02*
X111366700Y-91886433D01*
X110346700Y-92178967D02*
X110346700Y-91886433D01*
%TO.C,J5*%
X141685000Y-70261000D02*
X141685000Y-60340000D01*
X141925000Y-60100000D02*
X141425000Y-60100000D01*
X135039000Y-63761000D02*
X135074000Y-63726000D01*
X135232000Y-63977000D02*
X135279000Y-63931000D01*
X132730000Y-66069000D02*
X132777000Y-66023000D01*
X141685000Y-60340000D02*
X131405000Y-60340000D01*
X132935000Y-66275000D02*
X132970000Y-66239000D01*
X141685000Y-62400000D02*
X131405000Y-62400000D01*
X141685000Y-67301000D02*
X131405000Y-67301000D01*
X131405000Y-70261000D02*
X131405000Y-60340000D01*
X141685000Y-70261000D02*
X131405000Y-70261000D01*
X141685000Y-60900000D02*
X131405000Y-60900000D01*
X141925000Y-60840000D02*
X141925000Y-60100000D01*
X137549999Y-64316000D02*
G75*
G03*
X137549573Y-65683042I1535001J-684000D01*
G01*
X140620000Y-65684000D02*
G75*
G03*
X140620427Y-64316958I-1534993J684001D01*
G01*
X139769000Y-63465000D02*
G75*
G03*
X139056195Y-63319747I-683999J-1535001D01*
G01*
X139085000Y-63320000D02*
G75*
G03*
X138401682Y-63465244I0J-1680000D01*
G01*
X138401000Y-66535000D02*
G75*
G03*
X139768042Y-66535427I684001J1534993D01*
G01*
X135685000Y-65000000D02*
G75*
G03*
X135685000Y-65000000I-1680000J0D01*
G01*
%TO.C,C3*%
X85847733Y-91718100D02*
X86140267Y-91718100D01*
X85847733Y-92738100D02*
X86140267Y-92738100D01*
%TO.C,J2*%
X96076000Y-77664000D02*
X96076000Y-76464000D01*
X96076000Y-73264000D02*
X96076000Y-66764000D01*
X96076000Y-64164000D02*
X94076000Y-64164000D01*
X101776000Y-60464000D02*
X101776000Y-62964000D01*
X96076000Y-62964000D02*
X96576000Y-62964000D01*
X96576000Y-60464000D02*
X101776000Y-60464000D01*
X102276000Y-77664000D02*
X96076000Y-77664000D01*
X102276000Y-68764000D02*
X102276000Y-77664000D01*
X101776000Y-62964000D02*
X102276000Y-62964000D01*
X96576000Y-62964000D02*
X96576000Y-60464000D01*
X96076000Y-66764000D02*
X94076000Y-66764000D01*
X102276000Y-62964000D02*
X102276000Y-66164000D01*
X96076000Y-64164000D02*
X96076000Y-62964000D01*
%TO.C,R48*%
X103265276Y-110320000D02*
X103774724Y-110320000D01*
X103265276Y-111365000D02*
X103774724Y-111365000D01*
%TO.C,R44*%
X121639000Y-115860737D02*
X121639000Y-114413263D01*
X118929000Y-115860737D02*
X118929000Y-114413263D01*
%TO.C,U2*%
X99671900Y-104977000D02*
X95176100Y-104977000D01*
X95176100Y-110057000D02*
X99671900Y-110057000D01*
X97119200Y-104964300D02*
G75*
G03*
X97728800Y-104964300I304800J0D01*
G01*
%TO.C,D5*%
X93024000Y-112725000D02*
X93024000Y-116025000D01*
X93024000Y-116025000D02*
X99924000Y-116025000D01*
X93024000Y-112725000D02*
X99924000Y-112725000D01*
%TD*%
M02*
