M48
; DRILL file {KiCad (6.0.8)} date Fri Nov  4 20:37:49 2022
; FORMAT={-:-/ absolute / inch / decimal}
; #@! TF.CreationDate,2022-11-04T20:37:49+01:00
; #@! TF.GenerationSoftware,Kicad,Pcbnew,(6.0.8)
; #@! TF.FileFunction,MixedPlating,1,4
FMAT,2
INCH
; #@! TA.AperFunction,Plated,PTH,ComponentDrill
T1C0.0079
; #@! TA.AperFunction,Plated,PTH,ViaDrill
T2C0.0157
; #@! TA.AperFunction,Plated,PTH,ComponentDrill
T3C0.0394
; #@! TA.AperFunction,Plated,PTH,ComponentDrill
T4C0.0512
; #@! TA.AperFunction,NonPlated,NPTH,ComponentDrill
T5C0.0669
%
G90
G05
T1
X5.0365Y-3.5809
X5.0365Y-3.6439
X5.0542Y-3.6124
X5.0719Y-3.5809
X5.0719Y-3.6439
T2
X3.24Y-3.3
X3.2932Y-3.3132
X3.315Y-3.6
X3.315Y-3.6589
X3.3756Y-4.383
X3.455Y-4.075
X3.455Y-4.12
X3.465Y-3.85
X3.5056Y-3.633
X3.52Y-4.18
X3.53Y-3.98
X3.5344Y-4.2544
X3.5893Y-3.7583
X3.6165Y-3.9504
X3.62Y-3.79
X3.62Y-4.0
X3.653Y-3.7576
X3.68Y-3.79
X3.72Y-3.96
X3.7356Y-4.433
X3.74Y-3.92
X3.7756Y-4.153
X3.7756Y-4.313
X3.78Y-3.32
X3.8092Y-4.2312
X3.84Y-4.17
X3.8435Y-3.3265
X3.8673Y-3.8091
X3.8673Y-3.685
X3.8695Y-3.7466
X3.8892Y-4.2324
X3.8934Y-4.3155
X3.9Y-4.075
X3.925Y-4.12
X4.02Y-3.89
X4.0227Y-3.6227
X4.04Y-3.52
X4.04Y-4.04
X4.05Y-3.66
X4.05Y-3.86
X4.0785Y-3.8002
X4.08Y-3.5439
X4.1Y-4.0
X4.12Y-3.78
X4.14Y-3.5435
X4.16Y-4.24
X4.16Y-4.29
X4.1832Y-3.9593
X4.19Y-3.91
X4.2356Y-3.7016
X4.2592Y-3.9524
X4.2592Y-4.0524
X4.27Y-3.465
X4.32Y-3.3
X4.33Y-3.56
X4.3356Y-4.433
X4.38Y-3.3
X4.42Y-3.55
X4.42Y-4.03
X4.44Y-3.82
X4.4906Y-3.4885
X4.5072Y-3.7404
X4.67Y-3.61
X4.9505Y-3.5409
X4.96Y-3.44
X4.96Y-3.78
X5.0056Y-4.083
X5.0084Y-3.5116
X5.0092Y-3.7124
X5.09Y-3.71
X5.095Y-3.295
X5.1Y-3.85
X5.11Y-3.5
X5.16Y-3.21
X5.1956Y-4.083
X5.2192Y-2.6874
X5.2284Y-3.5116
X5.25Y-3.71
X5.2742Y-2.6874
X5.2892Y-3.0124
X5.2892Y-3.5124
X5.3292Y-2.6874
X5.35Y-3.61
X5.3842Y-3.1524
X5.3956Y-4.083
X5.45Y-3.75
X5.4792Y-3.2924
X5.4842Y-3.0174
X5.4892Y-3.1124
X5.51Y-3.83
X5.5292Y-2.8324
X5.5709Y-3.4449
T3
X2.9724Y-3.4874
X2.9724Y-3.5874
X2.9724Y-3.6874
X2.9724Y-3.7874
X2.9724Y-3.8874
X2.9724Y-3.9874
X2.9724Y-4.0874
X2.9724Y-4.1874
X2.9724Y-4.2874
X2.9724Y-4.3874
X5.7724Y-3.4874
X5.7724Y-3.5874
X5.7724Y-3.6874
X5.7724Y-3.7874
X5.7724Y-3.8874
X5.7724Y-3.9874
X5.7724Y-4.0874
X5.7724Y-4.1874
X5.7724Y-4.2874
X5.7724Y-4.3874
T4
X3.2756Y-5.315
X3.4756Y-5.315
X3.6756Y-5.315
X3.8756Y-5.315
X4.0756Y-5.315
X4.2756Y-5.315
X4.4756Y-5.315
X4.6756Y-5.315
X4.8756Y-5.315
X5.0756Y-5.315
X5.2756Y-5.315
X5.2758Y-2.5591
X5.4756Y-5.315
X5.4758Y-2.5591
T5
X3.3542Y-2.6206
X3.3542Y-2.8962
X3.9046Y-2.6206
X3.9046Y-2.8962
X4.4532Y-2.619
X4.4532Y-2.8946
T0
M30
