%TF.GenerationSoftware,KiCad,Pcbnew,(6.0.8)*%
%TF.CreationDate,2022-11-04T20:36:36+01:00*%
%TF.ProjectId,Power_Meter,506f7765-725f-44d6-9574-65722e6b6963,rev?*%
%TF.SameCoordinates,Original*%
%TF.FileFunction,Soldermask,Bot*%
%TF.FilePolarity,Negative*%
%FSLAX46Y46*%
G04 Gerber Fmt 4.6, Leading zero omitted, Abs format (unit mm)*
G04 Created by KiCad (PCBNEW (6.0.8)) date 2022-11-04 20:36:36*
%MOMM*%
%LPD*%
G01*
G04 APERTURE LIST*
G04 Aperture macros list*
%AMRoundRect*
0 Rectangle with rounded corners*
0 $1 Rounding radius*
0 $2 $3 $4 $5 $6 $7 $8 $9 X,Y pos of 4 corners*
0 Add a 4 corners polygon primitive as box body*
4,1,4,$2,$3,$4,$5,$6,$7,$8,$9,$2,$3,0*
0 Add four circle primitives for the rounded corners*
1,1,$1+$1,$2,$3*
1,1,$1+$1,$4,$5*
1,1,$1+$1,$6,$7*
1,1,$1+$1,$8,$9*
0 Add four rect primitives between the rounded corners*
20,1,$1+$1,$2,$3,$4,$5,0*
20,1,$1+$1,$4,$5,$6,$7,0*
20,1,$1+$1,$6,$7,$8,$9,0*
20,1,$1+$1,$8,$9,$2,$3,0*%
%AMFreePoly0*
4,1,21,1.372500,0.787500,0.862500,0.787500,0.862500,0.532500,1.372500,0.532500,1.372500,0.127500,0.862500,0.127500,0.862500,-0.127500,1.372500,-0.127500,1.372500,-0.532500,0.862500,-0.532500,0.862500,-0.787500,1.372500,-0.787500,1.372500,-1.195000,0.612500,-1.195000,0.612500,-1.117500,-0.862500,-1.117500,-0.862500,1.117500,0.612500,1.117500,0.612500,1.195000,1.372500,1.195000,
1.372500,0.787500,1.372500,0.787500,$1*%
G04 Aperture macros list end*
%ADD10R,1.700000X1.700000*%
%ADD11O,1.700000X1.700000*%
%ADD12R,2.600000X2.600000*%
%ADD13C,2.600000*%
%ADD14C,1.700000*%
%ADD15RoundRect,0.237500X0.250000X0.237500X-0.250000X0.237500X-0.250000X-0.237500X0.250000X-0.237500X0*%
%ADD16R,0.600000X0.700000*%
%ADD17RoundRect,0.250000X-0.337500X-0.475000X0.337500X-0.475000X0.337500X0.475000X-0.337500X0.475000X0*%
%ADD18RoundRect,0.250000X0.337500X0.475000X-0.337500X0.475000X-0.337500X-0.475000X0.337500X-0.475000X0*%
%ADD19FreePoly0,90.000000*%
%ADD20R,0.405000X0.990000*%
%ADD21RoundRect,0.237500X-0.300000X-0.237500X0.300000X-0.237500X0.300000X0.237500X-0.300000X0.237500X0*%
%ADD22R,0.584200X0.228600*%
%ADD23C,0.500000*%
%ADD24R,1.625600X2.393800*%
%ADD25R,1.625600X2.387600*%
%ADD26RoundRect,0.237500X-0.237500X0.250000X-0.237500X-0.250000X0.237500X-0.250000X0.237500X0.250000X0*%
%ADD27RoundRect,0.237500X0.300000X0.237500X-0.300000X0.237500X-0.300000X-0.237500X0.300000X-0.237500X0*%
%ADD28RoundRect,0.237500X0.237500X-0.250000X0.237500X0.250000X-0.237500X0.250000X-0.237500X-0.250000X0*%
%ADD29RoundRect,0.237500X-0.250000X-0.237500X0.250000X-0.237500X0.250000X0.237500X-0.250000X0.237500X0*%
%ADD30R,0.500000X0.500000*%
%ADD31R,0.355600X1.473200*%
%ADD32R,0.431800X1.778000*%
%ADD33RoundRect,0.237500X0.237500X-0.300000X0.237500X0.300000X-0.237500X0.300000X-0.237500X-0.300000X0*%
G04 APERTURE END LIST*
D10*
%TO.C,J6*%
X75500000Y-88580000D03*
D11*
X75500000Y-91120000D03*
X75500000Y-93660000D03*
X75500000Y-96200000D03*
X75500000Y-98740000D03*
X75500000Y-101280000D03*
X75500000Y-103820000D03*
X75500000Y-106360000D03*
X75500000Y-108900000D03*
X75500000Y-111440000D03*
%TD*%
D10*
%TO.C,J7*%
X146620000Y-88580000D03*
D11*
X146620000Y-91120000D03*
X146620000Y-93660000D03*
X146620000Y-96200000D03*
X146620000Y-98740000D03*
X146620000Y-101280000D03*
X146620000Y-103820000D03*
X146620000Y-106360000D03*
X146620000Y-108900000D03*
X146620000Y-111440000D03*
%TD*%
D12*
%TO.C,J4*%
X83200000Y-135000000D03*
D13*
X88280000Y-135000000D03*
X93360000Y-135000000D03*
X98440000Y-135000000D03*
X103520000Y-135000000D03*
X108600000Y-135000000D03*
X113680000Y-135000000D03*
X118760000Y-135000000D03*
X123840000Y-135000000D03*
X128920000Y-135000000D03*
X134000000Y-135000000D03*
X139080000Y-135000000D03*
%TD*%
D14*
%TO.C,J3*%
X113111000Y-66523000D03*
X113111000Y-73523000D03*
%TD*%
%TO.C,J1*%
X85197000Y-73564000D03*
X85197000Y-66564000D03*
%TD*%
D12*
%TO.C,J5*%
X139085000Y-65000000D03*
D13*
X134005000Y-65000000D03*
%TD*%
D14*
%TO.C,J2*%
X99176000Y-66564000D03*
X99176000Y-73564000D03*
%TD*%
D15*
%TO.C,R64*%
X124995000Y-94296000D03*
X123170000Y-94296000D03*
%TD*%
D16*
%TO.C,D9*%
X139514500Y-74992000D03*
X138114500Y-74992000D03*
%TD*%
D17*
%TO.C,C35*%
X136077952Y-78675000D03*
X138152952Y-78675000D03*
%TD*%
D18*
%TO.C,C25*%
X133605500Y-95820000D03*
X131530500Y-95820000D03*
%TD*%
D19*
%TO.C,Q1*%
X137267000Y-70751500D03*
D20*
X136277000Y-72744000D03*
X136937000Y-72744000D03*
X137597000Y-72744000D03*
X138257000Y-72744000D03*
%TD*%
D21*
%TO.C,C13*%
X97415500Y-108520000D03*
X99140500Y-108520000D03*
%TD*%
D22*
%TO.C,U8*%
X129777000Y-90755999D03*
X129777000Y-91255998D03*
X129777000Y-91756000D03*
X129777000Y-92255999D03*
X129777000Y-92756001D03*
X126977000Y-92756001D03*
X126977000Y-92256002D03*
X126977000Y-91756000D03*
X126977000Y-91256001D03*
X126977000Y-90755999D03*
D23*
X128377000Y-91756000D03*
D24*
X128377000Y-91756000D03*
D23*
X127927000Y-90956000D03*
X127927000Y-92556000D03*
X128827000Y-90956000D03*
X128827000Y-92556000D03*
D25*
X128377000Y-91756000D03*
%TD*%
D26*
%TO.C,R57*%
X115499200Y-96025100D03*
X115499200Y-97850100D03*
%TD*%
D27*
%TO.C,C27*%
X125048500Y-87184000D03*
X123323500Y-87184000D03*
%TD*%
D18*
%TO.C,C24*%
X134875500Y-87946000D03*
X132800500Y-87946000D03*
%TD*%
D21*
%TO.C,C28*%
X123220000Y-96074000D03*
X124945000Y-96074000D03*
%TD*%
D28*
%TO.C,R59*%
X109606400Y-94090900D03*
X109606400Y-92265900D03*
%TD*%
D29*
%TO.C,R62*%
X123273500Y-88962000D03*
X125098500Y-88962000D03*
%TD*%
%TO.C,R65*%
X123170000Y-90740000D03*
X124995000Y-90740000D03*
%TD*%
D27*
%TO.C,C16*%
X92536500Y-94296000D03*
X90811500Y-94296000D03*
%TD*%
D26*
%TO.C,R56*%
X109606400Y-96050500D03*
X109606400Y-97875500D03*
%TD*%
D15*
%TO.C,R58*%
X113465300Y-94092800D03*
X111640300Y-94092800D03*
%TD*%
D30*
%TO.C,D7*%
X113652800Y-98106000D03*
X111452800Y-98106000D03*
%TD*%
%TO.C,D8*%
X113703600Y-91857600D03*
X111503600Y-91857600D03*
%TD*%
D29*
%TO.C,R68*%
X134346000Y-74992000D03*
X136171000Y-74992000D03*
%TD*%
D31*
%TO.C,U3*%
X94237999Y-103605400D03*
X93588001Y-103605400D03*
X92937999Y-103605400D03*
X92288001Y-103605400D03*
X91638002Y-103605400D03*
X90988001Y-103605400D03*
X90338002Y-103605400D03*
X89688001Y-103605400D03*
X89688001Y-97966600D03*
X90337999Y-97966600D03*
X90988001Y-97966600D03*
X91637999Y-97966600D03*
X92287998Y-97966600D03*
X92937999Y-97966600D03*
X93587998Y-97966600D03*
X94237999Y-97966600D03*
%TD*%
D29*
%TO.C,R63*%
X123170000Y-92518000D03*
X124995000Y-92518000D03*
%TD*%
D28*
%TO.C,R60*%
X115499200Y-94090900D03*
X115499200Y-92265900D03*
%TD*%
D32*
%TO.C,U6*%
X105481801Y-93013300D03*
X106131799Y-93013300D03*
X106781801Y-93013300D03*
X107431799Y-93013300D03*
X107431799Y-97102700D03*
X106781801Y-97102700D03*
X106131799Y-97102700D03*
X105481801Y-97102700D03*
%TD*%
D15*
%TO.C,R55*%
X113465300Y-96023200D03*
X111640300Y-96023200D03*
%TD*%
D33*
%TO.C,C26*%
X131298000Y-91602500D03*
X131298000Y-89877500D03*
%TD*%
M02*
