%TF.GenerationSoftware,KiCad,Pcbnew,(6.0.8)*%
%TF.CreationDate,2022-11-04T20:36:36+01:00*%
%TF.ProjectId,Power_Meter,506f7765-725f-44d6-9574-65722e6b6963,rev?*%
%TF.SameCoordinates,Original*%
%TF.FileFunction,Profile,NP*%
%FSLAX46Y46*%
G04 Gerber Fmt 4.6, Leading zero omitted, Abs format (unit mm)*
G04 Created by KiCad (PCBNEW (6.0.8)) date 2022-11-04 20:36:36*
%MOMM*%
%LPD*%
G01*
G04 APERTURE LIST*
%TA.AperFunction,Profile*%
%ADD10C,0.100000*%
%TD*%
G04 APERTURE END LIST*
D10*
X141484000Y-120979000D02*
X127650000Y-120971000D01*
X106686000Y-115637000D02*
X103266000Y-115637000D01*
X141484000Y-115899000D02*
X127650000Y-115891000D01*
X118250000Y-124305000D02*
G75*
G03*
X117750000Y-123805000I-500000J0D01*
G01*
X127650000Y-119971000D02*
G75*
G03*
X127650000Y-120971000I0J-500000D01*
G01*
X117500000Y-122805000D02*
X114750000Y-122805000D01*
X98000000Y-124555000D02*
X98000000Y-127555000D01*
X119250000Y-119055000D02*
G75*
G03*
X118250000Y-119055000I-500000J0D01*
G01*
X103000000Y-124555000D02*
X103000000Y-127555000D01*
X109500000Y-119055000D02*
X109500000Y-127555000D01*
X87250000Y-122805000D02*
X87000000Y-122805000D01*
X104000000Y-119055000D02*
G75*
G03*
X103000000Y-119055000I-500000J0D01*
G01*
X123848000Y-127555000D02*
X123848000Y-119055000D01*
X119250000Y-122305000D02*
G75*
G03*
X119750000Y-122805000I500000J0D01*
G01*
X123848000Y-127555000D02*
G75*
G03*
X124848000Y-127555000I500000J0D01*
G01*
X89250000Y-122805000D02*
X90500000Y-122805000D01*
X82750000Y-122555000D02*
X82750000Y-124555000D01*
X114250000Y-124555000D02*
X114250000Y-124305000D01*
X113250000Y-124555000D02*
X113250000Y-127555000D01*
X104000000Y-127305000D02*
X104000000Y-127555000D01*
X114250000Y-119055000D02*
X114250000Y-122305000D01*
X113250000Y-122555000D02*
X113250000Y-124555000D01*
X124848000Y-119055000D02*
X124848000Y-127555000D01*
X119250000Y-124305000D02*
X119250000Y-127305000D01*
X98000000Y-119055000D02*
X98000000Y-122555000D01*
X89250000Y-123805000D02*
X90500000Y-123805000D01*
X127650000Y-104731000D02*
X141484000Y-104739000D01*
X127650000Y-104731000D02*
G75*
G03*
X127650000Y-105731000I0J-500000D01*
G01*
X141366000Y-126059000D02*
X127532000Y-126051000D01*
X88162000Y-114629000D02*
G75*
G03*
X88162000Y-115629000I0J-500000D01*
G01*
X88750000Y-119055000D02*
G75*
G03*
X87750000Y-119055000I-500000J0D01*
G01*
X118574000Y-114645000D02*
X121994000Y-114645000D01*
X88162000Y-114629000D02*
X91582000Y-114629000D01*
X127532000Y-125051000D02*
X141366000Y-125059000D01*
X127532000Y-125051000D02*
G75*
G03*
X127532000Y-126051000I0J-500000D01*
G01*
X109500000Y-119055000D02*
G75*
G03*
X108500000Y-119055000I-500000J0D01*
G01*
X104000000Y-119055000D02*
X104000000Y-122305000D01*
X94250000Y-119055000D02*
G75*
G03*
X93250000Y-119055000I-500000J0D01*
G01*
X119750000Y-122805000D02*
X121000000Y-122805000D01*
X121994000Y-115645000D02*
G75*
G03*
X121994000Y-114645000I0J500000D01*
G01*
X88750000Y-127305000D02*
X88750000Y-127555000D01*
X99000000Y-124555000D02*
X99000000Y-124305000D01*
X108500000Y-127555000D02*
X108500000Y-119055000D01*
X118250000Y-119055000D02*
X118250000Y-122305000D01*
X82750000Y-124555000D02*
X82750000Y-127555000D01*
X114250000Y-122305000D02*
G75*
G03*
X114750000Y-122805000I500000J0D01*
G01*
X89250000Y-123805000D02*
G75*
G03*
X88750000Y-124305000I0J-500000D01*
G01*
X105750000Y-123805000D02*
G75*
G03*
X105750000Y-122805000I0J500000D01*
G01*
X141484000Y-110819000D02*
G75*
G03*
X141484000Y-109819000I0J500000D01*
G01*
X99000000Y-122305000D02*
G75*
G03*
X99500000Y-122805000I500000J0D01*
G01*
X104000000Y-124305000D02*
X104000000Y-127305000D01*
X118250000Y-127555000D02*
G75*
G03*
X119250000Y-127555000I500000J0D01*
G01*
X124848000Y-119055000D02*
G75*
G03*
X123848000Y-119055000I-500000J0D01*
G01*
X87750000Y-127555000D02*
G75*
G03*
X88750000Y-127555000I500000J0D01*
G01*
X98000000Y-127555000D02*
G75*
G03*
X99000000Y-127555000I500000J0D01*
G01*
X117750000Y-122805000D02*
X117500000Y-122805000D01*
X88750000Y-119055000D02*
X88750000Y-122305000D01*
X104000000Y-122305000D02*
G75*
G03*
X104500000Y-122805000I500000J0D01*
G01*
X102500000Y-123805000D02*
X99500000Y-123805000D01*
X121994000Y-115645000D02*
X118574000Y-115645000D01*
X99500000Y-123805000D02*
G75*
G03*
X99000000Y-124305000I0J-500000D01*
G01*
X127650000Y-109811000D02*
X141484000Y-109819000D01*
X106686000Y-115637000D02*
G75*
G03*
X106686000Y-114637000I0J500000D01*
G01*
X103000000Y-119055000D02*
X103000000Y-122305000D01*
X119250000Y-127305000D02*
X119250000Y-127555000D01*
X76000000Y-125000000D02*
G75*
G03*
X76000000Y-125000000I-1500000J0D01*
G01*
X118574000Y-114645000D02*
G75*
G03*
X118574000Y-115645000I0J-500000D01*
G01*
X141366000Y-126059000D02*
G75*
G03*
X141366000Y-125059000I0J500000D01*
G01*
X83750000Y-124555000D02*
X83750000Y-127555000D01*
X99000000Y-124555000D02*
X99000000Y-127555000D01*
X99000000Y-119055000D02*
X99000000Y-122305000D01*
X117750000Y-123805000D02*
X114750000Y-123805000D01*
X83750000Y-119055000D02*
X83750000Y-122305000D01*
X103266000Y-114637000D02*
G75*
G03*
X103266000Y-115637000I0J-500000D01*
G01*
X102250000Y-122805000D02*
X99500000Y-122805000D01*
X88750000Y-122305000D02*
G75*
G03*
X89250000Y-122805000I500000J0D01*
G01*
X103266000Y-114637000D02*
X106686000Y-114637000D01*
X103000000Y-124555000D02*
X103000000Y-124305000D01*
X103000000Y-127555000D02*
G75*
G03*
X104000000Y-127555000I500000J0D01*
G01*
X127650000Y-114891000D02*
G75*
G03*
X127650000Y-115891000I0J-500000D01*
G01*
X114250000Y-119055000D02*
G75*
G03*
X113250000Y-119055000I-500000J0D01*
G01*
X104500000Y-123805000D02*
X105750000Y-123805000D01*
X119250000Y-119055000D02*
X119250000Y-122305000D01*
X149000000Y-75000000D02*
G75*
G03*
X149000000Y-75000000I-1500000J0D01*
G01*
X91582000Y-115629000D02*
G75*
G03*
X91582000Y-114629000I0J500000D01*
G01*
X104500000Y-122805000D02*
X105750000Y-122805000D01*
X87750000Y-124555000D02*
X87750000Y-127555000D01*
X127650000Y-119971000D02*
X141484000Y-119979000D01*
X93250000Y-127555000D02*
G75*
G03*
X94250000Y-127555000I500000J0D01*
G01*
X88750000Y-124305000D02*
X88750000Y-127305000D01*
X141484000Y-115899000D02*
G75*
G03*
X141484000Y-114899000I0J500000D01*
G01*
X104500000Y-123805000D02*
G75*
G03*
X104000000Y-124305000I0J-500000D01*
G01*
X82750000Y-127555000D02*
G75*
G03*
X83750000Y-127555000I500000J0D01*
G01*
X93250000Y-127555000D02*
X93250000Y-119055000D01*
X98000000Y-122555000D02*
X98000000Y-124555000D01*
X102500000Y-122805000D02*
G75*
G03*
X103000000Y-122305000I0J500000D01*
G01*
X141484000Y-120979000D02*
G75*
G03*
X141484000Y-119979000I0J500000D01*
G01*
X127650000Y-109811000D02*
G75*
G03*
X127650000Y-110811000I0J-500000D01*
G01*
X117750000Y-122805000D02*
G75*
G03*
X118250000Y-122305000I0J500000D01*
G01*
X87750000Y-124305000D02*
G75*
G03*
X87250000Y-123805000I-500000J0D01*
G01*
X82750000Y-119055000D02*
X82750000Y-122555000D01*
X90500000Y-123805000D02*
G75*
G03*
X90500000Y-122805000I0J500000D01*
G01*
X141484000Y-105739000D02*
X127650000Y-105731000D01*
X127650000Y-114891000D02*
X141484000Y-114899000D01*
X83750000Y-119055000D02*
G75*
G03*
X82750000Y-119055000I-500000J0D01*
G01*
X87000000Y-122805000D02*
X84250000Y-122805000D01*
X149000000Y-125000000D02*
G75*
G03*
X149000000Y-125000000I-1500000J0D01*
G01*
X141484000Y-110819000D02*
X127650000Y-110811000D01*
X113250000Y-119055000D02*
X113250000Y-122555000D01*
X70000000Y-60000000D02*
X152000000Y-60000000D01*
X152000000Y-60000000D02*
X152000000Y-140000000D01*
X152000000Y-140000000D02*
X70000000Y-140000000D01*
X70000000Y-140000000D02*
X70000000Y-60000000D01*
X91582000Y-115629000D02*
X88162000Y-115629000D01*
X102500000Y-122805000D02*
X102250000Y-122805000D01*
X87750000Y-124555000D02*
X87750000Y-124305000D01*
X76000000Y-75000000D02*
G75*
G03*
X76000000Y-75000000I-1500000J0D01*
G01*
X83750000Y-122305000D02*
G75*
G03*
X84250000Y-122805000I500000J0D01*
G01*
X113250000Y-127555000D02*
G75*
G03*
X114250000Y-127555000I500000J0D01*
G01*
X87750000Y-119055000D02*
X87750000Y-122305000D01*
X114750000Y-123805000D02*
G75*
G03*
X114250000Y-124305000I0J-500000D01*
G01*
X87250000Y-122805000D02*
G75*
G03*
X87750000Y-122305000I0J500000D01*
G01*
X119750000Y-123805000D02*
G75*
G03*
X119250000Y-124305000I0J-500000D01*
G01*
X119750000Y-123805000D02*
X121000000Y-123805000D01*
X114250000Y-124555000D02*
X114250000Y-127555000D01*
X141484000Y-105739000D02*
G75*
G03*
X141484000Y-104739000I0J500000D01*
G01*
X118250000Y-124555000D02*
X118250000Y-127555000D01*
X121000000Y-123805000D02*
G75*
G03*
X121000000Y-122805000I0J500000D01*
G01*
X83750000Y-124555000D02*
X83750000Y-124305000D01*
X84250000Y-123805000D02*
G75*
G03*
X83750000Y-124305000I0J-500000D01*
G01*
X118250000Y-124555000D02*
X118250000Y-124305000D01*
X103000000Y-124305000D02*
G75*
G03*
X102500000Y-123805000I-500000J0D01*
G01*
X108500000Y-127555000D02*
G75*
G03*
X109500000Y-127555000I500000J0D01*
G01*
X87250000Y-123805000D02*
X84250000Y-123805000D01*
X94250000Y-119055000D02*
X94250000Y-127555000D01*
X99000000Y-119055000D02*
G75*
G03*
X98000000Y-119055000I-500000J0D01*
G01*
M02*
